<?xml version="1.0" standalone="yes"?>
<!DOCTYPE svg PUBLIC "-//W3C//DTD SVG 1.1//EN"
 "http://www.w3.org/Graphics/SVG/1.1/DTD/svg11.dtd">
<svg xmlns="http://www.w3.org/2000/svg" version="1.1"
  width="100%" height="100%" viewBox="0 0 1024 768"
  style="fill: none; font-family: Helvetica;
 font: Helvetica;
">

<!-- Creator: NGspice -->

<rect x="0" y="0" width="1024" height="768" fill="black" stroke="none"/>
"/>
<text stroke="none" fill="white" font-size="16" x="358" y="752">
time
</text>
<text stroke="none" fill="white" font-size="16" x="10" y="16">
tran1: * e:\self\hackathon\mixed_signal_soc_design_marathon\vinayak\self-correcting-message-system-using-hamming-code\self_correcting_message_system\self_correcting_message_system.cir
</text>
<path stroke="white" d="M50 696l0 -624"/>
<text stroke="none" fill="white" font-size="16" x="35" y="728">
0.0
</text>
<path stroke="white" stroke-dasharray="1,2" d="M142 696l0 -624"/>
<text stroke="none" fill="white" font-size="16" x="127" y="728">
1.0
</text>
<path stroke="white" stroke-dasharray="1,2" d="M234 696l0 -624"/>
<text stroke="none" fill="white" font-size="16" x="219" y="728">
2.0
</text>
<path stroke="white" stroke-dasharray="1,2" d="M326 696l0 -624"/>
<text stroke="none" fill="white" font-size="16" x="311" y="728">
3.0
</text>
<path stroke="white" stroke-dasharray="1,2" d="M418 696l0 -624"/>
<text stroke="none" fill="white" font-size="16" x="403" y="728">
4.0
</text>
<path stroke="white" stroke-dasharray="1,2" d="M510 696l0 -624"/>
<text stroke="none" fill="white" font-size="16" x="495" y="728">
5.0
</text>
<path stroke="white" stroke-dasharray="1,2" d="M602 696l0 -624"/>
<text stroke="none" fill="white" font-size="16" x="587" y="728">
6.0
</text>
<path stroke="white" stroke-dasharray="1,2" d="M694 696l0 -624"/>
<text stroke="none" fill="white" font-size="16" x="679" y="728">
7.0
</text>
<path stroke="white" stroke-dasharray="1,2" d="M786 696l0 -624"/>
<text stroke="none" fill="white" font-size="16" x="771" y="728">
8.0
</text>
<path stroke="white" stroke-dasharray="1,2" d="M878 696l0 -624"/>
<text stroke="none" fill="white" font-size="16" x="863" y="728">
9.0
</text>
<path stroke="white" stroke-dasharray="1,2" d="M970 696l0 -624"/>
<text stroke="none" fill="white" font-size="16" x="950" y="728">
10.0
</text>
<text stroke="none" fill="white" font-size="16" x="614" y="752">
s
</text>
<path stroke="white" stroke-dasharray="1,2" d="M50 696l920 0"/>
<text stroke="none" fill="white" font-size="16" x="8" y="704">
-8.0
</text>
<path stroke="white" stroke-dasharray="1,2" d="M50 618l920 0"/>
<text stroke="none" fill="white" font-size="16" x="8" y="626">
-6.0
</text>
<path stroke="white" stroke-dasharray="1,2" d="M50 540l920 0"/>
<text stroke="none" fill="white" font-size="16" x="8" y="548">
-4.0
</text>
<path stroke="white" stroke-dasharray="1,2" d="M50 462l920 0"/>
<text stroke="none" fill="white" font-size="16" x="8" y="470">
-2.0
</text>
<path stroke="white" d="M50 384l920 0"/>
<text stroke="none" fill="white" font-size="16" x="18" y="392">
0.0
</text>
<path stroke="white" stroke-dasharray="1,2" d="M50 306l920 0"/>
<text stroke="none" fill="white" font-size="16" x="18" y="314">
2.0
</text>
<path stroke="white" stroke-dasharray="1,2" d="M50 228l920 0"/>
<text stroke="none" fill="white" font-size="16" x="18" y="236">
4.0
</text>
<path stroke="white" stroke-dasharray="1,2" d="M50 150l920 0"/>
<text stroke="none" fill="white" font-size="16" x="18" y="158">
6.0
</text>
<path stroke="white" stroke-dasharray="1,2" d="M50 72l920 0"/>
<text stroke="none" fill="white" font-size="16" x="18" y="80">
8.0
</text>
<text stroke="none" fill="white" font-size="16" x="10" y="32">
V
</text>
<path stroke="red" d="M460 23l46 0"/>
<text stroke="none" fill="white" font-size="16" x="516" y="32">
v(freqout)
</text>
<path stroke="red" d="M50 384l1 0 2 0 3 0 1 0 1 0 1 0 1 0 2 0 2 0 5 0 9 0 1 0 1 0 2 0 4 0 8 0 9 0 1 0 1 0 2 0 2 0 6 0 1 0 2 0 1 0 1 0 1 0 1 0 1 0 4 0 6 0 10 0 8 0 1 0 1 0 1 0 4 0 2 0 1 0 1 0 3 0 1 0 1 0 2 0 4 0 8 0 9 0 9 0 1 0 1 0 2 0 4 0 1 0"/>
<path stroke="red" d="M208 384l2 0 0 -20 0 -39 0 -78 0 -58 1 0 1 0 1 0 1 0 2 0 4 0 8 0 6 0 1 0 2 0 1 0 1 0 1 0 2 0 1 0 1 0 2 0 2 0 5 0 9 0 1 0 1 0 1 0 4 0 6 0 9 0 1 0 1 0 1 0 1 0 3 0 4 0 10 0 1 0 2 0 3 0 7 0 9 0 8 0 1 0 2 0 2 0 4 0 1 0 1 0 2 0"/>
<path stroke="red" d="M348 189l1 0 1 0 1 0 1 0 2 0 4 0 8 0 9 0 9 0 1 0 2 0 3 0 1 0 2 0 3 0 0 20 0 39 0 78 0 58 1 0 1 0 2 0 3 0 7 0 8 0 1 0 2 0 1 0 1 0 1 0 2 0 1 0 1 0 1 0 1 0 2 0 5 0 9 0 1 0 1 0 2 0 4 0 8 0 9 0 1 0 1 0 2 0 2 0 5 0 1 0 2 0 1 0"/>
<path stroke="red" d="M486 384l1 0 2 0 1 0 1 0 1 0 4 0 7 0 9 0 7 0 1 0 1 0 1 0 4 0 2 0 1 0 1 0 3 0 1 0 1 0 2 0 4 0 8 0 9 0 9 0 1 0 1 0 2 0 4 0 8 0 0 -20 0 -39 0 -78 0 -58 1 0 2 0 3 0 6 0 7 0 1 0 2 0 1 0 1 0 1 0 2 0 1 0 1 0 1 0 1 0 2 0 5 0 1 0"/>
<path stroke="red" d="M622 189l2 0 1 0 1 0 1 0 1 0 2 0 3 0 7 0 9 0 9 0 1 0 1 0 1 0 4 0 1 0 1 0 4 0 1 0 1 0 2 0 3 0 7 0 9 0 9 0 1 0 2 0 2 0 4 0 1 0 1 0 2 0 1 0 1 0 1 0 1 0 2 0 4 0 8 0 9 0 9 0 1 0 2 0 3 0 1 0 2 0 3 0 0 20 0 39 0 78 0 58 1 0 1 0"/>
<path stroke="red" d="M766 384l2 0 3 0 7 0 8 0 1 0 2 0 1 0 1 0 1 0 2 0 1 0 1 0 1 0 1 0 2 0 5 0 1 0 1 0 1 0 1 0 1 0 1 0 1 0 1 0 4 0 6 0 10 0 9 0 1 0 1 0 2 0 4 0 1 0 2 0 1 0 1 0 2 0 1 0 2 0 3 0 7 0 9 0 8 0 1 0 1 0 1 0 4 0 2 0 1 0 1 0 3 0 1 0 1 0"/>
<path stroke="red" d="M903 384l2 0 4 0 8 0 9 0 9 0 1 0 1 0 2 0 4 0 1 0 2 0 0 -20 0 -39 0 -78 0 -58 1 0 1 0 1 0 1 0 2 0 4 0 8 0 6 0"/>
<path stroke="blue" d="M50 23l46 0"/>
<text stroke="none" fill="white" font-size="16" x="106" y="32">
v(freqin)
</text>
<path stroke="blue" d="M50 384l0 -4 0 -4 0 -8 1 -15 0 -31 2 -60 3 -103 0 -1 0 -1 0 -2 0 -4 0 -8 1 -14 1 -25 1 -17 0 -1 0 -1 0 -1 1 -4 0 -4 2 -4 2 17 5 122 9 366 0 1 0 1 0 2 0 4 0 8 1 15 1 27 2 40 4 16 8 -209 9 -350 0 -1 0 -2 0 -3 0 -6 1 -12 0 -1"/>
<path stroke="blue" d="M104 107l0 -2 0 -3 1 -6 0 -10 2 -12 2 7 6 127 1 42 2 94 0 1 0 1 0 3 0 5 1 9 0 19 1 38 0 1 0 1 0 2 0 5 0 9 1 17 1 35 1 64 4 99 6 19 10 -312 8 -273 0 -1 0 -1 1 -3 0 -3 1 -6 1 1 4 45 2 82 1 22 1 49 3 106 0 1 0 2 0 2 0 5 0 11"/>
<path stroke="blue" d="M165 399l1 21 1 41 2 77 4 117 8 -5 9 -339 9 -238 0 -1 1 0 1 6 2 26 4 111 1 36 2 80 0 1 0 1 0 3 0 4 0 9 0 1 0 1 0 1 0 3 0 5 1 10 0 20 0 5 0 10 1 20 0 1 0 2 0 2 0 5 0 11 1 20 1 40 2 72 4 98 8 -57 6 -235 1 -39 2 -76 0 -1 0 -1"/>
<path stroke="blue" d="M237 267l0 -2 0 -4 0 -9 1 -16 0 -32 1 0 0 -1 0 -1 0 -2 0 -3 0 -7 0 -14 1 -22 2 -38 1 -29 0 -1 0 -1 0 -1 1 -4 0 -4 2 -4 2 17 5 122 9 366 0 1 0 1 0 1 0 4 0 7 1 12 1 24 1 38 4 31 6 -120 9 -366 0 -1 0 -1 0 -2 1 -3 0 -6 0 -13"/>
<path stroke="blue" d="M285 184l1 -23 0 -1 0 -1 0 -3 0 -4 0 -8 1 -15 1 -26 3 -29 4 39 10 335 0 1 0 1 0 3 0 4 0 8 0 17 1 33 2 60 3 89 7 1 9 -322 8 -256 0 -1 0 -1 1 -2 0 -3 0 -5 2 -3 2 23 4 106 1 18 1 38 2 83 0 1 0 1 0 3 0 4 0 10 1 18 1 37 0 1"/>
<path stroke="blue" d="M350 415l0 2 0 2 0 6 0 10 1 21 1 40 2 73 4 103 8 -46 9 -355 9 -199 0 1 0 1 1 2 0 7 2 25 3 85 1 28 2 60 3 131 0 1 0 1 0 3 0 4 0 10 1 18 0 1 0 1 0 3 0 4 0 9 0 17 1 33 2 61 3 89 7 -7 8 -276 1 -39 2 -76 0 -1 0 -1 0 -2 0 -4"/>
<path stroke="blue" d="M421 261l0 -9 1 -16 0 -32 1 0 0 -1 0 -1 0 -2 0 -4 0 -9 0 -16 1 -24 2 -40 1 -20 1 -4 0 -1 0 -2 0 -3 1 -3 1 -2 2 22 5 129 9 365 0 1 0 1 0 2 0 4 1 8 0 14 1 26 2 36 4 8 8 -220 9 -344 0 -1 0 -2 0 -3 1 -6 0 -10 0 -1 0 -2 1 -2"/>
<path stroke="blue" d="M473 97l0 -5 0 -8 2 -10 2 5 5 100 1 39 2 90 0 1 0 1 0 3 0 5 1 10 0 20 1 40 2 80 0 1 0 1 0 2 0 4 0 9 1 17 1 32 1 59 4 81 7 -24 9 -339 7 -224 0 -1 0 -1 1 -3 0 -3 1 -6 1 1 4 45 2 82 1 22 1 49 3 106 0 1 0 2 0 2 0 5 0 11 1 21"/>
<path stroke="blue" d="M534 420l1 41 2 77 4 117 8 -5 9 -339 9 -238 0 -1 1 0 1 6 2 26 4 111 8 319 0 1 0 1 0 2 0 3 0 7 0 14 1 26 2 45 3 55 6 -48 7 -256 1 -39 2 -76 0 -1 0 -1 0 -2 0 -4 0 -9 1 -16 0 -32 1 0 0 -1 0 -1 0 -2 0 -3 0 -7 0 -14 1 -22 2 -38"/>
<path stroke="blue" d="M610 116l1 -29 0 -3 1 0 0 -1 0 -1 0 -2 0 -2 1 -4 1 -2 2 22 5 127 1 44 2 95 0 1 0 1 1 2 0 5 0 9 0 19 1 37 0 1 0 1 0 2 0 4 1 9 0 18 1 34 2 63 3 94 7 7 9 -321 9 -268 0 -1 0 -1 1 -1 0 -2 1 -1 1 11 4 65 1 25 1 57 4 134 0 1 0 1"/>
<path stroke="blue" d="M671 366l0 2 0 5 0 9 0 19 0 1 0 1 0 2 1 5 0 9 0 17 1 36 2 66 3 105 7 36 9 -300 9 -292 0 -1 0 -1 1 -2 0 -3 0 -5 2 -3 2 23 4 106 1 18 1 38 2 83 0 1 0 1 0 3 0 4 0 10 1 18 1 37 0 1 0 2 0 2 0 6 0 10 1 21 1 40 2 73 4 103 8 -46"/>
<path stroke="blue" d="M734 626l9 -355 9 -199 0 1 0 1 1 2 0 7 2 25 3 85 1 28 2 60 3 131 0 1 0 2 0 2 0 4 0 10 1 18 0 1 0 1 0 3 0 4 0 9 0 17 1 33 2 61 3 89 7 -7 8 -276 1 -39 2 -76 0 -1 0 -1 0 -2 0 -4 0 -9 1 -16 0 -32 1 0 0 -1 0 -1 0 -2 0 -4 0 -9"/>
<path stroke="blue" d="M791 187l0 -16 1 -24 2 -40 1 -20 1 -4 0 -1 0 -2 0 -3 1 -3 1 -2 2 22 5 129 1 43 0 12 1 23 1 48 0 1 0 1 0 1 0 2 0 5 1 10 0 21 0 5 0 10 1 20 0 1 0 1 0 2 0 5 0 9 1 17 1 35 1 63 4 97 6 15 10 -315 9 -275 0 -1 0 -1 0 -1 0 -1 1 -3"/>
<path stroke="blue" d="M843 73l1 -1 2 16 4 92 1 34 2 75 0 1 0 1 0 1 0 2 0 5 0 10 1 20 1 40 2 80 0 1 0 1 0 3 0 4 0 9 0 17 1 33 2 61 3 89 7 -7 9 -330 8 -243 0 -1 0 -1 1 -3 0 -3 1 -6 1 1 4 45 2 82 1 22 1 49 3 106 0 1 0 2 0 2 0 5 0 11 1 21 1 41 2 77"/>
<path stroke="blue" d="M905 538l4 117 8 -5 9 -339 9 -238 0 -1 1 0 1 6 2 26 4 111 1 36 2 80 0 1 0 1 0 3 0 4 0 9 0 1 0 1 0 1 0 3 0 5 1 10 0 20 0 5 0 10 1 20 0 1 0 2 0 2 0 5 0 11 1 20 1 40 2 72 4 98 8 -57 6 -235"/>
</svg>
