<?xml version="1.0" standalone="yes"?>
<!DOCTYPE svg PUBLIC "-//W3C//DTD SVG 1.1//EN"
 "http://www.w3.org/Graphics/SVG/1.1/DTD/svg11.dtd">
<svg xmlns="http://www.w3.org/2000/svg" version="1.1"
  width="100%" height="100%" viewBox="0 0 1024 768"
  style="fill: none; font-family: Helvetica;
 font: Helvetica;
">

<!-- Creator: NGspice -->

<rect x="0" y="0" width="1024" height="768" fill="black" stroke="none"/>
<text stroke="none" fill="white" font-size="16" x="358" y="752">
time
</text>
<text stroke="none" fill="white" font-size="16" x="10" y="16">
tran1: * e:\self\hackathon\mixed_signal_soc_design_marathon\vinayak\self-correcting-message-system-using-hamming-code\self_correcting_message_system\self_correcting_message_system.cir
</text>
<path stroke="white" d="M60 696l0 -623"/>
<text stroke="none" fill="white" font-size="16" x="45" y="728">
0.0
</text>
<path stroke="white" stroke-dasharray="1,2" d="M150 696l0 -623"/>
<text stroke="none" fill="white" font-size="16" x="135" y="728">
1.0
</text>
<path stroke="white" stroke-dasharray="1,2" d="M240 696l0 -623"/>
<text stroke="none" fill="white" font-size="16" x="225" y="728">
2.0
</text>
<path stroke="white" stroke-dasharray="1,2" d="M330 696l0 -623"/>
<text stroke="none" fill="white" font-size="16" x="315" y="728">
3.0
</text>
<path stroke="white" stroke-dasharray="1,2" d="M420 696l0 -623"/>
<text stroke="none" fill="white" font-size="16" x="405" y="728">
4.0
</text>
<path stroke="white" stroke-dasharray="1,2" d="M510 696l0 -623"/>
<text stroke="none" fill="white" font-size="16" x="495" y="728">
5.0
</text>
<path stroke="white" stroke-dasharray="1,2" d="M600 696l0 -623"/>
<text stroke="none" fill="white" font-size="16" x="585" y="728">
6.0
</text>
<path stroke="white" stroke-dasharray="1,2" d="M690 696l0 -623"/>
<text stroke="none" fill="white" font-size="16" x="675" y="728">
7.0
</text>
<path stroke="white" stroke-dasharray="1,2" d="M780 696l0 -623"/>
<text stroke="none" fill="white" font-size="16" x="765" y="728">
8.0
</text>
<path stroke="white" stroke-dasharray="1,2" d="M870 696l0 -623"/>
<text stroke="none" fill="white" font-size="16" x="855" y="728">
9.0
</text>
<path stroke="white" stroke-dasharray="1,2" d="M960 696l0 -623"/>
<text stroke="none" fill="white" font-size="16" x="940" y="728">
10.0
</text>
<text stroke="none" fill="white" font-size="16" x="614" y="752">
s
</text>
<path stroke="white" d="M60 696l900 0"/>
<text stroke="none" fill="white" font-size="16" x="28" y="704">
0.0
</text>
<path stroke="white" stroke-dasharray="1,2" d="M60 607l900 0"/>
<text stroke="none" fill="white" font-size="16" x="28" y="615">
5.0
</text>
<path stroke="white" stroke-dasharray="1,2" d="M60 518l900 0"/>
<text stroke="none" fill="white" font-size="16" x="18" y="526">
10.0
</text>
<path stroke="white" stroke-dasharray="1,2" d="M60 429l900 0"/>
<text stroke="none" fill="white" font-size="16" x="18" y="437">
15.0
</text>
<path stroke="white" stroke-dasharray="1,2" d="M60 340l900 0"/>
<text stroke="none" fill="white" font-size="16" x="18" y="348">
20.0
</text>
<path stroke="white" stroke-dasharray="1,2" d="M60 251l900 0"/>
<text stroke="none" fill="white" font-size="16" x="18" y="259">
25.0
</text>
<path stroke="white" stroke-dasharray="1,2" d="M60 162l900 0"/>
<text stroke="none" fill="white" font-size="16" x="18" y="170">
30.0
</text>
<path stroke="white" stroke-dasharray="1,2" d="M60 73l900 0"/>
<text stroke="none" fill="white" font-size="16" x="18" y="81">
35.0
</text>
<text stroke="none" fill="white" font-size="16" x="10" y="32">
     
</text>
<path stroke="red" d="M450 23l45 0"/>
<text stroke="none" fill="white" font-size="16" x="505" y="32">
v(parity0)
</text>
<path stroke="red" d="M60 696l1 0 2 0 3 0 0 -1 0 -3 0 -6 0 -10 0 -1 0 -2 0 -5 0 -9 0 -19 0 -13 0 -2 0 -4 0 -8 0 -6 1 0 1 0 1 0 0 9 0 18 0 35 0 -2 0 -6 0 -10 0 -8 0 -3 0 -4 0 -8 0 -17 0 -4 1 0 1 0 3 0 4 0 9 0 0 1 0 3 0 6 0 12 0 23 0 26 0 2 0 3"/>
<path stroke="red" d="M87 683l0 8 0 5 1 0 1 0 2 0 4 0 8 0 9 0 0 -2 0 -3 0 -7 0 -15 0 -9 0 2 0 6 0 11 0 15 0 1 0 1 0 -6 0 -11 0 -23 0 -16 0 3 0 6 0 13 0 10 0 3 0 4 0 10 0 7 1 0 0 -9 0 -18 0 -34 0 3 0 5 0 12 0 8 0 2 0 5 0 9 0 17 0 -7 0 -15 0 -28"/>
<path stroke="red" d="M113 646l0 -4 0 4 0 7 0 14 0 10 0 2 0 4 0 7 0 6 1 0 1 0 3 0 5 0 1 0 3 0 1 0 1 0 1 0 2 0 3 0 7 0 9 0 8 0 0 -1 0 -2 0 -5 0 -9 0 -10 0 -1 0 -4 0 -4 0 1 0 2 0 3 0 3 0 1 0 1 0 3 0 4 0 10 0 8 1 0 1 0 1 0 3 0 3 0 1 0 1 0 2 0 0 -1"/>
<path stroke="red" d="M172 695l0 -2 0 -2 0 -6 0 -3 0 -1 0 -2 0 -4 0 -1 0 2 0 3 0 7 0 10 0 -2 0 -3 0 -3 0 -1 0 -1 0 -3 0 -5 0 -11 0 -22 0 -9 0 3 0 6 0 11 0 9 0 2 0 5 0 9 0 4 0 -1 0 -2 0 -4 0 -4 0 -1 0 -1 0 -4 0 -7 0 -14 0 -12 0 2 0 6 0 11 0 8"/>
<path stroke="red" d="M172 662l0 2 0 5 0 9 0 17 0 1 1 0 1 0 2 0 4 0 8 0 9 0 9 0 0 -1 0 -1 0 -2 0 -4 0 -6 0 -1 0 -3 0 -4 0 -10 0 19 0 13 1 0 1 0 2 0 3 0 1 0 2 0 0 -9 0 -18 0 -35 0 2 0 6 0 10 0 8 0 3 0 4 0 8 0 17 0 4 0 -3 0 -7 0 -14 0 -27 0 -3"/>
<path stroke="red" d="M216 642l0 3 0 7 0 14 0 10 0 2 0 4 0 8 0 6 1 0 0 -9 0 -18 0 -35 0 2 0 6 0 10 0 8 0 3 0 4 0 8 0 17 0 4 1 0 1 0 1 0 2 0 4 0 8 0 6 0 1 0 2 0 1 0 0 -7 0 -15 0 -9 0 3 0 6 0 11 0 11 0 -6 0 -12 0 -24 0 -14 0 3 0 6 0 13 0 10 0 3"/>
<path stroke="red" d="M244 675l0 4 0 10 0 7 1 0 1 0 1 0 2 0 0 -9 0 -18 0 -35 0 2 0 6 0 10 0 8 0 3 0 4 0 8 0 17 0 4 1 0 1 0 3 0 4 0 9 0 0 -2 0 -3 0 1 0 2 0 2 0 -2 0 -3 0 -3 0 -1 0 -1 0 -3 0 -6 0 -11 0 -23 0 -2 0 3 0 5 0 11 0 8 0 1 0 1 0 3 0 3"/>
<path stroke="red" d="M267 676l0 1 0 1 0 2 0 6 0 10 0 -1 0 -1 0 -2 0 -2 0 -1 0 -2 0 -4 0 -7 0 -15 0 -14 0 3 0 6 0 12 0 14 0 2 0 2 0 2 0 1 0 2 0 4 0 1 1 0 1 0 2 0 3 0 6 0 9 0 1 0 1 0 1 0 1 0 2 0 5 0 9 0 0 -2 0 -3 0 1 0 2 0 2 0 -2 0 -3 0 -3 0 -1"/>
<path stroke="red" d="M309 687l0 -1 0 -3 0 -6 0 -11 0 -23 0 -2 0 3 0 5 0 11 0 8 0 1 0 1 0 3 0 3 0 1 0 1 0 2 0 6 0 10 0 -1 0 -1 0 -2 0 -2 0 -1 0 -2 0 -4 0 -7 0 -15 0 -14 0 3 0 6 0 12 0 14 0 2 0 2 0 2 0 1 0 2 0 4 0 1 1 0 1 0 1 0 3 0 7 0 9 0 8 0"/>
<path stroke="red" d="M339 696l0 -1 0 -2 0 -5 0 -9 0 -10 0 -1 0 -4 0 -4 0 -2 0 -3 0 -6 0 -11 0 -13 0 -2 0 -4 0 -7 0 1 0 1 0 2 0 2 0 -1 0 -1 0 -1 0 -4 0 -4 0 1 0 2 0 3 0 8 0 11 0 1 0 2 0 4 0 4 0 2 0 4 0 6 0 5 0 2 0 3 0 5 0 11 0 8 0 -1 0 -1 0 -3"/>
<path stroke="red" d="M339 684l0 -2 0 -1 0 -3 0 -4 0 -9 0 -17 0 -12 0 3 0 6 0 11 0 9 0 1 0 1 0 3 0 2 0 1 0 3 0 4 0 9 0 7 0 -1 0 -1 0 -3 0 -6 0 -11 0 -22 0 -5 0 4 0 8 0 16 0 12 0 1 0 2 0 3 0 3 1 0 1 0 3 0 4 0 1 0 2 0 1 0 1 0 1 0 1 0 2 0 4 0 8 0"/>
<path stroke="red" d="M369 696l9 0 9 0 0 -1 0 -3 0 -6 0 -12 0 -17 0 2 0 3 0 -1 0 -2 0 -4 0 -7 0 -12 0 -1 0 -1 0 -3 0 1 0 1 0 2 0 4 0 6 0 1 0 1 0 2 0 5 0 2 0 1 0 2 0 4 0 7 0 10 0 1 0 2 0 4 0 3 0 1 0 3 0 2 0 -2 0 -4 0 -4 0 -1 0 -1 0 -4 0 -7 0 -13"/>
<path stroke="red" d="M387 660l0 -22 0 3 0 5 0 11 0 12 0 2 0 5 0 8 0 9 0 -1 0 -1 0 -2 0 -5 0 -9 0 -18 0 -11 0 4 0 7 0 14 0 14 0 1 0 2 0 5 0 3 1 0 2 0 3 0 1 0 1 0 3 0 0 -9 0 -18 0 -35 0 -6 0 2 0 5 0 8 0 7 0 1 0 4 0 7 0 6 0 -1 0 -3 0 -5 0 -11 0 -8"/>
<path stroke="red" d="M398 640l0 -2 0 -4 0 -8 0 -3 0 1 0 1 0 1 0 1 0 1 0 2 0 5 0 3 0 1 0 2 0 4 0 7 0 14 0 1 0 1 0 1 0 4 0 7 0 13 0 3 0 -4 0 -8 0 -16 0 -26 0 3 0 6 0 13 0 12 0 2 0 4 0 8 0 6 1 0 0 -7 0 -15 0 -9 0 3 0 6 0 11 0 11 0 -6 0 -12 0 -24"/>
<path stroke="red" d="M399 654l0 -14 0 3 0 6 0 13 0 10 0 3 0 4 0 10 0 7 1 0 1 0 1 0 4 0 6 0 8 0 1 0 2 0 0 -9 0 -18 0 -35 0 2 0 6 0 10 0 8 0 3 0 4 0 8 0 17 0 4 0 -3 0 -7 0 -14 0 -27 0 -3 0 3 0 7 0 14 0 10 0 2 0 4 0 8 0 6 1 0 1 0 1 0 2 0 1 0 0 -9"/>
<path stroke="red" d="M429 687l0 -18 0 -35 0 2 0 6 0 10 0 8 0 3 0 4 0 8 0 17 0 4 1 0 2 0 2 0 5 0 9 0 0 -1 0 -3 0 -6 0 -12 0 -23 0 -26 0 -2 0 -3 0 -8 0 -5 0 17 0 35 0 20 0 2 0 3 0 7 0 5 1 0 1 0 1 0 4 0 8 0 9 0 0 -2 0 -3 0 -7 0 -15 0 -9 0 2 0 6"/>
<path stroke="red" d="M472 668l0 11 0 15 0 1 0 1 0 -6 0 -11 0 -23 0 -16 0 3 0 6 0 13 0 10 0 3 0 4 0 10 0 7 1 0 0 -9 0 -18 0 -35 0 2 0 6 0 10 0 8 0 3 0 4 0 8 0 17 0 4 0 -7 0 -14 0 -27 0 -14 0 2 0 6 0 10 0 8 0 3 0 4 0 8 0 17 0 4 1 0 1 0 3 0 4 0"/>
<path stroke="red" d="M482 696l1 0 3 0 1 0 1 0 1 0 1 0 1 0 2 0 3 0 7 0 9 0 7 0 0 -1 0 -2 0 -5 0 -9 0 -10 0 -1 0 -4 0 -4 0 1 0 2 0 3 0 3 0 1 0 1 0 3 0 4 0 10 0 8 1 0 1 0 1 0 3 0 3 0 1 0 1 0 2 0 0 -1 0 -2 0 -2 0 -6 0 -3 0 -1 0 -2 0 -4 0 -1 0 2"/>
<path stroke="red" d="M532 676l0 3 0 7 0 10 0 -2 0 -3 0 -3 0 -1 0 -1 0 -3 0 -5 0 -11 0 -22 0 -9 0 3 0 6 0 11 0 9 0 2 0 5 0 9 0 4 0 -1 0 -2 0 -4 0 -4 0 -1 0 -1 0 -4 0 -7 0 -14 0 -12 0 2 0 6 0 11 0 8 0 2 0 5 0 9 0 17 0 1 1 0 1 0 2 0 4 0 8 0 9 0"/>
<path stroke="red" d="M557 696l9 0 0 -1 0 -1 0 -2 0 -4 0 -6 0 -1 0 -3 0 -4 0 -10 0 19 0 13 1 0 1 0 2 0 3 0 8 0 0 -1 0 -1 0 -2 0 -5 0 -1 0 -1 0 -2 0 -4 0 -7 0 -4 0 -2 0 -2 0 -6 0 1 0 1 0 2 0 5 0 9 0 10 0 1 0 2 0 4 0 3 0 -3 0 -7 0 -13 0 -27 0 -1"/>
<path stroke="red" d="M581 645l0 2 0 3 0 -1 0 -2 0 -4 0 -8 0 -5 0 -1 0 -2 0 -5 0 -3 0 1 0 1 0 2 0 5 0 3 0 1 0 1 0 2 0 5 0 2 0 2 0 4 0 7 0 9 0 1 0 3 0 5 0 4 0 1 0 2 0 4 0 9 0 2 0 1 1 0 1 0 1 0 3 0 6 0 7 0 1 0 2 0 1 0 0 -7 0 -15 0 -9 0 3 0 6 0 11"/>
<path stroke="red" d="M604 685l0 11 0 -6 0 -12 0 -24 0 -14 0 3 0 6 0 13 0 10 0 3 0 4 0 10 0 7 1 0 1 0 1 0 2 0 0 -9 0 -18 0 -35 0 2 0 6 0 10 0 8 0 3 0 4 0 8 0 17 0 4 1 0 2 0 2 0 5 0 1 0 2 0 0 -9 0 -18 0 -35 0 2 0 6 0 10 0 8 0 3 0 4 0 8 0 17 0 4"/>
<path stroke="red" d="M622 696l0 -3 0 -7 0 -14 0 -27 0 -3 0 3 0 7 0 14 0 10 0 2 0 4 0 8 0 6 1 0 1 0 0 -7 0 -15 0 -9 0 3 0 6 0 11 0 11 0 -6 0 -12 0 -24 0 -14 0 3 0 6 0 13 0 10 0 3 0 4 0 10 0 7 1 0 2 0 3 0 7 0 9 0 9 0 0 -2 0 -3 0 1 0 2 0 2 1 0"/>
<path stroke="red" d="M656 696l2 0 3 0 1 0 2 0 3 0 0 -9 0 -18 0 -35 0 2 0 6 0 10 0 8 0 3 0 4 0 8 0 17 0 4 0 -3 0 -7 0 -14 0 -27 0 -3 0 3 0 7 0 14 0 10 0 2 0 4 0 8 0 6 1 0 0 -7 0 -15 0 -9 0 3 0 6 0 11 0 11 0 -6 0 -12 0 -24 0 -14 0 3 0 6 0 13 0 10"/>
<path stroke="red" d="M668 672l0 3 0 4 0 10 0 7 1 0 1 0 1 0 4 0 6 0 9 0 9 0 0 -1 0 -2 0 -5 0 -9 0 -10 0 -1 0 -4 0 -4 0 -2 0 -3 0 -6 0 -11 0 -13 0 -2 0 -4 0 -7 0 1 0 1 0 2 0 2 0 -1 0 -1 0 -1 0 -4 0 -4 0 1 0 2 0 3 0 8 0 11 0 1 0 2 0 4 0 4 0 2 0 4"/>
<path stroke="red" d="M699 649l0 6 0 5 0 2 0 3 0 5 0 11 0 8 0 -1 0 -1 0 -3 0 -2 0 -1 0 -3 0 -4 0 -9 0 -17 0 -12 0 3 0 6 0 11 0 9 0 1 0 1 0 3 0 2 0 1 0 3 0 4 0 9 0 7 0 -1 0 -1 0 -3 0 -6 0 -11 0 -22 0 -5 0 4 0 8 0 16 0 12 0 1 0 2 0 3 0 3 1 0 1 0"/>
<path stroke="red" d="M701 696l3 0 4 0 1 0 2 0 1 0 1 0 1 0 1 0 2 0 4 0 8 0 9 0 9 0 0 -1 0 -3 0 -6 0 -12 0 -17 0 2 0 3 0 -1 0 -2 0 -4 0 -7 0 -12 0 -1 0 -1 0 -3 0 1 0 1 0 2 0 4 0 6 0 1 0 1 0 2 0 5 0 2 0 1 0 2 0 4 0 7 0 10 0 1 0 2 0 4 0 3 0 1 0 3"/>
<path stroke="red" d="M747 694l0 2 0 -2 0 -4 0 -4 0 -1 0 -1 0 -4 0 -7 0 -13 0 -22 0 3 0 5 0 11 0 12 0 2 0 5 0 8 0 9 0 -1 0 -1 0 -2 0 -5 0 -9 0 -18 0 -11 0 4 0 7 0 14 0 14 0 1 0 2 0 5 0 3 1 0 2 0 3 0 1 0 1 0 3 0 0 -9 0 -18 0 -35 0 -6 0 2 0 5 0 8"/>
<path stroke="red" d="M758 643l0 7 0 1 0 4 0 7 0 6 0 -1 0 -3 0 -5 0 -11 0 -8 0 -2 0 -4 0 -8 0 -3 0 1 0 1 0 1 0 1 0 1 0 2 0 5 0 3 0 1 0 2 0 4 0 7 0 14 0 1 0 1 0 1 0 4 0 7 0 13 0 3 0 -4 0 -8 0 -16 0 -26 0 3 0 6 0 13 0 12 0 2 0 4 0 8 0 6 1 0 0 -7"/>
<path stroke="red" d="M759 689l0 -15 0 -9 0 3 0 6 0 11 0 11 0 -6 0 -12 0 -24 0 -14 0 3 0 6 0 13 0 10 0 3 0 4 0 10 0 7 1 0 1 0 1 0 4 0 6 0 8 0 1 0 2 0 0 -9 0 -18 0 -35 0 2 0 6 0 10 0 8 0 3 0 4 0 8 0 17 0 4 0 -3 0 -7 0 -14 0 -27 0 -3 0 3 0 7 0 14"/>
<path stroke="red" d="M783 666l0 10 0 2 0 4 0 8 0 6 1 0 1 0 1 0 2 0 1 0 0 -9 0 -18 0 -35 0 2 0 6 0 10 0 8 0 3 0 4 0 8 0 17 0 4 1 0 2 0 2 0 5 0 1 0 1 0 1 0 1 0 1 0 1 0 2 0 3 0 7 0 9 0 9 0 0 -1 0 -3 0 -6 0 -12 0 -23 0 -26 0 -2 0 -3 0 -8 0 -5 0 17"/>
<path stroke="red" d="M835 624l0 35 0 20 0 2 0 -4 0 -6 0 -6 0 -1 0 -3 0 -5 0 -11 0 -22 0 -12 0 1 0 1 0 1 0 2 0 1 0 1 0 3 0 6 0 4 0 1 0 2 0 5 0 9 0 16 0 -2 0 -3 0 -7 0 -5 0 -2 0 -2 0 -6 0 -5 0 -2 0 -2 0 -4 0 -9 0 -6 0 1 0 1 0 2 0 3 0 7 0 4 0 1"/>
<path stroke="red" d="M835 628l0 3 0 6 0 11 0 23 0 10 0 1 0 3 0 6 0 5 1 0 1 0 2 0 3 0 1 0 2 0 1 0 1 0 2 0 1 0 1 0 1 0 4 0 6 0 9 0 8 0 0 -1 0 -2 0 -5 0 -9 0 -10 0 -1 0 -4 0 -4 0 1 0 2 0 3 0 3 0 1 0 1 0 3 0 4 0 10 0 8 1 0 1 0 1 0 3 0 3 0 1 0 1 0"/>
<path stroke="red" d="M890 696l2 0 0 -1 0 -2 0 -2 0 -6 0 -3 0 -1 0 -2 0 -4 0 -1 0 2 0 3 0 7 0 10 0 -2 0 -3 0 -3 0 -1 0 -1 0 -3 0 -5 0 -11 0 -22 0 -9 0 3 0 6 0 11 0 9 0 2 0 5 0 9 0 4 0 -1 0 -2 0 -4 0 -4 0 -1 0 -1 0 -4 0 -7 0 -14 0 -12 0 2 0 6"/>
<path stroke="red" d="M892 643l0 11 0 8 0 2 0 5 0 9 0 17 0 1 1 0 1 0 2 0 4 0 8 0 9 0 9 0 0 -1 0 -1 0 -2 0 -4 0 -6 0 -1 0 -3 0 -4 0 -10 0 19 0 13 1 0 1 0 2 0 3 0 1 0 2 0 0 -9 0 -18 0 -35 0 2 0 6 0 10 0 8 0 3 0 4 0 8 0 17 0 4 0 -3 0 -7 0 -14 0 -27"/>
<path stroke="red" d="M936 645l0 -3 0 3 0 7 0 14 0 10 0 2 0 4 0 8 0 6 1 0 0 -9 0 -18 0 -35 0 2 0 6 0 10 0 8 0 3 0 4 0 8 0 17 0 4 1 0 1 0 1 0 2 0 4 0 8 0 6 0"/>
<path stroke="blue" d="M60 23l45 0"/>
<text stroke="none" fill="white" font-size="16" x="115" y="32">
v(pari3)+7
</text>
<path stroke="blue" d="M60 571l1 0 2 0 3 0 1 0 1 0 1 0 0 -8 0 -18 0 -36 0 3 0 5 0 11 0 8 0 2 0 4 0 9 0 17 0 3 1 0 1 0 3 0 4 0 9 0 1 0 1 0 2 0 4 0 8 0 9 0 0 -5 0 -12 0 -23 0 -16 0 3 0 7 0 13 0 10 0 2 0 5 0 9 0 7 1 0 0 -7 0 -14 0 -29 0 -4 0 4 0 7"/>
<path stroke="blue" d="M113 528l0 14 0 11 0 1 0 4 0 8 0 5 1 0 1 0 3 0 5 0 1 0 3 0 1 0 1 0 1 0 2 0 3 0 7 0 9 0 8 0 0 -1 0 -4 0 -4 0 1 0 2 0 2 0 4 1 0 1 0 1 0 3 0 3 0 1 0 1 0 2 0 0 -2 0 -5 0 -9 0 -10 0 -2 0 -3 0 -1 0 -1 0 -3 0 -6 0 -2 0 -1 0 -1"/>
<path stroke="blue" d="M172 525l0 -2 0 -4 0 -1 0 1 0 1 0 4 0 6 0 10 0 2 0 2 0 5 0 5 0 1 0 2 0 4 0 8 0 2 0 -1 0 -4 0 -3 0 -2 0 -2 0 -6 0 -11 0 -21 0 -10 0 3 0 6 0 12 0 8 0 3 0 4 0 10 0 4 0 -2 0 -2 0 -4 0 -3 0 -1 0 -2 0 -3 0 -7 0 -14 0 -13 0 3"/>
<path stroke="blue" d="M172 513l0 5 0 11 0 9 0 2 0 4 0 9 0 18 1 0 1 0 2 0 4 0 8 0 9 0 9 0 0 -1 0 -3 0 -6 0 -11 0 -17 0 2 0 5 0 9 0 15 0 1 0 2 0 2 0 1 0 1 1 0 1 0 2 0 3 0 1 0 2 0 0 -9 0 -17 0 -36 0 3 0 5 0 11 0 8 0 2 0 4 0 9 0 17 0 3 0 -3 0 -7"/>
<path stroke="blue" d="M216 561l0 -14 0 -27 0 -3 0 4 0 7 0 13 0 11 0 2 0 4 0 8 0 5 1 0 1 0 1 0 1 0 2 0 4 0 8 0 6 0 1 0 2 0 1 0 0 -7 0 -14 0 -10 0 3 0 6 0 12 0 10 0 -6 0 -12 0 -23 0 -15 0 3 0 7 0 13 0 10 0 2 0 5 0 9 0 7 1 0 1 0 1 0 2 0 1 0 1 0"/>
<path stroke="blue" d="M251 571l3 0 4 0 9 0 0 -1 0 -2 0 -2 0 -1 0 -2 0 -3 0 -6 0 -9 0 -1 0 -1 0 -3 0 -2 0 -1 0 -1 0 -2 0 -5 0 -2 0 -1 0 -1 0 -2 0 -5 0 1 0 2 0 4 0 7 0 15 0 1 0 1 0 1 0 2 0 2 0 1 0 2 0 3 0 7 0 4 0 -1 0 -4 0 -3 0 -2 0 -3 0 -5 0 -12"/>
<path stroke="blue" d="M267 541l0 -22 0 -2 0 2 0 6 0 10 0 8 0 1 0 2 0 3 0 2 0 1 0 1 0 3 0 5 0 10 0 -1 0 -3 0 -1 0 -1 0 -1 0 -2 0 -3 0 -8 0 -15 0 -13 0 3 0 6 0 12 0 13 0 1 0 1 0 2 0 2 0 1 0 2 0 4 0 1 1 0 1 0 2 0 3 0 6 0 9 0 0 -1 0 -4 0 -7 0 -14"/>
<path stroke="blue" d="M289 545l0 -10 0 3 0 5 0 12 0 14 0 1 0 1 1 0 1 0 1 0 1 0 2 0 5 0 9 0 0 -1 0 -2 0 -2 0 -1 0 -2 0 -3 0 -6 0 -9 0 -1 0 -1 0 -3 0 -2 0 -1 0 -1 0 -2 0 -5 0 -2 0 -1 0 -1 0 -2 0 -5 0 1 0 2 0 4 0 7 0 15 0 1 0 1 0 1 0 2 0 2 0 1"/>
<path stroke="blue" d="M309 555l0 2 0 3 0 7 0 4 0 -1 0 -4 0 -3 0 -2 0 -3 0 -5 0 -12 0 -22 0 -2 0 2 0 6 0 10 0 8 0 1 0 2 0 3 0 2 0 1 0 1 0 3 0 5 0 10 0 -1 0 -3 0 -1 0 -1 0 -1 0 -2 0 -3 0 -8 0 -15 0 -13 0 3 0 6 0 12 0 13 0 1 0 1 0 2 0 2 0 1 0 2"/>
<path stroke="blue" d="M309 566l0 4 0 1 1 0 1 0 1 0 3 0 7 0 9 0 8 0 0 -1 0 -2 0 -5 0 -9 0 -9 0 -2 0 -4 0 -3 0 1 0 1 0 3 0 6 0 11 0 13 0 -2 0 -2 0 -2 0 -1 0 -1 0 -2 0 -5 0 -8 0 -18 0 -12 0 3 0 6 0 12 0 8 0 1 0 1 0 3 0 2 0 1 0 1 0 2 0 4 0 9 0 -2"/>
<path stroke="blue" d="M339 569l0 -3 0 -5 0 -11 0 -23 0 -5 0 4 0 8 0 16 0 12 0 1 0 2 0 4 0 2 1 0 1 0 3 0 4 0 1 0 2 0 1 0 1 0 1 0 1 0 2 0 4 0 8 0 9 0 9 0 0 -2 0 -4 0 -4 0 -2 0 -3 0 -7 0 -14 0 -22 0 3 0 6 0 11 0 12 0 2 0 4 0 9 0 9 0 -1 0 -1 0 -3"/>
<path stroke="blue" d="M387 564l0 -4 0 -9 0 -18 0 -12 0 4 0 7 0 15 0 13 0 1 0 3 0 4 0 3 1 0 2 0 3 0 1 0 1 0 3 0 0 -1 0 -3 0 -5 0 -11 0 -7 0 -3 0 -4 0 -8 0 -3 0 1 0 1 0 1 0 1 0 1 0 3 0 4 0 3 0 1 0 2 0 4 0 7 0 14 0 1 0 1 0 -4 0 -8 0 -16 0 -26 0 3"/>
<path stroke="blue" d="M398 520l0 7 0 12 0 13 0 2 0 4 0 7 0 6 1 0 0 -6 0 -12 0 -23 0 -15 0 3 0 7 0 13 0 10 0 2 0 5 0 9 0 7 1 0 1 0 1 0 4 0 6 0 8 0 1 0 2 0 0 -3 0 -7 0 -14 0 -27 0 -3 0 4 0 7 0 13 0 11 0 2 0 4 0 8 0 5 1 0 1 0 1 0 2 0 1 0 0 -9 0 -17"/>
<path stroke="blue" d="M429 545l0 -36 0 3 0 5 0 11 0 8 0 2 0 4 0 9 0 17 0 3 1 0 2 0 2 0 5 0 9 0 1 0 1 0 1 0 4 0 8 0 9 0 0 -5 0 -12 0 -23 0 -16 0 3 0 7 0 13 0 10 0 2 0 5 0 9 0 7 1 0 0 -6 0 -14 0 -27 0 -15 0 3 0 5 0 11 0 8 0 2 0 4 0 9 0 17 0 3"/>
<path stroke="blue" d="M473 571l1 0 1 0 3 0 4 0 1 0 3 0 1 0 1 0 1 0 1 0 1 0 2 0 3 0 7 0 9 0 7 0 0 -1 0 -4 0 -4 0 1 0 2 0 2 0 4 1 0 1 0 1 0 3 0 3 0 1 0 1 0 2 0 0 -2 0 -5 0 -9 0 -10 0 -2 0 -3 0 -1 0 -1 0 -3 0 -6 0 -2 0 -1 0 -1 0 -2 0 -4 0 -1 0 1"/>
<path stroke="blue" d="M532 519l0 1 0 4 0 6 0 10 0 2 0 2 0 5 0 5 0 1 0 2 0 4 0 8 0 2 0 -1 0 -4 0 -3 0 -2 0 -2 0 -6 0 -11 0 -21 0 -10 0 3 0 6 0 12 0 8 0 3 0 4 0 10 0 4 0 -2 0 -2 0 -4 0 -3 0 -1 0 -2 0 -3 0 -7 0 -14 0 -13 0 3 0 5 0 11 0 9 0 2 0 4"/>
<path stroke="blue" d="M532 544l0 9 0 18 1 0 1 0 2 0 4 0 8 0 9 0 9 0 0 -1 0 -3 0 -6 0 -11 0 -17 0 2 0 5 0 9 0 15 0 1 0 2 0 2 0 1 0 1 1 0 1 0 2 0 3 0 8 0 1 0 1 0 1 0 3 0 6 0 7 0 1 0 2 0 1 0 0 -7 0 -14 0 -10 0 3 0 6 0 12 0 10 0 -6 0 -12 0 -23 0 -15"/>
<path stroke="blue" d="M604 515l0 3 0 7 0 13 0 10 0 2 0 5 0 9 0 7 1 0 1 0 1 0 2 0 1 0 2 0 2 0 5 0 1 0 2 0 0 -9 0 -17 0 -36 0 3 0 5 0 11 0 8 0 2 0 4 0 9 0 17 0 3 0 -3 0 -7 0 -14 0 -27 0 -3 0 4 0 7 0 13 0 11 0 2 0 4 0 8 0 5 1 0 1 0 0 -6 0 -12 0 -23"/>
<path stroke="blue" d="M624 530l0 -15 0 3 0 7 0 13 0 10 0 2 0 5 0 9 0 7 1 0 2 0 3 0 7 0 9 0 9 0 0 -1 0 -3 0 -6 0 -11 0 -17 0 2 0 3 0 1 0 2 0 2 0 1 0 2 0 3 0 6 0 9 0 1 0 2 0 2 0 2 1 0 2 0 3 0 1 0 2 0 3 0 0 -9 0 -17 0 -36 0 3 0 5 0 11 0 8 0 2 0 4"/>
<path stroke="blue" d="M667 542l0 9 0 17 0 3 0 -3 0 -7 0 -14 0 -27 0 -3 0 4 0 7 0 13 0 11 0 2 0 4 0 8 0 5 1 0 0 -6 0 -12 0 -23 0 -15 0 3 0 7 0 13 0 10 0 2 0 5 0 9 0 7 1 0 1 0 1 0 4 0 6 0 9 0 9 0 0 -1 0 -2 0 -5 0 -9 0 -9 0 -2 0 -4 0 -3 0 1 0 1"/>
<path stroke="blue" d="M699 538l0 3 0 6 0 11 0 13 0 -2 0 -2 0 -2 0 -1 0 -1 0 -2 0 -5 0 -8 0 -18 0 -12 0 3 0 6 0 12 0 8 0 1 0 1 0 3 0 2 0 1 0 1 0 2 0 4 0 9 0 -2 0 -3 0 -5 0 -11 0 -23 0 -5 0 4 0 8 0 16 0 12 0 1 0 2 0 4 0 2 1 0 1 0 3 0 4 0 1 0 2 0"/>
<path stroke="blue" d="M711 571l1 0 1 0 1 0 1 0 2 0 4 0 8 0 9 0 9 0 0 -2 0 -4 0 -4 0 -2 0 -3 0 -7 0 -14 0 -22 0 3 0 6 0 11 0 12 0 2 0 4 0 9 0 9 0 -1 0 -1 0 -3 0 -4 0 -9 0 -18 0 -12 0 4 0 7 0 15 0 13 0 1 0 3 0 4 0 3 1 0 2 0 3 0 1 0 1 0 3 0 0 -1"/>
<path stroke="blue" d="M758 570l0 -3 0 -5 0 -11 0 -7 0 -3 0 -4 0 -8 0 -3 0 1 0 1 0 1 0 1 0 1 0 3 0 4 0 3 0 1 0 2 0 4 0 7 0 14 0 1 0 1 0 -4 0 -8 0 -16 0 -26 0 3 0 7 0 12 0 13 0 2 0 4 0 7 0 6 1 0 0 -6 0 -12 0 -23 0 -15 0 3 0 7 0 13 0 10 0 2 0 5"/>
<path stroke="blue" d="M759 555l0 9 0 7 1 0 1 0 1 0 4 0 6 0 8 0 1 0 2 0 0 -3 0 -7 0 -14 0 -27 0 -3 0 4 0 7 0 13 0 11 0 2 0 4 0 8 0 5 1 0 1 0 1 0 2 0 1 0 0 -9 0 -17 0 -36 0 3 0 5 0 11 0 8 0 2 0 4 0 9 0 17 0 3 1 0 2 0 2 0 5 0 1 0 1 0 1 0 1 0 1 0"/>
<path stroke="blue" d="M804 571l1 0 2 0 3 0 7 0 9 0 9 0 0 -3 0 -7 0 -5 0 -1 0 -3 0 -5 0 -11 0 -22 0 -12 0 1 0 2 0 1 0 1 0 2 0 3 0 5 0 5 0 1 0 2 0 5 0 8 0 16 0 -1 0 -4 0 -6 0 -6 0 -1 0 -3 0 -5 0 -6 0 -1 0 -2 0 -4 0 -9 0 -6 0 1 0 2 0 4 0 7 0 3"/>
<path stroke="blue" d="M835 517l0 2 0 3 0 5 0 12 0 22 0 10 1 0 1 0 2 0 3 0 1 0 2 0 1 0 1 0 2 0 1 0 1 0 1 0 4 0 6 0 9 0 8 0 0 -1 0 -4 0 -4 0 1 0 2 0 2 0 4 1 0 1 0 1 0 3 0 3 0 1 0 1 0 2 0 0 -2 0 -5 0 -9 0 -10 0 -2 0 -3 0 -1 0 -1 0 -3 0 -6 0 -2"/>
<path stroke="blue" d="M892 527l0 -1 0 -1 0 -2 0 -4 0 -1 0 1 0 1 0 4 0 6 0 10 0 2 0 2 0 5 0 5 0 1 0 2 0 4 0 8 0 2 0 -1 0 -4 0 -3 0 -2 0 -2 0 -6 0 -11 0 -21 0 -10 0 3 0 6 0 12 0 8 0 3 0 4 0 10 0 4 0 -2 0 -2 0 -4 0 -3 0 -1 0 -2 0 -3 0 -7 0 -14"/>
<path stroke="blue" d="M892 523l0 -13 0 3 0 5 0 11 0 9 0 2 0 4 0 9 0 18 1 0 1 0 2 0 4 0 8 0 9 0 9 0 0 -1 0 -3 0 -6 0 -11 0 -17 0 2 0 5 0 9 0 15 0 1 0 2 0 2 0 1 0 1 1 0 1 0 2 0 3 0 1 0 2 0 0 -9 0 -17 0 -36 0 3 0 5 0 11 0 8 0 2 0 4 0 9 0 17 0 3"/>
<path stroke="blue" d="M936 571l0 -3 0 -7 0 -14 0 -27 0 -3 0 4 0 7 0 13 0 11 0 2 0 4 0 8 0 5 1 0 1 0 1 0 1 0 2 0 4 0 8 0 6 0"/>
<path stroke="#FFA500" d="M450 39l45 0"/>
<text stroke="none" fill="white" font-size="16" x="505" y="48">
v(pari2)+14
</text>
<path stroke="#FFA500" d="M60 447l1 0 2 0 3 0 1 0 1 0 1 0 1 0 1 0 3 0 4 0 9 0 1 0 1 0 2 0 4 0 8 0 9 0 1 0 1 0 1 0 3 0 5 0 1 0 3 0 1 0 1 0 1 0 2 0 3 0 7 0 9 0 8 0 1 0 1 0 1 0 3 0 3 0 1 0 1 0 2 0 1 0 1 0 2 0 4 0 8 0 9 0 9 0 1 0 1 0 2 0 3 0 1 0"/>
<path stroke="#FFA500" d="M214 447l2 0 1 0 1 0 1 0 1 0 2 0 4 0 8 0 6 0 1 0 2 0 1 0 0 -7 0 -15 0 -9 0 3 0 6 0 11 0 11 1 0 1 0 1 0 2 0 1 0 1 0 3 0 4 0 9 0 0 -1 0 -1 0 -1 0 -3 0 -1 0 -1 0 -3 0 -6 0 -10 0 -2 0 -3 0 -2 0 -1 0 -3 0 -4 0 -3 0 -1 0 -1"/>
<path stroke="#FFA500" d="M267 400l0 -2 0 -5 0 1 0 1 0 2 0 3 0 8 0 14 0 2 0 1 0 2 0 2 0 1 0 2 0 3 0 7 0 5 1 0 1 0 2 0 3 0 6 0 9 0 0 -2 0 -4 0 -7 0 -14 0 -10 0 3 0 6 0 11 0 15 0 1 0 1 1 0 1 0 1 0 1 0 2 0 5 0 9 0 0 -1 0 -1 0 -1 0 -3 0 -1 0 -1 0 -3"/>
<path stroke="#FFA500" d="M309 436l0 -6 0 -10 0 -2 0 -3 0 -2 0 -1 0 -3 0 -4 0 -3 0 -1 0 -1 0 -2 0 -5 0 1 0 1 0 2 0 3 0 8 0 14 0 2 0 1 0 2 0 2 0 1 0 2 0 3 0 7 0 5 1 0 1 0 1 0 3 0 7 0 9 0 8 0 0 -1 0 -1 0 -3 0 -6 0 -12 0 -13 0 -2 0 -3 0 -7 0 1 0 2"/>
<path stroke="#FFA500" d="M339 402l0 2 0 1 0 2 0 3 0 5 0 2 0 3 0 5 0 6 0 1 0 1 0 4 0 3 0 2 0 3 0 2 1 0 1 0 3 0 4 0 1 0 2 0 0 -9 0 -18 0 -36 0 3 0 6 0 10 0 8 0 2 0 5 0 8 0 17 0 4 1 0 1 0 1 0 1 0 2 0 4 0 8 0 9 0 9 0 0 -2 0 -3 0 -5 0 -12 0 -17 0 2"/>
<path stroke="#FFA500" d="M387 410l0 3 0 1 0 1 0 2 0 3 0 8 0 12 0 1 0 1 0 2 0 1 0 1 0 1 1 0 2 0 3 0 1 0 1 0 3 0 0 -9 0 -18 0 -36 0 -5 0 2 0 5 0 8 0 7 0 1 0 4 0 6 0 7 0 1 0 3 0 6 0 11 0 7 1 0 1 0 1 0 1 0 4 0 6 0 8 0 1 0 2 0 1 0 1 0 1 0 2 0 1 0"/>
<path stroke="#FFA500" d="M429 447l1 0 2 0 2 0 5 0 9 0 1 0 1 0 1 0 4 0 8 0 9 0 1 0 1 0 1 0 3 0 4 0 1 0 3 0 1 0 1 0 1 0 1 0 1 0 2 0 3 0 7 0 9 0 7 0 1 0 1 0 1 0 3 0 3 0 1 0 1 0 2 0 1 0 1 0 2 0 4 0 8 0 9 0 9 0 1 0 1 0 2 0 3 0 8 0 0 -1 0 -1 0 -3"/>
<path stroke="#FFA500" d="M581 442l0 -4 0 -2 0 -2 0 -4 0 -7 0 -4 0 -2 0 -3 0 -5 0 2 0 2 0 5 0 9 0 9 0 2 0 2 0 4 0 3 0 -1 0 -1 0 -2 0 -4 0 -8 0 -4 0 -1 0 -3 0 -5 0 -2 0 -1 0 -1 0 -3 0 -4 0 -3 0 -1 0 -1 0 -3 0 -4 0 -2 0 1 0 2 0 4 0 7 0 9 0 1 0 3"/>
<path stroke="#FFA500" d="M581 420l0 5 0 4 0 1 0 2 0 4 0 9 0 2 1 0 1 0 1 0 3 0 6 0 7 0 1 0 2 0 1 0 0 -7 0 -15 0 -9 0 3 0 6 0 11 0 11 1 0 1 0 1 0 2 0 1 0 2 0 2 0 5 0 1 0 2 0 0 -9 0 -18 0 -36 0 3 0 6 0 10 0 8 0 2 0 5 0 8 0 17 0 4 1 0 1 0 1 0 2 0"/>
<path stroke="#FFA500" d="M627 447l3 0 7 0 9 0 9 0 0 -2 0 -3 0 -5 0 -12 0 -17 0 2 0 3 0 1 0 1 0 2 0 2 0 1 0 1 0 3 0 6 0 10 0 1 0 1 0 3 0 2 1 0 2 0 3 0 1 0 2 0 3 0 0 -9 0 -18 0 -36 0 3 0 6 0 10 0 8 0 2 0 5 0 8 0 17 0 4 1 0 1 0 1 0 1 0 4 0 6 0"/>
<path stroke="#FFA500" d="M681 447l9 0 9 0 0 -1 0 -1 0 -3 0 -6 0 -12 0 -13 0 -2 0 -3 0 -7 0 1 0 2 0 2 0 1 0 2 0 3 0 5 0 2 0 3 0 5 0 6 0 1 0 1 0 4 0 3 0 2 0 3 0 2 1 0 1 0 3 0 4 0 1 0 2 0 0 -9 0 -18 0 -36 0 3 0 6 0 10 0 8 0 2 0 5 0 8 0 17 0 4 1 0"/>
<path stroke="#FFA500" d="M712 447l1 0 1 0 1 0 2 0 4 0 8 0 9 0 9 0 0 -2 0 -3 0 -5 0 -12 0 -17 0 2 0 3 0 1 0 1 0 2 0 3 0 8 0 12 0 1 0 1 0 2 0 1 0 1 0 1 1 0 2 0 3 0 1 0 1 0 3 0 0 -9 0 -18 0 -36 0 -5 0 2 0 5 0 8 0 7 0 1 0 4 0 6 0 7 0 1 0 3 0 6 0 11"/>
<path stroke="#FFA500" d="M758 440l0 7 1 0 1 0 1 0 1 0 4 0 6 0 8 0 1 0 2 0 1 0 1 0 1 0 2 0 1 0 1 0 2 0 2 0 5 0 1 0 1 0 1 0 1 0 1 0 1 0 2 0 3 0 7 0 9 0 9 0 1 0 1 0 2 0 3 0 1 0 2 0 1 0 1 0 2 0 1 0 1 0 1 0 4 0 6 0 9 0 8 0 1 0 1 0 1 0 3 0 3 0 1 0"/>
<path stroke="#FFA500" d="M889 447l1 0 2 0 1 0 1 0 2 0 4 0 8 0 9 0 9 0 1 0 1 0 2 0 3 0 1 0 2 0 1 0 1 0 1 0 1 0 2 0 4 0 8 0 6 0"/>
<path stroke="green" d="M60 39l45 0"/>
<text stroke="none" fill="white" font-size="16" x="115" y="48">
v(pari1)+21
</text>
<path stroke="green" d="M60 322l1 0 2 0 3 0 0 -37 0 -16 0 -3 0 -7 0 -6 0 2 0 3 0 5 0 10 0 1 0 3 0 4 0 10 0 18 0 13 1 0 1 0 1 0 1 0 1 0 3 0 4 0 9 0 0 -3 0 -7 0 -5 0 -1 0 -3 0 -6 0 -10 0 -22 0 -12 0 1 0 2 0 1 0 1 0 2 0 2 0 6 0 4 0 2 0 2 0 4 0 9"/>
<path stroke="green" d="M87 289l0 16 0 -1 0 -4 0 -7 0 -5 0 -1 0 -3 0 -5 0 -6 0 -1 0 -2 0 -5 0 -8 0 -6 0 1 0 2 0 4 0 7 0 3 0 2 0 2 0 6 0 11 0 23 0 10 1 0 1 0 2 0 4 0 8 0 9 0 0 -6 0 -11 0 -23 0 -16 0 3 0 7 0 13 0 9 0 3 0 5 0 9 0 7 1 0 0 -9 0 -18"/>
<path stroke="green" d="M113 295l0 -34 0 3 0 6 0 11 0 8 0 3 0 4 0 9 0 17 1 0 1 0 3 0 5 0 1 0 3 0 1 0 0 -7 0 -15 0 -9 0 3 0 6 0 12 0 10 0 -6 0 -12 0 -24 0 -14 0 3 0 7 0 13 0 9 0 3 0 5 0 9 0 7 1 0 1 0 2 0 3 0 7 0 9 0 8 0 1 0 1 0 1 0 3 0 3 0 1 0"/>
<path stroke="green" d="M169 322l1 0 2 0 0 -1 0 -4 0 -3 0 -1 0 -1 0 -3 0 -5 0 -11 0 -21 0 -10 0 3 0 6 0 12 0 8 0 3 0 4 0 9 0 4 0 -1 0 -2 0 -4 0 -4 0 -2 0 -4 0 -7 0 -13 0 -13 0 3 0 5 0 11 0 8 0 3 0 4 0 9 0 17 0 1 1 0 1 0 2 0 4 0 8 0 9 0 9 0 1 0"/>
<path stroke="green" d="M207 322l1 0 2 0 3 0 1 0 2 0 1 0 0 -9 0 -18 0 -35 0 3 0 5 0 11 0 8 0 2 0 4 0 9 0 17 0 3 1 0 1 0 1 0 2 0 4 0 8 0 6 0 1 0 2 0 0 -9 0 -18 0 -35 0 3 0 5 0 11 0 8 0 2 0 4 0 9 0 17 0 3 0 -3 0 -7 0 -14 0 -27 0 -3 0 3 0 7 0 14"/>
<path stroke="green" d="M243 292l0 11 0 2 0 3 0 8 0 6 1 0 0 -6 0 -12 0 -24 0 -14 0 3 0 7 0 13 0 9 0 3 0 5 0 9 0 7 1 0 1 0 1 0 2 0 1 0 1 0 3 0 4 0 9 0 0 -1 0 -3 0 -6 0 -12 0 -17 0 3 0 3 0 1 0 2 0 2 0 1 0 2 0 3 0 6 0 9 0 1 0 1 0 3 0 2 1 0 1 0 2 0"/>
<path stroke="green" d="M271 322l3 0 6 0 9 0 1 0 1 0 0 -9 0 -18 0 -35 0 3 0 5 0 11 0 8 0 2 0 4 0 9 0 17 0 3 1 0 1 0 2 0 5 0 9 0 0 -1 0 -3 0 -6 0 -12 0 -17 0 3 0 3 0 1 0 2 0 2 0 1 0 2 0 3 0 6 0 9 0 1 0 1 0 3 0 2 1 0 1 0 1 0 3 0 7 0 9 0 8 0 0 -1"/>
<path stroke="green" d="M339 321l0 -2 0 -3 0 -4 0 -1 0 -2 0 -2 0 -6 0 -5 0 -1 0 -2 0 -4 0 -2 0 -1 0 -2 0 -2 0 -3 0 -1 0 -3 0 -4 0 -2 0 1 0 2 0 3 0 7 0 12 0 1 0 2 0 4 0 3 0 1 0 2 0 3 0 7 0 5 0 -2 0 -3 0 -2 0 -1 0 -3 0 -4 0 -9 0 -17 0 -12 0 3 0 6"/>
<path stroke="green" d="M339 278l0 11 0 9 0 1 0 1 0 3 0 2 0 2 0 2 0 4 0 9 0 -1 0 -1 0 -3 0 -5 0 -12 0 -22 0 -5 0 4 0 8 0 16 0 12 0 1 0 2 0 4 0 2 1 0 1 0 3 0 4 0 1 0 2 0 0 -3 0 -7 0 -14 0 -27 0 -3 0 3 0 7 0 14 0 11 0 2 0 3 0 8 0 6 1 0 1 0 1 0"/>
<path stroke="green" d="M354 322l1 0 2 0 4 0 8 0 9 0 9 0 0 -1 0 -2 0 -4 0 -7 0 -12 0 -1 0 -1 0 -3 0 -1 0 -1 0 -2 0 -4 0 -5 0 -1 0 -1 0 -2 0 -5 0 -2 0 1 0 2 0 3 0 8 0 10 0 1 0 2 0 4 0 2 0 1 0 1 0 3 0 2 0 1 0 2 0 5 0 7 0 -2 0 -4 0 -4 0 -1 0 -1"/>
<path stroke="green" d="M387 310l0 -4 0 -6 0 -14 0 -22 0 3 0 5 0 11 0 12 0 3 0 4 0 9 0 8 0 -2 0 -2 0 -4 0 -9 0 -18 0 -12 0 4 0 7 0 14 0 14 0 1 0 2 0 5 0 3 1 0 2 0 3 0 1 0 1 0 3 0 1 0 0 -7 0 -15 0 -9 0 3 0 6 0 12 0 10 0 -6 0 -12 0 -24 0 -14 0 3"/>
<path stroke="green" d="M399 269l0 7 0 13 0 9 0 3 0 5 0 9 0 7 1 0 1 0 1 0 4 0 6 0 8 0 1 0 2 0 1 0 1 0 1 0 2 0 1 0 1 0 2 0 2 0 5 0 9 0 0 -3 0 -7 0 -5 0 -1 0 -3 0 -6 0 -10 0 -22 0 -12 0 1 0 2 0 1 0 1 0 2 0 2 0 6 0 4 0 2 0 2 0 4 0 9 0 16 0 -1 0 -4"/>
<path stroke="green" d="M448 300l0 -7 0 -5 0 -1 0 -3 0 -5 0 -6 0 -1 0 -2 0 -5 0 -8 0 -6 0 1 0 2 0 4 0 7 0 3 0 2 0 2 0 6 0 11 0 23 0 10 1 0 1 0 1 0 4 0 8 0 9 0 0 -6 0 -11 0 -23 0 -16 0 3 0 7 0 13 0 9 0 3 0 5 0 9 0 7 1 0 0 -9 0 -18 0 -35 0 3 0 5"/>
<path stroke="green" d="M473 268l0 11 0 8 0 2 0 4 0 9 0 17 0 3 1 0 1 0 3 0 4 0 1 0 3 0 1 0 1 0 1 0 0 -7 0 -15 0 -9 0 3 0 6 0 12 0 10 0 -6 0 -12 0 -24 0 -14 0 3 0 7 0 13 0 9 0 3 0 5 0 9 0 7 1 0 1 0 2 0 3 0 7 0 9 0 7 0 1 0 1 0 1 0 3 0 3 0 1 0 1 0"/>
<path stroke="green" d="M530 322l2 0 0 -1 0 -4 0 -3 0 -1 0 -1 0 -3 0 -5 0 -11 0 -21 0 -10 0 3 0 6 0 12 0 8 0 3 0 4 0 9 0 4 0 -1 0 -2 0 -4 0 -4 0 -2 0 -4 0 -7 0 -13 0 -13 0 3 0 5 0 11 0 8 0 3 0 4 0 9 0 17 0 1 1 0 1 0 2 0 4 0 8 0 9 0 9 0 1 0 1 0"/>
<path stroke="green" d="M568 322l2 0 3 0 8 0 0 -3 0 -7 0 -13 0 -26 0 -2 0 2 0 3 0 1 0 1 0 2 0 4 0 8 0 4 0 1 0 3 0 5 0 2 0 1 0 1 0 3 0 4 0 3 0 1 0 1 0 1 1 0 1 0 1 0 3 0 6 0 7 0 1 0 2 0 0 -9 0 -18 0 -35 0 3 0 5 0 11 0 8 0 2 0 4 0 9 0 17 0 3 0 -3"/>
<path stroke="green" d="M603 319l0 -7 0 -14 0 -27 0 -3 0 3 0 7 0 14 0 11 0 2 0 3 0 8 0 6 1 0 0 -6 0 -12 0 -24 0 -14 0 3 0 7 0 13 0 9 0 3 0 5 0 9 0 7 1 0 1 0 1 0 2 0 1 0 2 0 2 0 5 0 1 0 2 0 0 -3 0 -7 0 -14 0 -27 0 -3 0 3 0 7 0 14 0 11 0 2 0 3"/>
<path stroke="green" d="M622 308l0 8 0 6 1 0 1 0 1 0 2 0 3 0 7 0 9 0 9 0 0 -1 0 -2 0 -2 0 -1 0 -2 0 -3 0 -6 0 -9 0 -1 0 -1 0 -3 0 -2 0 -1 0 -1 0 -2 0 -5 0 -2 0 -1 0 -1 0 -3 0 -4 0 1 0 2 0 4 0 7 0 15 0 1 0 1 0 1 0 2 0 1 0 1 0 1 0 1 0 4 0 7 0 4"/>
<path stroke="green" d="M655 322l0 -2 0 -3 0 -3 0 -1 0 -1 0 -3 0 -5 0 -12 0 -23 0 -1 0 2 0 6 0 10 0 8 0 1 0 1 0 4 0 2 0 1 0 1 0 3 0 5 0 10 0 -2 0 -2 0 -2 0 -1 0 -2 0 -4 0 -7 0 -15 0 -14 0 3 0 6 0 12 0 14 0 1 0 1 0 2 0 2 0 1 0 2 0 4 0 1 1 0 2 0"/>
<path stroke="green" d="M658 322l3 0 1 0 2 0 3 0 0 -3 0 -7 0 -14 0 -27 0 -3 0 3 0 7 0 14 0 11 0 2 0 3 0 8 0 6 1 0 1 0 1 0 1 0 4 0 6 0 9 0 9 0 0 -1 0 -2 0 -3 0 -4 0 -1 0 -2 0 -2 0 -6 0 -5 0 -1 0 -2 0 -4 0 -2 0 -1 0 -2 0 -2 0 -3 0 -1 0 -3 0 -4"/>
<path stroke="green" d="M699 271l0 -2 0 1 0 2 0 3 0 7 0 12 0 1 0 2 0 4 0 3 0 1 0 2 0 3 0 7 0 5 0 -2 0 -3 0 -2 0 -1 0 -3 0 -4 0 -9 0 -17 0 -12 0 3 0 6 0 11 0 9 0 1 0 1 0 3 0 2 0 2 0 2 0 4 0 9 0 -1 0 -1 0 -3 0 -5 0 -12 0 -22 0 -5 0 4 0 8 0 16 0 12"/>
<path stroke="green" d="M699 313l0 1 0 2 0 4 0 2 1 0 1 0 3 0 4 0 1 0 2 0 0 -3 0 -7 0 -14 0 -27 0 -3 0 3 0 7 0 14 0 11 0 2 0 3 0 8 0 6 1 0 1 0 1 0 1 0 2 0 4 0 8 0 9 0 9 0 0 -1 0 -2 0 -4 0 -7 0 -12 0 -1 0 -1 0 -3 0 -1 0 -1 0 -2 0 -4 0 -5 0 -1 0 -1"/>
<path stroke="green" d="M747 276l0 -2 0 -5 0 -2 0 1 0 2 0 3 0 8 0 10 0 1 0 2 0 4 0 2 0 1 0 1 0 3 0 2 0 1 0 2 0 5 0 7 0 -2 0 -4 0 -4 0 -1 0 -1 0 -4 0 -6 0 -14 0 -22 0 3 0 5 0 11 0 12 0 3 0 4 0 9 0 8 0 -2 0 -2 0 -4 0 -9 0 -18 0 -12 0 4 0 7 0 14"/>
<path stroke="green" d="M747 297l0 14 0 1 0 2 0 5 0 3 1 0 2 0 3 0 1 0 1 0 3 0 1 0 0 -7 0 -15 0 -9 0 3 0 6 0 12 0 10 0 -6 0 -12 0 -24 0 -14 0 3 0 7 0 13 0 9 0 3 0 5 0 9 0 7 1 0 1 0 1 0 4 0 6 0 8 0 1 0 2 0 1 0 1 0 1 0 2 0 1 0 1 0 2 0 2 0 5 0 1 0"/>
<path stroke="green" d="M800 322l1 0 1 0 1 0 0 -7 0 -15 0 -9 0 3 0 6 0 12 0 10 0 -6 0 -12 0 -24 0 -14 0 3 0 7 0 13 0 9 0 3 0 5 0 9 0 7 1 0 1 0 2 0 3 0 7 0 9 0 9 0 1 0 1 0 2 0 3 0 1 0 2 0 1 0 1 0 2 0 0 -7 0 -15 0 -9 0 3 0 6 0 12 0 10 0 -6 0 -12"/>
<path stroke="green" d="M849 304l0 -24 0 -14 0 3 0 7 0 13 0 9 0 3 0 5 0 9 0 7 1 0 1 0 1 0 4 0 6 0 9 0 8 0 1 0 1 0 1 0 3 0 3 0 1 0 1 0 2 0 0 -1 0 -4 0 -3 0 -1 0 -1 0 -3 0 -5 0 -11 0 -21 0 -10 0 3 0 6 0 12 0 8 0 3 0 4 0 9 0 4 0 -1 0 -2 0 -4 0 -4"/>
<path stroke="green" d="M892 300l0 -2 0 -4 0 -7 0 -13 0 -13 0 3 0 5 0 11 0 8 0 3 0 4 0 9 0 17 0 1 1 0 1 0 2 0 4 0 8 0 9 0 9 0 1 0 1 0 2 0 3 0 1 0 2 0 1 0 0 -9 0 -18 0 -35 0 3 0 5 0 11 0 8 0 2 0 4 0 9 0 17 0 3 1 0 1 0 1 0 2 0 4 0 8 0 6 0"/>
<path stroke="#FFC0C5" d="M450 55l45 0"/>
<text stroke="none" fill="white" font-size="16" x="505" y="64">
v(pari0)+28
</text>
<path stroke="#FFC0C5" d="M60 198l1 0 2 0 3 0 1 0 1 0 1 0 0 -9 0 -18 0 -36 0 3 0 5 0 11 0 8 0 2 0 4 0 9 0 17 0 4 1 0 1 0 3 0 4 0 9 0 0 -2 0 -3 0 -6 0 -11 0 -24 0 -25 0 -2 0 -4 0 -7 0 -5 0 17 0 35 0 20 0 1 0 -3 0 -7 0 -5 0 -1 0 -3 0 -5 0 -11 0 -22"/>
<path stroke="#FFC0C5" d="M87 125l0 -12 0 1 0 2 0 1 0 1 0 2 0 3 0 5 0 5 0 1 0 2 0 4 0 9 0 16 0 -1 0 -4 0 -7 0 -5 0 -1 0 -3 0 -5 0 -6 0 -1 0 -2 0 -4 0 -9 0 -6 0 1 0 2 0 4 0 7 0 3 0 2 0 3 0 5 0 12 0 22 0 10 0 2 0 3 0 6 0 5 1 0 1 0 2 0 4 0 8 0 9 0"/>
<path stroke="#FFC0C5" d="M112 198l0 -2 0 -4 0 -7 0 -14 0 -10 0 3 0 6 0 11 0 14 0 1 0 1 0 1 1 0 0 -8 0 -14 0 -29 0 -3 0 3 0 7 0 14 0 11 0 2 0 3 0 8 0 6 1 0 1 0 3 0 5 0 1 0 3 0 1 0 0 -8 0 -14 0 -9 0 3 0 5 0 12 0 11 0 -6 0 -12 0 -24 0 -15 0 3 0 7"/>
<path stroke="#FFC0C5" d="M128 151l0 13 0 10 0 2 0 5 0 9 0 8 1 0 1 0 2 0 3 0 7 0 9 0 8 0 0 -2 0 -2 0 -4 0 -9 0 -10 0 -2 0 -3 0 -4 0 1 0 1 0 3 0 4 0 1 0 1 0 2 0 5 0 9 0 9 1 0 1 0 1 0 3 0 3 0 1 0 1 0 2 0 0 -1 0 -2 0 -3 0 -6 0 -2 0 -1 0 -1 0 -2"/>
<path stroke="#FFC0C5" d="M172 180l0 -4 0 -1 0 1 0 2 0 3 0 6 0 11 1 0 1 0 2 0 4 0 8 0 9 0 9 0 0 -1 0 -1 0 -2 0 -4 0 -6 0 -1 0 -1 0 -2 0 -5 0 -9 0 19 0 13 1 0 1 0 2 0 3 0 1 0 2 0 0 -9 0 -18 0 -36 0 3 0 5 0 11 0 8 0 2 0 4 0 9 0 17 0 4 0 -4 0 -7"/>
<path stroke="#FFC0C5" d="M216 187l0 -13 0 -28 0 -3 0 4 0 7 0 14 0 10 0 2 0 4 0 8 0 6 1 0 1 0 1 0 1 0 2 0 4 0 8 0 6 0 1 0 2 0 0 -9 0 -18 0 -36 0 3 0 5 0 11 0 8 0 2 0 4 0 9 0 17 0 4 0 -4 0 -7 0 -13 0 -28 0 -3 0 4 0 7 0 14 0 10 0 2 0 4 0 8 0 6"/>
<path stroke="#FFC0C5" d="M243 198l1 0 1 0 1 0 1 0 2 0 0 -9 0 -18 0 -36 0 3 0 5 0 11 0 8 0 2 0 4 0 9 0 17 0 4 1 0 1 0 3 0 4 0 9 0 0 -2 0 -3 0 -6 0 -11 0 -17 0 -3 0 -3 0 -1 0 -2 0 -2 0 -1 0 -2 0 -3 0 -6 0 -9 0 -1 0 -1 0 -3 0 -2 0 -1 0 -1 0 -2"/>
<path stroke="#FFC0C5" d="M267 116l0 -5 0 -2 0 1 0 2 0 4 0 7 0 15 0 1 0 1 0 3 0 1 0 1 0 2 0 4 0 6 0 5 0 1 0 3 0 6 0 11 0 6 0 1 0 -2 0 -4 0 -2 0 -1 0 -2 0 -2 0 -6 0 -11 0 -23 0 -2 0 3 0 5 0 11 0 7 0 1 0 2 0 3 0 2 0 1 0 1 0 3 0 5 0 10 0 3 0 -1"/>
<path stroke="#FFC0C5" d="M267 191l0 -1 0 -2 0 -2 0 -1 0 -2 0 -4 0 -8 0 -14 0 -14 0 3 0 6 0 12 0 14 0 1 0 3 0 1 0 1 0 1 0 2 0 3 0 2 0 2 0 2 0 2 1 0 1 0 2 0 3 0 6 0 9 0 0 -2 0 -4 0 -7 0 -14 0 -10 0 3 0 6 0 11 0 14 0 1 0 1 0 1 1 0 1 0 0 -9 0 -18"/>
<path stroke="#FFC0C5" d="M291 171l0 -36 0 3 0 5 0 11 0 8 0 2 0 4 0 9 0 17 0 4 1 0 1 0 2 0 5 0 9 0 0 -2 0 -3 0 -6 0 -11 0 -17 0 -3 0 -3 0 -1 0 -2 0 -2 0 -1 0 -2 0 -3 0 -6 0 -9 0 -1 0 -1 0 -3 0 -2 0 -1 0 -1 0 -2 0 -5 0 -2 0 1 0 2 0 4 0 7 0 15"/>
<path stroke="#FFC0C5" d="M309 138l0 1 0 1 0 3 0 1 0 1 0 2 0 4 0 6 0 5 0 1 0 3 0 6 0 11 0 6 0 1 0 -2 0 -4 0 -2 0 -1 0 -2 0 -2 0 -6 0 -11 0 -23 0 -2 0 3 0 5 0 11 0 7 0 1 0 2 0 3 0 2 0 1 0 1 0 3 0 5 0 10 0 3 0 -1 0 -1 0 -2 0 -2 0 -1 0 -2 0 -4 0 -8"/>
<path stroke="#FFC0C5" d="M309 171l0 -14 0 -14 0 3 0 6 0 12 0 14 0 1 0 3 0 1 0 1 0 1 0 2 0 3 0 2 0 2 0 2 0 2 1 0 1 0 1 0 3 0 7 0 9 0 8 0 0 -2 0 -2 0 -4 0 -9 0 -10 0 -2 0 -3 0 -4 0 1 0 1 0 3 0 6 0 12 0 13 1 0 1 0 3 0 4 0 1 0 2 0 0 -9 0 -18 0 -36"/>
<path stroke="#FFC0C5" d="M351 135l0 3 0 5 0 11 0 8 0 2 0 4 0 9 0 17 0 4 0 -4 0 -7 0 -13 0 -28 0 -3 0 4 0 7 0 14 0 10 0 2 0 4 0 8 0 6 1 0 1 0 1 0 1 0 2 0 4 0 8 0 9 0 9 0 0 -1 0 -1 0 -2 0 -4 0 -6 0 -1 0 -1 0 -2 0 -5 0 -2 0 1 0 2 0 4 0 7 0 11 1 0"/>
<path stroke="#FFC0C5" d="M388 198l2 0 3 0 1 0 1 0 3 0 0 -2 0 -3 0 -5 0 -11 0 -7 0 -2 0 -5 0 -8 0 -3 0 1 0 2 0 1 0 2 0 2 0 4 0 4 0 1 0 1 0 4 0 7 0 14 0 1 0 1 0 1 0 -4 0 -8 0 -16 0 -27 0 3 0 7 0 13 0 12 0 2 0 4 0 8 0 6 1 0 1 0 1 0 1 0 4 0 6 0"/>
<path stroke="#FFC0C5" d="M412 198l8 0 1 0 2 0 0 -9 0 -18 0 -36 0 3 0 5 0 11 0 8 0 2 0 4 0 9 0 17 0 4 0 -4 0 -7 0 -13 0 -28 0 -3 0 4 0 7 0 14 0 10 0 2 0 4 0 8 0 6 1 0 1 0 1 0 2 0 1 0 0 -9 0 -18 0 -36 0 3 0 5 0 11 0 8 0 2 0 4 0 9 0 17 0 4 1 0"/>
<path stroke="#FFC0C5" d="M430 198l2 0 2 0 5 0 9 0 0 -2 0 -3 0 -6 0 -11 0 -24 0 -25 0 -2 0 -4 0 -7 0 -5 0 17 0 35 0 20 0 1 0 -3 0 -7 0 -5 0 -1 0 -3 0 -5 0 -11 0 -22 0 -12 0 1 0 2 0 1 0 1 0 2 0 3 0 5 0 5 0 1 0 2 0 4 0 9 0 16 0 -1 0 -4 0 -7 0 -5"/>
<path stroke="#FFC0C5" d="M448 148l0 -1 0 -3 0 -5 0 -6 0 -1 0 -2 0 -4 0 -9 0 -6 0 1 0 2 0 4 0 7 0 3 0 2 0 3 0 5 0 12 0 22 0 10 0 2 0 3 0 6 0 5 1 0 1 0 1 0 4 0 8 0 9 0 0 -2 0 -4 0 -7 0 -14 0 -10 0 3 0 6 0 11 0 14 0 1 0 1 0 1 1 0 0 -7 0 -14 0 -27"/>
<path stroke="#FFC0C5" d="M473 150l0 -15 0 3 0 5 0 11 0 8 0 2 0 4 0 9 0 17 0 4 1 0 1 0 3 0 4 0 1 0 3 0 1 0 1 0 1 0 0 -8 0 -14 0 -9 0 3 0 5 0 12 0 11 0 -6 0 -12 0 -24 0 -15 0 3 0 7 0 13 0 10 0 2 0 5 0 9 0 8 1 0 1 0 2 0 3 0 7 0 9 0 7 0 0 -2 0 -2"/>
<path stroke="#FFC0C5" d="M519 194l0 -4 0 -9 0 -10 0 -2 0 -3 0 -4 0 1 0 1 0 3 0 4 0 1 0 1 0 2 0 5 0 9 0 9 1 0 1 0 1 0 3 0 3 0 1 0 1 0 2 0 0 -1 0 -2 0 -3 0 -6 0 -2 0 -1 0 -1 0 -2 0 -4 0 -1 0 1 0 2 0 3 0 6 0 11 1 0 1 0 2 0 4 0 8 0 9 0 9 0 0 -1"/>
<path stroke="#FFC0C5" d="M566 197l0 -1 0 -2 0 -4 0 -6 0 -1 0 -1 0 -2 0 -5 0 -9 0 19 0 13 1 0 1 0 2 0 3 0 8 0 0 -1 0 -2 0 -2 0 -4 0 -3 0 -1 0 -2 0 -2 0 -4 0 -2 0 1 0 2 0 4 0 7 0 9 1 0 1 0 1 0 3 0 6 0 7 0 1 0 2 0 0 -9 0 -18 0 -36 0 3 0 5 0 11"/>
<path stroke="#FFC0C5" d="M603 154l0 8 0 2 0 4 0 9 0 17 0 4 0 -4 0 -7 0 -13 0 -28 0 -3 0 4 0 7 0 14 0 10 0 2 0 4 0 8 0 6 1 0 1 0 1 0 1 0 2 0 0 -9 0 -18 0 -36 0 3 0 5 0 11 0 8 0 2 0 4 0 9 0 17 0 4 1 0 2 0 2 0 5 0 1 0 2 0 1 0 1 0 0 -8 0 -14 0 -9"/>
<path stroke="#FFC0C5" d="M624 167l0 3 0 5 0 12 0 11 0 -6 0 -12 0 -24 0 -15 0 3 0 7 0 13 0 10 0 2 0 5 0 9 0 8 1 0 2 0 3 0 7 0 9 0 9 0 0 -2 0 -3 0 -6 0 -11 0 -17 0 -3 0 -3 0 -1 0 -2 0 -2 0 -1 0 -2 0 -3 0 -6 0 -9 0 -1 0 -1 0 -3 0 -2 0 -1 0 -1 0 -2"/>
<path stroke="#FFC0C5" d="M655 116l0 -5 0 -2 0 1 0 2 0 4 0 7 0 15 0 1 0 1 0 3 0 1 0 1 0 2 0 4 0 6 0 5 0 1 0 3 0 6 0 11 0 6 0 1 0 -2 0 -4 0 -2 0 -1 0 -2 0 -2 0 -6 0 -11 0 -23 0 -2 0 3 0 5 0 11 0 7 0 1 0 2 0 3 0 2 0 1 0 1 0 3 0 5 0 10 0 3 0 -1"/>
<path stroke="#FFC0C5" d="M655 191l0 -1 0 -2 0 -2 0 -1 0 -2 0 -4 0 -8 0 -14 0 -14 0 3 0 6 0 12 0 14 0 1 0 3 0 1 0 1 0 1 0 2 0 3 0 2 0 2 0 2 0 2 1 0 2 0 3 0 1 0 2 0 3 0 1 0 0 -8 0 -14 0 -9 0 3 0 5 0 12 0 11 0 -6 0 -12 0 -24 0 -15 0 3 0 7 0 13"/>
<path stroke="#FFC0C5" d="M668 164l0 10 0 2 0 5 0 9 0 8 1 0 1 0 1 0 4 0 6 0 9 0 9 0 0 -2 0 -2 0 -4 0 -9 0 -10 0 -2 0 -3 0 -4 0 1 0 1 0 3 0 6 0 12 0 13 1 0 1 0 3 0 4 0 1 0 2 0 0 -9 0 -18 0 -36 0 3 0 5 0 11 0 8 0 2 0 4 0 9 0 17 0 4 0 -4 0 -7 0 -13"/>
<path stroke="#FFC0C5" d="M711 174l0 -28 0 -3 0 4 0 7 0 14 0 10 0 2 0 4 0 8 0 6 1 0 1 0 1 0 1 0 2 0 4 0 8 0 9 0 9 0 0 -1 0 -1 0 -2 0 -4 0 -6 0 -1 0 -1 0 -2 0 -5 0 -2 0 1 0 2 0 4 0 7 0 11 1 0 2 0 3 0 1 0 1 0 3 0 0 -2 0 -3 0 -5 0 -11 0 -7 0 -2"/>
<path stroke="#FFC0C5" d="M758 168l0 -5 0 -8 0 -3 0 1 0 2 0 1 0 2 0 2 0 4 0 4 0 1 0 1 0 4 0 7 0 14 0 1 0 1 0 1 0 -4 0 -8 0 -16 0 -27 0 3 0 7 0 13 0 12 0 2 0 4 0 8 0 6 1 0 1 0 1 0 1 0 4 0 6 0 8 0 1 0 2 0 0 -9 0 -18 0 -36 0 3 0 5 0 11 0 8 0 2 0 4"/>
<path stroke="#FFC0C5" d="M783 168l0 9 0 17 0 4 0 -4 0 -7 0 -13 0 -28 0 -3 0 4 0 7 0 14 0 10 0 2 0 4 0 8 0 6 1 0 1 0 1 0 2 0 1 0 0 -9 0 -18 0 -36 0 3 0 5 0 11 0 8 0 2 0 4 0 9 0 17 0 4 1 0 2 0 2 0 5 0 1 0 1 0 1 0 1 0 0 -8 0 -14 0 -9 0 3 0 5 0 12"/>
<path stroke="#FFC0C5" d="M803 187l0 11 0 -6 0 -12 0 -24 0 -15 0 3 0 7 0 13 0 10 0 2 0 5 0 9 0 8 1 0 1 0 2 0 3 0 7 0 9 0 9 0 0 -2 0 -3 0 -6 0 -11 0 -24 0 -25 0 -2 0 -4 0 -7 0 -5 0 17 0 35 0 20 0 1 0 -3 0 -7 0 -5 0 -1 0 -3 0 -5 0 -11 0 -22 0 -12"/>
<path stroke="#FFC0C5" d="M835 113l0 1 0 2 0 1 0 1 0 2 0 3 0 5 0 5 0 1 0 2 0 4 0 9 0 16 0 -1 0 -4 0 -7 0 -5 0 -1 0 -3 0 -5 0 -6 0 -1 0 -2 0 -4 0 -9 0 -6 0 1 0 2 0 4 0 7 0 3 0 2 0 3 0 5 0 12 0 22 0 10 0 2 0 3 0 6 0 5 1 0 1 0 2 0 3 0 1 0 2 0 1 0"/>
<path stroke="#FFC0C5" d="M846 198l1 0 2 0 0 -8 0 -14 0 -9 0 3 0 5 0 12 0 11 0 -6 0 -12 0 -24 0 -15 0 3 0 7 0 13 0 10 0 2 0 5 0 9 0 8 1 0 1 0 1 0 4 0 6 0 9 0 8 0 0 -2 0 -2 0 -4 0 -9 0 -10 0 -2 0 -3 0 -4 0 1 0 1 0 3 0 4 0 1 0 1 0 2 0 5 0 9 0 9"/>
<path stroke="#FFC0C5" d="M879 198l1 0 1 0 1 0 3 0 3 0 1 0 1 0 2 0 0 -1 0 -2 0 -3 0 -6 0 -2 0 -1 0 -1 0 -2 0 -4 0 -1 0 1 0 2 0 3 0 6 0 11 1 0 1 0 2 0 4 0 8 0 9 0 9 0 0 -1 0 -1 0 -2 0 -4 0 -6 0 -1 0 -1 0 -2 0 -5 0 -9 0 19 0 13 1 0 1 0 2 0 3 0"/>
<path stroke="#FFC0C5" d="M933 198l1 0 2 0 0 -9 0 -18 0 -36 0 3 0 5 0 11 0 8 0 2 0 4 0 9 0 17 0 4 0 -4 0 -7 0 -13 0 -28 0 -3 0 4 0 7 0 14 0 10 0 2 0 4 0 8 0 6 1 0 1 0 1 0 1 0 2 0 4 0 8 0 6 0"/>
</svg>
