<?xml version="1.0" standalone="yes"?>
<!DOCTYPE svg PUBLIC "-//W3C//DTD SVG 1.1//EN"
 "http://www.w3.org/Graphics/SVG/1.1/DTD/svg11.dtd">
<svg xmlns="http://www.w3.org/2000/svg" version="1.1"
  width="100%" height="100%" viewBox="0 0 1024 768"
  style="fill: none; font-family: Helvetica;
 font: Helvetica;
">

<!-- Creator: NGspice -->

<rect x="0" y="0" width="1024" height="768" fill="black" stroke="none"/>
"/>
<text stroke="none" fill="white" font-size="16" x="358" y="752">
time
</text>
<text stroke="none" fill="white" font-size="16" x="10" y="16">
tran1: * e:\self\hackathon\mixed_signal_soc_design_marathon\vinayak\self-correcting-message-system-using-hamming-code\self_correcting_message_system\self_correcting_message_system.cir
</text>
<path stroke="white" d="M60 696l0 -621"/>
<text stroke="none" fill="white" font-size="16" x="45" y="728">
0.0
</text>
<path stroke="white" stroke-dasharray="1,2" d="M150 696l0 -621"/>
<text stroke="none" fill="white" font-size="16" x="135" y="728">
1.0
</text>
<path stroke="white" stroke-dasharray="1,2" d="M240 696l0 -621"/>
<text stroke="none" fill="white" font-size="16" x="225" y="728">
2.0
</text>
<path stroke="white" stroke-dasharray="1,2" d="M330 696l0 -621"/>
<text stroke="none" fill="white" font-size="16" x="315" y="728">
3.0
</text>
<path stroke="white" stroke-dasharray="1,2" d="M420 696l0 -621"/>
<text stroke="none" fill="white" font-size="16" x="405" y="728">
4.0
</text>
<path stroke="white" stroke-dasharray="1,2" d="M510 696l0 -621"/>
<text stroke="none" fill="white" font-size="16" x="495" y="728">
5.0
</text>
<path stroke="white" stroke-dasharray="1,2" d="M600 696l0 -621"/>
<text stroke="none" fill="white" font-size="16" x="585" y="728">
6.0
</text>
<path stroke="white" stroke-dasharray="1,2" d="M690 696l0 -621"/>
<text stroke="none" fill="white" font-size="16" x="675" y="728">
7.0
</text>
<path stroke="white" stroke-dasharray="1,2" d="M780 696l0 -621"/>
<text stroke="none" fill="white" font-size="16" x="765" y="728">
8.0
</text>
<path stroke="white" stroke-dasharray="1,2" d="M870 696l0 -621"/>
<text stroke="none" fill="white" font-size="16" x="855" y="728">
9.0
</text>
<path stroke="white" stroke-dasharray="1,2" d="M960 696l0 -621"/>
<text stroke="none" fill="white" font-size="16" x="940" y="728">
10.0
</text>
<text stroke="none" fill="white" font-size="16" x="614" y="752">
s
</text>
<path stroke="white" d="M60 696l900 0"/>
<text stroke="none" fill="white" font-size="16" x="28" y="704">
0.0
</text>
<path stroke="white" stroke-dasharray="1,2" d="M60 627l900 0"/>
<text stroke="none" fill="white" font-size="16" x="18" y="635">
10.0
</text>
<path stroke="white" stroke-dasharray="1,2" d="M60 558l900 0"/>
<text stroke="none" fill="white" font-size="16" x="18" y="566">
20.0
</text>
<path stroke="white" stroke-dasharray="1,2" d="M60 489l900 0"/>
<text stroke="none" fill="white" font-size="16" x="18" y="497">
30.0
</text>
<path stroke="white" stroke-dasharray="1,2" d="M60 420l900 0"/>
<text stroke="none" fill="white" font-size="16" x="18" y="428">
40.0
</text>
<path stroke="white" stroke-dasharray="1,2" d="M60 351l900 0"/>
<text stroke="none" fill="white" font-size="16" x="18" y="359">
50.0
</text>
<path stroke="white" stroke-dasharray="1,2" d="M60 282l900 0"/>
<text stroke="none" fill="white" font-size="16" x="18" y="290">
60.0
</text>
<path stroke="white" stroke-dasharray="1,2" d="M60 213l900 0"/>
<text stroke="none" fill="white" font-size="16" x="18" y="221">
70.0
</text>
<path stroke="white" stroke-dasharray="1,2" d="M60 144l900 0"/>
<text stroke="none" fill="white" font-size="16" x="18" y="152">
80.0
</text>
<path stroke="white" stroke-dasharray="1,2" d="M60 75l900 0"/>
<text stroke="none" fill="white" font-size="16" x="18" y="83">
90.0
</text>
<text stroke="none" fill="white" font-size="16" x="10" y="32">
     
</text>
<path stroke="red" d="M450 23l45 0"/>
<text stroke="none" fill="white" font-size="16" x="505" y="32">
v(cd0)
</text>
<path stroke="red" d="M60 696l1 0 2 0 3 0 1 0 1 0 1 0 1 0 1 0 3 0 4 0 9 0 1 0 1 0 2 0 4 0 8 0 9 0 1 0 1 0 1 0 3 0 5 0 1 0 3 0 1 0 1 0 1 0 2 0 3 0 7 0 9 0 8 0 1 0 1 0 1 0 3 0 3 0 1 0 1 0 2 0 1 0 1 0 2 0 4 0 8 0 9 0 9 0 1 0 1 0 2 0 3 0 1 0 2 0"/>
<path stroke="red" d="M216 696l1 0 1 0 1 0 1 0 2 0 4 0 8 0 6 0 1 0 2 0 1 0 1 0 1 0 1 0 2 0 1 0 1 0 3 0 4 0 9 0 1 0 1 0 2 0 3 0 6 0 9 0 1 0 1 0 1 0 1 0 2 0 5 0 9 0 1 0 1 0 1 0 3 0 7 0 9 0 8 0 1 0 1 0 3 0 4 0 1 0 2 0 1 0 1 0 1 0 1 0 2 0 4 0 8 0"/>
<path stroke="red" d="M369 696l9 0 9 0 1 0 2 0 3 0 1 0 1 0 3 0 1 0 1 0 1 0 1 0 4 0 6 0 8 0 1 0 2 0 1 0 1 0 1 0 2 0 1 0 1 0 2 0 2 0 5 0 9 0 1 0 1 0 1 0 4 0 8 0 9 0 1 0 1 0 1 0 3 0 4 0 1 0 3 0 1 0 1 0 1 0 1 0 1 0 2 0 3 0 7 0 9 0 7 0 1 0 1 0 1 0"/>
<path stroke="red" d="M522 696l3 0 3 0 1 0 1 0 2 0 1 0 1 0 2 0 4 0 8 0 9 0 9 0 1 0 1 0 2 0 3 0 8 0 1 0 1 0 1 0 3 0 6 0 7 0 1 0 2 0 1 0 1 0 1 0 1 0 2 0 1 0 2 0 2 0 5 0 1 0 2 0 1 0 1 0 1 0 2 0 3 0 7 0 9 0 9 0 1 0 2 0 3 0 1 0 2 0 3 0 1 0 1 0 1 0"/>
<path stroke="red" d="M670 696l1 0 4 0 6 0 9 0 9 0 1 0 1 0 3 0 4 0 1 0 2 0 1 0 1 0 1 0 1 0 2 0 4 0 8 0 9 0 9 0 1 0 2 0 3 0 1 0 1 0 3 0 1 0 1 0 1 0 1 0 4 0 6 0 8 0 1 0 2 0 1 0 1 0 1 0 2 0 1 0 1 0 2 0 2 0 5 0 1 0 1 0 1 0 1 0 1 0 1 0 2 0 3 0 7 0"/>
<path stroke="red" d="M817 696l9 0 9 0 1 0 1 0 2 0 3 0 1 0 2 0 1 0 1 0 2 0 1 0 1 0 1 0 4 0 6 0 9 0 8 0 1 0 1 0 1 0 3 0 3 0 1 0 1 0 2 0 1 0 1 0 2 0 4 0 8 0 9 0 9 0 1 0 1 0 2 0 3 0 1 0 2 0 1 0 1 0 1 0 1 0 2 0 4 0 8 0 6 0"/>
<path stroke="blue" d="M60 23l45 0"/>
<text stroke="none" fill="white" font-size="16" x="115" y="32">
v(cd1)+7
</text>
<path stroke="blue" d="M60 648l1 0 2 0 3 0 1 0 1 0 1 0 1 0 1 0 3 0 4 0 9 0 1 0 1 0 2 0 4 0 8 0 9 0 1 0 1 0 1 0 3 0 5 0 1 0 3 0 1 0 1 0 1 0 2 0 3 0 7 0 9 0 8 0 1 0 1 0 1 0 3 0 3 0 1 0 1 0 2 0 1 0 1 0 2 0 4 0 8 0 9 0 9 0 1 0 1 0 2 0 3 0 1 0 2 0"/>
<path stroke="blue" d="M216 648l1 0 0 -4 0 -7 0 -13 0 -1 0 -3 0 -4 0 -3 1 0 1 0 1 0 2 0 4 0 8 0 6 0 1 0 2 0 1 0 1 0 1 0 1 0 2 0 1 0 1 0 3 0 4 0 9 0 1 0 1 0 2 0 3 0 6 0 9 0 1 0 1 0 1 0 1 0 2 0 5 0 9 0 1 0 1 0 1 0 3 0 7 0 9 0 8 0 1 0 1 0 3 0 4 0"/>
<path stroke="blue" d="M348 613l1 0 2 0 1 0 1 0 1 0 1 0 2 0 4 0 8 0 9 0 9 0 1 0 2 0 3 0 1 0 1 0 3 0 0 1 0 2 0 3 0 2 0 1 0 1 0 3 0 3 0 1 0 2 0 5 0 2 0 1 0 2 0 3 0 1 0 1 0 1 1 0 1 0 1 0 1 0 4 0 6 0 8 0 1 0 2 0 1 0 1 0 1 0 2 0 1 0 1 0 2 0 2 0 5 0"/>
<path stroke="blue" d="M439 648l9 0 1 0 1 0 1 0 4 0 8 0 9 0 1 0 1 0 1 0 3 0 4 0 1 0 3 0 1 0 1 0 1 0 1 0 1 0 2 0 3 0 7 0 9 0 7 0 1 0 1 0 1 0 3 0 3 0 1 0 1 0 2 0 1 0 1 0 2 0 4 0 8 0 9 0 9 0 1 0 1 0 2 0 3 0 8 0 0 -1 0 -1 0 -2 0 -1 0 -2 0 -3 0 -1"/>
<path stroke="blue" d="M581 637l0 -1 0 -1 0 -2 0 -1 0 -1 0 -1 0 -4 0 -4 0 -1 0 -1 0 -2 0 -1 0 -1 0 -2 0 -1 1 0 1 0 1 0 3 0 6 0 7 0 1 0 2 0 1 0 1 0 1 0 1 0 2 0 1 0 2 0 2 0 5 0 1 0 2 0 1 0 1 0 1 0 2 0 3 0 7 0 9 0 9 0 1 0 2 0 3 0 1 0 2 0 3 0 1 0"/>
<path stroke="blue" d="M668 613l1 0 1 0 1 0 4 0 6 0 9 0 9 0 1 0 1 0 3 0 4 0 1 0 2 0 1 0 1 0 1 0 1 0 2 0 4 0 8 0 9 0 9 0 1 0 2 0 3 0 1 0 1 0 3 0 0 1 0 2 0 3 0 2 0 1 0 1 0 3 0 3 0 1 0 2 0 5 0 2 0 1 0 2 0 3 0 1 0 1 0 1 1 0 1 0 1 0 1 0 4 0 6 0 8 0"/>
<path stroke="blue" d="M780 648l1 0 2 0 1 0 1 0 1 0 2 0 1 0 1 0 2 0 2 0 5 0 1 0 1 0 1 0 1 0 1 0 1 0 2 0 3 0 7 0 9 0 9 0 1 0 1 0 2 0 3 0 1 0 2 0 1 0 1 0 2 0 1 0 1 0 1 0 4 0 6 0 9 0 8 0 1 0 1 0 1 0 3 0 3 0 1 0 1 0 2 0 1 0 1 0 2 0 4 0 8 0 9 0 9 0"/>
<path stroke="blue" d="M926 648l1 0 1 0 2 0 3 0 1 0 2 0 1 0 0 -4 0 -7 0 -13 0 -1 0 -3 0 -4 0 -3 1 0 1 0 1 0 2 0 4 0 8 0 6 0"/>
<path stroke="#FFA500" d="M450 39l45 0"/>
<text stroke="none" fill="white" font-size="16" x="505" y="48">
v(cd2)+14
</text>
<path stroke="#FFA500" d="M60 599l1 0 2 0 3 0 0 -1 0 -3 0 -3 0 -1 0 -1 0 -1 0 -4 0 -7 0 -5 0 -1 0 -2 0 -3 0 -2 0 2 0 4 0 8 0 16 0 4 1 0 1 0 1 0 1 0 1 0 3 0 4 0 9 0 0 -1 0 -3 0 -2 0 -1 0 -2 0 -4 0 -9 0 -4 0 -1 0 -1 0 -1 0 -1 0 -2 0 -2 0 1 0 2"/>
<path stroke="#FFA500" d="M87 568l0 2 0 2 0 1 0 3 0 4 0 9 0 4 0 1 0 3 0 2 1 0 1 0 2 0 4 0 8 0 9 0 0 -2 0 -4 0 -9 0 -6 0 -2 0 -2 0 -5 0 -4 1 0 0 1 0 3 0 5 0 5 0 2 0 3 0 2 0 2 0 2 0 5 0 4 1 0 1 0 3 0 5 0 1 0 3 0 0 -1 0 -3 0 -6 0 -13 0 -11 1 0 0 1"/>
<path stroke="#FFA500" d="M128 566l0 3 0 5 0 4 0 2 0 4 0 3 0 1 0 1 0 3 0 6 0 1 1 0 1 0 2 0 3 0 7 0 9 0 8 0 0 -1 0 -1 0 -1 0 -1 0 -1 0 -2 0 -4 0 -9 0 -14 0 3 0 5 0 11 0 15 1 0 1 0 1 0 3 0 3 0 1 0 1 0 2 0 0 -2 0 -1 0 -1 0 -1 0 -2 0 -4 0 -8 0 -4"/>
<path stroke="#FFA500" d="M172 576l0 -1 0 -2 0 -5 0 -3 0 1 0 2 0 4 0 4 0 2 0 4 0 6 0 11 1 0 1 0 2 0 4 0 8 0 9 0 9 0 0 -2 0 -3 0 -1 0 -1 0 -1 0 -3 0 -5 0 -11 0 -7 0 2 0 3 0 7 0 14 0 8 1 0 1 0 2 0 3 0 1 0 2 0 0 -1 0 -3 0 -5 0 -10 0 -2 0 -1 0 -3"/>
<path stroke="#FFA500" d="M216 574l0 -5 0 -4 1 0 1 0 0 3 0 7 0 14 0 10 1 0 1 0 2 0 4 0 8 0 6 0 1 0 2 0 0 -1 0 -3 0 -5 0 -10 0 -2 0 -1 0 -3 0 -5 0 -4 1 0 0 1 0 3 0 5 0 4 0 2 0 4 0 3 0 1 0 1 0 3 0 6 0 1 1 0 1 0 1 0 2 0 1 0 1 0 3 0 4 0 9 0 0 -2"/>
<path stroke="#FFA500" d="M267 597l0 -1 0 -1 0 -1 0 -2 0 -4 0 -9 0 -1 0 -1 0 -2 0 -4 0 -3 0 -1 0 -1 0 -1 0 1 0 2 0 5 0 5 0 1 0 1 0 1 0 1 0 1 0 1 0 1 0 1 0 1 0 2 0 3 0 5 0 2 1 0 1 0 2 0 3 0 6 0 9 0 0 -2 0 -4 0 -9 0 -18 0 -1 1 0 1 0 0 1 0 2 0 4"/>
<path stroke="#FFA500" d="M291 572l0 3 0 1 0 2 0 3 0 7 0 1 0 1 0 2 0 4 0 3 1 0 1 0 2 0 5 0 9 0 0 -2 0 -1 0 -1 0 -1 0 -2 0 -4 0 -9 0 -1 0 -1 0 -2 0 -4 0 -3 0 -1 0 -1 0 -1 0 1 0 2 0 5 0 5 0 1 0 1 0 1 0 1 0 1 0 1 0 1 0 1 0 1 0 2 0 3 0 5 0 2 1 0"/>
<path stroke="#FFA500" d="M310 599l1 0 1 0 3 0 7 0 9 0 8 0 0 -1 0 -1 0 -1 0 -1 0 -1 0 -4 0 -7 0 -4 0 -1 0 -3 0 -4 0 -3 0 -1 0 -1 0 -1 0 1 0 4 0 6 0 4 0 1 0 2 0 1 0 1 0 1 0 2 0 5 0 6 1 0 1 0 3 0 4 0 1 0 2 0 0 -1 0 -3 0 -5 0 -10 0 -2 0 -1 0 -3"/>
<path stroke="#FFA500" d="M351 574l0 -5 0 -4 1 0 1 0 0 3 0 7 0 14 0 10 1 0 1 0 2 0 4 0 8 0 9 0 9 0 0 -2 0 -1 0 -1 0 -2 0 -2 0 -6 0 -8 0 -1 0 -2 0 -4 0 -5 0 1 0 3 0 6 0 5 0 1 0 2 0 1 0 1 0 2 0 2 0 6 0 4 1 0 2 0 3 0 1 0 1 0 3 0 0 -1 0 -3 0 -6 0 -11"/>
<path stroke="#FFA500" d="M398 578l0 -1 0 -2 0 -5 0 -5 1 0 0 1 0 3 0 5 0 4 0 2 0 4 0 3 0 1 0 1 0 3 0 6 0 1 1 0 1 0 1 0 4 0 6 0 8 0 1 0 2 0 0 -1 0 -3 0 -5 0 -10 0 -2 0 -1 0 -3 0 -5 0 -4 1 0 0 3 0 7 0 14 0 10 1 0 1 0 2 0 1 0 1 0 2 0 2 0 5 0 9 0"/>
<path stroke="#FFA500" d="M448 599l0 -1 0 -3 0 -2 0 -1 0 -2 0 -4 0 -9 0 -4 0 -1 0 -1 0 -1 0 -1 0 -2 0 -2 0 1 0 2 0 2 0 2 0 1 0 3 0 4 0 9 0 4 0 1 0 3 0 2 1 0 1 0 1 0 4 0 8 0 9 0 0 -2 0 -4 0 -9 0 -6 0 -2 0 -2 0 -5 0 -4 1 0 0 1 0 2 0 4 0 3 0 1 0 2"/>
<path stroke="#FFA500" d="M473 578l0 3 0 7 0 1 0 1 0 2 0 4 0 3 1 0 1 0 3 0 4 0 1 0 3 0 0 -1 0 -4 0 -6 0 -13 0 -10 1 0 1 0 1 0 0 1 0 3 0 5 0 4 0 2 0 4 0 3 0 1 0 1 0 3 0 6 0 1 1 0 1 0 2 0 3 0 7 0 9 0 7 0 0 -1 0 -1 0 -1 0 -1 0 -1 0 -2 0 -4 0 -9"/>
<path stroke="#FFA500" d="M519 579l0 -14 0 3 0 5 0 11 0 15 1 0 1 0 1 0 3 0 3 0 1 0 1 0 2 0 0 -2 0 -1 0 -1 0 -1 0 -2 0 -4 0 -8 0 -4 0 -1 0 -2 0 -5 0 -3 0 1 0 2 0 4 0 4 0 2 0 4 0 6 0 11 1 0 1 0 2 0 4 0 8 0 9 0 9 0 0 -2 0 -3 0 -1 0 -1 0 -1 0 -3"/>
<path stroke="#FFA500" d="M566 588l0 -5 0 -11 0 -7 0 2 0 3 0 7 0 14 0 8 1 0 1 0 2 0 3 0 8 0 0 -1 0 -1 0 -2 0 -1 0 -1 0 -2 0 -4 0 -8 0 -14 0 3 0 5 0 11 0 15 1 0 1 0 1 0 3 0 6 0 7 0 1 0 2 0 0 -1 0 -3 0 -5 0 -10 0 -2 0 -1 0 -3 0 -5 0 -4 1 0 0 1"/>
<path stroke="#FFA500" d="M604 566l0 3 0 5 0 4 0 2 0 4 0 3 0 1 0 1 0 3 0 6 0 1 1 0 1 0 1 0 2 0 1 0 2 0 2 0 5 0 1 0 2 0 0 -1 0 -3 0 -5 0 -10 0 -2 0 -1 0 -3 0 -5 0 -4 1 0 1 0 0 1 0 3 0 5 0 4 0 2 0 4 0 3 0 1 0 1 0 3 0 6 0 1 1 0 2 0 3 0 7 0 9 0 9 0"/>
<path stroke="#FFA500" d="M655 599l0 -2 0 -1 0 -1 0 -1 0 -2 0 -4 0 -9 0 -1 0 -1 0 -2 0 -4 0 -3 0 -1 0 -1 0 -1 0 1 0 2 0 5 0 5 0 1 0 1 0 1 0 1 0 1 0 1 0 1 0 1 0 1 0 2 0 3 0 5 0 2 1 0 2 0 3 0 1 0 2 0 3 0 0 -1 0 -3 0 -5 0 -10 0 -2 0 -1 0 -3 0 -5"/>
<path stroke="#FFA500" d="M667 569l0 -4 1 0 0 1 0 3 0 5 0 4 0 2 0 4 0 3 0 1 0 1 0 3 0 6 0 1 1 0 1 0 1 0 4 0 6 0 9 0 9 0 0 -1 0 -1 0 -1 0 -1 0 -1 0 -4 0 -7 0 -4 0 -1 0 -3 0 -4 0 -3 0 -1 0 -1 0 -1 0 1 0 4 0 6 0 4 0 1 0 2 0 1 0 1 0 1 0 2 0 5 0 6"/>
<path stroke="#FFA500" d="M699 599l1 0 1 0 3 0 4 0 1 0 2 0 0 -1 0 -3 0 -5 0 -10 0 -2 0 -1 0 -3 0 -5 0 -4 1 0 1 0 0 3 0 7 0 14 0 10 1 0 1 0 2 0 4 0 8 0 9 0 9 0 0 -2 0 -1 0 -1 0 -2 0 -2 0 -6 0 -8 0 -1 0 -2 0 -4 0 -5 0 1 0 3 0 6 0 5 0 1 0 2 0 1"/>
<path stroke="#FFA500" d="M747 584l0 1 0 2 0 2 0 6 0 4 1 0 2 0 3 0 1 0 1 0 3 0 0 -1 0 -3 0 -6 0 -11 0 -1 0 -2 0 -5 0 -5 1 0 0 1 0 3 0 5 0 4 0 2 0 4 0 3 0 1 0 1 0 3 0 6 0 1 1 0 1 0 1 0 4 0 6 0 8 0 1 0 2 0 0 -1 0 -3 0 -5 0 -10 0 -2 0 -1 0 -3 0 -5"/>
<path stroke="#FFA500" d="M783 569l0 -4 1 0 0 3 0 7 0 14 0 10 1 0 1 0 2 0 1 0 1 0 2 0 2 0 5 0 1 0 1 0 1 0 0 -1 0 -4 0 -6 0 -13 0 -10 1 0 0 1 0 3 0 5 0 4 0 2 0 4 0 3 0 1 0 1 0 3 0 6 0 1 1 0 1 0 2 0 3 0 7 0 9 0 9 0 0 -1 0 -3 0 -2 0 -1 0 -2 0 -4"/>
<path stroke="#FFA500" d="M835 586l0 -9 0 -4 0 -1 0 -1 0 -1 0 -1 0 -2 0 -2 0 1 0 2 0 2 0 2 0 1 0 3 0 4 0 9 0 4 0 1 0 3 0 2 1 0 1 0 2 0 3 0 1 0 2 0 0 -1 0 -4 0 -6 0 -13 0 -10 1 0 1 0 2 0 0 1 0 3 0 5 0 4 0 2 0 4 0 3 0 1 0 1 0 3 0 6 0 1 1 0 1 0"/>
<path stroke="#FFA500" d="M851 599l1 0 4 0 6 0 9 0 8 0 0 -1 0 -1 0 -1 0 -1 0 -1 0 -2 0 -4 0 -9 0 -14 0 3 0 5 0 11 0 15 1 0 1 0 1 0 3 0 3 0 1 0 1 0 2 0 0 -2 0 -1 0 -1 0 -1 0 -2 0 -4 0 -8 0 -4 0 -1 0 -2 0 -5 0 -3 0 1 0 2 0 4 0 4 0 2 0 4 0 6 0 11"/>
<path stroke="#FFA500" d="M892 599l1 0 1 0 2 0 4 0 8 0 9 0 9 0 0 -2 0 -3 0 -1 0 -1 0 -1 0 -3 0 -5 0 -11 0 -7 0 2 0 3 0 7 0 14 0 8 1 0 1 0 2 0 3 0 1 0 2 0 0 -1 0 -3 0 -5 0 -10 0 -2 0 -1 0 -3 0 -5 0 -4 1 0 1 0 0 3 0 7 0 14 0 10 1 0 1 0 2 0 4 0"/>
<path stroke="#FFA500" d="M946 599l8 0 6 0"/>
<path stroke="green" d="M60 39l45 0"/>
<text stroke="none" fill="white" font-size="16" x="115" y="48">
v(cd3)+21
</text>
<path stroke="green" d="M60 551l1 0 2 0 3 0 1 0 1 0 1 0 1 0 1 0 3 0 4 0 9 0 1 0 1 0 2 0 4 0 8 0 9 0 0 -1 0 -1 0 -3 0 -5 0 -4 0 -1 0 -2 0 -5 0 -5 0 -1 0 -1 0 -1 0 -3 0 -1 1 0 1 0 1 0 3 0 5 0 1 0 3 0 0 2 0 3 0 2 0 1 0 1 0 2 0 5 0 10 0 8 1 0 1 0"/>
<path stroke="green" d="M129 551l1 0 2 0 3 0 7 0 9 0 8 0 0 -1 0 -1 0 -1 0 -1 0 -1 0 -2 0 -3 0 -4 0 -2 0 -3 0 -2 0 -1 0 -2 0 -5 0 -2 0 -1 0 -1 0 -1 1 0 1 0 1 0 3 0 3 0 1 0 1 0 2 0 0 1 0 1 0 2 0 4 0 1 0 1 0 2 0 1 0 1 0 1 0 1 0 3 0 1 0 1 0 1 0 2"/>
<path stroke="green" d="M172 541l0 1 0 1 0 1 0 1 0 3 0 1 0 1 0 1 1 0 1 0 2 0 4 0 8 0 9 0 9 0 0 -2 0 -2 0 -4 0 -7 0 -1 0 -2 0 -3 0 -6 0 -1 0 -1 0 -1 0 -1 0 -1 0 -2 1 0 1 0 2 0 3 0 1 0 2 0 0 1 0 2 0 4 0 3 0 1 0 1 0 4 0 6 0 2 0 1 0 2 0 4 0 3 1 0"/>
<path stroke="green" d="M217 551l1 0 1 0 1 0 2 0 4 0 8 0 6 0 1 0 2 0 1 0 0 -3 0 -5 0 -4 0 -1 0 -2 0 -5 0 -4 0 -1 0 -2 0 -3 0 -4 1 0 1 0 1 0 2 0 1 0 1 0 3 0 4 0 9 0 0 1 0 1 0 3 0 6 0 1 0 1 0 1 0 1 0 1 0 3 0 1 0 1 0 1 0 2 0 4 0 3 0 1 0 1 0 1 1 0"/>
<path stroke="green" d="M268 551l1 0 2 0 3 0 6 0 9 0 0 -1 0 -1 0 -3 0 -5 0 -4 0 -1 0 -2 0 -5 0 -5 0 -1 0 -1 0 -1 0 -3 0 -1 1 0 1 0 1 0 1 0 2 0 5 0 9 0 0 1 0 1 0 3 0 6 0 1 0 1 0 1 0 1 0 1 0 3 0 1 0 1 0 1 0 2 0 4 0 3 0 1 0 1 0 1 1 0 1 0 1 0 3 0"/>
<path stroke="green" d="M315 551l7 0 9 0 8 0 0 -1 0 -1 0 -2 0 -5 0 -5 0 -2 0 -3 0 -1 0 -1 0 -1 0 -1 0 -2 0 -1 0 -1 0 -2 0 -2 0 -1 0 -1 0 -1 1 0 1 0 3 0 4 0 1 0 2 0 0 1 0 2 0 4 0 3 0 1 0 1 0 4 0 6 0 2 0 1 0 2 0 4 0 3 1 0 1 0 1 0 1 0 2 0 4 0 8 0"/>
<path stroke="green" d="M369 551l9 0 9 0 0 -2 0 -2 0 -4 0 -7 0 -1 0 -1 0 -1 0 -2 0 -3 0 -4 0 -1 0 -1 0 -1 0 -1 0 -1 0 -2 1 0 2 0 3 0 1 0 1 0 3 0 0 1 0 1 0 1 0 1 0 2 0 1 0 1 0 3 0 5 0 1 0 1 0 1 0 3 0 5 0 1 0 1 0 1 0 2 0 2 1 0 1 0 1 0 1 0 4 0 6 0"/>
<path stroke="green" d="M412 551l8 0 1 0 2 0 1 0 0 -3 0 -5 0 -12 0 -14 1 0 1 0 2 0 1 0 1 0 2 0 2 0 5 0 9 0 0 6 0 14 0 8 0 2 0 2 0 2 1 0 1 0 1 0 4 0 8 0 9 0 0 -1 0 -1 0 -3 0 -5 0 -4 0 -1 0 -2 0 -5 0 -5 0 -1 0 -1 0 -1 0 -3 0 -1 1 0 1 0 1 0 3 0"/>
<path stroke="green" d="M478 517l4 0 1 0 3 0 0 1 0 2 0 4 0 3 0 1 0 1 0 4 0 6 0 12 1 0 1 0 1 0 1 0 1 0 2 0 3 0 7 0 9 0 7 0 0 -1 0 -1 0 -1 0 -1 0 -1 0 -2 0 -3 0 -4 0 -2 0 -3 0 -2 0 -1 0 -2 0 -5 0 -2 0 -1 0 -1 0 -1 1 0 1 0 1 0 3 0 3 0 1 0 1 0 2 0"/>
<path stroke="green" d="M532 517l0 1 0 1 0 2 0 4 0 1 0 1 0 2 0 1 0 1 0 1 0 1 0 3 0 1 0 1 0 1 0 2 0 1 0 1 0 1 0 1 0 3 0 1 0 1 0 1 1 0 1 0 2 0 4 0 8 0 9 0 9 0 0 -2 0 -2 0 -4 0 -7 0 -1 0 -2 0 -3 0 -6 0 -1 0 -1 0 -1 0 -1 0 -1 0 -2 1 0 1 0 2 0 3 0"/>
<path stroke="green" d="M573 517l8 0 0 1 0 1 0 3 0 3 0 1 0 1 0 2 0 1 0 1 0 1 0 1 0 4 0 1 0 1 0 1 0 2 0 1 0 1 0 2 0 1 0 1 0 1 0 2 1 0 1 0 1 0 3 0 6 0 7 0 1 0 2 0 1 0 0 -3 0 -5 0 -4 0 -1 0 -2 0 -5 0 -4 0 -1 0 -2 0 -3 0 -4 1 0 1 0 1 0 2 0 1 0 2 0"/>
<path stroke="green" d="M612 517l2 0 5 0 1 0 2 0 0 1 0 2 0 4 0 3 0 1 0 1 0 4 0 6 0 2 0 1 0 2 0 4 0 3 1 0 1 0 1 0 2 0 3 0 7 0 9 0 9 0 0 -2 0 -2 0 -4 0 -7 0 -1 0 -1 0 -1 0 -1 0 -1 0 -1 0 -3 0 -3 0 -1 0 -1 0 -1 0 -1 0 -1 0 -1 0 -1 1 0 2 0 3 0 1 0"/>
<path stroke="green" d="M662 517l2 0 3 0 0 1 0 2 0 4 0 3 0 1 0 1 0 4 0 6 0 2 0 1 0 2 0 4 0 3 1 0 1 0 1 0 1 0 4 0 6 0 9 0 9 0 0 -1 0 -1 0 -2 0 -5 0 -5 0 -2 0 -3 0 -1 0 -1 0 -1 0 -1 0 -2 0 -1 0 -1 0 -2 0 -2 0 -1 0 -1 0 -1 1 0 1 0 3 0 4 0 1 0 2 0"/>
<path stroke="green" d="M711 517l0 1 0 2 0 4 0 3 0 1 0 1 0 4 0 6 0 2 0 1 0 2 0 4 0 3 1 0 1 0 1 0 1 0 2 0 4 0 8 0 9 0 9 0 0 -2 0 -2 0 -4 0 -7 0 -1 0 -1 0 -1 0 -2 0 -3 0 -4 0 -1 0 -1 0 -1 0 -1 0 -1 0 -2 1 0 2 0 3 0 1 0 1 0 3 0 0 1 0 1 0 1 0 1 0 2"/>
<path stroke="green" d="M758 523l0 1 0 1 0 3 0 5 0 1 0 1 0 1 0 3 0 5 0 1 0 1 0 1 0 2 0 2 1 0 1 0 1 0 1 0 4 0 6 0 8 0 1 0 2 0 1 0 0 -3 0 -5 0 -12 0 -14 1 0 1 0 2 0 1 0 1 0 2 0 2 0 5 0 1 0 1 0 1 0 0 1 0 2 0 4 0 3 0 1 0 1 0 4 0 6 0 12 1 0 1 0 1 0"/>
<path stroke="green" d="M805 551l2 0 3 0 7 0 9 0 9 0 0 -2 0 -2 0 -4 0 -9 0 -10 0 -1 0 -1 0 -3 0 -2 1 0 1 0 2 0 3 0 1 0 2 0 0 1 0 2 0 4 0 3 0 1 0 1 0 4 0 6 0 12 1 0 1 0 2 0 1 0 1 0 1 0 4 0 6 0 9 0 8 0 0 -1 0 -1 0 -1 0 -1 0 -1 0 -2 0 -3 0 -4 0 -2"/>
<path stroke="green" d="M879 535l0 -3 0 -2 0 -1 0 -2 0 -5 0 -2 0 -1 0 -1 0 -1 1 0 1 0 1 0 3 0 3 0 1 0 1 0 2 0 0 1 0 1 0 2 0 4 0 1 0 1 0 2 0 1 0 1 0 1 0 1 0 3 0 1 0 1 0 1 0 2 0 1 0 1 0 1 0 1 0 3 0 1 0 1 0 1 1 0 1 0 2 0 4 0 8 0 9 0 9 0 0 -2 0 -2"/>
<path stroke="green" d="M926 547l0 -4 0 -7 0 -1 0 -2 0 -3 0 -6 0 -1 0 -1 0 -1 0 -1 0 -1 0 -2 1 0 1 0 2 0 3 0 1 0 2 0 0 1 0 2 0 4 0 3 0 1 0 1 0 4 0 6 0 2 0 1 0 2 0 4 0 3 1 0 1 0 1 0 1 0 2 0 4 0 8 0 6 0"/>
<path stroke="#FFC0C5" d="M450 55l45 0"/>
<text stroke="none" fill="white" font-size="16" x="505" y="64">
v(cd4)+28
</text>
<path stroke="#FFC0C5" d="M60 468l1 0 2 0 3 0 1 0 1 0 1 0 0 1 0 2 0 5 0 3 0 2 0 3 0 7 0 1 0 1 0 3 0 4 0 3 1 0 1 0 3 0 4 0 9 0 1 0 1 0 2 0 4 0 8 0 9 0 1 0 1 0 1 0 3 0 5 0 1 0 3 0 1 0 1 0 1 0 2 0 3 0 7 0 9 0 8 0 0 -1 0 -1 0 -1 0 -4 0 -3 0 -1 0 -2"/>
<path stroke="#FFC0C5" d="M159 490l0 -1 0 -1 0 -1 0 -2 0 -1 0 -2 0 -4 0 -3 0 -2 0 -3 0 -2 1 0 1 0 1 0 3 0 3 0 1 0 1 0 2 0 1 0 1 0 2 0 4 0 8 0 9 0 9 0 1 0 1 0 2 0 3 0 1 0 2 0 1 0 1 0 1 0 1 0 2 0 4 0 8 0 6 0 1 0 2 0 1 0 1 0 1 0 1 0 2 0 0 1 0 2"/>
<path stroke="#FFC0C5" d="M249 471l0 5 0 3 0 2 0 3 0 7 0 1 0 1 0 3 0 4 0 3 1 0 1 0 3 0 4 0 9 0 1 0 1 0 2 0 3 0 6 0 9 0 1 0 1 0 1 0 1 0 2 0 5 0 9 0 1 0 1 0 1 0 3 0 7 0 9 0 8 0 0 -1 0 -1 0 -1 0 -4 0 -3 0 -1 0 -2 0 -1 0 -1 0 -1 0 -2 0 -5 0 -5 0 -2"/>
<path stroke="#FFC0C5" d="M339 473l0 -3 0 -1 0 -1 1 0 1 0 3 0 4 0 1 0 2 0 1 0 1 0 1 0 1 0 2 0 4 0 8 0 9 0 9 0 1 0 2 0 3 0 1 0 1 0 3 0 1 0 1 0 1 0 1 0 4 0 6 0 8 0 1 0 2 0 1 0 1 0 1 0 2 0 1 0 0 1 0 2 0 5 0 3 0 2 0 3 0 7 0 1 0 1 0 3 0 4 0 3 1 0"/>
<path stroke="#FFC0C5" d="M430 503l2 0 2 0 5 0 9 0 1 0 1 0 1 0 4 0 8 0 9 0 1 0 1 0 1 0 3 0 4 0 1 0 3 0 1 0 1 0 1 0 1 0 1 0 2 0 3 0 7 0 9 0 7 0 0 -1 0 -1 0 -1 0 -4 0 -3 0 -1 0 -2 0 -1 0 -1 0 -1 0 -2 0 -1 0 -2 0 -4 0 -3 0 -2 0 -3 0 -2 1 0 1 0 1 0"/>
<path stroke="#FFC0C5" d="M522 468l3 0 3 0 1 0 1 0 2 0 1 0 1 0 2 0 4 0 8 0 9 0 9 0 1 0 1 0 2 0 3 0 8 0 1 0 1 0 1 0 3 0 6 0 7 0 1 0 2 0 1 0 1 0 1 0 1 0 2 0 0 1 0 2 0 5 0 3 0 2 0 3 0 7 0 1 0 1 0 3 0 4 0 3 1 0 2 0 2 0 5 0 1 0 2 0 1 0 1 0 1 0 2 0"/>
<path stroke="#FFC0C5" d="M627 503l3 0 7 0 9 0 9 0 1 0 2 0 3 0 1 0 2 0 3 0 1 0 1 0 1 0 1 0 4 0 6 0 9 0 9 0 0 -1 0 -1 0 -1 0 -4 0 -3 0 -1 0 -2 0 -1 0 -1 0 -1 0 -2 0 -5 0 -5 0 -2 0 -3 0 -1 0 -1 1 0 1 0 3 0 4 0 1 0 2 0 1 0 1 0 1 0 1 0 2 0 4 0 8 0"/>
<path stroke="#FFC0C5" d="M729 468l9 0 9 0 1 0 2 0 3 0 1 0 1 0 3 0 1 0 1 0 1 0 1 0 4 0 6 0 8 0 1 0 2 0 1 0 1 0 1 0 2 0 1 0 0 1 0 2 0 5 0 3 0 2 0 3 0 7 0 1 0 1 0 3 0 4 0 3 1 0 2 0 2 0 5 0 1 0 1 0 1 0 1 0 1 0 1 0 2 0 3 0 7 0 9 0 9 0 1 0 1 0 2 0"/>
<path stroke="#FFC0C5" d="M839 503l3 0 1 0 2 0 1 0 1 0 2 0 1 0 1 0 1 0 4 0 6 0 9 0 8 0 0 -1 0 -1 0 -1 0 -4 0 -3 0 -1 0 -2 0 -1 0 -1 0 -1 0 -2 0 -1 0 -2 0 -4 0 -3 0 -2 0 -3 0 -2 1 0 1 0 1 0 3 0 3 0 1 0 1 0 2 0 1 0 1 0 2 0 4 0 8 0 9 0 9 0 1 0 1 0"/>
<path stroke="#FFC0C5" d="M928 468l2 0 3 0 1 0 2 0 1 0 1 0 1 0 1 0 2 0 4 0 8 0 6 0"/>
<path stroke="#A52A2A" d="M60 55l45 0"/>
<text stroke="none" fill="white" font-size="16" x="115" y="64">
v(cd5)+35
</text>
<path stroke="#A52A2A" d="M60 454l1 0 2 0 3 0 1 0 1 0 1 0 1 0 1 0 3 0 4 0 9 0 1 0 1 0 2 0 4 0 8 0 9 0 0 -2 0 -2 0 -6 0 -4 0 -1 0 -2 0 -4 0 -6 0 -1 0 -2 0 -2 0 -2 1 0 1 0 1 0 3 0 5 0 1 0 3 0 0 1 0 1 0 3 0 3 0 1 0 3 0 5 0 9 0 8 1 0 1 0 1 0 2 0"/>
<path stroke="#A52A2A" d="M132 454l3 0 7 0 9 0 8 0 0 -1 0 -2 0 -1 0 -1 0 -1 0 -4 0 -3 0 -1 0 -1 0 -3 0 -2 0 -1 0 -1 0 -2 0 -4 0 -2 0 -1 0 -1 0 -1 0 -1 1 0 1 0 1 0 3 0 3 0 1 0 1 0 2 0 0 1 0 1 0 3 0 4 0 1 0 2 0 2 0 1 0 2 0 3 0 1 0 1 0 2 0 2 0 1"/>
<path stroke="#A52A2A" d="M172 447l0 2 0 2 0 1 0 1 0 1 1 0 1 0 2 0 4 0 8 0 9 0 9 0 0 -1 0 -2 0 -5 0 -7 0 -2 0 -4 0 -6 0 -1 0 -1 0 -1 0 -2 0 -2 1 0 1 0 2 0 3 0 1 0 2 0 0 1 0 2 0 4 0 3 0 1 0 2 0 3 0 7 0 1 0 1 0 2 0 4 0 3 1 0 1 0 1 0 1 0 2 0 4 0"/>
<path stroke="#A52A2A" d="M226 454l8 0 6 0 1 0 2 0 1 0 0 -2 0 -6 0 -4 0 -1 0 -2 0 -4 0 -5 0 -2 0 -4 0 -4 1 0 1 0 1 0 2 0 1 0 1 0 3 0 4 0 9 0 0 1 0 2 0 3 0 5 0 1 0 1 0 1 0 1 0 1 0 3 0 2 0 1 0 2 0 5 0 2 0 1 0 1 0 1 1 0 1 0 2 0 3 0 6 0 9 0 0 -2"/>
<path stroke="#A52A2A" d="M289 452l0 -2 0 -6 0 -4 0 -1 0 -2 0 -4 0 -6 0 -1 0 -2 0 -2 0 -2 1 0 1 0 1 0 1 0 2 0 5 0 9 0 0 1 0 2 0 3 0 5 0 1 0 1 0 1 0 1 0 1 0 3 0 2 0 1 0 2 0 5 0 2 0 1 0 1 0 1 1 0 1 0 1 0 3 0 7 0 9 0 8 0 0 -1 0 -3 0 -4 0 -5 0 -1"/>
<path stroke="#A52A2A" d="M339 440l0 -1 0 -3 0 -1 0 -1 0 -1 0 -2 0 -1 0 -1 0 -1 0 -2 0 -2 0 -1 0 -1 0 -1 0 -1 1 0 1 0 3 0 4 0 1 0 2 0 0 1 0 2 0 4 0 3 0 1 0 2 0 3 0 7 0 1 0 1 0 2 0 4 0 3 1 0 1 0 1 0 1 0 2 0 4 0 8 0 9 0 9 0 0 -1 0 -2 0 -5 0 -7"/>
<path stroke="#A52A2A" d="M387 439l0 -2 0 -1 0 -1 0 -3 0 -5 0 -1 0 -1 0 -1 0 -2 0 -2 1 0 2 0 3 0 1 0 1 0 3 0 0 1 0 1 0 1 0 2 0 1 0 1 0 2 0 2 0 6 0 1 0 1 0 3 0 5 0 1 0 1 0 1 0 3 0 1 1 0 1 0 1 0 1 0 4 0 6 0 8 0 1 0 2 0 1 0 0 -2 0 -6 0 -11 0 -15"/>
<path stroke="#A52A2A" d="M424 420l1 0 1 0 2 0 1 0 1 0 2 0 2 0 5 0 9 0 0 7 0 13 0 8 0 1 0 1 0 3 0 1 1 0 1 0 1 0 4 0 8 0 9 0 0 -2 0 -2 0 -6 0 -4 0 -1 0 -2 0 -4 0 -6 0 -1 0 -2 0 -2 0 -2 1 0 1 0 1 0 3 0 4 0 1 0 3 0 0 1 0 2 0 4 0 3 0 1 0 2 0 3 0 7"/>
<path stroke="#A52A2A" d="M486 443l0 11 1 0 1 0 1 0 1 0 1 0 2 0 3 0 7 0 9 0 7 0 0 -1 0 -2 0 -1 0 -1 0 -1 0 -4 0 -3 0 -1 0 -1 0 -3 0 -2 0 -1 0 -1 0 -2 0 -4 0 -2 0 -1 0 -1 0 -1 0 -1 1 0 1 0 1 0 3 0 3 0 1 0 1 0 2 0 0 1 0 1 0 3 0 4 0 1 0 2 0 2 0 1"/>
<path stroke="#A52A2A" d="M532 435l0 2 0 3 0 1 0 1 0 2 0 2 0 1 0 2 0 2 0 1 0 1 0 1 1 0 1 0 2 0 4 0 8 0 9 0 9 0 0 -1 0 -2 0 -5 0 -7 0 -2 0 -4 0 -6 0 -1 0 -1 0 -1 0 -2 0 -2 1 0 1 0 2 0 3 0 8 0 0 1 0 1 0 3 0 4 0 1 0 2 0 2 0 1 0 2 0 3 0 1 0 1 0 1"/>
<path stroke="#A52A2A" d="M581 443l0 3 0 1 0 1 0 2 0 1 0 2 0 1 1 0 1 0 1 0 3 0 6 0 7 0 1 0 2 0 1 0 0 -2 0 -6 0 -4 0 -1 0 -2 0 -4 0 -5 0 -2 0 -4 0 -4 1 0 1 0 1 0 2 0 1 0 2 0 2 0 5 0 1 0 2 0 0 1 0 2 0 4 0 3 0 1 0 2 0 3 0 7 0 1 0 1 0 2 0 4 0 3 1 0"/>
<path stroke="#A52A2A" d="M623 454l1 0 1 0 2 0 3 0 7 0 9 0 9 0 0 -1 0 -2 0 -5 0 -7 0 -2 0 -1 0 -1 0 -1 0 -1 0 -2 0 -4 0 -1 0 -1 0 -1 0 -1 0 -2 0 -1 1 0 2 0 3 0 1 0 2 0 3 0 0 1 0 2 0 4 0 3 0 1 0 2 0 3 0 7 0 1 0 1 0 2 0 4 0 3 1 0 1 0 1 0 1 0 4 0"/>
<path stroke="#A52A2A" d="M675 454l6 0 9 0 9 0 0 -1 0 -3 0 -4 0 -5 0 -1 0 -1 0 -3 0 -1 0 -1 0 -1 0 -2 0 -1 0 -1 0 -1 0 -2 0 -2 0 -1 0 -1 0 -1 0 -1 1 0 1 0 3 0 4 0 1 0 2 0 0 1 0 2 0 4 0 3 0 1 0 2 0 3 0 7 0 1 0 1 0 2 0 4 0 3 1 0 1 0 1 0 1 0 2 0"/>
<path stroke="#A52A2A" d="M717 454l4 0 8 0 9 0 9 0 0 -1 0 -2 0 -5 0 -7 0 -2 0 -1 0 -1 0 -3 0 -5 0 -1 0 -1 0 -1 0 -2 0 -2 1 0 2 0 3 0 1 0 1 0 3 0 0 1 0 1 0 1 0 2 0 1 0 1 0 2 0 2 0 6 0 1 0 1 0 3 0 5 0 1 0 1 0 1 0 3 0 1 1 0 1 0 1 0 1 0 4 0 6 0 8 0"/>
<path stroke="#A52A2A" d="M780 454l1 0 2 0 1 0 0 -2 0 -6 0 -11 0 -15 1 0 1 0 2 0 1 0 1 0 2 0 2 0 5 0 1 0 1 0 1 0 0 1 0 2 0 4 0 3 0 1 0 2 0 3 0 7 0 11 1 0 1 0 1 0 2 0 3 0 7 0 9 0 9 0 0 -1 0 -2 0 -5 0 -9 0 -10 0 -1 0 -1 0 -3 0 -2 1 0 1 0 2 0 3 0"/>
<path stroke="#A52A2A" d="M842 420l1 0 2 0 0 1 0 2 0 4 0 3 0 1 0 2 0 3 0 7 0 11 1 0 1 0 2 0 1 0 1 0 1 0 4 0 6 0 9 0 8 0 0 -1 0 -2 0 -1 0 -1 0 -1 0 -4 0 -3 0 -1 0 -1 0 -3 0 -2 0 -1 0 -1 0 -2 0 -4 0 -2 0 -1 0 -1 0 -1 0 -1 1 0 1 0 1 0 3 0 3 0 1 0"/>
<path stroke="#A52A2A" d="M889 420l1 0 2 0 0 1 0 1 0 3 0 4 0 1 0 2 0 2 0 1 0 2 0 3 0 1 0 1 0 2 0 2 0 1 0 2 0 2 0 1 0 1 0 1 1 0 1 0 2 0 4 0 8 0 9 0 9 0 0 -1 0 -2 0 -5 0 -7 0 -2 0 -4 0 -6 0 -1 0 -1 0 -1 0 -2 0 -2 1 0 1 0 2 0 3 0 1 0 2 0 0 1 0 2"/>
<path stroke="#A52A2A" d="M936 423l0 4 0 3 0 1 0 2 0 3 0 7 0 1 0 1 0 2 0 4 0 3 1 0 1 0 1 0 1 0 2 0 4 0 8 0 6 0"/>
<path stroke="#F0E68C" d="M450 71l45 0"/>
<text stroke="none" fill="white" font-size="16" x="505" y="80">
v(cd6)+42
</text>
<path stroke="#F0E68C" d="M60 406l1 0 2 0 3 0 1 0 1 0 1 0 1 0 1 0 3 0 4 0 9 0 1 0 1 0 2 0 4 0 8 0 9 0 1 0 1 0 1 0 3 0 5 0 1 0 3 0 1 0 1 0 1 0 2 0 3 0 7 0 9 0 8 0 1 0 1 0 1 0 3 0 3 0 1 0 1 0 2 0 1 0 1 0 2 0 4 0 8 0 9 0 9 0 1 0 1 0 2 0 3 0 1 0"/>
<path stroke="#F0E68C" d="M214 406l2 0 1 0 0 -3 0 -7 0 -14 0 -1 0 -2 0 -4 0 -3 1 0 1 0 1 0 2 0 4 0 8 0 6 0 1 0 2 0 1 0 1 0 1 0 1 0 2 0 1 0 1 0 3 0 4 0 9 0 1 0 1 0 2 0 3 0 6 0 9 0 1 0 1 0 1 0 1 0 2 0 5 0 9 0 1 0 1 0 1 0 3 0 7 0 9 0 8 0 1 0 1 0"/>
<path stroke="#F0E68C" d="M341 372l3 0 4 0 1 0 2 0 1 0 1 0 1 0 1 0 2 0 4 0 8 0 9 0 9 0 1 0 2 0 3 0 1 0 1 0 3 0 0 1 0 1 0 3 0 3 0 1 0 1 0 3 0 2 0 1 0 1 0 2 0 4 0 3 0 1 0 1 0 4 0 1 0 1 1 0 1 0 1 0 1 0 4 0 6 0 8 0 1 0 2 0 1 0 1 0 1 0 2 0 1 0 1 0"/>
<path stroke="#F0E68C" d="M430 406l2 0 2 0 5 0 9 0 1 0 1 0 1 0 4 0 8 0 9 0 1 0 1 0 1 0 3 0 4 0 1 0 3 0 1 0 1 0 1 0 1 0 1 0 2 0 3 0 7 0 9 0 7 0 1 0 1 0 1 0 3 0 3 0 1 0 1 0 2 0 1 0 1 0 2 0 4 0 8 0 9 0 9 0 1 0 1 0 2 0 3 0 8 0 0 -1 0 -1 0 -1 0 -1"/>
<path stroke="#F0E68C" d="M581 402l0 -1 0 -1 0 -3 0 -2 0 -1 0 -2 0 -1 0 -1 0 -2 0 -4 0 -3 0 -1 0 -2 0 -1 0 -1 0 -1 0 -3 1 0 1 0 1 0 3 0 6 0 7 0 1 0 2 0 1 0 1 0 1 0 1 0 2 0 1 0 2 0 2 0 5 0 1 0 2 0 1 0 1 0 1 0 2 0 3 0 7 0 9 0 9 0 1 0 2 0 3 0 1 0"/>
<path stroke="#F0E68C" d="M662 372l2 0 3 0 1 0 1 0 1 0 1 0 4 0 6 0 9 0 9 0 1 0 1 0 3 0 4 0 1 0 2 0 1 0 1 0 1 0 1 0 2 0 4 0 8 0 9 0 9 0 1 0 2 0 3 0 1 0 1 0 3 0 0 1 0 1 0 3 0 3 0 1 0 1 0 3 0 2 0 1 0 1 0 2 0 4 0 3 0 1 0 1 0 4 0 1 0 1 1 0 1 0 1 0"/>
<path stroke="#F0E68C" d="M761 406l1 0 4 0 6 0 8 0 1 0 2 0 1 0 1 0 1 0 2 0 1 0 1 0 2 0 2 0 5 0 1 0 1 0 1 0 1 0 1 0 1 0 2 0 3 0 7 0 9 0 9 0 1 0 1 0 2 0 3 0 1 0 2 0 1 0 1 0 2 0 1 0 1 0 1 0 4 0 6 0 9 0 8 0 1 0 1 0 1 0 3 0 3 0 1 0 1 0 2 0 1 0 1 0"/>
<path stroke="#F0E68C" d="M894 406l2 0 4 0 8 0 9 0 9 0 1 0 1 0 2 0 3 0 1 0 2 0 1 0 0 -3 0 -7 0 -14 0 -1 0 -2 0 -4 0 -3 1 0 1 0 1 0 2 0 4 0 8 0 6 0"/>
<path stroke="#DDA0DD" d="M60 71l45 0"/>
<text stroke="none" fill="white" font-size="16" x="115" y="80">
v(cd7)+49
</text>
<path stroke="#DDA0DD" d="M60 323l1 0 2 0 3 0 0 15 0 6 0 1 0 3 0 2 0 1 0 1 0 2 0 4 1 0 1 0 1 0 1 0 1 0 3 0 4 0 9 0 0 -1 0 -1 0 -2 0 -5 0 -9 0 -10 0 -2 0 -2 0 -2 0 -1 1 0 1 0 2 0 4 0 8 0 9 0 1 0 0 1 0 3 0 4 0 3 0 1 0 2 0 3 0 7 0 1 0 1 0 3 0 5"/>
<path stroke="#DDA0DD" d="M113 357l0 1 1 0 1 0 3 0 5 0 1 0 3 0 1 0 0 -3 0 -6 0 -3 0 -1 0 -2 0 -5 0 -4 0 -1 0 -2 0 -3 0 -5 1 0 1 0 2 0 3 0 7 0 9 0 8 0 0 1 0 1 0 2 0 3 0 7 0 15 0 3 0 1 0 1 0 1 1 0 1 0 1 0 3 0 3 0 1 0 1 0 2 0 0 -1 0 -1 0 -2 0 -5"/>
<path stroke="#DDA0DD" d="M172 349l0 -8 0 -1 0 -2 0 -4 0 -4 0 -1 0 -1 0 -1 0 -3 0 -1 1 0 1 0 2 0 4 0 8 0 9 0 9 0 0 8 0 5 0 1 0 2 0 4 0 3 0 1 0 2 0 2 0 1 0 2 0 3 0 1 1 0 1 0 2 0 3 0 1 0 2 0 1 0 1 0 0 -3 0 -6 0 -11 0 -15 1 0 1 0 2 0 4 0 8 0 6 0"/>
<path stroke="#DDA0DD" d="M240 323l1 0 2 0 0 1 0 3 0 4 0 3 0 1 0 1 0 4 0 6 0 2 0 1 0 2 0 4 0 3 1 0 1 0 1 0 1 0 2 0 1 0 1 0 3 0 4 0 9 0 0 -1 0 -1 0 -2 0 -5 0 -6 0 -1 0 -1 0 -1 0 -1 0 -1 0 -1 0 -3 0 -4 0 -1 0 -1 0 -1 0 -1 0 -1 0 -1 0 -1 1 0 1 0"/>
<path stroke="#DDA0DD" d="M269 323l2 0 3 0 6 0 9 0 1 0 1 0 0 4 0 7 0 14 0 10 1 0 1 0 2 0 5 0 9 0 0 -1 0 -1 0 -2 0 -5 0 -6 0 -1 0 -1 0 -1 0 -1 0 -1 0 -1 0 -3 0 -4 0 -1 0 -1 0 -1 0 -1 0 -1 0 -1 0 -1 1 0 1 0 1 0 3 0 7 0 9 0 8 0 0 1 0 2 0 3 0 4 0 1"/>
<path stroke="#DDA0DD" d="M339 334l0 2 0 1 0 1 0 2 0 2 0 2 0 1 0 1 0 2 0 4 0 3 0 1 0 1 0 1 1 0 1 0 3 0 4 0 1 0 2 0 1 0 1 0 0 -3 0 -6 0 -11 0 -15 1 0 1 0 2 0 4 0 8 0 9 0 9 0 0 1 0 2 0 3 0 4 0 1 0 1 0 1 0 1 0 1 0 1 0 1 0 2 0 3 0 1 0 1 0 1 0 1 0 1"/>
<path stroke="#DDA0DD" d="M387 350l0 2 0 2 0 1 0 2 0 1 1 0 2 0 3 0 1 0 1 0 3 0 1 0 0 -3 0 -6 0 -3 0 -1 0 -2 0 -5 0 -4 0 -1 0 -2 0 -3 0 -5 1 0 1 0 1 0 4 0 6 0 8 0 1 0 2 0 0 1 0 3 0 4 0 3 0 1 0 1 0 4 0 6 0 2 0 1 0 2 0 4 0 3 1 0 1 0 1 0 2 0 1 0"/>
<path stroke="#DDA0DD" d="M429 358l1 0 2 0 2 0 5 0 9 0 0 -1 0 -1 0 -2 0 -5 0 -9 0 -10 0 -2 0 -2 0 -2 0 -1 1 0 1 0 1 0 4 0 8 0 9 0 1 0 0 1 0 3 0 4 0 3 0 1 0 1 0 4 0 6 0 2 0 1 0 2 0 4 0 3 1 0 1 0 3 0 4 0 1 0 3 0 1 0 1 0 1 0 0 -3 0 -6 0 -3 0 -1"/>
<path stroke="#DDA0DD" d="M489 345l0 -2 0 -5 0 -4 0 -1 0 -2 0 -3 0 -5 1 0 1 0 2 0 3 0 7 0 9 0 7 0 0 1 0 1 0 2 0 3 0 7 0 15 0 3 0 1 0 1 0 1 1 0 1 0 1 0 3 0 3 0 1 0 1 0 2 0 0 -1 0 -1 0 -2 0 -5 0 -8 0 -1 0 -2 0 -4 0 -4 0 -1 0 -1 0 -1 0 -3 0 -1 1 0"/>
<path stroke="#DDA0DD" d="M533 323l1 0 2 0 4 0 8 0 9 0 9 0 0 8 0 5 0 1 0 2 0 4 0 3 0 1 0 2 0 2 0 1 0 2 0 3 0 1 1 0 1 0 2 0 3 0 8 0 0 -1 0 -3 0 -5 0 -10 0 -1 0 -1 0 -1 0 -1 0 -2 0 -3 0 -2 0 -1 0 -2 0 -1 0 -1 1 0 1 0 1 0 3 0 6 0 7 0 1 0 2 0 0 1"/>
<path stroke="#DDA0DD" d="M603 324l0 3 0 4 0 3 0 1 0 1 0 4 0 6 0 2 0 1 0 2 0 4 0 3 1 0 1 0 1 0 1 0 2 0 1 0 2 0 2 0 5 0 1 0 2 0 1 0 1 0 0 -3 0 -6 0 -3 0 -1 0 -2 0 -5 0 -4 0 -1 0 -2 0 -3 0 -5 1 0 2 0 3 0 7 0 9 0 9 0 0 1 0 1 0 1 0 3 0 6 0 1 0 1"/>
<path stroke="#DDA0DD" d="M655 337l0 1 0 2 0 2 0 2 0 1 0 1 0 2 0 4 0 2 0 1 0 2 0 1 1 0 2 0 3 0 1 0 2 0 3 0 1 0 0 -3 0 -6 0 -3 0 -1 0 -2 0 -5 0 -4 0 -1 0 -2 0 -3 0 -5 1 0 1 0 1 0 4 0 6 0 9 0 9 0 0 1 0 2 0 3 0 4 0 1 0 2 0 1 0 1 0 2 0 2 0 2 0 1"/>
<path stroke="#DDA0DD" d="M699 345l0 1 0 2 0 4 0 3 0 1 0 1 0 1 1 0 1 0 3 0 4 0 1 0 2 0 1 0 1 0 0 -3 0 -6 0 -11 0 -15 1 0 1 0 2 0 4 0 8 0 9 0 9 0 0 1 0 2 0 3 0 4 0 1 0 1 0 1 0 1 0 1 0 1 0 1 0 2 0 3 0 1 0 1 0 1 0 1 0 1 0 2 0 2 0 1 0 2 0 1 1 0 2 0"/>
<path stroke="#DDA0DD" d="M750 358l3 0 1 0 1 0 3 0 1 0 0 -3 0 -6 0 -3 0 -1 0 -2 0 -5 0 -4 0 -1 0 -2 0 -3 0 -5 1 0 1 0 1 0 4 0 6 0 8 0 1 0 2 0 0 1 0 3 0 4 0 3 0 1 0 1 0 4 0 6 0 2 0 1 0 2 0 4 0 3 1 0 1 0 1 0 2 0 1 0 1 0 2 0 2 0 5 0 1 0 1 0 1 0"/>
<path stroke="#DDA0DD" d="M802 358l1 0 0 -3 0 -6 0 -3 0 -1 0 -2 0 -5 0 -4 0 -1 0 -2 0 -3 0 -5 1 0 1 0 2 0 3 0 7 0 9 0 9 0 0 7 0 14 0 7 0 1 0 1 0 3 0 2 1 0 1 0 2 0 3 0 1 0 2 0 1 0 1 0 2 0 0 -3 0 -6 0 -3 0 -1 0 -2 0 -5 0 -4 0 -1 0 -2 0 -3 0 -5"/>
<path stroke="#DDA0DD" d="M849 323l1 0 1 0 1 0 4 0 6 0 9 0 8 0 0 1 0 1 0 2 0 3 0 7 0 15 0 3 0 1 0 1 0 1 1 0 1 0 1 0 3 0 3 0 1 0 1 0 2 0 0 -1 0 -1 0 -2 0 -5 0 -8 0 -1 0 -2 0 -4 0 -4 0 -1 0 -1 0 -1 0 -3 0 -1 1 0 1 0 2 0 4 0 8 0 9 0 9 0 0 8 0 5"/>
<path stroke="#DDA0DD" d="M926 336l0 1 0 2 0 4 0 3 0 1 0 2 0 2 0 1 0 2 0 3 0 1 1 0 1 0 2 0 3 0 1 0 2 0 1 0 1 0 0 -3 0 -6 0 -11 0 -15 1 0 1 0 2 0 4 0 8 0 6 0"/>
<path stroke="#DA70D6" d="M450 87l45 0"/>
<text stroke="none" fill="white" font-size="16" x="505" y="96">
v(cd8)+56
</text>
<path stroke="#DA70D6" d="M60 310l1 0 2 0 3 0 0 -1 0 -1 0 -2 0 -4 0 -1 0 -2 0 -4 0 -7 0 -5 0 -1 0 -1 0 -4 0 -2 0 2 0 4 0 8 0 16 0 5 1 0 1 0 1 0 1 0 1 0 3 0 4 0 9 0 0 -2 0 -2 0 -2 0 -1 0 -1 0 -2 0 -4 0 -9 0 -4 0 -1 0 -1 0 -1 0 -1 0 -2 0 -2 0 1"/>
<path stroke="#DA70D6" d="M87 276l0 2 0 3 0 1 0 2 0 2 0 4 0 9 0 4 0 2 0 2 0 2 0 1 1 0 1 0 2 0 4 0 8 0 9 0 0 -3 0 -4 0 -9 0 -6 0 -2 0 -2 0 -5 0 -4 1 0 0 1 0 3 0 6 0 4 0 2 0 3 0 2 0 1 0 1 0 2 0 5 0 5 1 0 1 0 3 0 5 0 1 0 3 0 0 -2 0 -3 0 -6 0 -13"/>
<path stroke="#DA70D6" d="M127 286l0 -11 1 0 0 1 0 3 0 5 0 4 0 1 0 2 0 3 0 3 0 1 0 1 0 3 0 6 0 2 1 0 1 0 2 0 3 0 7 0 9 0 8 0 0 -1 0 -2 0 -1 0 -1 0 -1 0 -2 0 -4 0 -9 0 -14 0 3 0 5 0 12 0 15 1 0 1 0 1 0 3 0 3 0 1 0 1 0 2 0 0 -1 0 -1 0 -2 0 -1 0 -2"/>
<path stroke="#DA70D6" d="M172 303l0 -5 0 -8 0 -4 0 -1 0 -2 0 -5 0 -3 0 1 0 2 0 5 0 3 0 1 0 1 0 4 0 7 0 11 1 0 1 0 2 0 4 0 8 0 9 0 9 0 0 -1 0 -2 0 -3 0 -1 0 -1 0 -1 0 -3 0 -5 0 -11 0 -7 0 2 0 3 0 7 0 14 0 9 1 0 1 0 2 0 3 0 1 0 2 0 0 -2 0 -2 0 -6"/>
<path stroke="#DA70D6" d="M216 300l0 -10 0 -1 0 -2 0 -2 0 -6 0 -4 1 0 1 0 0 4 0 6 0 14 0 11 1 0 1 0 2 0 4 0 8 0 6 0 1 0 2 0 0 -2 0 -2 0 -6 0 -10 0 -1 0 -2 0 -2 0 -6 0 -4 1 0 0 1 0 3 0 5 0 4 0 1 0 2 0 3 0 3 0 1 0 1 0 3 0 6 0 2 1 0 1 0 1 0 2 0"/>
<path stroke="#DA70D6" d="M249 310l1 0 1 0 3 0 4 0 9 0 0 -1 0 -1 0 -2 0 -1 0 -3 0 -4 0 -9 0 -1 0 -1 0 -2 0 -4 0 -3 0 -1 0 -1 0 -1 0 1 0 3 0 4 0 5 0 1 0 1 0 1 0 1 0 1 0 1 0 1 0 1 0 1 0 1 0 1 0 3 0 6 0 2 1 0 1 0 2 0 3 0 6 0 9 0 0 -3 0 -4 0 -9 0 -18"/>
<path stroke="#DA70D6" d="M289 276l0 -1 1 0 1 0 0 1 0 2 0 4 0 3 0 1 0 2 0 3 0 7 0 1 0 1 0 2 0 4 0 4 1 0 1 0 2 0 5 0 9 0 0 -1 0 -1 0 -2 0 -1 0 -3 0 -4 0 -9 0 -1 0 -1 0 -2 0 -4 0 -3 0 -1 0 -1 0 -1 0 1 0 3 0 4 0 5 0 1 0 1 0 1 0 1 0 1 0 1 0 1 0 1"/>
<path stroke="#DA70D6" d="M309 296l0 1 0 1 0 1 0 3 0 6 0 2 1 0 1 0 1 0 3 0 7 0 9 0 8 0 0 -1 0 -1 0 -1 0 -1 0 -1 0 -1 0 -4 0 -6 0 -5 0 -1 0 -2 0 -5 0 -3 0 -1 0 -1 0 -1 0 2 0 3 0 6 0 5 0 1 0 1 0 1 0 1 0 1 0 2 0 5 0 7 1 0 1 0 3 0 4 0 1 0 2 0 0 -2"/>
<path stroke="#DA70D6" d="M351 308l0 -2 0 -6 0 -10 0 -1 0 -2 0 -2 0 -6 0 -4 1 0 1 0 0 4 0 6 0 14 0 11 1 0 1 0 2 0 4 0 8 0 9 0 9 0 0 -1 0 -2 0 -1 0 -1 0 -2 0 -2 0 -5 0 -9 0 -1 0 -2 0 -4 0 -5 0 2 0 2 0 6 0 5 0 1 0 2 0 1 0 1 0 1 0 1 0 3 0 5 0 5"/>
<path stroke="#DA70D6" d="M387 310l1 0 2 0 3 0 1 0 1 0 3 0 0 -2 0 -3 0 -6 0 -10 0 -2 0 -2 0 -5 0 -5 1 0 0 1 0 3 0 5 0 4 0 1 0 2 0 3 0 3 0 1 0 1 0 3 0 6 0 2 1 0 1 0 1 0 4 0 6 0 8 0 1 0 2 0 0 -2 0 -2 0 -6 0 -10 0 -1 0 -2 0 -2 0 -6 0 -4 1 0 0 4"/>
<path stroke="#DA70D6" d="M424 279l0 6 0 14 0 11 1 0 1 0 2 0 1 0 1 0 2 0 2 0 5 0 9 0 0 -2 0 -2 0 -2 0 -1 0 -1 0 -2 0 -4 0 -9 0 -4 0 -1 0 -1 0 -1 0 -1 0 -2 0 -2 0 1 0 2 0 3 0 1 0 2 0 2 0 4 0 9 0 4 0 2 0 2 0 2 0 1 1 0 1 0 1 0 4 0 8 0 9 0 0 -3 0 -4"/>
<path stroke="#DA70D6" d="M472 303l0 -9 0 -6 0 -2 0 -2 0 -5 0 -4 1 0 0 1 0 2 0 4 0 3 0 1 0 2 0 3 0 7 0 1 0 1 0 2 0 4 0 4 1 0 1 0 3 0 4 0 1 0 3 0 0 -2 0 -3 0 -7 0 -13 0 -10 1 0 1 0 1 0 0 1 0 3 0 5 0 4 0 1 0 2 0 3 0 3 0 1 0 1 0 3 0 6 0 2 1 0 1 0"/>
<path stroke="#DA70D6" d="M491 310l2 0 3 0 7 0 9 0 7 0 0 -1 0 -2 0 -1 0 -1 0 -1 0 -2 0 -4 0 -9 0 -14 0 3 0 5 0 12 0 15 1 0 1 0 1 0 3 0 3 0 1 0 1 0 2 0 0 -1 0 -1 0 -2 0 -1 0 -2 0 -5 0 -8 0 -4 0 -1 0 -2 0 -5 0 -3 0 1 0 2 0 5 0 3 0 1 0 1 0 4 0 7"/>
<path stroke="#DA70D6" d="M532 299l0 11 1 0 1 0 2 0 4 0 8 0 9 0 9 0 0 -1 0 -2 0 -3 0 -1 0 -1 0 -1 0 -3 0 -5 0 -11 0 -7 0 2 0 3 0 7 0 14 0 9 1 0 1 0 2 0 3 0 8 0 0 -1 0 -1 0 -1 0 -2 0 -2 0 -2 0 -4 0 -8 0 -14 0 3 0 5 0 11 0 16 1 0 1 0 1 0 3 0 6 0"/>
<path stroke="#DA70D6" d="M593 310l7 0 1 0 2 0 0 -2 0 -2 0 -6 0 -10 0 -1 0 -2 0 -2 0 -6 0 -4 1 0 0 1 0 3 0 5 0 4 0 1 0 2 0 3 0 3 0 1 0 1 0 3 0 6 0 2 1 0 1 0 1 0 2 0 1 0 2 0 2 0 5 0 1 0 2 0 0 -2 0 -2 0 -6 0 -10 0 -1 0 -2 0 -2 0 -6 0 -4 1 0 1 0"/>
<path stroke="#DA70D6" d="M624 275l0 1 0 3 0 5 0 4 0 1 0 2 0 3 0 3 0 1 0 1 0 3 0 6 0 2 1 0 2 0 3 0 7 0 9 0 9 0 0 -1 0 -1 0 -2 0 -1 0 -3 0 -4 0 -9 0 -1 0 -1 0 -2 0 -4 0 -3 0 -1 0 -1 0 -1 0 1 0 3 0 4 0 5 0 1 0 1 0 1 0 1 0 1 0 1 0 1 0 1 0 1 0 1"/>
<path stroke="#DA70D6" d="M655 298l0 1 0 3 0 6 0 2 1 0 2 0 3 0 1 0 2 0 3 0 0 -2 0 -2 0 -6 0 -10 0 -1 0 -2 0 -2 0 -6 0 -4 1 0 0 1 0 3 0 5 0 4 0 1 0 2 0 3 0 3 0 1 0 1 0 3 0 6 0 2 1 0 1 0 1 0 4 0 6 0 9 0 9 0 0 -1 0 -1 0 -1 0 -1 0 -1 0 -1 0 -4 0 -6"/>
<path stroke="#DA70D6" d="M699 294l0 -5 0 -1 0 -2 0 -5 0 -3 0 -1 0 -1 0 -1 0 2 0 3 0 6 0 5 0 1 0 1 0 1 0 1 0 1 0 2 0 5 0 7 1 0 1 0 3 0 4 0 1 0 2 0 0 -2 0 -2 0 -6 0 -10 0 -1 0 -2 0 -2 0 -6 0 -4 1 0 1 0 0 4 0 6 0 14 0 11 1 0 1 0 2 0 4 0 8 0 9 0"/>
<path stroke="#DA70D6" d="M738 310l9 0 0 -1 0 -2 0 -1 0 -1 0 -2 0 -2 0 -5 0 -9 0 -1 0 -2 0 -4 0 -5 0 2 0 2 0 6 0 5 0 1 0 2 0 1 0 1 0 1 0 1 0 3 0 5 0 5 1 0 2 0 3 0 1 0 1 0 3 0 0 -2 0 -3 0 -6 0 -10 0 -2 0 -2 0 -5 0 -5 1 0 0 1 0 3 0 5 0 4 0 1 0 2"/>
<path stroke="#DA70D6" d="M759 291l0 3 0 3 0 1 0 1 0 3 0 6 0 2 1 0 1 0 1 0 4 0 6 0 8 0 1 0 2 0 0 -2 0 -2 0 -6 0 -10 0 -1 0 -2 0 -2 0 -6 0 -4 1 0 0 4 0 6 0 14 0 11 1 0 1 0 2 0 1 0 1 0 2 0 2 0 5 0 1 0 1 0 1 0 0 -2 0 -3 0 -7 0 -13 0 -10 1 0 0 1"/>
<path stroke="#DA70D6" d="M803 276l0 3 0 5 0 4 0 1 0 2 0 3 0 3 0 1 0 1 0 3 0 6 0 2 1 0 1 0 2 0 3 0 7 0 9 0 9 0 0 -2 0 -2 0 -2 0 -1 0 -1 0 -2 0 -4 0 -9 0 -4 0 -1 0 -1 0 -1 0 -1 0 -2 0 -2 0 1 0 2 0 3 0 1 0 2 0 2 0 4 0 9 0 4 0 2 0 2 0 2 0 1 1 0"/>
<path stroke="#DA70D6" d="M836 310l1 0 2 0 3 0 1 0 2 0 0 -2 0 -3 0 -7 0 -13 0 -10 1 0 1 0 2 0 0 1 0 3 0 5 0 4 0 1 0 2 0 3 0 3 0 1 0 1 0 3 0 6 0 2 1 0 1 0 1 0 4 0 6 0 9 0 8 0 0 -1 0 -2 0 -1 0 -1 0 -1 0 -2 0 -4 0 -9 0 -14 0 3 0 5 0 12 0 15 1 0"/>
<path stroke="#DA70D6" d="M880 310l1 0 1 0 3 0 3 0 1 0 1 0 2 0 0 -1 0 -1 0 -2 0 -1 0 -2 0 -5 0 -8 0 -4 0 -1 0 -2 0 -5 0 -3 0 1 0 2 0 5 0 3 0 1 0 1 0 4 0 7 0 11 1 0 1 0 2 0 4 0 8 0 9 0 9 0 0 -1 0 -2 0 -3 0 -1 0 -1 0 -1 0 -3 0 -5 0 -11 0 -7 0 2"/>
<path stroke="#DA70D6" d="M926 277l0 3 0 7 0 14 0 9 1 0 1 0 2 0 3 0 1 0 2 0 0 -2 0 -2 0 -6 0 -10 0 -1 0 -2 0 -2 0 -6 0 -4 1 0 1 0 0 4 0 6 0 14 0 11 1 0 1 0 2 0 4 0 8 0 6 0"/>
<path stroke="#EE82EE" d="M60 87l45 0"/>
<text stroke="none" fill="white" font-size="16" x="115" y="96">
v(cd9)+70
</text>
<path stroke="#EE82EE" d="M60 213l1 0 2 0 3 0 1 0 1 0 1 0 1 0 1 0 3 0 4 0 9 0 1 0 1 0 2 0 4 0 8 0 9 0 1 0 1 0 1 0 3 0 5 0 1 0 3 0 1 0 1 0 1 0 2 0 3 0 7 0 9 0 8 0 1 0 1 0 1 0 3 0 3 0 1 0 1 0 2 0 1 0 1 0 2 0 4 0 8 0 9 0 9 0 1 0 1 0 2 0 3 0 1 0"/>
<path stroke="#EE82EE" d="M214 213l2 0 1 0 1 0 1 0 1 0 2 0 4 0 8 0 6 0 1 0 2 0 1 0 1 0 1 0 1 0 2 0 1 0 1 0 3 0 4 0 9 0 1 0 1 0 2 0 3 0 6 0 9 0 1 0 1 0 1 0 1 0 2 0 5 0 9 0 1 0 1 0 1 0 3 0 7 0 9 0 8 0 1 0 1 0 3 0 4 0 1 0 2 0 1 0 1 0 1 0 1 0 2 0"/>
<path stroke="#EE82EE" d="M357 213l4 0 8 0 9 0 9 0 1 0 2 0 3 0 1 0 1 0 3 0 1 0 1 0 1 0 1 0 4 0 6 0 8 0 1 0 2 0 1 0 1 0 1 0 2 0 1 0 1 0 2 0 2 0 5 0 9 0 1 0 1 0 1 0 4 0 8 0 9 0 1 0 1 0 1 0 3 0 4 0 1 0 3 0 1 0 1 0 1 0 1 0 1 0 2 0 3 0 7 0 9 0 7 0"/>
<path stroke="#EE82EE" d="M519 213l1 0 1 0 1 0 3 0 3 0 1 0 1 0 2 0 1 0 1 0 2 0 4 0 8 0 9 0 9 0 1 0 1 0 2 0 3 0 8 0 1 0 1 0 1 0 3 0 6 0 7 0 1 0 2 0 1 0 1 0 1 0 1 0 2 0 1 0 2 0 2 0 5 0 1 0 2 0 1 0 1 0 1 0 2 0 3 0 7 0 9 0 9 0 1 0 2 0 3 0 1 0 2 0"/>
<path stroke="#EE82EE" d="M664 213l3 0 1 0 1 0 1 0 1 0 4 0 6 0 9 0 9 0 1 0 1 0 3 0 4 0 1 0 2 0 1 0 1 0 1 0 1 0 2 0 4 0 8 0 9 0 9 0 1 0 2 0 3 0 1 0 1 0 3 0 1 0 1 0 1 0 1 0 4 0 6 0 8 0 1 0 2 0 1 0 1 0 1 0 2 0 1 0 1 0 2 0 2 0 5 0 1 0 1 0 1 0 1 0"/>
<path stroke="#EE82EE" d="M803 213l1 0 1 0 2 0 3 0 7 0 9 0 9 0 1 0 1 0 2 0 3 0 1 0 2 0 1 0 1 0 2 0 1 0 1 0 1 0 4 0 6 0 9 0 8 0 1 0 1 0 1 0 3 0 3 0 1 0 1 0 2 0 1 0 1 0 2 0 4 0 8 0 9 0 9 0 1 0 1 0 2 0 3 0 1 0 2 0 1 0 1 0 1 0 1 0 2 0 4 0 8 0 6 0"/>
<path stroke="#B03060" d="M450 103l45 0"/>
<text stroke="none" fill="white" font-size="16" x="505" y="112">
v(cd10)+77
</text>
<path stroke="#B03060" d="M60 130l1 0 2 0 3 0 0 15 0 6 0 1 0 3 0 2 0 1 0 1 0 2 0 4 1 0 1 0 1 0 1 0 1 0 3 0 4 0 9 0 0 -1 0 -1 0 -2 0 -5 0 -9 0 -10 0 -2 0 -3 0 -2 1 0 1 0 2 0 4 0 8 0 9 0 1 0 0 1 0 2 0 5 0 3 0 1 0 2 0 3 0 7 0 1 0 1 0 3 0 5 0 1 1 0"/>
<path stroke="#B03060" d="M114 165l1 0 3 0 5 0 1 0 3 0 1 0 0 -3 0 -6 0 -3 0 -1 0 -3 0 -4 0 -4 0 -1 0 -2 0 -4 0 -4 1 0 1 0 2 0 3 0 7 0 9 0 8 0 0 1 0 1 0 1 0 4 0 7 0 14 0 3 0 1 0 2 0 1 1 0 1 0 1 0 3 0 3 0 1 0 1 0 2 0 0 -1 0 -1 0 -2 0 -5 0 -8 0 -1"/>
<path stroke="#B03060" d="M172 147l0 -2 0 -4 0 -4 0 -1 0 -1 0 -2 0 -2 0 -1 1 0 1 0 2 0 4 0 8 0 9 0 9 0 0 7 0 5 0 1 0 2 0 4 0 3 0 1 0 1 0 2 0 2 0 1 0 2 0 3 0 1 1 0 1 0 2 0 3 0 1 0 2 0 1 0 1 0 0 -3 0 -6 0 -11 0 -15 1 0 1 0 2 0 4 0 8 0 6 0 1 0 2 0"/>
<path stroke="#B03060" d="M243 130l0 1 0 2 0 4 0 4 0 2 0 3 0 7 0 1 0 1 0 2 0 5 0 3 1 0 1 0 1 0 1 0 2 0 1 0 1 0 3 0 4 0 9 0 0 -1 0 -1 0 -2 0 -5 0 -6 0 -1 0 -1 0 -1 0 -1 0 -1 0 -1 0 -1 0 -2 0 -4 0 -1 0 -1 0 -1 0 -1 0 -2 0 -1 1 0 1 0 2 0 3 0 6 0"/>
<path stroke="#B03060" d="M280 130l9 0 1 0 1 0 0 4 0 7 0 13 0 11 1 0 1 0 2 0 5 0 9 0 0 -1 0 -1 0 -2 0 -5 0 -6 0 -1 0 -1 0 -1 0 -1 0 -1 0 -1 0 -1 0 -2 0 -4 0 -1 0 -1 0 -1 0 -1 0 -2 0 -1 1 0 1 0 1 0 3 0 7 0 9 0 8 0 0 1 0 2 0 2 0 5 0 1 0 2 0 1 0 1"/>
<path stroke="#B03060" d="M339 145l0 1 0 3 0 2 0 1 0 3 0 4 0 3 0 1 0 1 0 1 1 0 1 0 3 0 4 0 1 0 2 0 1 0 1 0 0 -3 0 -6 0 -11 0 -15 1 0 1 0 2 0 4 0 8 0 9 0 9 0 0 1 0 2 0 3 0 4 0 1 0 1 0 1 0 1 0 1 0 1 0 1 0 2 0 3 0 1 0 1 0 1 0 1 0 1 0 2 0 1 0 1 0 1"/>
<path stroke="#B03060" d="M387 162l0 1 0 2 1 0 2 0 3 0 1 0 1 0 3 0 1 0 0 -3 0 -6 0 -3 0 -1 0 -3 0 -4 0 -4 0 -1 0 -2 0 -4 0 -4 1 0 1 0 1 0 4 0 6 0 8 0 1 0 2 0 0 1 0 2 0 4 0 4 0 2 0 3 0 7 0 1 0 1 0 2 0 5 0 3 1 0 1 0 1 0 2 0 1 0 1 0 2 0 2 0 5 0"/>
<path stroke="#B03060" d="M439 165l9 0 0 -1 0 -1 0 -2 0 -5 0 -9 0 -10 0 -2 0 -3 0 -2 1 0 1 0 1 0 4 0 8 0 9 0 1 0 0 1 0 2 0 4 0 4 0 2 0 3 0 7 0 1 0 1 0 2 0 5 0 3 1 0 1 0 3 0 4 0 1 0 3 0 1 0 1 0 1 0 0 -3 0 -6 0 -3 0 -1 0 -3 0 -4 0 -4 0 -1 0 -2"/>
<path stroke="#B03060" d="M489 138l0 -4 0 -4 1 0 1 0 2 0 3 0 7 0 9 0 7 0 0 1 0 1 0 1 0 4 0 7 0 14 0 3 0 1 0 2 0 1 1 0 1 0 1 0 3 0 3 0 1 0 1 0 2 0 0 -1 0 -1 0 -2 0 -5 0 -8 0 -1 0 -2 0 -4 0 -4 0 -1 0 -1 0 -2 0 -2 0 -1 1 0 1 0 2 0 4 0 8 0 9 0 9 0"/>
<path stroke="#B03060" d="M566 130l0 7 0 5 0 1 0 2 0 4 0 3 0 1 0 1 0 2 0 2 0 1 0 2 0 3 0 1 1 0 1 0 2 0 3 0 8 0 0 -2 0 -2 0 -5 0 -11 0 -1 0 -1 0 -1 0 -1 0 -1 0 -3 0 -2 0 -1 0 -2 0 -1 0 -1 1 0 1 0 1 0 3 0 6 0 7 0 1 0 2 0 0 1 0 2 0 4 0 4 0 2 0 3"/>
<path stroke="#B03060" d="M603 146l0 7 0 1 0 1 0 2 0 5 0 3 1 0 1 0 1 0 1 0 2 0 1 0 2 0 2 0 5 0 1 0 2 0 1 0 1 0 0 -3 0 -6 0 -3 0 -1 0 -3 0 -4 0 -4 0 -1 0 -2 0 -4 0 -4 1 0 2 0 3 0 7 0 9 0 9 0 0 1 0 2 0 3 0 5 0 1 0 1 0 1 0 1 0 1 0 3 0 2 0 1 0 3"/>
<path stroke="#B03060" d="M655 155l0 4 0 2 0 1 0 2 0 1 1 0 2 0 3 0 1 0 2 0 3 0 1 0 0 -3 0 -6 0 -3 0 -1 0 -3 0 -4 0 -4 0 -1 0 -2 0 -4 0 -4 1 0 1 0 1 0 4 0 6 0 9 0 9 0 0 1 0 2 0 2 0 5 0 1 0 2 0 1 0 1 0 1 0 3 0 2 0 1 0 3 0 4 0 3 0 1 0 1 0 1 1 0"/>
<path stroke="#B03060" d="M700 165l1 0 3 0 4 0 1 0 2 0 1 0 1 0 0 -3 0 -6 0 -11 0 -15 1 0 1 0 2 0 4 0 8 0 9 0 9 0 0 1 0 2 0 3 0 4 0 1 0 1 0 1 0 1 0 1 0 1 0 1 0 2 0 3 0 1 0 1 0 1 0 1 0 1 0 2 0 1 0 1 0 1 0 1 0 2 1 0 2 0 3 0 1 0 1 0 3 0 1 0 0 -3"/>
<path stroke="#B03060" d="M759 162l0 -6 0 -3 0 -1 0 -3 0 -4 0 -4 0 -1 0 -2 0 -4 0 -4 1 0 1 0 1 0 4 0 6 0 8 0 1 0 2 0 0 1 0 2 0 4 0 4 0 2 0 3 0 7 0 1 0 1 0 2 0 5 0 3 1 0 1 0 1 0 2 0 1 0 1 0 2 0 2 0 5 0 1 0 1 0 1 0 1 0 0 -3 0 -6 0 -3 0 -1 0 -3"/>
<path stroke="#B03060" d="M803 149l0 -4 0 -4 0 -1 0 -2 0 -4 0 -4 1 0 1 0 2 0 3 0 7 0 9 0 9 0 0 7 0 14 0 7 0 1 0 1 0 3 0 2 1 0 1 0 2 0 3 0 1 0 2 0 1 0 1 0 2 0 0 -3 0 -6 0 -3 0 -1 0 -3 0 -4 0 -4 0 -1 0 -2 0 -4 0 -4 1 0 1 0 1 0 4 0 6 0 9 0 8 0 0 1"/>
<path stroke="#B03060" d="M879 131l0 1 0 1 0 4 0 7 0 14 0 3 0 1 0 2 0 1 1 0 1 0 1 0 3 0 3 0 1 0 1 0 2 0 0 -1 0 -1 0 -2 0 -5 0 -8 0 -1 0 -2 0 -4 0 -4 0 -1 0 -1 0 -2 0 -2 0 -1 1 0 1 0 2 0 4 0 8 0 9 0 9 0 0 7 0 5 0 1 0 2 0 4 0 3 0 1 0 1 0 2 0 2"/>
<path stroke="#B03060" d="M926 158l0 1 0 2 0 3 0 1 1 0 1 0 2 0 3 0 1 0 2 0 1 0 1 0 0 -3 0 -6 0 -11 0 -15 1 0 1 0 2 0 4 0 8 0 6 0"/>
</svg>
