<?xml version="1.0" standalone="yes"?>
<!DOCTYPE svg PUBLIC "-//W3C//DTD SVG 1.1//EN"
 "http://www.w3.org/Graphics/SVG/1.1/DTD/svg11.dtd">
<svg xmlns="http://www.w3.org/2000/svg" version="1.1"
  width="100%" height="100%" viewBox="0 0 1024 768"
  style="fill: none; font-family: Helvetica;
 font: Helvetica;
">

<!-- Creator: NGspice -->

<rect x="0" y="0" width="1024" height="768" fill="black" stroke="none"/>
<text stroke="none" fill="white" font-size="16" x="358" y="752">
time
</text>
<text stroke="none" fill="white" font-size="16" x="10" y="16">
tran1: * e:\self\hackathon\mixed_signal_soc_design_marathon\vinayak\self-correcting-message-system-using-hamming-code\self_correcting_message_system\self_correcting_message_system.cir
</text>
<path stroke="white" d="M70 696l0 -624"/>
<text stroke="none" fill="white" font-size="16" x="55" y="728">
0.0
</text>
<path stroke="white" stroke-dasharray="1,2" d="M158 696l0 -624"/>
<text stroke="none" fill="white" font-size="16" x="143" y="728">
1.0
</text>
<path stroke="white" stroke-dasharray="1,2" d="M246 696l0 -624"/>
<text stroke="none" fill="white" font-size="16" x="231" y="728">
2.0
</text>
<path stroke="white" stroke-dasharray="1,2" d="M334 696l0 -624"/>
<text stroke="none" fill="white" font-size="16" x="319" y="728">
3.0
</text>
<path stroke="white" stroke-dasharray="1,2" d="M422 696l0 -624"/>
<text stroke="none" fill="white" font-size="16" x="407" y="728">
4.0
</text>
<path stroke="white" stroke-dasharray="1,2" d="M510 696l0 -624"/>
<text stroke="none" fill="white" font-size="16" x="495" y="728">
5.0
</text>
<path stroke="white" stroke-dasharray="1,2" d="M598 696l0 -624"/>
<text stroke="none" fill="white" font-size="16" x="583" y="728">
6.0
</text>
<path stroke="white" stroke-dasharray="1,2" d="M686 696l0 -624"/>
<text stroke="none" fill="white" font-size="16" x="671" y="728">
7.0
</text>
<path stroke="white" stroke-dasharray="1,2" d="M774 696l0 -624"/>
<text stroke="none" fill="white" font-size="16" x="759" y="728">
8.0
</text>
<path stroke="white" stroke-dasharray="1,2" d="M862 696l0 -624"/>
<text stroke="none" fill="white" font-size="16" x="847" y="728">
9.0
</text>
<path stroke="white" stroke-dasharray="1,2" d="M950 696l0 -624"/>
<text stroke="none" fill="white" font-size="16" x="930" y="728">
10.0
</text>
<text stroke="none" fill="white" font-size="16" x="614" y="752">
s
</text>
<path stroke="white" d="M70 696l880 0"/>
<text stroke="none" fill="white" font-size="16" x="38" y="704">
0.0
</text>
<path stroke="white" stroke-dasharray="1,2" d="M70 644l880 0"/>
<text stroke="none" fill="white" font-size="16" x="28" y="652">
10.0
</text>
<path stroke="white" stroke-dasharray="1,2" d="M70 592l880 0"/>
<text stroke="none" fill="white" font-size="16" x="28" y="600">
20.0
</text>
<path stroke="white" stroke-dasharray="1,2" d="M70 540l880 0"/>
<text stroke="none" fill="white" font-size="16" x="28" y="548">
30.0
</text>
<path stroke="white" stroke-dasharray="1,2" d="M70 488l880 0"/>
<text stroke="none" fill="white" font-size="16" x="28" y="496">
40.0
</text>
<path stroke="white" stroke-dasharray="1,2" d="M70 436l880 0"/>
<text stroke="none" fill="white" font-size="16" x="28" y="444">
50.0
</text>
<path stroke="white" stroke-dasharray="1,2" d="M70 384l880 0"/>
<text stroke="none" fill="white" font-size="16" x="28" y="392">
60.0
</text>
<path stroke="white" stroke-dasharray="1,2" d="M70 332l880 0"/>
<text stroke="none" fill="white" font-size="16" x="28" y="340">
70.0
</text>
<path stroke="white" stroke-dasharray="1,2" d="M70 280l880 0"/>
<text stroke="none" fill="white" font-size="16" x="28" y="288">
80.0
</text>
<path stroke="white" stroke-dasharray="1,2" d="M70 228l880 0"/>
<text stroke="none" fill="white" font-size="16" x="28" y="236">
90.0
</text>
<path stroke="white" stroke-dasharray="1,2" d="M70 176l880 0"/>
<text stroke="none" fill="white" font-size="16" x="18" y="184">
100.0
</text>
<path stroke="white" stroke-dasharray="1,2" d="M70 124l880 0"/>
<text stroke="none" fill="white" font-size="16" x="18" y="132">
110.0
</text>
<path stroke="white" stroke-dasharray="1,2" d="M70 72l880 0"/>
<text stroke="none" fill="white" font-size="16" x="18" y="80">
120.0
</text>
<text stroke="none" fill="white" font-size="16" x="10" y="32">
     
</text>
<path stroke="red" d="M440 23l44 0"/>
<text stroke="none" fill="white" font-size="16" x="494" y="32">
v(p0)
</text>
<path stroke="red" d="M70 670l1 0 2 0 3 0 0 1 0 1 0 3 0 6 0 10 0 5 1 0 1 0 1 0 0 -3 0 -5 0 -10 0 -8 1 0 1 0 2 0 5 0 9 0 0 1 0 1 0 2 0 1 0 1 0 1 0 1 0 1 0 2 0 3 0 4 0 1 0 1 0 1 0 1 0 2 0 2 0 -1 0 -2 0 -2 0 -1 0 -1 0 -1 0 -4 0 -7 0 -7 0 1 0 1 0 3"/>
<path stroke="red" d="M97 675l0 5 0 10 0 6 1 0 1 0 1 0 4 0 8 0 9 0 0 -1 0 -1 0 -3 0 -5 0 -11 0 -2 0 -1 0 -1 0 -1 0 3 0 2 0 1 0 1 0 2 0 4 0 3 0 1 0 1 0 4 0 4 1 0 0 -1 0 -1 0 -4 0 -2 0 -1 0 -1 0 -3 0 -5 0 -1 0 -2 0 -5 1 0 1 0 3 0 5 0 1 0 2 0 0 1"/>
<path stroke="red" d="M135 671l0 1 0 1 0 1 0 2 0 3 0 7 0 10 0 -2 0 -4 0 -9 0 -5 0 -1 0 -1 0 -2 0 -2 1 0 1 0 0 2 0 4 0 3 0 1 0 2 0 3 0 3 0 1 0 1 0 3 0 3 1 0 2 0 3 0 7 0 9 0 8 0 0 -2 0 -1 0 -1 0 -1 0 -1 0 -1 0 -1 0 1 0 2 0 2 0 3 0 -1 0 -1 0 -1"/>
<path stroke="red" d="M167 693l0 -1 0 -1 0 -1 0 -2 0 -3 0 -2 0 -1 0 -1 0 -2 0 -1 0 -1 0 -2 0 -3 0 -2 0 1 0 1 0 3 0 5 0 11 0 2 0 1 0 1 0 1 1 0 2 0 3 0 3 0 1 0 3 0 0 -1 0 -1 0 -2 0 -1 0 -1 0 -1 0 -1 0 -1 0 -2 0 -3 0 -4 0 -1 0 -1 0 -1 0 -1 0 -2"/>
<path stroke="red" d="M180 672l0 -2 0 1 0 2 0 2 0 1 0 1 0 1 0 4 0 6 0 1 0 1 0 3 0 3 0 -1 0 -1 0 -1 0 -1 0 -2 0 -3 0 -1 0 -2 0 -1 0 -1 0 -1 0 -3 0 -1 0 -2 0 -1 0 -1 0 -1 0 -2 1 0 1 0 2 0 3 0 8 0 9 0 8 0 0 1 0 1 0 3 0 5 0 8 0 1 0 1 0 2 0 1 0 1"/>
<path stroke="red" d="M212 694l0 1 0 1 0 -1 0 -2 0 -2 0 -1 0 -1 0 -1 0 -4 0 -5 0 -2 0 -2 0 -5 0 1 0 2 0 2 0 6 0 4 0 2 0 3 0 2 0 1 0 2 0 1 1 0 1 0 2 0 4 0 1 0 2 0 0 -3 0 -5 0 -10 0 -8 0 3 0 5 0 10 0 1 0 2 0 3 0 2 0 -3 0 -5 0 -10 0 -8 1 0 1 0 0 2"/>
<path stroke="red" d="M225 672l0 4 0 9 0 11 1 0 1 0 2 0 3 0 8 0 6 0 1 0 2 0 0 -3 0 -5 0 -10 0 -1 0 -2 0 -3 0 -2 1 0 0 12 0 1 0 1 0 1 0 1 0 1 0 4 0 5 0 -2 0 -4 0 -3 0 -1 0 -2 0 -3 0 -3 0 -1 0 -1 0 -3 0 -3 1 0 1 0 1 0 2 0 0 3 0 5 0 10 0 8 1 0 1 0"/>
<path stroke="red" d="M257 696l2 0 5 0 9 0 0 -1 0 -1 0 -2 0 -1 0 -1 0 -1 0 -1 0 -1 0 -2 0 -3 0 -4 0 -1 0 -1 0 -1 0 -1 0 -2 0 -2 0 1 0 2 0 2 0 1 0 1 0 1 0 4 0 5 0 1 0 1 0 1 0 1 0 2 0 3 0 -1 0 -2 0 -1 0 -1 0 -2 0 -4 0 -1 0 -1 0 -1 0 -1 0 -2 0 -1"/>
<path stroke="red" d="M273 678l0 -1 0 -2 0 -3 0 -2 1 0 2 0 3 0 6 0 9 0 0 1 0 1 0 3 0 5 0 11 0 2 0 1 0 1 0 1 0 -3 0 -2 0 -1 0 -1 0 -2 0 -4 0 -3 0 -1 0 -1 0 -4 0 -4 1 0 1 0 0 3 0 5 0 10 0 8 1 0 1 0 2 0 5 0 8 0 0 -1 0 -1 0 -2 0 -1 0 -1 0 -1 0 -1"/>
<path stroke="red" d="M313 688l0 -1 0 -2 0 -3 0 -4 0 -1 0 -1 0 -1 0 -1 0 -2 0 -2 0 1 0 2 0 2 0 1 0 1 0 1 0 4 0 5 0 1 0 1 0 1 0 1 0 2 0 3 0 -1 0 -2 0 -1 0 -1 0 -2 0 -4 0 -1 0 -1 0 -1 0 -1 0 -2 0 -1 0 -1 0 -2 0 -3 0 -2 1 0 1 0 2 0 3 0 6 0 9 0 8 0"/>
<path stroke="red" d="M343 670l0 2 0 1 0 1 0 1 0 1 0 1 0 1 0 -1 0 -2 0 -2 0 -3 0 1 0 1 0 1 0 1 0 2 0 3 0 4 0 1 0 1 0 2 0 1 0 1 0 1 0 1 0 1 0 1 0 1 0 2 0 -1 0 -1 0 -2 0 -3 0 -1 0 -1 0 -1 0 -1 0 -1 0 -2 0 -2 0 -1 0 -1 0 -4 0 -2 0 -1 0 -1 1 0 1 0"/>
<path stroke="red" d="M345 670l3 0 4 0 1 0 2 0 0 3 0 5 0 10 0 8 0 -3 0 -5 0 -10 0 -1 0 -2 0 -3 0 -2 1 0 1 0 0 2 0 4 0 9 0 11 1 0 1 0 1 0 4 0 8 0 9 0 8 0 0 -1 0 -1 0 -3 0 -5 0 -8 0 -1 0 -1 0 -2 0 -1 0 -1 0 -1 0 -1 0 1 0 2 0 2 0 1 0 1 0 1 0 4 0 5"/>
<path stroke="red" d="M389 687l0 1 0 1 0 1 0 2 0 4 0 -1 0 -2 0 -1 0 -1 0 -2 0 -3 0 -1 0 -1 0 -1 0 -1 0 -1 0 -1 0 -1 0 -2 0 -1 0 -1 0 -1 0 -1 0 -2 0 -1 1 0 1 0 1 0 3 0 1 0 2 0 3 0 0 2 0 4 0 9 0 11 0 -2 0 -3 0 -7 0 -13 0 -1 0 1 0 2 0 3 0 2 0 1"/>
<path stroke="red" d="M401 679l0 1 0 2 0 1 0 1 0 1 0 1 0 1 0 1 0 1 0 1 0 2 0 4 0 -2 0 -4 0 -3 0 -1 0 -2 0 -3 0 -3 0 -1 0 -1 0 -3 0 -3 1 0 1 0 2 0 3 0 6 0 8 0 1 0 2 0 0 3 0 5 0 10 0 1 0 2 0 3 0 2 1 0 0 -12 0 -1 0 -1 0 -1 0 -1 0 -1 0 -4 0 -5 0 2"/>
<path stroke="red" d="M426 672l0 4 0 9 0 11 1 0 1 0 2 0 1 0 0 -3 0 -5 0 -10 0 -8 1 0 1 0 3 0 4 0 9 0 0 1 0 1 0 2 0 1 0 1 0 1 0 1 0 1 0 2 0 3 0 4 0 1 0 1 0 1 0 1 0 2 0 2 0 -1 0 -2 0 -2 0 -1 0 -1 0 -1 0 -4 0 -7 0 -7 0 1 0 1 0 3 0 5 0 10 0 6 1 0"/>
<path stroke="red" d="M450 696l1 0 2 0 4 0 7 0 9 0 0 -1 0 -1 0 -3 0 -5 0 -11 0 -2 0 -1 0 -1 0 -1 0 3 0 2 0 1 0 1 0 2 0 4 0 3 0 1 0 1 0 4 0 4 1 0 0 -1 0 -1 0 -3 0 -3 0 -2 0 -2 0 -5 0 -1 0 -1 0 -2 0 -3 0 -2 1 0 1 0 2 0 5 0 1 0 2 0 0 3 0 5 0 10"/>
<path stroke="red" d="M486 688l0 8 0 -3 0 -5 0 -10 0 -1 0 -2 0 -3 0 -2 1 0 1 0 2 0 0 2 0 4 0 3 0 1 0 2 0 3 0 3 0 1 0 1 0 3 0 3 1 0 1 0 1 0 3 0 7 0 9 0 7 0 0 -2 0 -1 0 -1 0 -1 0 -1 0 -1 0 -1 0 1 0 2 0 2 0 3 0 -1 0 -1 0 -1 0 -1 0 -1 0 -1 0 -2 0 -3"/>
<path stroke="red" d="M519 685l0 -2 0 -1 0 -1 0 -2 0 -1 0 -1 0 -2 0 -3 0 -2 0 1 0 1 0 3 0 5 0 11 0 2 0 1 0 1 0 1 1 0 2 0 3 0 3 0 1 0 3 0 0 -1 0 -1 0 -2 0 -1 0 -1 0 -1 0 -1 0 -1 0 -2 0 -3 0 -4 0 -1 0 -1 0 -1 0 -1 0 -2 0 -2 0 1 0 2 0 2 0 1 0 1"/>
<path stroke="red" d="M532 677l0 1 0 4 0 6 0 1 0 1 0 3 0 3 0 -1 0 -1 0 -1 0 -1 0 -2 0 -3 0 -1 0 -2 0 -1 0 -1 0 -1 0 -3 0 -1 0 -2 0 -1 0 -1 0 -1 0 -2 1 0 1 0 2 0 3 0 8 0 9 0 8 0 0 1 0 1 0 3 0 5 0 8 0 1 0 1 0 2 0 1 0 1 0 1 0 1 0 -1 0 -2 0 -2 0 -1"/>
<path stroke="red" d="M564 690l0 -1 0 -1 0 -4 0 -5 0 -2 0 -2 0 -5 0 1 0 2 0 2 0 6 0 4 0 2 0 3 0 2 0 1 0 2 0 1 1 0 1 0 2 0 4 0 8 0 0 -1 0 -1 0 -3 0 -5 0 -10 0 -1 0 -1 0 -1 0 -1 0 -2 0 1 0 1 0 2 0 1 0 1 0 1 0 1 0 1 0 2 0 3 0 4 0 1 0 1 0 1 0 1 0 1"/>
<path stroke="red" d="M580 693l0 2 0 1 0 -1 0 -1 0 -1 0 -1 0 -1 0 -2 0 -3 0 -8 0 -1 0 -1 0 -1 0 -1 0 -3 0 -1 0 1 0 2 0 1 0 1 0 2 0 2 0 1 0 1 0 1 0 1 0 1 0 1 0 3 0 1 0 1 0 1 0 1 0 1 0 1 0 1 0 1 1 0 1 0 3 0 6 0 7 0 1 0 2 0 0 -3 0 -5 0 -10 0 -1"/>
<path stroke="red" d="M601 677l0 -2 0 -3 0 -2 1 0 0 12 0 1 0 1 0 1 0 1 0 1 0 4 0 5 0 -2 0 -4 0 -3 0 -1 0 -2 0 -3 0 -3 0 -1 0 -1 0 -3 0 -3 1 0 1 0 1 0 2 0 0 3 0 5 0 10 0 8 1 0 1 0 3 0 4 0 1 0 2 0 0 -3 0 -5 0 -10 0 -8 0 3 0 5 0 10 0 1 0 2 0 3 0 2"/>
<path stroke="red" d="M619 696l1 0 1 0 0 -2 0 -4 0 -3 0 -1 0 -2 0 -3 0 -3 0 -1 0 -1 0 -3 0 -3 1 0 1 0 1 0 4 0 6 0 9 0 9 0 0 1 0 1 0 3 0 5 0 8 0 1 0 1 0 2 0 1 0 1 0 1 0 1 0 -1 0 -2 0 -2 0 -1 0 -1 0 -1 0 -4 0 -5 0 -1 0 -1 0 -1 0 -1 0 -2 0 -3 0 1"/>
<path stroke="red" d="M652 671l0 2 0 1 0 1 0 2 0 4 0 1 0 1 0 1 0 1 0 2 0 1 0 1 0 2 0 3 0 2 1 0 2 0 3 0 1 0 1 0 4 0 0 -3 0 -5 0 -10 0 -8 0 3 0 5 0 10 0 1 0 2 0 3 0 2 0 -2 0 -4 0 -3 0 -1 0 -2 0 -3 0 -3 0 -1 0 -1 0 -3 0 -3 1 0 1 0 2 0 3 0 6 0 9 0"/>
<path stroke="red" d="M686 670l9 0 0 2 0 1 0 1 0 1 0 1 0 1 0 1 0 -1 0 -2 0 -2 0 -3 0 1 0 1 0 1 0 1 0 2 0 3 0 4 0 1 0 1 0 2 0 1 0 1 0 1 0 1 0 1 0 1 0 1 0 2 0 -1 0 -1 0 -2 0 -3 0 -1 0 -1 0 -1 0 -1 0 -1 0 -2 0 -2 0 -1 0 -1 0 -4 0 -2 0 -1 0 -1 1 0"/>
<path stroke="red" d="M696 670l1 0 3 0 4 0 1 0 2 0 0 3 0 5 0 10 0 8 0 -3 0 -5 0 -10 0 -1 0 -2 0 -3 0 -2 1 0 1 0 0 2 0 4 0 9 0 11 1 0 1 0 1 0 4 0 8 0 9 0 8 0 0 -1 0 -1 0 -3 0 -5 0 -8 0 -1 0 -1 0 -2 0 -1 0 -1 0 -1 0 -1 0 1 0 2 0 2 0 1 0 1 0 1 0 4"/>
<path stroke="red" d="M741 682l0 5 0 1 0 1 0 1 0 2 0 4 0 -1 0 -2 0 -1 0 -1 0 -2 0 -3 0 -1 0 -1 0 -1 0 -1 0 -1 0 -1 0 -1 0 -2 0 -1 0 -1 0 -1 0 -1 0 -2 0 -1 1 0 1 0 1 0 3 0 1 0 2 0 3 0 0 2 0 4 0 9 0 11 0 -2 0 -3 0 -7 0 -13 0 -1 0 1 0 2 0 3 0 2"/>
<path stroke="red" d="M753 678l0 1 0 1 0 2 0 1 0 1 0 1 0 1 0 1 0 1 0 1 0 1 0 2 0 4 0 -2 0 -4 0 -3 0 -1 0 -2 0 -3 0 -3 0 -1 0 -1 0 -3 0 -3 1 0 1 0 2 0 3 0 6 0 8 0 1 0 2 0 0 3 0 5 0 10 0 1 0 2 0 3 0 2 1 0 0 -12 0 -1 0 -1 0 -1 0 -1 0 -1 0 -4 0 -5"/>
<path stroke="red" d="M778 670l0 2 0 4 0 9 0 11 1 0 1 0 2 0 1 0 0 -3 0 -5 0 -10 0 -8 1 0 1 0 3 0 4 0 1 0 1 0 1 0 0 3 0 5 0 10 0 8 0 -3 0 -5 0 -10 0 -1 0 -2 0 -3 0 -2 1 0 1 0 0 2 0 4 0 3 0 1 0 2 0 3 0 3 0 1 0 1 0 3 0 3 1 0 1 0 1 0 3 0 7 0 9 0"/>
<path stroke="red" d="M819 696l8 0 0 -1 0 -1 0 -3 0 -5 0 -8 0 -1 0 -1 0 -2 0 -1 0 -1 0 -1 0 -1 0 1 0 2 0 2 0 1 0 1 0 1 0 4 0 7 0 7 0 -1 0 -1 0 -3 0 -5 0 -10 0 -6 1 0 1 0 2 0 4 0 1 0 2 0 0 3 0 5 0 10 0 8 0 -3 0 -5 0 -10 0 -1 0 -2 0 -3 0 -2 1 0"/>
<path stroke="red" d="M839 670l1 0 1 0 0 2 0 4 0 3 0 1 0 2 0 3 0 3 0 1 0 1 0 3 0 3 1 0 1 0 2 0 3 0 6 0 9 0 8 0 0 -2 0 -1 0 -1 0 -1 0 -1 0 -1 0 -1 0 1 0 2 0 2 0 3 0 -1 0 -1 0 -1 0 -1 0 -1 0 -1 0 -2 0 -3 0 -2 0 -1 0 -1 0 -2 0 -1 0 -1 0 -2 0 -3"/>
<path stroke="red" d="M871 672l0 -2 0 1 0 1 0 3 0 5 0 11 0 2 0 1 0 1 0 1 1 0 2 0 3 0 3 0 1 0 3 0 0 -1 0 -1 0 -2 0 -1 0 -1 0 -1 0 -1 0 -1 0 -2 0 -3 0 -4 0 -1 0 -1 0 -1 0 -1 0 -2 0 -2 0 1 0 2 0 2 0 1 0 1 0 1 0 4 0 6 0 1 0 1 0 3 0 3 0 -1 0 -1 0 -1"/>
<path stroke="red" d="M884 693l0 -1 0 -2 0 -3 0 -1 0 -2 0 -1 0 -1 0 -1 0 -3 0 -1 0 -2 0 -1 0 -1 0 -1 0 -2 1 0 1 0 2 0 3 0 8 0 9 0 8 0 0 1 0 1 0 3 0 5 0 8 0 1 0 1 0 2 0 1 0 1 0 1 0 1 0 -1 0 -2 0 -2 0 -1 0 -1 0 -1 0 -4 0 -5 0 -2 0 -2 0 -5 0 1 0 2"/>
<path stroke="red" d="M916 673l0 2 0 6 0 4 0 2 0 3 0 2 0 1 0 2 0 1 1 0 1 0 2 0 4 0 1 0 2 0 0 -3 0 -5 0 -10 0 -8 0 3 0 5 0 10 0 1 0 2 0 3 0 2 0 -3 0 -5 0 -10 0 -8 1 0 1 0 0 2 0 4 0 9 0 11 1 0 1 0 2 0 3 0 8 0 6 0"/>
<path stroke="blue" d="M70 23l44 0"/>
<text stroke="none" fill="white" font-size="16" x="124" y="32">
v(p1)+7
</text>
<path stroke="blue" d="M70 660l1 0 2 0 3 0 0 -1 0 -3 0 -4 0 -8 0 -10 0 1 0 1 0 3 0 5 0 11 0 5 1 0 1 0 1 0 0 -3 0 -5 0 -11 0 -7 1 0 1 0 2 0 5 0 9 0 0 1 0 1 0 3 0 5 0 8 0 -1 0 -1 0 -2 0 -1 0 -1 0 -1 0 -1 0 -1 0 -2 0 -3 0 -4 0 1 0 2 0 2 0 1 0 2"/>
<path stroke="blue" d="M97 642l0 3 0 7 0 8 0 -1 0 -1 0 -1 0 -2 0 -5 0 -11 0 -5 1 0 1 0 1 0 4 0 8 0 9 0 0 1 0 1 0 3 0 5 0 11 0 2 0 1 0 1 0 1 0 -3 0 -3 0 -1 0 -2 0 -5 0 -2 0 -1 0 -2 0 -3 0 -4 1 0 0 2 0 1 0 2 0 4 0 7 0 7 0 1 0 1 0 1 0 -1 0 -2 0 -3"/>
<path stroke="blue" d="M122 654l0 -3 0 -2 0 -2 0 -5 0 -1 0 -1 0 -2 0 -4 1 0 1 0 3 0 5 0 1 0 2 0 0 1 0 1 0 1 0 1 0 1 0 4 0 6 0 11 0 -3 0 -4 0 -8 0 -6 0 -1 0 -3 0 -1 1 0 1 0 0 11 0 1 0 1 0 1 0 1 0 2 0 3 0 6 0 -3 0 -4 0 -2 0 -1 0 -2 0 -3 0 -3 0 -1"/>
<path stroke="blue" d="M137 641l0 -2 0 -2 0 -3 1 0 2 0 3 0 7 0 9 0 8 0 0 1 0 1 0 1 0 1 0 1 0 1 0 1 0 -1 0 -1 0 -3 0 -2 0 1 0 2 0 2 0 1 0 1 0 1 0 1 0 2 0 3 0 6 0 1 0 1 0 2 0 2 0 -1 0 -1 0 -1 0 -1 0 -1 0 -1 0 -1 0 -1 0 -3 0 -2 0 -1 0 -1 0 -2 0 -2"/>
<path stroke="blue" d="M167 641l0 -1 0 -2 0 -3 0 -1 0 1 0 1 0 3 0 5 0 11 0 2 0 1 0 1 0 1 1 0 2 0 3 0 3 0 1 0 3 0 0 -1 0 -1 0 -1 0 -3 0 -5 0 -8 0 1 0 1 0 2 0 2 0 1 0 1 0 1 0 1 0 1 0 4 0 4 0 -1 0 -3 0 -2 0 -1 0 -2 0 -3 0 -7 0 -2 0 -2 0 -3 0 1 0 1"/>
<path stroke="blue" d="M180 636l0 1 0 1 0 2 0 3 0 1 0 1 0 2 0 1 0 1 0 2 0 1 0 1 0 1 0 2 0 1 0 1 0 2 1 0 1 0 2 0 3 0 8 0 9 0 8 0 0 -1 0 -1 0 -1 0 -3 0 -5 0 -8 0 1 0 1 0 2 0 2 0 1 0 1 0 1 0 1 0 1 0 4 0 4 0 -1 0 -3 0 -2 0 -1 0 -2 0 -3 0 -5 0 -1"/>
<path stroke="blue" d="M212 642l0 -1 0 -3 0 -4 0 1 0 1 0 3 0 5 0 4 0 1 0 1 0 3 0 3 0 1 0 1 0 2 1 0 1 0 2 0 4 0 1 0 2 0 0 -3 0 -5 0 -11 0 -7 0 2 0 5 0 11 0 1 0 1 0 3 0 3 1 0 1 0 0 -12 0 -1 0 -1 0 -1 0 -1 0 -2 0 -3 0 -5 0 2 0 4 0 9 0 11 1 0 1 0"/>
<path stroke="blue" d="M227 660l2 0 3 0 8 0 6 0 1 0 2 0 0 -3 0 -5 0 -11 0 -7 0 2 0 5 0 11 0 1 0 1 0 3 0 3 1 0 0 -12 0 -1 0 -1 0 -1 0 -1 0 -2 0 -3 0 -5 0 2 0 4 0 3 0 2 0 4 0 3 0 2 0 2 0 4 1 0 1 0 1 0 2 0 0 -3 0 -5 0 -11 0 -7 1 0 1 0 2 0 5 0 9 0"/>
<path stroke="blue" d="M273 634l0 1 0 1 0 3 0 5 0 8 0 -1 0 -1 0 -2 0 -1 0 -1 0 -1 0 -1 0 -1 0 -2 0 -3 0 -4 0 1 0 2 0 2 0 1 0 2 0 3 0 5 0 1 0 1 0 1 0 1 0 1 0 2 0 3 0 -1 0 -1 0 -1 0 -1 0 -1 0 -2 0 -4 0 -1 0 -1 0 -1 0 -1 0 -2 0 -2 0 -1 0 -1 0 -4"/>
<path stroke="blue" d="M273 635l0 -1 1 0 2 0 3 0 6 0 9 0 0 1 0 1 0 3 0 5 0 11 0 2 0 1 0 1 0 1 0 -3 0 -3 0 -1 0 -2 0 -5 0 -2 0 -1 0 -2 0 -3 0 -4 1 0 1 0 0 2 0 5 0 11 0 8 0 -3 0 -5 0 -11 0 -7 1 0 1 0 2 0 5 0 8 0 0 1 0 1 0 3 0 5 0 8 0 -1 0 -1 0 -2"/>
<path stroke="blue" d="M313 648l0 -1 0 -1 0 -1 0 -1 0 -1 0 -2 0 -3 0 -4 0 1 0 2 0 2 0 1 0 2 0 3 0 5 0 1 0 1 0 1 0 1 0 1 0 2 0 3 0 -1 0 -1 0 -1 0 -1 0 -1 0 -2 0 -4 0 -1 0 -1 0 -1 0 -1 0 -2 0 -2 0 -1 0 -1 0 -4 0 -1 1 0 1 0 2 0 3 0 6 0 9 0 8 0 0 1"/>
<path stroke="blue" d="M343 635l0 1 0 1 0 1 0 1 0 1 0 1 0 -1 0 -1 0 -3 0 -2 0 1 0 2 0 2 0 1 0 1 0 1 0 1 0 2 0 3 0 6 0 1 0 1 0 2 0 2 0 -1 0 -1 0 -1 0 -1 0 -1 0 -1 0 -4 0 -3 0 -1 0 -1 0 -2 0 -1 0 -1 0 -1 0 -1 0 -1 0 -1 0 -2 0 -1 0 1 0 3 0 3 0 1"/>
<path stroke="blue" d="M343 642l0 1 0 1 0 1 0 1 0 2 0 1 0 1 0 2 0 3 0 3 0 1 0 1 1 0 1 0 3 0 4 0 1 0 2 0 0 -3 0 -5 0 -11 0 -7 0 2 0 5 0 11 0 1 0 1 0 3 0 3 1 0 1 0 0 -12 0 -1 0 -1 0 -1 0 -1 0 -2 0 -3 0 -5 0 2 0 4 0 9 0 11 1 0 1 0 1 0 4 0 8 0 9 0"/>
<path stroke="blue" d="M381 660l8 0 0 -1 0 -1 0 -1 0 -3 0 -5 0 -8 0 1 0 1 0 2 0 2 0 1 0 1 0 1 0 1 0 1 0 4 0 4 0 -1 0 -3 0 -2 0 -1 0 -2 0 -3 0 -5 0 -1 0 -1 0 -1 0 -1 0 -2 0 -3 0 1 0 1 0 1 0 1 0 1 0 2 0 3 0 1 0 1 0 1 0 1 0 1 0 1 0 1 0 2 0 1 0 1"/>
<path stroke="blue" d="M389 655l0 1 0 1 0 2 0 1 1 0 1 0 1 0 3 0 1 0 2 0 3 0 0 -2 0 -3 0 -7 0 -13 0 -1 0 1 0 1 0 4 0 2 0 2 0 2 0 1 0 1 0 1 0 2 0 1 0 1 0 2 0 5 0 -12 0 -1 0 -1 0 -1 0 -1 0 -2 0 -3 0 -5 0 2 0 4 0 3 0 2 0 4 0 3 0 2 0 2 0 4 1 0 1 0"/>
<path stroke="blue" d="M403 660l2 0 3 0 6 0 8 0 1 0 2 0 0 -3 0 -5 0 -11 0 -7 0 2 0 5 0 11 0 1 0 1 0 3 0 3 1 0 0 -12 0 -1 0 -1 0 -1 0 -1 0 -2 0 -3 0 -5 0 2 0 4 0 9 0 11 1 0 1 0 2 0 1 0 0 -3 0 -5 0 -11 0 -7 1 0 1 0 3 0 4 0 9 0 0 1 0 1 0 3 0 5 0 8"/>
<path stroke="blue" d="M449 652l0 -1 0 -1 0 -2 0 -1 0 -1 0 -1 0 -1 0 -1 0 -2 0 -3 0 -4 0 1 0 2 0 2 0 1 0 2 0 3 0 7 0 8 0 -1 0 -1 0 -1 0 -2 0 -5 0 -11 0 -5 1 0 1 0 2 0 4 0 7 0 9 0 0 1 0 1 0 3 0 5 0 11 0 2 0 1 0 1 0 1 0 -3 0 -3 0 -1 0 -2 0 -5 0 -2"/>
<path stroke="blue" d="M473 644l0 -1 0 -2 0 -3 0 -4 1 0 0 2 0 5 0 11 0 8 0 -1 0 -2 0 -3 0 -2 0 -1 0 -1 0 -3 0 -5 0 -1 0 -2 0 -3 0 -2 1 0 1 0 2 0 5 0 1 0 2 0 0 2 0 5 0 11 0 8 0 -3 0 -5 0 -11 0 -2 0 -3 0 -2 1 0 1 0 2 0 0 11 0 1 0 1 0 1 0 1 0 2"/>
<path stroke="blue" d="M490 651l0 3 0 6 0 -3 0 -4 0 -2 0 -1 0 -2 0 -3 0 -3 0 -1 0 -2 0 -2 0 -3 1 0 1 0 1 0 3 0 7 0 9 0 7 0 0 1 0 1 0 1 0 1 0 1 0 1 0 1 0 -1 0 -1 0 -3 0 -2 0 1 0 2 0 2 0 1 0 1 0 1 0 1 0 2 0 3 0 6 0 1 0 1 0 2 0 2 0 -1 0 -1 0 -1"/>
<path stroke="blue" d="M519 657l0 -1 0 -1 0 -1 0 -1 0 -1 0 -3 0 -2 0 -1 0 -1 0 -2 0 -2 0 -1 0 -2 0 -3 0 -1 0 1 0 1 0 3 0 5 0 11 0 2 0 1 0 1 0 1 1 0 2 0 3 0 3 0 1 0 3 0 0 -1 0 -1 0 -1 0 -3 0 -5 0 -8 0 1 0 1 0 2 0 2 0 1 0 1 0 1 0 1 0 1 0 4 0 4"/>
<path stroke="blue" d="M532 660l0 -1 0 -3 0 -2 0 -1 0 -2 0 -3 0 -7 0 -2 0 -2 0 -3 0 1 0 1 0 1 0 1 0 2 0 3 0 1 0 1 0 2 0 1 0 1 0 2 0 1 0 1 0 1 0 2 0 1 0 1 0 2 1 0 1 0 2 0 3 0 8 0 9 0 8 0 0 -1 0 -1 0 -1 0 -3 0 -5 0 -8 0 1 0 1 0 2 0 2 0 1 0 1 0 1"/>
<path stroke="blue" d="M564 650l0 1 0 1 0 4 0 4 0 -1 0 -3 0 -2 0 -1 0 -2 0 -3 0 -5 0 -1 0 -1 0 -3 0 -4 0 1 0 1 0 3 0 5 0 4 0 1 0 1 0 3 0 3 0 1 0 1 0 2 1 0 1 0 2 0 4 0 8 0 0 -1 0 -1 0 -2 0 -3 0 -7 0 -5 0 1 0 1 0 2 0 2 0 1 0 1 0 1 0 1 0 1 0 4 0 3"/>
<path stroke="blue" d="M580 659l0 1 0 -1 0 -2 0 -1 0 -1 0 -2 0 -4 0 -8 0 -1 0 -1 0 -1 0 -1 0 -2 0 -1 0 1 0 1 0 1 0 1 0 3 0 2 0 1 0 2 0 1 0 1 0 1 0 3 0 1 0 1 0 2 0 1 0 2 0 1 1 0 1 0 3 0 6 0 7 0 1 0 2 0 0 -3 0 -5 0 -11 0 -7 0 2 0 5 0 11 0 1 0 1"/>
<path stroke="blue" d="M601 654l0 3 0 3 1 0 0 -12 0 -1 0 -1 0 -1 0 -1 0 -2 0 -3 0 -5 0 2 0 4 0 3 0 2 0 4 0 3 0 2 0 2 0 4 1 0 1 0 1 0 2 0 0 -3 0 -5 0 -11 0 -7 1 0 1 0 3 0 4 0 1 0 2 0 0 2 0 5 0 11 0 8 0 -3 0 -5 0 -11 0 -2 0 -3 0 -2 1 0 1 0 0 11"/>
<path stroke="blue" d="M621 645l0 1 0 1 0 1 0 1 0 2 0 3 0 6 0 -3 0 -4 0 -2 0 -1 0 -2 0 -3 0 -3 0 -1 0 -2 0 -2 0 -3 1 0 1 0 1 0 4 0 6 0 9 0 9 0 0 1 0 1 0 3 0 5 0 8 0 -1 0 -1 0 -2 0 -1 0 -1 0 -1 0 -1 0 -1 0 -2 0 -3 0 -4 0 1 0 2 0 2 0 1 0 2 0 3"/>
<path stroke="blue" d="M652 645l0 5 0 1 0 1 0 1 0 1 0 1 0 2 0 3 0 -1 0 -1 0 -1 0 -1 0 -1 0 -2 0 -4 0 -1 0 -1 0 -1 0 -1 0 -2 0 -2 0 -1 0 -1 0 -4 0 -1 1 0 2 0 3 0 1 0 1 0 4 0 0 2 0 5 0 11 0 8 0 -3 0 -5 0 -11 0 -2 0 -3 0 -2 0 11 0 1 0 1 0 1 0 1"/>
<path stroke="blue" d="M664 649l0 2 0 3 0 6 0 -3 0 -4 0 -2 0 -1 0 -2 0 -3 0 -3 0 -1 0 -2 0 -2 0 -3 1 0 1 0 2 0 3 0 6 0 9 0 9 0 0 1 0 1 0 1 0 1 0 1 0 1 0 1 0 -1 0 -1 0 -3 0 -2 0 1 0 2 0 2 0 1 0 1 0 1 0 1 0 2 0 3 0 6 0 1 0 1 0 2 0 2 0 -1 0 -1 0 -1"/>
<path stroke="blue" d="M695 657l0 -1 0 -1 0 -1 0 -4 0 -3 0 -1 0 -1 0 -2 0 -1 0 -1 0 -1 0 -1 0 -1 0 -1 0 -2 0 -1 0 1 0 3 0 3 0 1 0 1 0 1 0 1 0 1 0 2 0 1 0 1 0 2 0 3 0 3 0 1 0 1 1 0 1 0 3 0 4 0 1 0 2 0 0 -3 0 -5 0 -11 0 -7 0 2 0 5 0 11 0 1 0 1"/>
<path stroke="blue" d="M707 654l0 3 0 3 1 0 1 0 0 -12 0 -1 0 -1 0 -1 0 -1 0 -2 0 -3 0 -5 0 2 0 4 0 9 0 11 1 0 1 0 1 0 4 0 8 0 9 0 8 0 0 -1 0 -1 0 -1 0 -3 0 -5 0 -8 0 1 0 1 0 2 0 2 0 1 0 1 0 1 0 1 0 1 0 4 0 4 0 -1 0 -3 0 -2 0 -1 0 -2 0 -3 0 -5"/>
<path stroke="blue" d="M741 643l0 -1 0 -1 0 -1 0 -1 0 -2 0 -3 0 1 0 1 0 1 0 1 0 1 0 2 0 3 0 1 0 1 0 1 0 1 0 1 0 1 0 1 0 2 0 1 0 1 0 1 0 1 0 2 0 1 1 0 1 0 1 0 3 0 1 0 2 0 3 0 0 -2 0 -3 0 -7 0 -13 0 -1 0 1 0 1 0 4 0 2 0 2 0 2 0 1 0 1 0 1 0 2 0 1"/>
<path stroke="blue" d="M753 652l0 1 0 2 0 5 0 -12 0 -1 0 -1 0 -1 0 -1 0 -2 0 -3 0 -5 0 2 0 4 0 3 0 2 0 4 0 3 0 2 0 2 0 4 1 0 1 0 2 0 3 0 6 0 8 0 1 0 2 0 0 -3 0 -5 0 -11 0 -7 0 2 0 5 0 11 0 1 0 1 0 3 0 3 1 0 0 -12 0 -1 0 -1 0 -1 0 -1 0 -2 0 -3"/>
<path stroke="blue" d="M778 639l0 -5 0 2 0 4 0 9 0 11 1 0 1 0 2 0 1 0 0 -3 0 -5 0 -11 0 -7 1 0 1 0 3 0 4 0 1 0 1 0 1 0 0 2 0 5 0 11 0 8 0 -3 0 -5 0 -11 0 -2 0 -3 0 -2 1 0 1 0 0 11 0 1 0 1 0 1 0 1 0 2 0 3 0 6 0 -3 0 -4 0 -2 0 -1 0 -2 0 -3 0 -3"/>
<path stroke="blue" d="M797 642l0 -1 0 -2 0 -2 0 -3 1 0 1 0 1 0 3 0 7 0 9 0 8 0 0 1 0 1 0 3 0 5 0 8 0 -1 0 -1 0 -2 0 -1 0 -1 0 -1 0 -1 0 -1 0 -2 0 -3 0 -4 0 1 0 2 0 2 0 1 0 2 0 3 0 7 0 8 0 -1 0 -1 0 -1 0 -2 0 -5 0 -11 0 -5 1 0 1 0 2 0 4 0 1 0"/>
<path stroke="blue" d="M836 634l2 0 0 2 0 5 0 11 0 8 0 -3 0 -5 0 -11 0 -2 0 -3 0 -2 1 0 1 0 1 0 0 11 0 1 0 1 0 1 0 1 0 2 0 3 0 6 0 -3 0 -4 0 -2 0 -1 0 -2 0 -3 0 -3 0 -1 0 -2 0 -2 0 -3 1 0 1 0 2 0 3 0 6 0 9 0 8 0 0 1 0 1 0 1 0 1 0 1 0 1 0 1 0 -1"/>
<path stroke="blue" d="M871 640l0 -1 0 -3 0 -2 0 1 0 2 0 2 0 1 0 1 0 1 0 1 0 2 0 3 0 6 0 1 0 1 0 2 0 2 0 -1 0 -1 0 -1 0 -1 0 -1 0 -1 0 -1 0 -1 0 -3 0 -2 0 -1 0 -1 0 -2 0 -2 0 -1 0 -2 0 -3 0 -1 0 1 0 1 0 3 0 5 0 11 0 2 0 1 0 1 0 1 1 0 2 0 3 0"/>
<path stroke="blue" d="M877 660l3 0 1 0 3 0 0 -1 0 -1 0 -1 0 -3 0 -5 0 -8 0 1 0 1 0 2 0 2 0 1 0 1 0 1 0 1 0 1 0 4 0 4 0 -1 0 -3 0 -2 0 -1 0 -2 0 -3 0 -7 0 -2 0 -2 0 -3 0 1 0 1 0 1 0 1 0 2 0 3 0 1 0 1 0 2 0 1 0 1 0 2 0 1 0 1 0 1 0 2 0 1 0 1 0 2"/>
<path stroke="blue" d="M884 660l1 0 1 0 2 0 3 0 8 0 9 0 8 0 0 -1 0 -1 0 -1 0 -3 0 -5 0 -8 0 1 0 1 0 2 0 2 0 1 0 1 0 1 0 1 0 1 0 4 0 4 0 -1 0 -3 0 -2 0 -1 0 -2 0 -3 0 -5 0 -1 0 -1 0 -3 0 -4 0 1 0 1 0 3 0 5 0 4 0 1 0 1 0 3 0 3 0 1 0 1 0 2 1 0 1 0"/>
<path stroke="blue" d="M918 660l2 0 4 0 1 0 2 0 0 -3 0 -5 0 -11 0 -7 0 2 0 5 0 11 0 1 0 1 0 3 0 3 1 0 1 0 0 -12 0 -1 0 -1 0 -1 0 -1 0 -2 0 -3 0 -5 0 2 0 4 0 9 0 11 1 0 1 0 2 0 3 0 8 0 6 0"/>
<path stroke="#FFA500" d="M440 39l44 0"/>
<text stroke="none" fill="white" font-size="16" x="494" y="48">
v(p2)+14
</text>
<path stroke="#FFA500" d="M70 597l1 0 2 0 3 0 0 1 0 2 0 2 0 6 0 11 0 4 1 0 1 0 1 0 1 0 1 0 2 0 5 0 9 0 0 -1 0 -1 0 -3 0 -5 0 -8 0 -1 0 -1 0 -2 0 -1 0 -1 0 -1 0 -1 0 1 0 2 0 3 0 1 0 2 0 3 0 7 0 7 0 -1 0 -1 0 -3 0 -5 0 -10 0 -6 1 0 1 0 1 0 4 0"/>
<path stroke="#FFA500" d="M104 597l8 0 9 0 0 3 0 3 0 1 0 2 0 4 0 3 0 1 0 2 0 3 0 4 1 0 0 -2 0 -1 0 -1 0 -1 0 -4 0 -8 0 -6 0 -1 0 -1 0 -1 0 1 0 2 0 3 0 2 0 1 0 1 0 3 0 5 0 1 0 1 0 2 0 4 1 0 1 0 3 0 5 0 1 0 2 0 0 -2 0 -4 0 -9 0 -5 0 -1 0 -1 0 -2"/>
<path stroke="#FFA500" d="M135 599l0 -2 1 0 1 0 0 12 0 1 0 1 0 1 0 1 0 2 0 3 0 5 0 -2 0 -4 0 -3 0 -1 0 -1 0 -4 0 -3 0 -1 0 -1 0 -3 0 -3 1 0 2 0 3 0 7 0 9 0 8 0 0 1 0 1 0 2 0 1 0 1 0 1 0 1 0 1 0 2 0 3 0 7 0 1 0 1 0 2 0 1 0 -1 0 -1 0 -1 0 -1 0 -1"/>
<path stroke="#FFA500" d="M167 618l0 -1 0 -2 0 -2 0 -3 0 -1 0 -2 0 -2 0 -1 0 -2 0 -3 0 -2 0 1 0 2 0 2 0 6 0 11 0 2 0 1 0 1 1 0 2 0 3 0 3 0 1 0 3 0 0 -1 0 -1 0 -3 0 -5 0 -8 0 -1 0 -1 0 -2 0 -1 0 -1 0 -1 0 -1 0 1 0 2 0 3 0 1 0 2 0 3 0 6 0 1 0 1"/>
<path stroke="#FFA500" d="M180 617l0 3 0 3 0 -1 0 -1 0 -1 0 -1 0 -2 0 -3 0 -1 0 -2 0 -1 0 -1 0 -1 0 -2 0 -1 0 -1 0 -2 0 -1 0 -1 0 -1 0 -2 1 0 1 0 2 0 3 0 8 0 9 0 8 0 0 1 0 1 0 2 0 1 0 1 0 1 0 1 0 1 0 2 0 3 0 4 0 1 0 1 0 1 0 1 0 2 0 2 0 -1 0 -2"/>
<path stroke="#FFA500" d="M212 620l0 -2 0 -1 0 -2 0 -4 0 -4 0 -1 0 -2 0 -2 0 -5 0 1 0 2 0 3 0 5 0 4 0 1 0 1 0 3 0 2 0 1 0 2 0 1 1 0 1 0 2 0 4 0 1 0 2 0 0 -2 0 -6 0 -10 0 -1 0 -1 0 -3 0 -3 0 3 0 5 0 10 0 8 1 0 1 0 0 -12 0 -1 0 -1 0 -1 0 -1 0 -1"/>
<path stroke="#FFA500" d="M225 606l0 -4 0 -5 0 2 0 5 0 8 0 11 1 0 1 0 2 0 3 0 8 0 6 0 1 0 2 0 0 -2 0 -6 0 -10 0 -8 0 3 0 5 0 10 0 1 0 2 0 3 0 2 1 0 0 -2 0 -4 0 -3 0 -1 0 -1 0 -4 0 -3 0 -1 0 -1 0 -3 0 -3 1 0 1 0 1 0 2 0 1 0 1 0 2 0 5 0 9 0 0 1"/>
<path stroke="#FFA500" d="M273 598l0 2 0 2 0 6 0 7 0 1 0 1 0 2 0 2 0 1 0 1 0 -1 0 -2 0 -2 0 -1 0 -2 0 -4 0 -4 0 -1 0 -1 0 -1 0 -1 0 -1 0 -2 0 -3 0 1 0 2 0 1 0 1 0 2 0 4 0 1 0 1 0 1 0 1 0 2 0 1 0 1 0 1 0 1 0 3 0 2 1 0 2 0 3 0 6 0 9 0 0 -2 0 -3"/>
<path stroke="#FFA500" d="M294 618l0 -1 0 -1 0 -2 0 -4 0 -3 0 -1 0 -1 0 -4 0 -4 1 0 1 0 0 3 0 5 0 10 0 8 0 -2 0 -6 0 -10 0 -8 1 0 1 0 2 0 5 0 8 0 0 1 0 2 0 2 0 6 0 7 0 1 0 1 0 2 0 2 0 1 0 1 0 -1 0 -2 0 -2 0 -1 0 -2 0 -4 0 -4 0 -1 0 -1 0 -1 0 -1"/>
<path stroke="#FFA500" d="M313 603l0 -1 0 -2 0 -3 0 1 0 2 0 1 0 1 0 2 0 4 0 1 0 1 0 1 0 1 0 2 0 1 0 1 0 1 0 1 0 3 0 2 1 0 1 0 2 0 3 0 6 0 9 0 8 0 0 -1 0 -2 0 -2 0 -1 0 -1 0 -1 0 -1 0 -2 0 -3 0 -7 0 -1 0 -2 0 -2 0 1 0 1 0 1 0 1 0 2 0 3 0 4 0 1"/>
<path stroke="#FFA500" d="M343 611l0 1 0 2 0 1 0 1 0 1 0 2 0 1 0 2 0 1 0 -1 0 -1 0 -2 0 -3 0 -1 0 -1 0 -1 0 -1 0 -1 0 -2 0 -1 0 -1 0 -1 0 -1 0 -3 0 -3 0 -1 0 -1 1 0 1 0 3 0 4 0 1 0 2 0 0 3 0 5 0 10 0 1 0 2 0 3 0 2 1 0 1 0 0 -12 0 -1 0 -1 0 -1"/>
<path stroke="#FFA500" d="M357 608l0 -1 0 -1 0 -4 0 -5 0 2 0 5 0 8 0 11 1 0 1 0 1 0 4 0 8 0 9 0 8 0 0 -1 0 -2 0 -2 0 -1 0 -1 0 -1 0 -1 0 -2 0 -3 0 -4 0 -1 0 -1 0 -1 0 -1 0 -2 0 -2 0 1 0 2 0 3 0 1 0 2 0 3 0 5 0 1 0 1 0 1 0 3 0 3 0 -1 0 -1 0 -1"/>
<path stroke="#FFA500" d="M389 620l0 -1 0 -1 0 -2 0 -3 0 -1 0 -1 0 -1 0 -1 0 -1 0 -1 0 -1 0 -2 0 -1 0 -1 0 -1 0 -1 0 -2 0 -1 1 0 1 0 1 0 3 0 1 0 2 0 3 0 0 2 0 4 0 9 0 11 0 -1 0 -2 0 -3 0 -2 0 -1 0 -1 0 -2 0 -1 0 -1 0 -1 0 -2 0 -1 0 -2 0 -2 0 -4"/>
<path stroke="#FFA500" d="M401 597l0 12 0 1 0 1 0 1 0 1 0 2 0 3 0 5 0 -2 0 -4 0 -3 0 -1 0 -1 0 -4 0 -3 0 -1 0 -1 0 -3 0 -3 1 0 1 0 2 0 3 0 6 0 8 0 1 0 2 0 0 3 0 5 0 10 0 8 0 -2 0 -6 0 -10 0 -1 0 -1 0 -3 0 -3 1 0 0 2 0 5 0 8 0 11 1 0 1 0 2 0 1 0"/>
<path stroke="#FFA500" d="M431 623l1 0 1 0 3 0 4 0 9 0 0 -1 0 -1 0 -3 0 -5 0 -8 0 -1 0 -1 0 -2 0 -1 0 -1 0 -1 0 -1 0 1 0 2 0 3 0 1 0 2 0 3 0 7 0 7 0 -1 0 -1 0 -3 0 -5 0 -10 0 -6 1 0 1 0 2 0 4 0 7 0 9 0 0 3 0 3 0 1 0 2 0 4 0 3 0 1 0 2 0 3 0 4"/>
<path stroke="#FFA500" d="M473 623l1 0 0 -2 0 -6 0 -10 0 -8 0 1 0 2 0 3 0 2 0 1 0 1 0 2 0 5 0 1 0 1 0 2 0 3 0 2 1 0 1 0 2 0 5 0 1 0 2 0 0 -2 0 -6 0 -10 0 -1 0 -1 0 -3 0 -3 1 0 1 0 2 0 0 12 0 1 0 1 0 1 0 1 0 2 0 3 0 5 0 -2 0 -4 0 -3 0 -1 0 -1"/>
<path stroke="#FFA500" d="M490 612l0 -4 0 -3 0 -1 0 -1 0 -3 0 -3 1 0 1 0 1 0 3 0 7 0 9 0 7 0 0 1 0 1 0 2 0 1 0 1 0 1 0 1 0 1 0 2 0 3 0 7 0 1 0 1 0 2 0 1 0 -1 0 -1 0 -1 0 -1 0 -1 0 -1 0 -2 0 -2 0 -3 0 -1 0 -2 0 -2 0 -1 0 -2 0 -3 0 -2 0 1 0 2 0 2"/>
<path stroke="#FFA500" d="M519 602l0 6 0 11 0 2 0 1 0 1 1 0 2 0 3 0 3 0 1 0 3 0 0 -1 0 -1 0 -3 0 -5 0 -8 0 -1 0 -1 0 -2 0 -1 0 -1 0 -1 0 -1 0 1 0 2 0 3 0 1 0 2 0 3 0 6 0 1 0 1 0 3 0 3 0 -1 0 -1 0 -1 0 -1 0 -2 0 -3 0 -1 0 -2 0 -1 0 -1 0 -1 0 -2"/>
<path stroke="#FFA500" d="M532 606l0 -1 0 -1 0 -2 0 -1 0 -1 0 -1 0 -2 1 0 1 0 2 0 3 0 8 0 9 0 8 0 0 1 0 1 0 2 0 1 0 1 0 1 0 1 0 1 0 2 0 3 0 4 0 1 0 1 0 1 0 1 0 2 0 2 0 -1 0 -2 0 -2 0 -1 0 -2 0 -4 0 -4 0 -1 0 -2 0 -2 0 -5 0 1 0 2 0 3 0 5 0 4 0 1"/>
<path stroke="#FFA500" d="M564 613l0 1 0 3 0 2 0 1 0 2 0 1 1 0 1 0 2 0 4 0 8 0 0 -2 0 -2 0 -6 0 -10 0 -1 0 -1 0 -1 0 -1 0 -2 0 1 0 1 0 1 0 4 0 6 0 5 0 1 0 1 0 2 0 2 0 1 0 1 0 -1 0 -1 0 -1 0 -1 0 -1 0 -1 0 -4 0 -8 0 -1 0 -1 0 -1 0 -1 0 -3 0 -1"/>
<path stroke="#FFA500" d="M580 597l0 1 0 2 0 1 0 1 0 2 0 3 0 1 0 1 0 2 0 2 0 2 0 1 0 1 0 1 0 2 0 1 0 2 1 0 1 0 3 0 6 0 7 0 1 0 2 0 0 -2 0 -6 0 -10 0 -8 0 3 0 5 0 10 0 1 0 2 0 3 0 2 1 0 0 -2 0 -4 0 -3 0 -1 0 -1 0 -4 0 -3 0 -1 0 -1 0 -3 0 -3 1 0"/>
<path stroke="#FFA500" d="M603 597l1 0 1 0 2 0 1 0 1 0 3 0 4 0 1 0 2 0 0 3 0 5 0 10 0 1 0 2 0 3 0 2 1 0 1 0 0 -12 0 -1 0 -1 0 -1 0 -1 0 -1 0 -4 0 -5 0 2 0 5 0 2 0 1 0 2 0 3 0 3 0 1 0 1 0 3 0 3 1 0 1 0 1 0 4 0 6 0 9 0 9 0 0 -1 0 -2 0 -2 0 -1 0 -1"/>
<path stroke="#FFA500" d="M652 616l0 -1 0 -1 0 -2 0 -3 0 -4 0 -1 0 -1 0 -1 0 -1 0 -2 0 -2 0 1 0 2 0 3 0 1 0 2 0 3 0 5 0 1 0 1 0 1 0 1 0 1 0 1 0 3 0 -1 0 -1 0 -1 0 -1 0 -3 0 -4 0 -1 0 -1 0 -1 0 -1 0 -2 0 -1 0 -1 0 -2 0 -3 0 -2 1 0 2 0 3 0 1 0"/>
<path stroke="#FFA500" d="M659 597l1 0 4 0 0 3 0 5 0 10 0 1 0 2 0 3 0 2 0 -12 0 -1 0 -1 0 -1 0 -1 0 -1 0 -4 0 -5 0 2 0 5 0 2 0 1 0 2 0 3 0 3 0 1 0 1 0 3 0 3 1 0 1 0 2 0 3 0 6 0 9 0 9 0 0 -1 0 -2 0 -2 0 -1 0 -1 0 -1 0 -1 0 -2 0 -3 0 -7 0 -1 0 -2"/>
<path stroke="#FFA500" d="M695 599l0 -2 0 1 0 1 0 1 0 1 0 2 0 3 0 4 0 1 0 1 0 2 0 1 0 1 0 1 0 2 0 1 0 2 0 1 0 -1 0 -1 0 -2 0 -3 0 -1 0 -1 0 -1 0 -1 0 -1 0 -2 0 -1 0 -1 0 -1 0 -1 0 -3 0 -3 0 -1 0 -1 1 0 1 0 3 0 4 0 1 0 2 0 0 3 0 5 0 10 0 1 0 2"/>
<path stroke="#FFA500" d="M707 618l0 3 0 2 1 0 1 0 0 -12 0 -1 0 -1 0 -1 0 -1 0 -1 0 -4 0 -5 0 2 0 5 0 8 0 11 1 0 1 0 1 0 4 0 8 0 9 0 8 0 0 -1 0 -2 0 -2 0 -1 0 -1 0 -1 0 -1 0 -2 0 -3 0 -4 0 -1 0 -1 0 -1 0 -1 0 -2 0 -2 0 1 0 2 0 3 0 1 0 2 0 3 0 5"/>
<path stroke="#FFA500" d="M741 614l0 1 0 1 0 1 0 3 0 3 0 -1 0 -1 0 -1 0 -1 0 -1 0 -2 0 -3 0 -1 0 -1 0 -1 0 -1 0 -1 0 -1 0 -1 0 -2 0 -1 0 -1 0 -1 0 -1 0 -2 0 -1 1 0 1 0 1 0 3 0 1 0 2 0 3 0 0 2 0 4 0 9 0 11 0 -1 0 -2 0 -3 0 -2 0 -1 0 -1 0 -2 0 -1"/>
<path stroke="#FFA500" d="M753 610l0 -1 0 -1 0 -2 0 -1 0 -2 0 -2 0 -4 0 12 0 1 0 1 0 1 0 1 0 2 0 3 0 5 0 -2 0 -4 0 -3 0 -1 0 -1 0 -4 0 -3 0 -1 0 -1 0 -3 0 -3 1 0 1 0 2 0 3 0 6 0 8 0 1 0 2 0 0 3 0 5 0 10 0 8 0 -2 0 -6 0 -10 0 -1 0 -1 0 -3 0 -3"/>
<path stroke="#FFA500" d="M777 597l1 0 0 2 0 5 0 8 0 11 1 0 1 0 2 0 1 0 1 0 1 0 3 0 4 0 1 0 1 0 1 0 0 -2 0 -6 0 -10 0 -1 0 -1 0 -3 0 -3 1 0 1 0 0 12 0 1 0 1 0 1 0 1 0 2 0 3 0 5 0 -2 0 -4 0 -3 0 -1 0 -1 0 -4 0 -3 0 -1 0 -1 0 -3 0 -3 1 0 1 0 1 0"/>
<path stroke="#FFA500" d="M800 597l3 0 7 0 9 0 8 0 0 1 0 1 0 2 0 1 0 1 0 1 0 1 0 1 0 2 0 3 0 4 0 1 0 1 0 1 0 1 0 2 0 2 0 -1 0 -2 0 -2 0 -1 0 -2 0 -4 0 -6 0 -8 0 1 0 2 0 2 0 5 0 10 0 6 1 0 1 0 2 0 4 0 1 0 2 0 0 -2 0 -6 0 -10 0 -1 0 -1 0 -3 0 -3"/>
<path stroke="#FFA500" d="M838 597l1 0 1 0 1 0 0 12 0 1 0 1 0 1 0 1 0 2 0 3 0 5 0 -2 0 -4 0 -3 0 -1 0 -1 0 -4 0 -3 0 -1 0 -1 0 -3 0 -3 1 0 1 0 2 0 3 0 6 0 9 0 8 0 0 1 0 1 0 2 0 1 0 1 0 1 0 1 0 1 0 2 0 3 0 7 0 1 0 1 0 2 0 1 0 -1 0 -1 0 -1 0 -1"/>
<path stroke="#FFA500" d="M871 619l0 -1 0 -1 0 -2 0 -2 0 -3 0 -1 0 -2 0 -2 0 -1 0 -2 0 -3 0 -2 0 1 0 2 0 2 0 6 0 11 0 2 0 1 0 1 1 0 2 0 3 0 3 0 1 0 3 0 0 -1 0 -1 0 -3 0 -5 0 -8 0 -1 0 -1 0 -2 0 -1 0 -1 0 -1 0 -1 0 1 0 2 0 3 0 1 0 2 0 3 0 6 0 1"/>
<path stroke="#FFA500" d="M884 616l0 1 0 3 0 3 0 -1 0 -1 0 -1 0 -1 0 -2 0 -3 0 -1 0 -2 0 -1 0 -1 0 -1 0 -2 0 -1 0 -1 0 -2 0 -1 0 -1 0 -1 0 -2 1 0 1 0 2 0 3 0 8 0 9 0 8 0 0 1 0 1 0 2 0 1 0 1 0 1 0 1 0 1 0 2 0 3 0 4 0 1 0 1 0 1 0 1 0 2 0 2 0 -1"/>
<path stroke="#FFA500" d="M916 622l0 -2 0 -2 0 -1 0 -2 0 -4 0 -4 0 -1 0 -2 0 -2 0 -5 0 1 0 2 0 3 0 5 0 4 0 1 0 1 0 3 0 2 0 1 0 2 0 1 1 0 1 0 2 0 4 0 1 0 2 0 0 -2 0 -6 0 -10 0 -1 0 -1 0 -3 0 -3 0 3 0 5 0 10 0 8 1 0 1 0 0 -12 0 -1 0 -1 0 -1 0 -1"/>
<path stroke="#FFA500" d="M929 607l0 -1 0 -4 0 -5 0 2 0 5 0 8 0 11 1 0 1 0 2 0 3 0 8 0 6 0"/>
<path stroke="green" d="M70 39l44 0"/>
<text stroke="none" fill="white" font-size="16" x="124" y="48">
v(p3)+21
</text>
<path stroke="green" d="M70 587l1 0 2 0 3 0 1 0 1 0 1 0 1 0 1 0 2 0 5 0 9 0 1 0 1 0 1 0 4 0 8 0 9 0 0 -1 0 -2 0 -2 0 -6 0 -10 0 -3 0 -1 0 -1 1 0 1 0 1 0 3 0 5 0 1 0 2 0 0 1 0 1 0 1 0 1 0 2 0 3 0 7 0 10 1 0 1 0 1 0 2 0 3 0 7 0 9 0 8 0 0 -1 0 -2"/>
<path stroke="green" d="M167 584l0 -2 0 -3 0 -1 0 -1 0 -2 0 -4 0 -2 0 -1 0 -1 0 -2 0 -2 0 -1 0 -1 1 0 2 0 3 0 3 0 1 0 3 0 0 1 0 2 0 2 0 1 0 1 0 1 0 1 0 2 0 3 0 4 0 1 0 1 0 1 0 1 0 2 0 2 1 0 1 0 2 0 3 0 8 0 9 0 8 0 0 -1 0 -2 0 -2 0 -6 0 -7 0 -1"/>
<path stroke="green" d="M212 568l0 -1 0 -2 0 -2 0 -1 0 -1 1 0 1 0 2 0 4 0 1 0 2 0 0 2 0 6 0 10 0 8 0 -3 0 -5 0 -10 0 -8 1 0 1 0 1 0 1 0 2 0 3 0 8 0 6 0 1 0 2 0 1 0 0 12 0 1 0 1 0 1 0 1 0 1 0 4 0 5 1 0 1 0 1 0 2 0 1 0 1 0 2 0 5 0 9 0 0 -1 0 -1"/>
<path stroke="green" d="M273 585l0 -2 0 -1 0 -1 0 -1 0 -1 0 -1 0 -2 0 -3 0 -4 0 -1 0 -1 0 -1 0 -1 0 -2 0 -2 1 0 2 0 3 0 6 0 9 0 0 1 0 1 0 3 0 5 0 11 0 2 0 1 0 1 0 1 1 0 1 0 1 0 1 0 2 0 5 0 8 0 0 -1 0 -1 0 -2 0 -1 0 -1 0 -1 0 -1 0 -1 0 -2 0 -3"/>
<path stroke="green" d="M313 573l0 -4 0 -1 0 -1 0 -1 0 -1 0 -2 0 -2 1 0 1 0 2 0 3 0 6 0 9 0 8 0 0 1 0 1 0 3 0 3 0 1 0 2 0 5 0 2 0 1 0 1 0 2 0 1 0 1 0 1 0 1 1 0 1 0 3 0 4 0 1 0 2 0 0 -3 0 -5 0 -10 0 -8 1 0 1 0 1 0 1 0 1 0 4 0 8 0 9 0 8 0 0 1 0 1"/>
<path stroke="green" d="M389 563l0 3 0 5 0 8 0 1 0 1 0 2 0 1 0 1 0 1 0 1 1 0 1 0 1 0 3 0 1 0 2 0 3 0 0 -2 0 -4 0 -9 0 -11 0 1 0 4 0 6 0 14 0 1 1 0 1 0 2 0 3 0 6 0 8 0 1 0 2 0 1 0 0 -12 0 -1 0 -1 0 -1 0 -1 0 -2 0 -3 0 -5 1 0 1 0 2 0 1 0 1 0 1 0"/>
<path stroke="green" d="M433 561l3 0 4 0 9 0 0 1 0 2 0 2 0 1 0 1 0 1 0 1 0 2 0 3 0 4 0 1 0 1 0 1 0 1 0 2 0 2 1 0 1 0 2 0 4 0 7 0 9 0 0 -1 0 -2 0 -2 0 -6 0 -10 0 -3 0 -1 0 -1 1 0 1 0 1 0 2 0 5 0 1 0 2 0 0 2 0 6 0 10 0 8 1 0 1 0 2 0 1 0 1 0 1 0"/>
<path stroke="green" d="M493 587l3 0 7 0 9 0 7 0 0 -1 0 -2 0 -2 0 -3 0 -1 0 -1 0 -2 0 -4 0 -2 0 -1 0 -1 0 -2 0 -2 0 -1 0 -1 1 0 2 0 3 0 3 0 1 0 3 0 0 1 0 2 0 2 0 1 0 1 0 1 0 1 0 2 0 3 0 4 0 1 0 1 0 1 0 1 0 2 0 2 1 0 1 0 2 0 3 0 8 0 9 0 8 0 0 -1"/>
<path stroke="green" d="M564 586l0 -2 0 -2 0 -6 0 -7 0 -1 0 -1 0 -2 0 -2 0 -1 0 -1 1 0 1 0 2 0 4 0 8 0 0 2 0 2 0 6 0 10 0 1 0 1 0 1 0 1 0 2 0 -1 0 -1 0 -2 0 -1 0 -1 0 -1 0 -1 0 -1 0 -2 0 -3 0 -4 0 -1 0 -2 0 -1 0 -1 0 -2 0 -1 1 0 1 0 3 0 6 0 7 0"/>
<path stroke="green" d="M598 561l1 0 2 0 1 0 0 12 0 1 0 1 0 1 0 1 0 1 0 4 0 5 1 0 1 0 1 0 2 0 1 0 1 0 3 0 4 0 1 0 2 0 0 -3 0 -5 0 -10 0 -8 1 0 1 0 1 0 1 0 1 0 4 0 6 0 9 0 9 0 0 1 0 1 0 3 0 5 0 8 0 1 0 1 0 2 0 1 0 1 0 1 0 1 1 0 2 0 3 0 1 0 1 0"/>
<path stroke="green" d="M660 587l4 0 0 -3 0 -5 0 -10 0 -8 1 0 1 0 2 0 3 0 6 0 9 0 9 0 0 1 0 1 0 3 0 3 0 1 0 2 0 5 0 2 0 1 0 1 0 2 0 1 0 1 0 1 0 1 1 0 1 0 3 0 4 0 1 0 2 0 0 -3 0 -5 0 -10 0 -8 1 0 1 0 1 0 1 0 1 0 4 0 8 0 9 0 8 0 0 1 0 1 0 3 0 5"/>
<path stroke="green" d="M741 571l0 8 0 1 0 1 0 2 0 1 0 1 0 1 0 1 1 0 1 0 1 0 3 0 1 0 2 0 3 0 0 -2 0 -4 0 -9 0 -11 0 1 0 4 0 6 0 14 0 1 1 0 1 0 2 0 3 0 6 0 8 0 1 0 2 0 1 0 0 -12 0 -1 0 -1 0 -1 0 -1 0 -2 0 -3 0 -5 1 0 1 0 2 0 1 0 1 0 1 0 3 0 4 0"/>
<path stroke="green" d="M792 561l1 0 1 0 1 0 0 2 0 6 0 10 0 8 1 0 1 0 1 0 1 0 1 0 3 0 7 0 9 0 8 0 0 -1 0 -2 0 -2 0 -6 0 -7 0 -1 0 -1 0 -2 0 -2 0 -1 0 -1 1 0 1 0 2 0 4 0 1 0 2 0 0 2 0 6 0 10 0 8 1 0 1 0 1 0 1 0 1 0 2 0 3 0 6 0 9 0 8 0 0 -1 0 -2"/>
<path stroke="green" d="M871 584l0 -2 0 -3 0 -1 0 -1 0 -2 0 -4 0 -2 0 -1 0 -1 0 -2 0 -2 0 -1 0 -1 1 0 2 0 3 0 3 0 1 0 3 0 0 1 0 2 0 2 0 1 0 1 0 1 0 1 0 2 0 3 0 4 0 1 0 1 0 1 0 1 0 2 0 2 1 0 1 0 2 0 3 0 8 0 9 0 8 0 0 -1 0 -2 0 -2 0 -6 0 -7 0 -1"/>
<path stroke="green" d="M916 568l0 -1 0 -2 0 -2 0 -1 0 -1 1 0 1 0 2 0 4 0 1 0 2 0 0 2 0 6 0 10 0 8 0 -3 0 -5 0 -10 0 -8 1 0 1 0 1 0 1 0 2 0 3 0 8 0 6 0"/>
<path stroke="#FFC0C5" d="M440 55l44 0"/>
<text stroke="none" fill="white" font-size="16" x="494" y="64">
v(p4)+28
</text>
<path stroke="#FFC0C5" d="M70 524l1 0 2 0 3 0 0 1 0 2 0 3 0 5 0 11 0 4 1 0 1 0 1 0 0 -2 0 -5 0 -11 0 -8 1 0 1 0 2 0 5 0 9 0 0 1 0 1 0 2 0 2 0 1 0 1 0 1 0 1 0 1 0 4 0 4 0 1 0 1 0 1 0 1 0 1 0 2 0 -1 0 -2 0 -2 0 -1 0 -2 0 -3 0 -7 0 -8 0 1 0 1 0 1"/>
<path stroke="#FFC0C5" d="M97 527l0 2 0 5 0 11 0 5 1 0 1 0 1 0 4 0 8 0 9 0 0 -1 0 -1 0 -3 0 -5 0 -11 0 -2 0 -1 0 -1 0 -1 0 3 0 3 0 1 0 2 0 5 0 2 0 1 0 2 0 3 0 4 1 0 0 -2 0 -3 0 -3 0 -2 0 -2 0 -5 0 -1 0 -1 0 -2 0 -4 0 -1 1 0 1 0 3 0 5 0 1 0 2 0"/>
<path stroke="#FFC0C5" d="M135 524l0 1 0 1 0 1 0 1 0 2 0 3 0 7 0 10 0 -2 0 -4 0 -9 0 -5 0 -2 0 -2 0 -2 1 0 1 0 0 3 0 4 0 2 0 1 0 2 0 3 0 3 0 1 0 2 0 2 0 3 1 0 2 0 3 0 7 0 9 0 8 0 0 -1 0 -1 0 -1 0 -1 0 -1 0 -1 0 -1 0 1 0 1 0 3 0 2 0 -1 0 -1 0 -1"/>
<path stroke="#FFC0C5" d="M167 547l0 -1 0 -1 0 -1 0 -1 0 -3 0 -3 0 -1 0 -2 0 -2 0 -1 0 -2 0 -3 0 -2 0 1 0 2 0 2 0 6 0 11 0 2 0 1 0 1 1 0 2 0 3 0 3 0 1 0 3 0 0 -1 0 -2 0 -2 0 -1 0 -1 0 -1 0 -1 0 -2 0 -3 0 -4 0 -1 0 -1 0 -1 0 -1 0 -2 0 -2 0 1 0 3"/>
<path stroke="#FFC0C5" d="M180 528l0 2 0 1 0 2 0 3 0 7 0 2 0 2 0 3 0 -1 0 -1 0 -1 0 -1 0 -2 0 -3 0 -1 0 -1 0 -2 0 -1 0 -1 0 -2 0 -1 0 -1 0 -1 0 -2 0 -1 0 -1 0 -2 1 0 1 0 2 0 3 0 8 0 9 0 8 0 0 1 0 1 0 1 0 3 0 5 0 8 0 1 0 2 0 2 0 1 0 1 0 -1 0 -2"/>
<path stroke="#FFC0C5" d="M212 547l0 -2 0 -1 0 -2 0 -3 0 -5 0 -1 0 -1 0 -3 0 -5 0 1 0 1 0 1 0 3 0 5 0 4 0 1 0 1 0 3 0 2 0 1 0 1 0 1 0 1 1 0 1 0 2 0 4 0 1 0 2 0 0 -2 0 -5 0 -11 0 -8 0 3 0 5 0 11 0 2 0 3 0 2 0 -2 0 -5 0 -11 0 -8 1 0 1 0 0 3 0 4"/>
<path stroke="#FFC0C5" d="M225 531l0 8 0 11 1 0 1 0 2 0 3 0 8 0 6 0 1 0 2 0 0 -2 0 -5 0 -11 0 -1 0 -1 0 -3 0 -3 1 0 0 12 0 1 0 1 0 1 0 1 0 2 0 3 0 5 0 -2 0 -4 0 -3 0 -2 0 -4 0 -3 0 -2 0 -2 0 -4 1 0 1 0 1 0 2 0 0 3 0 5 0 11 0 7 1 0 1 0 2 0 5 0"/>
<path stroke="#FFC0C5" d="M264 550l9 0 0 -1 0 -2 0 -2 0 -1 0 -1 0 -1 0 -1 0 -2 0 -3 0 -4 0 -1 0 -1 0 -1 0 -1 0 -2 0 -2 0 1 0 3 0 2 0 1 0 2 0 3 0 5 0 1 0 1 0 1 0 1 0 1 0 2 0 2 0 -1 0 -1 0 -1 0 -1 0 -2 0 -5 0 -1 0 -1 0 -1 0 -2 0 -2 0 -1 0 -2 0 -3"/>
<path stroke="#FFC0C5" d="M273 526l0 -2 1 0 2 0 3 0 6 0 9 0 0 1 0 1 0 1 0 3 0 5 0 11 0 2 0 1 0 1 0 -2 0 -3 0 -1 0 -3 0 -4 0 -3 0 -2 0 -3 0 -5 1 0 1 0 0 3 0 5 0 11 0 7 1 0 1 0 2 0 5 0 8 0 0 -1 0 -2 0 -2 0 -1 0 -1 0 -1 0 -1 0 -2 0 -3 0 -4 0 -1"/>
<path stroke="#FFC0C5" d="M313 531l0 -1 0 -1 0 -1 0 -2 0 -2 0 1 0 3 0 2 0 1 0 2 0 3 0 5 0 1 0 1 0 1 0 1 0 1 0 2 0 2 0 -1 0 -1 0 -1 0 -1 0 -2 0 -5 0 -1 0 -1 0 -1 0 -2 0 -2 0 -1 0 -2 0 -3 0 -2 1 0 1 0 2 0 3 0 6 0 9 0 8 0 0 2 0 1 0 1 0 1 0 1 0 1"/>
<path stroke="#FFC0C5" d="M343 531l0 1 0 -1 0 -1 0 -3 0 -3 0 1 0 1 0 1 0 1 0 1 0 1 0 4 0 3 0 1 0 1 0 2 0 1 0 1 0 1 0 1 0 1 0 1 0 2 0 1 0 -1 0 -3 0 -3 0 -1 0 -1 0 -1 0 -1 0 -1 0 -2 0 -1 0 -1 0 -2 0 -3 0 -3 0 -1 0 -1 1 0 1 0 3 0 4 0 1 0 2 0 0 3"/>
<path stroke="#FFC0C5" d="M355 527l0 5 0 11 0 7 0 -2 0 -5 0 -11 0 -1 0 -1 0 -3 0 -3 1 0 1 0 0 3 0 4 0 8 0 11 1 0 1 0 1 0 4 0 8 0 9 0 8 0 0 -1 0 -1 0 -3 0 -5 0 -8 0 -1 0 -2 0 -2 0 -1 0 -1 0 -1 0 1 0 3 0 2 0 1 0 2 0 3 0 5 0 1 0 1 0 1 0 1 0 2 0 3"/>
<path stroke="#FFC0C5" d="M389 550l0 -1 0 -1 0 -1 0 -1 0 -1 0 -2 0 -3 0 -1 0 -1 0 -1 0 -1 0 -1 0 -1 0 -1 0 -2 0 -1 0 -1 0 -1 0 -1 0 -2 0 -1 1 0 1 0 1 0 3 0 1 0 2 0 3 0 0 2 0 5 0 8 0 11 0 -1 0 -4 0 -6 0 -14 0 -1 0 1 0 1 0 1 0 3 0 3 0 1 0 3 0 1"/>
<path stroke="#FFC0C5" d="M401 538l0 1 0 1 0 1 0 1 0 1 0 1 0 2 0 4 0 -2 0 -4 0 -3 0 -2 0 -4 0 -3 0 -2 0 -2 0 -4 1 0 1 0 2 0 3 0 6 0 8 0 1 0 2 0 0 3 0 5 0 11 0 2 0 3 0 2 1 0 0 -11 0 -1 0 -1 0 -1 0 -1 0 -2 0 -3 0 -6 0 3 0 4 0 8 0 11 1 0 1 0 2 0"/>
<path stroke="#FFC0C5" d="M430 550l1 0 0 -2 0 -5 0 -11 0 -8 1 0 1 0 3 0 4 0 9 0 0 1 0 1 0 2 0 2 0 1 0 1 0 1 0 1 0 1 0 4 0 4 0 1 0 1 0 1 0 1 0 1 0 2 0 -1 0 -2 0 -2 0 -1 0 -2 0 -3 0 -7 0 -8 0 1 0 1 0 1 0 2 0 5 0 11 0 5 1 0 1 0 2 0 4 0 7 0 9 0 0 -1"/>
<path stroke="#FFC0C5" d="M473 549l0 -1 0 -3 0 -5 0 -11 0 -2 0 -1 0 -1 0 -1 0 3 0 3 0 1 0 2 0 5 0 2 0 1 0 2 0 3 0 4 1 0 0 -2 0 -3 0 -2 0 -1 0 -1 0 -3 0 -5 0 -1 0 -1 0 -1 0 -3 0 -3 1 0 1 0 2 0 5 0 1 0 2 0 0 3 0 5 0 11 0 7 0 -2 0 -5 0 -11 0 -1"/>
<path stroke="#FFC0C5" d="M486 531l0 -1 0 -3 0 -3 1 0 1 0 2 0 0 3 0 4 0 2 0 1 0 2 0 3 0 3 0 1 0 2 0 2 0 3 1 0 1 0 1 0 3 0 7 0 9 0 7 0 0 -1 0 -1 0 -1 0 -1 0 -1 0 -1 0 -1 0 1 0 1 0 3 0 2 0 -1 0 -1 0 -1 0 -1 0 -1 0 -1 0 -1 0 -3 0 -3 0 -1 0 -2 0 -2"/>
<path stroke="#FFC0C5" d="M519 532l0 -1 0 -2 0 -3 0 -2 0 1 0 2 0 2 0 6 0 11 0 2 0 1 0 1 1 0 2 0 3 0 3 0 1 0 3 0 0 -1 0 -2 0 -2 0 -1 0 -1 0 -1 0 -1 0 -2 0 -3 0 -4 0 -1 0 -1 0 -1 0 -1 0 -2 0 -2 0 1 0 3 0 2 0 1 0 2 0 3 0 7 0 2 0 2 0 3 0 -1 0 -1"/>
<path stroke="#FFC0C5" d="M532 548l0 -1 0 -1 0 -2 0 -3 0 -1 0 -1 0 -2 0 -1 0 -1 0 -2 0 -1 0 -1 0 -1 0 -2 0 -1 0 -1 0 -2 1 0 1 0 2 0 3 0 8 0 9 0 8 0 0 1 0 1 0 1 0 3 0 5 0 8 0 1 0 2 0 2 0 1 0 1 0 -1 0 -2 0 -2 0 -1 0 -2 0 -3 0 -5 0 -1 0 -1 0 -3"/>
<path stroke="#FFC0C5" d="M564 529l0 -5 0 1 0 1 0 1 0 3 0 5 0 4 0 1 0 1 0 3 0 2 0 1 0 1 0 1 0 1 1 0 1 0 2 0 4 0 8 0 0 -2 0 -2 0 -6 0 -10 0 -1 0 -1 0 -1 0 -1 0 -2 0 1 0 1 0 2 0 2 0 1 0 1 0 1 0 1 0 1 0 4 0 3 0 1 0 2 0 1 0 1 0 2 0 1 0 -1 0 -1 0 -1"/>
<path stroke="#FFC0C5" d="M580 547l0 -1 0 -2 0 -4 0 -8 0 -1 0 -1 0 -1 0 -1 0 -2 0 -2 0 1 0 1 0 1 0 1 0 1 0 2 0 3 0 1 0 2 0 1 0 1 0 1 0 2 0 1 0 1 0 1 0 2 0 1 0 2 1 0 1 0 3 0 6 0 7 0 1 0 2 0 0 -2 0 -5 0 -11 0 -1 0 -1 0 -3 0 -3 1 0 0 12 0 1 0 1"/>
<path stroke="#FFC0C5" d="M602 538l0 1 0 1 0 2 0 3 0 5 0 -2 0 -4 0 -3 0 -2 0 -4 0 -3 0 -2 0 -2 0 -4 1 0 1 0 1 0 2 0 0 3 0 5 0 11 0 7 1 0 1 0 3 0 4 0 1 0 2 0 0 -2 0 -5 0 -11 0 -8 0 3 0 5 0 11 0 2 0 3 0 2 1 0 1 0 0 -2 0 -4 0 -3 0 -2 0 -4 0 -3 0 -2"/>
<path stroke="#FFC0C5" d="M621 530l0 -2 0 -4 1 0 1 0 1 0 4 0 6 0 9 0 9 0 0 1 0 1 0 1 0 3 0 5 0 8 0 1 0 2 0 2 0 1 0 1 0 -1 0 -2 0 -2 0 -1 0 -2 0 -3 0 -5 0 -1 0 -1 0 -1 0 -1 0 -1 0 -2 0 -3 0 1 0 1 0 1 0 1 0 1 0 2 0 4 0 1 0 1 0 1 0 1 0 2 0 2 0 1"/>
<path stroke="#FFC0C5" d="M652 544l0 1 0 4 0 1 1 0 2 0 3 0 1 0 1 0 4 0 0 -2 0 -5 0 -11 0 -8 0 3 0 5 0 11 0 2 0 3 0 2 0 -2 0 -4 0 -3 0 -2 0 -4 0 -3 0 -2 0 -2 0 -4 1 0 1 0 2 0 3 0 6 0 9 0 9 0 0 2 0 1 0 1 0 1 0 1 0 1 0 1 0 -1 0 -1 0 -3 0 -3 0 1"/>
<path stroke="#FFC0C5" d="M695 525l0 1 0 1 0 1 0 1 0 1 0 4 0 3 0 1 0 1 0 2 0 1 0 1 0 1 0 1 0 1 0 1 0 2 0 1 0 -1 0 -3 0 -3 0 -1 0 -1 0 -1 0 -1 0 -1 0 -2 0 -1 0 -1 0 -2 0 -3 0 -3 0 -1 0 -1 1 0 1 0 3 0 4 0 1 0 2 0 0 3 0 5 0 11 0 7 0 -2 0 -5 0 -11"/>
<path stroke="#FFC0C5" d="M707 532l0 -1 0 -1 0 -3 0 -3 1 0 1 0 0 3 0 4 0 8 0 11 1 0 1 0 1 0 4 0 8 0 9 0 8 0 0 -1 0 -1 0 -3 0 -5 0 -8 0 -1 0 -2 0 -2 0 -1 0 -1 0 -1 0 1 0 3 0 2 0 1 0 2 0 3 0 5 0 1 0 1 0 1 0 1 0 2 0 3 0 -1 0 -1 0 -1 0 -1 0 -1 0 -2"/>
<path stroke="#FFC0C5" d="M741 543l0 -3 0 -1 0 -1 0 -1 0 -1 0 -1 0 -1 0 -1 0 -2 0 -1 0 -1 0 -1 0 -1 0 -2 0 -1 1 0 1 0 1 0 3 0 1 0 2 0 3 0 0 2 0 5 0 8 0 11 0 -1 0 -4 0 -6 0 -14 0 -1 0 1 0 1 0 1 0 3 0 3 0 1 0 3 0 1 0 1 0 1 0 1 0 1 0 1 0 1 0 2 0 4"/>
<path stroke="#FFC0C5" d="M753 550l0 -2 0 -4 0 -3 0 -2 0 -4 0 -3 0 -2 0 -2 0 -4 1 0 1 0 2 0 3 0 6 0 8 0 1 0 2 0 0 3 0 5 0 11 0 2 0 3 0 2 1 0 0 -11 0 -1 0 -1 0 -1 0 -1 0 -2 0 -3 0 -6 0 3 0 4 0 8 0 11 1 0 1 0 2 0 1 0 0 -2 0 -5 0 -11 0 -8 1 0 1 0"/>
<path stroke="#FFC0C5" d="M785 524l3 0 4 0 1 0 1 0 1 0 0 3 0 5 0 11 0 7 0 -2 0 -5 0 -11 0 -1 0 -1 0 -3 0 -3 1 0 1 0 0 3 0 4 0 2 0 1 0 2 0 3 0 3 0 1 0 2 0 2 0 3 1 0 1 0 1 0 3 0 7 0 9 0 8 0 0 -1 0 -1 0 -3 0 -5 0 -8 0 -1 0 -2 0 -2 0 -1 0 -1 0 -1"/>
<path stroke="#FFC0C5" d="M827 524l0 1 0 3 0 2 0 1 0 2 0 3 0 7 0 7 0 -1 0 -1 0 -3 0 -5 0 -10 0 -6 1 0 1 0 2 0 4 0 1 0 2 0 0 3 0 5 0 11 0 7 0 -2 0 -5 0 -11 0 -1 0 -1 0 -3 0 -3 1 0 1 0 1 0 0 3 0 4 0 2 0 1 0 2 0 3 0 3 0 1 0 2 0 2 0 3 1 0 1 0 2 0"/>
<path stroke="#FFC0C5" d="M845 550l3 0 6 0 9 0 8 0 0 -1 0 -1 0 -1 0 -1 0 -1 0 -1 0 -1 0 1 0 1 0 3 0 2 0 -1 0 -1 0 -1 0 -1 0 -1 0 -1 0 -1 0 -3 0 -3 0 -1 0 -2 0 -2 0 -1 0 -2 0 -3 0 -2 0 1 0 2 0 2 0 6 0 11 0 2 0 1 0 1 1 0 2 0 3 0 3 0 1 0 3 0 0 -1"/>
<path stroke="#FFC0C5" d="M884 549l0 -2 0 -2 0 -1 0 -1 0 -1 0 -1 0 -2 0 -3 0 -4 0 -1 0 -1 0 -1 0 -1 0 -2 0 -2 0 1 0 3 0 2 0 1 0 2 0 3 0 7 0 2 0 2 0 3 0 -1 0 -1 0 -1 0 -1 0 -2 0 -3 0 -1 0 -1 0 -2 0 -1 0 -1 0 -2 0 -1 0 -1 0 -1 0 -2 0 -1 0 -1 0 -2"/>
<path stroke="#FFC0C5" d="M884 524l1 0 1 0 2 0 3 0 8 0 9 0 8 0 0 1 0 1 0 1 0 3 0 5 0 8 0 1 0 2 0 2 0 1 0 1 0 -1 0 -2 0 -2 0 -1 0 -2 0 -3 0 -5 0 -1 0 -1 0 -3 0 -5 0 1 0 1 0 1 0 3 0 5 0 4 0 1 0 1 0 3 0 2 0 1 0 1 0 1 0 1 1 0 1 0 2 0 4 0 1 0 2 0"/>
<path stroke="#FFC0C5" d="M927 550l0 -2 0 -5 0 -11 0 -8 0 3 0 5 0 11 0 2 0 3 0 2 0 -2 0 -5 0 -11 0 -8 1 0 1 0 0 3 0 4 0 8 0 11 1 0 1 0 2 0 3 0 8 0 6 0"/>
<path stroke="#A52A2A" d="M70 55l44 0"/>
<text stroke="none" fill="white" font-size="16" x="124" y="64">
v(d5)+35
</text>
<path stroke="#A52A2A" d="M70 514l1 0 2 0 3 0 1 0 1 0 1 0 1 0 1 0 2 0 5 0 9 0 1 0 1 0 1 0 4 0 8 0 9 0 1 0 1 0 1 0 3 0 5 0 1 0 2 0 1 0 1 0 1 0 2 0 3 0 7 0 9 0 8 0 1 0 2 0 3 0 3 0 1 0 3 0 1 0 1 0 2 0 3 0 8 0 9 0 8 0 1 0 1 0 2 0 4 0 1 0 2 0 1 0"/>
<path stroke="#A52A2A" d="M224 514l1 0 1 0 1 0 2 0 3 0 8 0 6 0 1 0 2 0 1 0 1 0 1 0 1 0 2 0 1 0 1 0 2 0 5 0 9 0 1 0 2 0 3 0 6 0 9 0 1 0 1 0 1 0 1 0 2 0 5 0 8 0 1 0 1 0 2 0 3 0 6 0 9 0 8 0 1 0 1 0 3 0 4 0 1 0 2 0 1 0 1 0 1 0 1 0 1 0 4 0 8 0 9 0"/>
<path stroke="#A52A2A" d="M381 514l8 0 1 0 1 0 1 0 3 0 1 0 2 0 3 0 1 0 1 0 2 0 3 0 6 0 8 0 1 0 2 0 1 0 1 0 1 0 2 0 1 0 1 0 1 0 3 0 4 0 9 0 1 0 1 0 2 0 4 0 7 0 9 0 1 0 1 0 1 0 2 0 5 0 1 0 2 0 1 0 1 0 2 0 1 0 1 0 1 0 3 0 7 0 9 0 7 0 1 0 2 0 3 0"/>
<path stroke="#A52A2A" d="M525 514l3 0 1 0 3 0 1 0 1 0 2 0 3 0 8 0 9 0 8 0 1 0 1 0 2 0 4 0 8 0 1 0 1 0 3 0 6 0 7 0 1 0 2 0 1 0 1 0 1 0 1 0 2 0 1 0 1 0 3 0 4 0 1 0 2 0 1 0 1 0 1 0 1 0 1 0 4 0 6 0 9 0 9 0 1 0 2 0 3 0 1 0 1 0 4 0 1 0 1 0 2 0 3 0"/>
<path stroke="#A52A2A" d="M671 514l6 0 9 0 9 0 1 0 1 0 3 0 4 0 1 0 2 0 1 0 1 0 1 0 1 0 1 0 4 0 8 0 9 0 8 0 1 0 1 0 1 0 3 0 1 0 2 0 3 0 1 0 1 0 2 0 3 0 6 0 8 0 1 0 2 0 1 0 1 0 1 0 2 0 1 0 1 0 1 0 3 0 4 0 1 0 1 0 1 0 1 0 1 0 1 0 1 0 1 0 3 0 7 0"/>
<path stroke="#A52A2A" d="M810 514l9 0 8 0 1 0 1 0 2 0 4 0 1 0 2 0 1 0 1 0 1 0 1 0 1 0 2 0 3 0 6 0 9 0 8 0 1 0 2 0 3 0 3 0 1 0 3 0 1 0 1 0 2 0 3 0 8 0 9 0 8 0 1 0 1 0 2 0 4 0 1 0 2 0 1 0 1 0 1 0 1 0 2 0 3 0 8 0 6 0"/>
<path stroke="#F0E68C" d="M440 71l44 0"/>
<text stroke="none" fill="white" font-size="16" x="494" y="80">
v(d6)+42
</text>
<path stroke="#F0E68C" d="M70 478l1 0 2 0 3 0 1 0 1 0 1 0 1 0 1 0 2 0 5 0 9 0 1 0 1 0 1 0 4 0 8 0 9 0 1 0 1 0 1 0 3 0 5 0 1 0 2 0 1 0 1 0 1 0 2 0 3 0 7 0 9 0 8 0 1 0 2 0 3 0 3 0 1 0 3 0 1 0 1 0 2 0 3 0 8 0 9 0 8 0 1 0 1 0 2 0 4 0 1 0 2 0 0 -3"/>
<path stroke="#F0E68C" d="M223 475l0 -5 0 -11 0 -7 1 0 1 0 1 0 1 0 2 0 3 0 8 0 6 0 1 0 2 0 1 0 1 0 1 0 1 0 2 0 1 0 1 0 2 0 5 0 9 0 1 0 2 0 3 0 6 0 9 0 1 0 1 0 1 0 1 0 2 0 5 0 8 0 1 0 1 0 2 0 3 0 6 0 9 0 8 0 1 0 1 0 3 0 4 0 1 0 2 0 1 0 1 0 1 0"/>
<path stroke="#F0E68C" d="M358 452l1 0 1 0 4 0 8 0 9 0 8 0 1 0 1 0 1 0 3 0 1 0 2 0 3 0 0 2 0 4 0 8 0 12 1 0 1 0 2 0 3 0 6 0 8 0 1 0 2 0 1 0 1 0 1 0 2 0 1 0 1 0 1 0 3 0 4 0 9 0 1 0 1 0 2 0 4 0 7 0 9 0 1 0 1 0 1 0 2 0 5 0 1 0 2 0 1 0 1 0 2 0 1 0"/>
<path stroke="#F0E68C" d="M491 478l1 0 1 0 3 0 7 0 9 0 7 0 1 0 2 0 3 0 3 0 1 0 3 0 1 0 1 0 2 0 3 0 8 0 9 0 8 0 1 0 1 0 2 0 4 0 8 0 0 -1 0 -1 0 -3 0 -5 0 -11 0 -2 0 -1 0 -1 0 -1 1 0 1 0 3 0 6 0 7 0 1 0 2 0 1 0 1 0 1 0 1 0 2 0 1 0 1 0 3 0 4 0 1 0"/>
<path stroke="#F0E68C" d="M617 452l2 0 1 0 1 0 1 0 1 0 1 0 4 0 6 0 9 0 9 0 1 0 2 0 3 0 1 0 1 0 4 0 1 0 1 0 2 0 3 0 6 0 9 0 9 0 1 0 1 0 3 0 4 0 1 0 2 0 1 0 1 0 1 0 1 0 1 0 4 0 8 0 9 0 8 0 1 0 1 0 1 0 3 0 1 0 2 0 3 0 0 2 0 4 0 8 0 12 1 0 1 0 2 0"/>
<path stroke="#F0E68C" d="M757 478l3 0 6 0 8 0 1 0 2 0 1 0 1 0 1 0 2 0 1 0 1 0 1 0 3 0 4 0 1 0 1 0 1 0 1 0 1 0 1 0 1 0 1 0 3 0 7 0 9 0 8 0 1 0 1 0 2 0 4 0 1 0 2 0 1 0 1 0 1 0 1 0 1 0 2 0 3 0 6 0 9 0 8 0 1 0 2 0 3 0 3 0 1 0 3 0 1 0 1 0 2 0 3 0"/>
<path stroke="#F0E68C" d="M891 478l8 0 9 0 8 0 1 0 1 0 2 0 4 0 1 0 2 0 0 -3 0 -5 0 -11 0 -7 1 0 1 0 1 0 1 0 2 0 3 0 8 0 6 0"/>
<path stroke="#DDA0DD" d="M70 71l44 0"/>
<text stroke="none" fill="white" font-size="16" x="124" y="80">
v(d7)+49
</text>
<path stroke="#DDA0DD" d="M70 441l1 0 2 0 3 0 0 -1 0 -2 0 -4 0 -9 0 -10 0 1 0 2 0 2 0 6 0 11 0 4 1 0 1 0 1 0 1 0 1 0 2 0 5 0 9 0 0 -1 0 -2 0 -2 0 -1 0 -2 0 -4 0 -6 0 -8 0 1 0 2 0 2 0 5 0 10 0 6 1 0 1 0 1 0 4 0 8 0 9 0 0 -2 0 -3 0 -1 0 -1 0 -2"/>
<path stroke="#DDA0DD" d="M121 432l0 -4 0 -3 0 -1 0 -1 0 -4 0 -4 1 0 0 1 0 2 0 3 0 2 0 1 0 1 0 3 0 5 0 1 0 1 0 2 0 4 1 0 1 0 3 0 5 0 1 0 2 0 0 -2 0 -4 0 -9 0 -5 0 -1 0 -1 0 -2 0 -2 1 0 1 0 0 2 0 5 0 2 0 1 0 2 0 3 0 3 0 1 0 1 0 3 0 3 1 0 2 0 3 0"/>
<path stroke="#DDA0DD" d="M143 441l7 0 9 0 8 0 0 -1 0 -1 0 -1 0 -1 0 -1 0 -1 0 -2 0 -2 0 -3 0 -1 0 -2 0 -2 0 -1 0 -2 0 -3 0 -2 0 1 0 2 0 2 0 6 0 11 0 2 0 1 0 1 1 0 2 0 3 0 3 0 1 0 3 0 0 -1 0 -2 0 -2 0 -1 0 -2 0 -4 0 -6 0 -1 0 -1 0 -3 0 -3 0 1"/>
<path stroke="#DDA0DD" d="M180 416l0 1 0 1 0 1 0 2 0 3 0 1 0 2 0 1 0 1 0 1 0 3 0 1 0 1 0 1 0 1 0 1 0 1 0 2 1 0 1 0 2 0 3 0 8 0 9 0 8 0 0 -1 0 -2 0 -2 0 -1 0 -2 0 -4 0 -4 0 -1 0 -2 0 -2 0 -5 0 1 0 2 0 3 0 5 0 4 0 1 0 1 0 3 0 2 0 1 0 2 0 1 1 0"/>
<path stroke="#DDA0DD" d="M213 441l1 0 2 0 4 0 1 0 2 0 0 -2 0 -6 0 -10 0 -1 0 -1 0 -3 0 -3 1 0 1 0 0 2 0 5 0 8 0 11 1 0 1 0 2 0 3 0 8 0 6 0 1 0 2 0 0 -2 0 -6 0 -10 0 -1 0 -1 0 -3 0 -3 1 0 0 2 0 5 0 2 0 1 0 2 0 3 0 3 0 1 0 1 0 3 0 3 1 0 1 0 1 0"/>
<path stroke="#DDA0DD" d="M253 441l2 0 1 0 1 0 2 0 5 0 9 0 0 -1 0 -2 0 -2 0 -1 0 -2 0 -4 0 -4 0 -1 0 -1 0 -1 0 -1 0 -1 0 -2 0 -3 0 1 0 2 0 1 0 1 0 2 0 4 0 1 0 1 0 1 0 1 0 2 0 1 0 1 0 1 0 1 0 3 0 2 1 0 2 0 3 0 6 0 9 0 0 -2 0 -3 0 -1 0 -1 0 -2"/>
<path stroke="#DDA0DD" d="M294 432l0 -4 0 -3 0 -1 0 -1 0 -4 0 -4 1 0 1 0 0 3 0 5 0 10 0 8 1 0 1 0 2 0 5 0 8 0 0 -1 0 -2 0 -2 0 -1 0 -2 0 -4 0 -4 0 -1 0 -1 0 -1 0 -1 0 -1 0 -2 0 -3 0 1 0 2 0 1 0 1 0 2 0 4 0 1 0 1 0 1 0 1 0 2 0 1 0 1 0 1 0 1 0 3"/>
<path stroke="#DDA0DD" d="M313 439l0 2 1 0 1 0 2 0 3 0 6 0 9 0 8 0 0 -1 0 -1 0 -1 0 -1 0 -2 0 -3 0 -4 0 -1 0 -2 0 -1 0 -1 0 -1 0 -1 0 -1 0 -1 0 -1 0 -1 0 -2 0 1 0 1 0 2 0 3 0 1 0 2 0 1 0 1 0 2 0 2 0 1 0 2 0 3 0 2 0 1 0 1 1 0 1 0 3 0 4 0 1 0 2 0"/>
<path stroke="#DDA0DD" d="M355 441l0 -2 0 -6 0 -10 0 -1 0 -1 0 -3 0 -3 1 0 1 0 0 2 0 5 0 8 0 11 1 0 1 0 1 0 4 0 8 0 9 0 8 0 0 -1 0 -2 0 -2 0 -1 0 -2 0 -4 0 -4 0 -1 0 -1 0 -1 0 -1 0 -2 0 -4 0 1 0 2 0 1 0 1 0 3 0 3 0 1 0 1 0 1 0 1 0 1 0 1 0 3 0 1"/>
<path stroke="#DDA0DD" d="M389 436l0 1 0 1 0 1 0 1 0 1 1 0 1 0 1 0 3 0 1 0 2 0 3 0 0 -1 0 -2 0 -3 0 -2 0 -1 0 -1 0 -2 0 -1 0 -1 0 -1 0 -2 0 -1 0 -2 0 -2 0 -4 0 2 0 5 0 2 0 1 0 2 0 3 0 3 0 1 0 1 0 3 0 3 1 0 1 0 2 0 3 0 6 0 8 0 1 0 2 0 0 -2 0 -6"/>
<path stroke="#DDA0DD" d="M425 433l0 -10 0 -1 0 -1 0 -3 0 -3 1 0 0 2 0 5 0 8 0 11 1 0 1 0 2 0 1 0 1 0 1 0 3 0 4 0 9 0 0 -1 0 -2 0 -2 0 -1 0 -2 0 -4 0 -6 0 -8 0 1 0 2 0 2 0 5 0 10 0 6 1 0 1 0 2 0 4 0 7 0 9 0 0 -2 0 -3 0 -1 0 -1 0 -2 0 -4 0 -3"/>
<path stroke="#DDA0DD" d="M473 425l0 -1 0 -1 0 -4 0 -4 1 0 0 1 0 2 0 3 0 2 0 1 0 1 0 2 0 5 0 1 0 1 0 2 0 3 0 2 1 0 1 0 2 0 5 0 1 0 2 0 0 -2 0 -6 0 -10 0 -1 0 -1 0 -3 0 -3 1 0 1 0 2 0 0 2 0 5 0 2 0 1 0 2 0 3 0 3 0 1 0 1 0 3 0 3 1 0 1 0 1 0 3 0"/>
<path stroke="#DDA0DD" d="M496 441l7 0 9 0 7 0 0 -1 0 -1 0 -1 0 -1 0 -1 0 -1 0 -2 0 -2 0 -3 0 -1 0 -2 0 -2 0 -1 0 -2 0 -3 0 -2 0 1 0 2 0 2 0 6 0 11 0 2 0 1 0 1 1 0 2 0 3 0 3 0 1 0 3 0 0 -1 0 -2 0 -2 0 -1 0 -2 0 -4 0 -6 0 -1 0 -1 0 -3 0 -3 0 1"/>
<path stroke="#DDA0DD" d="M532 416l0 1 0 1 0 1 0 2 0 3 0 1 0 2 0 1 0 1 0 1 0 3 0 1 0 1 0 1 0 1 0 1 0 1 0 2 1 0 1 0 2 0 3 0 8 0 9 0 8 0 0 -1 0 -2 0 -2 0 -1 0 -2 0 -4 0 -4 0 -1 0 -2 0 -2 0 -5 0 1 0 2 0 3 0 5 0 4 0 1 0 1 0 3 0 2 0 1 0 2 0 1 1 0"/>
<path stroke="#DDA0DD" d="M565 441l1 0 2 0 4 0 8 0 0 -1 0 -1 0 -1 0 -1 0 -1 0 -1 0 -4 0 -8 0 -1 0 -1 0 -1 0 -1 0 -3 0 -1 0 1 0 2 0 1 0 1 0 2 0 3 0 1 0 1 0 2 0 2 0 2 0 1 0 1 0 1 0 2 0 1 0 2 1 0 1 0 3 0 6 0 7 0 1 0 2 0 0 -2 0 -6 0 -10 0 -1 0 -1"/>
<path stroke="#DDA0DD" d="M601 421l0 -3 0 -3 1 0 0 2 0 5 0 2 0 1 0 2 0 3 0 3 0 1 0 1 0 3 0 3 1 0 1 0 1 0 2 0 1 0 1 0 3 0 4 0 1 0 2 0 0 -2 0 -6 0 -10 0 -1 0 -1 0 -3 0 -3 1 0 1 0 0 2 0 5 0 2 0 1 0 2 0 3 0 3 0 1 0 1 0 3 0 3 1 0 1 0 1 0 4 0 6 0 9 0"/>
<path stroke="#DDA0DD" d="M643 441l9 0 0 -1 0 -2 0 -2 0 -1 0 -2 0 -4 0 -4 0 -1 0 -1 0 -1 0 -1 0 -1 0 -2 0 -3 0 1 0 2 0 1 0 1 0 2 0 4 0 1 0 1 0 1 0 1 0 2 0 1 0 1 0 1 0 1 0 3 0 2 1 0 2 0 3 0 1 0 1 0 4 0 0 -2 0 -6 0 -10 0 -1 0 -1 0 -3 0 -3 0 2 0 5"/>
<path stroke="#DDA0DD" d="M664 422l0 2 0 1 0 2 0 3 0 3 0 1 0 1 0 3 0 3 1 0 1 0 2 0 3 0 6 0 9 0 9 0 0 -1 0 -1 0 -1 0 -1 0 -2 0 -3 0 -4 0 -1 0 -2 0 -1 0 -1 0 -1 0 -1 0 -1 0 -1 0 -1 0 -1 0 -2 0 1 0 1 0 2 0 3 0 1 0 2 0 1 0 1 0 2 0 2 0 1 0 2 0 3 0 2"/>
<path stroke="#DDA0DD" d="M695 439l0 1 0 1 1 0 1 0 3 0 4 0 1 0 2 0 0 -2 0 -6 0 -10 0 -1 0 -1 0 -3 0 -3 1 0 1 0 0 2 0 5 0 8 0 11 1 0 1 0 1 0 4 0 8 0 9 0 8 0 0 -1 0 -2 0 -2 0 -1 0 -2 0 -4 0 -4 0 -1 0 -1 0 -1 0 -1 0 -2 0 -4 0 1 0 2 0 1 0 1 0 3 0 3"/>
<path stroke="#DDA0DD" d="M741 426l0 1 0 1 0 1 0 1 0 1 0 1 0 3 0 1 0 1 0 1 0 1 0 1 0 1 1 0 1 0 1 0 3 0 1 0 2 0 3 0 0 -1 0 -2 0 -3 0 -2 0 -1 0 -1 0 -2 0 -1 0 -1 0 -1 0 -2 0 -1 0 -2 0 -2 0 -4 0 2 0 5 0 2 0 1 0 2 0 3 0 3 0 1 0 1 0 3 0 3 1 0 1 0"/>
<path stroke="#DDA0DD" d="M755 441l2 0 3 0 6 0 8 0 1 0 2 0 0 -2 0 -6 0 -10 0 -1 0 -1 0 -3 0 -3 1 0 0 2 0 5 0 8 0 11 1 0 1 0 2 0 1 0 1 0 1 0 3 0 4 0 1 0 1 0 1 0 0 -2 0 -6 0 -10 0 -1 0 -1 0 -3 0 -3 1 0 1 0 0 2 0 5 0 2 0 1 0 2 0 3 0 3 0 1 0 1 0 3"/>
<path stroke="#DDA0DD" d="M797 438l0 3 1 0 1 0 1 0 3 0 7 0 9 0 8 0 0 -1 0 -2 0 -2 0 -1 0 -2 0 -4 0 -6 0 -8 0 1 0 2 0 2 0 5 0 10 0 6 1 0 1 0 2 0 4 0 1 0 2 0 0 -2 0 -6 0 -10 0 -1 0 -1 0 -3 0 -3 1 0 1 0 1 0 0 2 0 5 0 2 0 1 0 2 0 3 0 3 0 1 0 1 0 3"/>
<path stroke="#DDA0DD" d="M841 438l0 3 1 0 1 0 2 0 3 0 6 0 9 0 8 0 0 -1 0 -1 0 -1 0 -1 0 -1 0 -1 0 -2 0 -2 0 -3 0 -1 0 -2 0 -2 0 -1 0 -2 0 -3 0 -2 0 1 0 2 0 2 0 6 0 11 0 2 0 1 0 1 1 0 2 0 3 0 3 0 1 0 3 0 0 -1 0 -2 0 -2 0 -1 0 -2 0 -4 0 -6 0 -1"/>
<path stroke="#DDA0DD" d="M884 422l0 -1 0 -3 0 -3 0 1 0 1 0 1 0 1 0 2 0 3 0 1 0 2 0 1 0 1 0 1 0 3 0 1 0 1 0 1 0 1 0 1 0 1 0 2 1 0 1 0 2 0 3 0 8 0 9 0 8 0 0 -1 0 -2 0 -2 0 -1 0 -2 0 -4 0 -4 0 -1 0 -2 0 -2 0 -5 0 1 0 2 0 3 0 5 0 4 0 1 0 1 0 3 0 2"/>
<path stroke="#DDA0DD" d="M916 437l0 1 0 2 0 1 1 0 1 0 2 0 4 0 1 0 2 0 0 -2 0 -6 0 -10 0 -1 0 -1 0 -3 0 -3 1 0 1 0 0 2 0 5 0 8 0 11 1 0 1 0 2 0 3 0 8 0 6 0"/>
<path stroke="#DA70D6" d="M440 87l44 0"/>
<text stroke="none" fill="white" font-size="16" x="494" y="96">
v(d8)+56
</text>
<path stroke="#DA70D6" d="M70 405l1 0 2 0 3 0 0 -1 0 -2 0 -2 0 -6 0 -7 0 -1 0 -1 0 -1 0 -1 0 -2 0 -1 0 -1 1 0 1 0 1 0 1 0 1 0 2 0 5 0 9 0 0 1 0 2 0 2 0 1 0 1 0 1 0 1 0 2 0 3 0 4 0 1 0 1 0 1 0 1 0 2 0 2 1 0 1 0 1 0 4 0 8 0 9 0 0 -1 0 -2 0 -2 0 -6"/>
<path stroke="#DA70D6" d="M121 394l0 -10 0 -3 0 -1 0 -1 1 0 1 0 1 0 3 0 5 0 1 0 2 0 0 1 0 1 0 1 0 1 0 2 0 3 0 7 0 10 1 0 1 0 1 0 2 0 3 0 7 0 9 0 8 0 0 -1 0 -2 0 -2 0 -3 0 -1 0 -1 0 -2 0 -4 0 -2 0 -1 0 -1 0 -2 0 -2 0 -1 0 -1 1 0 2 0 3 0 3 0 1 0"/>
<path stroke="#DA70D6" d="M177 379l3 0 0 1 0 2 0 2 0 1 0 1 0 1 0 1 0 2 0 3 0 4 0 1 0 1 0 1 0 1 0 2 0 2 1 0 1 0 2 0 3 0 8 0 9 0 8 0 0 -1 0 -2 0 -2 0 -6 0 -7 0 -1 0 -1 0 -2 0 -2 0 -1 0 -1 1 0 1 0 2 0 4 0 1 0 2 0 0 2 0 6 0 10 0 8 1 0 1 0 1 0 1 0"/>
<path stroke="#DA70D6" d="M227 405l2 0 3 0 8 0 6 0 1 0 2 0 1 0 0 -12 0 -1 0 -1 0 -1 0 -1 0 -2 0 -3 0 -5 1 0 1 0 1 0 2 0 1 0 1 0 2 0 5 0 9 0 0 1 0 2 0 2 0 1 0 1 0 1 0 1 0 2 0 3 0 4 0 1 0 1 0 1 0 1 0 2 0 2 1 0 2 0 3 0 6 0 9 0 0 -1 0 -2 0 -2 0 -6"/>
<path stroke="#DA70D6" d="M294 394l0 -10 0 -3 0 -1 0 -1 1 0 1 0 1 0 1 0 2 0 5 0 8 0 0 1 0 2 0 2 0 1 0 1 0 1 0 1 0 2 0 3 0 4 0 1 0 1 0 1 0 1 0 2 0 2 1 0 1 0 2 0 3 0 6 0 9 0 8 0 0 -1 0 -2 0 -2 0 -3 0 -1 0 -1 0 -2 0 -4 0 -2 0 -1 0 -1 0 -2 0 -2 0 -1"/>
<path stroke="#DA70D6" d="M343 380l0 -1 1 0 1 0 3 0 4 0 1 0 2 0 0 2 0 6 0 10 0 8 1 0 1 0 1 0 1 0 1 0 4 0 8 0 9 0 8 0 0 -1 0 -2 0 -2 0 -6 0 -7 0 -1 0 -1 0 -2 0 -2 0 -1 0 -1 1 0 1 0 1 0 3 0 1 0 2 0 3 0 0 1 0 4 0 6 0 14 0 1 1 0 1 0 2 0 3 0 6 0 8 0"/>
<path stroke="#DA70D6" d="M422 405l1 0 2 0 1 0 0 -12 0 -1 0 -1 0 -1 0 -1 0 -2 0 -3 0 -5 1 0 1 0 2 0 1 0 1 0 1 0 3 0 4 0 9 0 0 1 0 2 0 2 0 1 0 1 0 1 0 1 0 2 0 3 0 4 0 1 0 1 0 1 0 1 0 2 0 2 1 0 1 0 2 0 4 0 7 0 9 0 0 -1 0 -2 0 -2 0 -6 0 -10 0 -3"/>
<path stroke="#DA70D6" d="M473 381l0 -1 0 -1 1 0 1 0 1 0 2 0 5 0 1 0 2 0 0 2 0 6 0 10 0 8 1 0 1 0 2 0 1 0 1 0 1 0 3 0 7 0 9 0 7 0 0 -1 0 -2 0 -2 0 -3 0 -1 0 -1 0 -2 0 -4 0 -2 0 -1 0 -1 0 -2 0 -2 0 -1 0 -1 1 0 2 0 3 0 3 0 1 0 3 0 0 1 0 2 0 2 0 1"/>
<path stroke="#DA70D6" d="M532 385l0 1 0 1 0 1 0 2 0 3 0 4 0 1 0 1 0 1 0 1 0 2 0 2 1 0 1 0 2 0 3 0 8 0 9 0 8 0 0 -1 0 -2 0 -2 0 -6 0 -7 0 -1 0 -1 0 -2 0 -2 0 -1 0 -1 1 0 1 0 2 0 4 0 8 0 0 1 0 2 0 2 0 1 0 1 0 1 0 1 0 2 0 3 0 4 0 1 0 1 0 1 0 1"/>
<path stroke="#DA70D6" d="M580 401l0 3 0 1 1 0 1 0 3 0 6 0 7 0 1 0 2 0 1 0 0 -12 0 -1 0 -1 0 -1 0 -1 0 -2 0 -3 0 -5 1 0 1 0 1 0 2 0 1 0 1 0 3 0 4 0 1 0 2 0 0 2 0 6 0 10 0 8 1 0 1 0 1 0 1 0 1 0 4 0 6 0 9 0 9 0 0 -1 0 -2 0 -2 0 -6 0 -7 0 -1 0 -1"/>
<path stroke="#DA70D6" d="M652 385l0 -2 0 -2 0 -1 0 -1 1 0 2 0 3 0 1 0 1 0 4 0 0 2 0 6 0 10 0 8 1 0 1 0 2 0 3 0 6 0 9 0 9 0 0 -1 0 -2 0 -2 0 -3 0 -1 0 -1 0 -2 0 -4 0 -2 0 -1 0 -1 0 -2 0 -2 0 -1 0 -1 1 0 1 0 3 0 4 0 1 0 2 0 0 2 0 6 0 10 0 8 1 0"/>
<path stroke="#DA70D6" d="M708 405l1 0 1 0 1 0 1 0 4 0 8 0 9 0 8 0 0 -1 0 -2 0 -2 0 -6 0 -7 0 -1 0 -1 0 -2 0 -2 0 -1 0 -1 1 0 1 0 1 0 3 0 1 0 2 0 3 0 0 1 0 4 0 6 0 14 0 1 1 0 1 0 2 0 3 0 6 0 8 0 1 0 2 0 1 0 0 -12 0 -1 0 -1 0 -1 0 -1 0 -2 0 -3"/>
<path stroke="#DA70D6" d="M778 384l0 -5 1 0 1 0 2 0 1 0 1 0 1 0 3 0 4 0 1 0 1 0 1 0 0 2 0 6 0 10 0 8 1 0 1 0 1 0 1 0 1 0 3 0 7 0 9 0 8 0 0 -1 0 -2 0 -2 0 -6 0 -7 0 -1 0 -1 0 -2 0 -2 0 -1 0 -1 1 0 1 0 2 0 4 0 1 0 2 0 0 2 0 6 0 10 0 8 1 0 1 0 1 0"/>
<path stroke="#DA70D6" d="M841 405l1 0 1 0 2 0 3 0 6 0 9 0 8 0 0 -1 0 -2 0 -2 0 -3 0 -1 0 -1 0 -2 0 -4 0 -2 0 -1 0 -1 0 -2 0 -2 0 -1 0 -1 1 0 2 0 3 0 3 0 1 0 3 0 0 1 0 2 0 2 0 1 0 1 0 1 0 1 0 2 0 3 0 4 0 1 0 1 0 1 0 1 0 2 0 2 1 0 1 0 2 0 3 0"/>
<path stroke="#DA70D6" d="M891 405l8 0 9 0 8 0 0 -1 0 -2 0 -2 0 -6 0 -7 0 -1 0 -1 0 -2 0 -2 0 -1 0 -1 1 0 1 0 2 0 4 0 1 0 2 0 0 2 0 6 0 10 0 8 1 0 1 0 1 0 1 0 2 0 3 0 8 0 6 0"/>
<path stroke="#EE82EE" d="M70 87l44 0"/>
<text stroke="none" fill="white" font-size="16" x="124" y="96">
v(d9)+70
</text>
<path stroke="#EE82EE" d="M70 306l1 0 2 0 3 0 1 0 1 0 1 0 0 3 0 5 0 10 0 8 1 0 1 0 2 0 5 0 9 0 1 0 1 0 1 0 4 0 8 0 9 0 1 0 1 0 1 0 3 0 5 0 1 0 2 0 1 0 1 0 1 0 2 0 3 0 7 0 9 0 8 0 0 -2 0 -1 0 -1 0 -1 0 -1 0 -1 0 -1 0 -1 0 -1 0 -3 0 -3 0 -1 0 -2"/>
<path stroke="#EE82EE" d="M167 313l0 -5 0 -2 1 0 2 0 3 0 3 0 1 0 3 0 1 0 1 0 2 0 3 0 8 0 9 0 8 0 1 0 1 0 2 0 4 0 1 0 2 0 1 0 1 0 1 0 1 0 2 0 3 0 8 0 6 0 1 0 2 0 1 0 1 0 1 0 1 0 2 0 0 3 0 5 0 10 0 8 1 0 1 0 2 0 5 0 9 0 1 0 2 0 3 0 6 0 9 0 1 0"/>
<path stroke="#EE82EE" d="M295 332l1 0 1 0 1 0 2 0 5 0 8 0 1 0 1 0 2 0 3 0 6 0 9 0 8 0 0 -2 0 -1 0 -1 0 -1 0 -1 0 -1 0 -1 0 -1 0 -1 0 -3 0 -3 0 -1 0 -2 0 -5 0 -2 1 0 1 0 3 0 4 0 1 0 2 0 1 0 1 0 1 0 1 0 1 0 4 0 8 0 9 0 8 0 1 0 1 0 1 0 3 0 1 0"/>
<path stroke="#EE82EE" d="M396 306l2 0 3 0 1 0 1 0 2 0 3 0 6 0 8 0 1 0 2 0 1 0 1 0 1 0 2 0 1 0 0 3 0 5 0 10 0 8 1 0 1 0 3 0 4 0 9 0 1 0 1 0 2 0 4 0 7 0 9 0 1 0 1 0 1 0 2 0 5 0 1 0 2 0 1 0 1 0 2 0 1 0 1 0 1 0 3 0 7 0 9 0 7 0 0 -2 0 -1 0 -1 0 -1"/>
<path stroke="#EE82EE" d="M519 327l0 -1 0 -1 0 -1 0 -1 0 -1 0 -3 0 -3 0 -1 0 -2 0 -5 0 -2 1 0 2 0 3 0 3 0 1 0 3 0 1 0 1 0 2 0 3 0 8 0 9 0 8 0 1 0 1 0 2 0 4 0 8 0 1 0 1 0 3 0 6 0 7 0 1 0 2 0 1 0 1 0 1 0 1 0 2 0 0 3 0 5 0 10 0 8 1 0 1 0 3 0 4 0"/>
<path stroke="#EE82EE" d="M616 332l1 0 2 0 1 0 1 0 1 0 1 0 1 0 4 0 6 0 9 0 9 0 1 0 2 0 3 0 1 0 1 0 4 0 1 0 1 0 2 0 3 0 6 0 9 0 9 0 0 -2 0 -1 0 -1 0 -1 0 -1 0 -1 0 -1 0 -1 0 -1 0 -3 0 -3 0 -1 0 -2 0 -5 0 -2 1 0 1 0 3 0 4 0 1 0 2 0 1 0 1 0 1 0"/>
<path stroke="#EE82EE" d="M710 306l1 0 1 0 4 0 8 0 9 0 8 0 1 0 1 0 1 0 3 0 1 0 2 0 3 0 1 0 1 0 2 0 3 0 6 0 8 0 1 0 2 0 1 0 1 0 1 0 2 0 1 0 0 3 0 5 0 10 0 8 1 0 1 0 3 0 4 0 1 0 1 0 1 0 1 0 1 0 1 0 1 0 1 0 3 0 7 0 9 0 8 0 1 0 1 0 2 0 4 0 1 0 2 0"/>
<path stroke="#EE82EE" d="M838 332l1 0 1 0 1 0 1 0 1 0 2 0 3 0 6 0 9 0 8 0 0 -2 0 -1 0 -1 0 -1 0 -1 0 -1 0 -1 0 -1 0 -1 0 -3 0 -3 0 -1 0 -2 0 -5 0 -2 1 0 2 0 3 0 3 0 1 0 3 0 1 0 1 0 2 0 3 0 8 0 9 0 8 0 1 0 1 0 2 0 4 0 1 0 2 0 1 0 1 0 1 0 1 0"/>
<path stroke="#EE82EE" d="M931 306l2 0 3 0 8 0 6 0"/>
<path stroke="#B03060" d="M440 103l44 0"/>
<text stroke="none" fill="white" font-size="16" x="494" y="112">
v(d10)+77
</text>
<path stroke="#B03060" d="M70 296l1 0 2 0 3 0 0 -1 0 -1 0 -1 0 -3 0 -5 0 -8 0 -1 0 -1 0 -1 0 -2 0 -1 0 -1 1 0 1 0 1 0 1 0 1 0 2 0 5 0 9 0 0 1 0 2 0 2 0 1 0 1 0 1 0 1 0 2 0 3 0 4 0 1 0 1 0 1 0 1 0 2 0 2 1 0 1 0 1 0 4 0 8 0 9 0 0 -1 0 -1 0 -1 0 -3"/>
<path stroke="#B03060" d="M121 290l0 -5 0 -11 0 -2 0 -1 0 -1 1 0 1 0 1 0 3 0 5 0 1 0 2 0 0 1 0 1 0 1 0 1 0 1 0 4 0 6 0 11 1 0 1 0 1 0 2 0 3 0 7 0 9 0 8 0 0 -1 0 -1 0 -1 0 -3 0 -2 0 -1 0 -1 0 -2 0 -4 0 -3 0 -1 0 -2 0 -2 0 -1 0 -1 1 0 2 0 3 0 3 0"/>
<path stroke="#B03060" d="M176 270l1 0 3 0 0 1 0 2 0 2 0 1 0 1 0 1 0 1 0 2 0 3 0 4 0 1 0 1 0 1 0 1 0 2 0 2 1 0 1 0 2 0 3 0 8 0 9 0 8 0 0 -1 0 -1 0 -1 0 -3 0 -5 0 -8 0 -1 0 -2 0 -2 0 -1 0 -1 1 0 1 0 2 0 4 0 1 0 2 0 0 2 0 5 0 11 0 8 1 0 1 0 1 0"/>
<path stroke="#B03060" d="M226 296l1 0 2 0 3 0 8 0 6 0 1 0 2 0 1 0 0 -12 0 -1 0 -1 0 -1 0 -1 0 -2 0 -3 0 -5 1 0 1 0 1 0 2 0 1 0 1 0 2 0 5 0 9 0 0 1 0 2 0 2 0 1 0 1 0 1 0 1 0 2 0 3 0 4 0 1 0 1 0 1 0 1 0 2 0 2 1 0 2 0 3 0 6 0 9 0 0 -1 0 -1 0 -1"/>
<path stroke="#B03060" d="M294 293l0 -3 0 -5 0 -11 0 -2 0 -1 0 -1 1 0 1 0 1 0 1 0 2 0 5 0 8 0 0 1 0 2 0 2 0 1 0 1 0 1 0 1 0 2 0 3 0 4 0 1 0 1 0 1 0 1 0 2 0 2 1 0 1 0 2 0 3 0 6 0 9 0 8 0 0 -1 0 -1 0 -1 0 -3 0 -2 0 -1 0 -1 0 -2 0 -4 0 -3 0 -1 0 -2"/>
<path stroke="#B03060" d="M343 274l0 -2 0 -1 0 -1 1 0 1 0 3 0 4 0 1 0 2 0 0 2 0 5 0 11 0 8 1 0 1 0 1 0 1 0 1 0 4 0 8 0 9 0 8 0 0 -1 0 -1 0 -1 0 -3 0 -5 0 -8 0 -1 0 -2 0 -2 0 -1 0 -1 1 0 1 0 1 0 3 0 1 0 2 0 3 0 0 1 0 4 0 6 0 14 0 1 1 0 1 0 2 0"/>
<path stroke="#B03060" d="M405 296l3 0 6 0 8 0 1 0 2 0 1 0 0 -12 0 -1 0 -1 0 -1 0 -1 0 -2 0 -3 0 -5 1 0 1 0 2 0 1 0 1 0 1 0 3 0 4 0 9 0 0 1 0 2 0 2 0 1 0 1 0 1 0 1 0 2 0 3 0 4 0 1 0 1 0 1 0 1 0 2 0 2 1 0 1 0 2 0 4 0 7 0 9 0 0 -1 0 -1 0 -1 0 -3"/>
<path stroke="#B03060" d="M473 290l0 -5 0 -11 0 -2 0 -1 0 -1 1 0 1 0 1 0 2 0 5 0 1 0 2 0 0 2 0 5 0 11 0 8 1 0 1 0 2 0 1 0 1 0 1 0 3 0 7 0 9 0 7 0 0 -1 0 -1 0 -1 0 -3 0 -2 0 -1 0 -1 0 -2 0 -4 0 -3 0 -1 0 -2 0 -2 0 -1 0 -1 1 0 2 0 3 0 3 0 1 0 3 0"/>
<path stroke="#B03060" d="M532 270l0 1 0 2 0 2 0 1 0 1 0 1 0 1 0 2 0 3 0 4 0 1 0 1 0 1 0 1 0 2 0 2 1 0 1 0 2 0 3 0 8 0 9 0 8 0 0 -1 0 -1 0 -1 0 -3 0 -5 0 -8 0 -1 0 -2 0 -2 0 -1 0 -1 1 0 1 0 2 0 4 0 8 0 0 1 0 2 0 2 0 1 0 1 0 1 0 1 0 2 0 3 0 3"/>
<path stroke="#B03060" d="M580 287l0 1 0 1 0 1 0 1 0 1 0 2 0 2 1 0 1 0 3 0 6 0 7 0 1 0 2 0 1 0 0 -12 0 -1 0 -1 0 -1 0 -1 0 -2 0 -3 0 -5 1 0 1 0 1 0 2 0 1 0 1 0 3 0 4 0 1 0 2 0 0 2 0 5 0 11 0 8 1 0 1 0 1 0 1 0 1 0 4 0 6 0 9 0 9 0 0 -1 0 -1 0 -1"/>
<path stroke="#B03060" d="M652 293l0 -3 0 -5 0 -8 0 -1 0 -2 0 -2 0 -1 0 -1 1 0 2 0 3 0 1 0 1 0 4 0 0 2 0 5 0 11 0 8 1 0 1 0 2 0 3 0 6 0 9 0 9 0 0 -1 0 -1 0 -1 0 -3 0 -2 0 -1 0 -1 0 -2 0 -4 0 -3 0 -1 0 -2 0 -2 0 -1 0 -1 1 0 1 0 3 0 4 0 1 0 2 0"/>
<path stroke="#B03060" d="M707 270l0 2 0 5 0 11 0 8 1 0 1 0 1 0 1 0 1 0 4 0 8 0 9 0 8 0 0 -1 0 -1 0 -1 0 -3 0 -5 0 -8 0 -1 0 -2 0 -2 0 -1 0 -1 1 0 1 0 1 0 3 0 1 0 2 0 3 0 0 1 0 4 0 6 0 14 0 1 1 0 1 0 2 0 3 0 6 0 8 0 1 0 2 0 1 0 0 -12 0 -1 0 -1"/>
<path stroke="#B03060" d="M778 282l0 -1 0 -1 0 -2 0 -3 0 -5 1 0 1 0 2 0 1 0 1 0 1 0 3 0 4 0 1 0 1 0 1 0 0 2 0 5 0 11 0 8 1 0 1 0 1 0 1 0 1 0 3 0 7 0 9 0 8 0 0 -1 0 -1 0 -1 0 -3 0 -5 0 -8 0 -1 0 -2 0 -2 0 -1 0 -1 1 0 1 0 2 0 4 0 1 0 2 0 0 2 0 5"/>
<path stroke="#B03060" d="M838 277l0 11 0 8 1 0 1 0 1 0 1 0 1 0 2 0 3 0 6 0 9 0 8 0 0 -1 0 -1 0 -1 0 -3 0 -2 0 -1 0 -1 0 -2 0 -4 0 -3 0 -1 0 -2 0 -2 0 -1 0 -1 1 0 2 0 3 0 3 0 1 0 3 0 0 1 0 2 0 2 0 1 0 1 0 1 0 1 0 2 0 3 0 4 0 1 0 1 0 1 0 1 0 2"/>
<path stroke="#B03060" d="M884 294l0 2 1 0 1 0 2 0 3 0 8 0 9 0 8 0 0 -1 0 -1 0 -1 0 -3 0 -5 0 -8 0 -1 0 -2 0 -2 0 -1 0 -1 1 0 1 0 2 0 4 0 1 0 2 0 0 2 0 5 0 11 0 8 1 0 1 0 1 0 1 0 2 0 3 0 8 0 6 0"/>
<path stroke="#40E0D0" d="M70 103l44 0"/>
<text stroke="none" fill="white" font-size="16" x="124" y="112">
v(d11)+84
</text>
<path stroke="#40E0D0" d="M70 259l1 0 2 0 3 0 1 0 1 0 1 0 1 0 1 0 2 0 5 0 9 0 1 0 1 0 1 0 4 0 8 0 9 0 1 0 1 0 1 0 3 0 5 0 1 0 2 0 1 0 1 0 1 0 2 0 3 0 7 0 9 0 8 0 1 0 2 0 3 0 3 0 1 0 3 0 1 0 1 0 2 0 3 0 8 0 9 0 8 0 1 0 1 0 2 0 4 0 1 0 2 0 0 -2"/>
<path stroke="#40E0D0" d="M223 257l0 -6 0 -10 0 -8 1 0 1 0 1 0 1 0 2 0 3 0 8 0 6 0 1 0 2 0 1 0 1 0 1 0 1 0 2 0 1 0 1 0 2 0 5 0 9 0 1 0 2 0 3 0 6 0 9 0 1 0 1 0 1 0 1 0 2 0 5 0 8 0 1 0 1 0 2 0 3 0 6 0 9 0 8 0 1 0 1 0 3 0 4 0 1 0 2 0 1 0 1 0 1 0"/>
<path stroke="#40E0D0" d="M358 233l1 0 1 0 4 0 8 0 9 0 8 0 1 0 1 0 1 0 3 0 1 0 2 0 3 0 0 2 0 4 0 9 0 11 1 0 1 0 2 0 3 0 6 0 8 0 1 0 2 0 1 0 1 0 1 0 2 0 1 0 1 0 1 0 3 0 4 0 9 0 1 0 1 0 2 0 4 0 7 0 9 0 1 0 1 0 1 0 2 0 5 0 1 0 2 0 1 0 1 0 2 0 1 0"/>
<path stroke="#40E0D0" d="M491 259l1 0 1 0 3 0 7 0 9 0 7 0 1 0 2 0 3 0 3 0 1 0 3 0 1 0 1 0 2 0 3 0 8 0 9 0 8 0 1 0 1 0 2 0 4 0 8 0 0 -2 0 -2 0 -6 0 -10 0 -1 0 -1 0 -1 0 -1 0 -2 1 0 1 0 3 0 6 0 7 0 1 0 2 0 1 0 1 0 1 0 1 0 2 0 1 0 1 0 3 0 4 0 1 0"/>
<path stroke="#40E0D0" d="M617 233l2 0 1 0 1 0 1 0 1 0 1 0 4 0 6 0 9 0 9 0 1 0 2 0 3 0 1 0 1 0 4 0 1 0 1 0 2 0 3 0 6 0 9 0 9 0 1 0 1 0 3 0 4 0 1 0 2 0 1 0 1 0 1 0 1 0 1 0 4 0 8 0 9 0 8 0 1 0 1 0 1 0 3 0 1 0 2 0 3 0 0 2 0 4 0 9 0 11 1 0 1 0 2 0"/>
<path stroke="#40E0D0" d="M757 259l3 0 6 0 8 0 1 0 2 0 1 0 1 0 1 0 2 0 1 0 1 0 1 0 3 0 4 0 1 0 1 0 1 0 1 0 1 0 1 0 1 0 1 0 3 0 7 0 9 0 8 0 1 0 1 0 2 0 4 0 1 0 2 0 1 0 1 0 1 0 1 0 1 0 2 0 3 0 6 0 9 0 8 0 1 0 2 0 3 0 3 0 1 0 3 0 1 0 1 0 2 0 3 0"/>
<path stroke="#40E0D0" d="M891 259l8 0 9 0 8 0 1 0 1 0 2 0 4 0 1 0 2 0 0 -2 0 -6 0 -10 0 -8 1 0 1 0 1 0 1 0 2 0 3 0 8 0 6 0"/>
<path stroke="#A0522D" d="M440 119l44 0"/>
<text stroke="none" fill="white" font-size="16" x="494" y="128">
v(d12)+91
</text>
<path stroke="#A0522D" d="M70 197l1 0 2 0 3 0 0 1 0 1 0 1 0 2 0 1 0 1 0 3 0 5 0 3 0 1 0 1 0 1 0 1 0 2 0 2 1 0 1 0 1 0 1 0 1 0 2 0 5 0 9 0 0 -1 0 -2 0 -2 0 -6 0 -7 0 -1 0 -1 0 -2 0 -2 0 -1 0 -1 1 0 1 0 1 0 4 0 8 0 9 0 1 0 0 2 0 1 0 1 0 1 0 4 0 8"/>
<path stroke="#A0522D" d="M122 214l0 6 0 1 0 1 0 1 1 0 1 0 3 0 5 0 1 0 2 0 1 0 1 0 0 -12 0 -1 0 -1 0 -1 0 -1 0 -2 0 -3 0 -5 1 0 2 0 3 0 7 0 9 0 8 0 0 1 0 2 0 2 0 1 0 1 0 1 0 1 0 2 0 3 0 7 0 1 0 2 0 2 1 0 2 0 3 0 3 0 1 0 3 0 0 -1 0 -2 0 -2 0 -6"/>
<path stroke="#A0522D" d="M180 212l0 -7 0 -1 0 -1 0 -2 0 -2 0 -1 0 -1 1 0 1 0 2 0 3 0 8 0 9 0 8 0 0 1 0 2 0 2 0 1 0 1 0 1 0 1 0 2 0 3 0 4 0 1 0 1 0 1 0 1 0 2 0 2 1 0 1 0 2 0 4 0 1 0 2 0 1 0 1 0 0 -12 0 -1 0 -1 0 -1 0 -1 0 -2 0 -3 0 -5 1 0 1 0"/>
<path stroke="#A0522D" d="M227 197l2 0 3 0 8 0 6 0 1 0 2 0 0 2 0 6 0 10 0 8 1 0 1 0 1 0 1 0 2 0 1 0 1 0 2 0 5 0 9 0 0 -1 0 -2 0 -2 0 -6 0 -7 0 -1 0 -1 0 -2 0 -2 0 -1 0 -1 1 0 2 0 3 0 6 0 9 0 1 0 1 0 0 2 0 6 0 10 0 8 1 0 1 0 2 0 5 0 8 0 0 -1 0 -2"/>
<path stroke="#A0522D" d="M313 220l0 -2 0 -6 0 -7 0 -1 0 -1 0 -2 0 -2 0 -1 0 -1 1 0 1 0 2 0 3 0 6 0 9 0 8 0 0 1 0 2 0 2 0 1 0 1 0 1 0 1 0 2 0 3 0 7 0 1 0 2 0 2 1 0 1 0 3 0 4 0 1 0 2 0 1 0 1 0 0 -12 0 -1 0 -1 0 -1 0 -1 0 -2 0 -3 0 -5 1 0 1 0 1 0"/>
<path stroke="#A0522D" d="M360 197l4 0 8 0 9 0 8 0 0 1 0 2 0 2 0 1 0 1 0 1 0 1 0 2 0 3 0 4 0 1 0 1 0 1 0 1 0 2 0 2 1 0 1 0 1 0 3 0 1 0 2 0 3 0 0 -12 0 -1 0 -1 0 -1 0 -1 0 -2 0 -3 0 -5 1 0 1 0 2 0 3 0 6 0 8 0 1 0 2 0 0 2 0 6 0 10 0 8 1 0 1 0 1 0"/>
<path stroke="#A0522D" d="M428 223l2 0 1 0 1 0 1 0 3 0 4 0 9 0 0 -1 0 -2 0 -2 0 -6 0 -7 0 -1 0 -1 0 -2 0 -2 0 -1 0 -1 1 0 1 0 2 0 4 0 7 0 9 0 1 0 0 2 0 6 0 10 0 8 1 0 1 0 2 0 5 0 1 0 2 0 1 0 1 0 2 0 0 -12 0 -1 0 -1 0 -1 0 -1 0 -2 0 -3 0 -5 1 0"/>
<path stroke="#A0522D" d="M491 197l1 0 1 0 3 0 7 0 9 0 7 0 0 1 0 2 0 2 0 1 0 1 0 1 0 1 0 2 0 3 0 7 0 1 0 2 0 2 1 0 2 0 3 0 3 0 1 0 3 0 0 -1 0 -2 0 -2 0 -6 0 -7 0 -1 0 -1 0 -2 0 -2 0 -1 0 -1 1 0 1 0 2 0 3 0 8 0 9 0 8 0 0 1 0 2 0 2 0 1 0 1 0 1"/>
<path stroke="#A0522D" d="M564 205l0 1 0 2 0 3 0 4 0 1 0 1 0 1 0 1 0 2 0 2 1 0 1 0 2 0 4 0 8 0 0 -1 0 -1 0 -1 0 -4 0 -6 0 -5 0 -1 0 -1 0 -2 0 -2 0 -1 0 -1 1 0 1 0 3 0 6 0 7 0 1 0 2 0 0 2 0 6 0 10 0 8 1 0 1 0 1 0 1 0 2 0 1 0 1 0 3 0 4 0 1 0 2 0"/>
<path stroke="#A0522D" d="M619 223l1 0 1 0 0 -12 0 -1 0 -1 0 -1 0 -1 0 -2 0 -3 0 -5 1 0 1 0 1 0 4 0 6 0 9 0 9 0 0 1 0 2 0 2 0 1 0 1 0 1 0 1 0 2 0 3 0 4 0 1 0 1 0 1 0 1 0 2 0 2 1 0 2 0 3 0 1 0 1 0 4 0 0 -12 0 -1 0 -1 0 -1 0 -1 0 -2 0 -3 0 -5 1 0"/>
<path stroke="#A0522D" d="M665 197l1 0 2 0 3 0 6 0 9 0 9 0 0 1 0 2 0 2 0 1 0 1 0 1 0 1 0 2 0 3 0 7 0 1 0 2 0 2 1 0 1 0 3 0 4 0 1 0 2 0 1 0 1 0 0 -12 0 -1 0 -1 0 -1 0 -1 0 -2 0 -3 0 -5 1 0 1 0 1 0 4 0 8 0 9 0 8 0 0 1 0 2 0 2 0 1 0 1 0 1 0 1 0 2"/>
<path stroke="#A0522D" d="M741 208l0 3 0 4 0 1 0 1 0 1 0 1 0 2 0 2 1 0 1 0 1 0 3 0 1 0 2 0 3 0 0 -12 0 -1 0 -1 0 -1 0 -1 0 -2 0 -3 0 -5 1 0 1 0 2 0 3 0 6 0 8 0 1 0 2 0 0 2 0 6 0 10 0 8 1 0 1 0 1 0 2 0 1 0 1 0 1 0 3 0 4 0 1 0 1 0 1 0 1 0 1 0 0 -12"/>
<path stroke="#A0522D" d="M797 211l0 -1 0 -1 0 -1 0 -1 0 -2 0 -3 0 -5 1 0 1 0 1 0 3 0 7 0 9 0 8 0 0 1 0 2 0 2 0 1 0 1 0 1 0 1 0 2 0 3 0 4 0 1 0 1 0 1 0 1 0 2 0 2 1 0 1 0 2 0 4 0 1 0 2 0 1 0 1 0 1 0 0 -12 0 -1 0 -1 0 -1 0 -1 0 -2 0 -3 0 -5 1 0"/>
<path stroke="#A0522D" d="M842 197l1 0 2 0 3 0 6 0 9 0 8 0 0 1 0 2 0 2 0 1 0 1 0 1 0 1 0 2 0 3 0 7 0 1 0 2 0 2 1 0 2 0 3 0 3 0 1 0 3 0 0 -1 0 -2 0 -2 0 -6 0 -7 0 -1 0 -1 0 -2 0 -2 0 -1 0 -1 1 0 1 0 2 0 3 0 8 0 9 0 8 0 0 1 0 2 0 2 0 1 0 1 0 1"/>
<path stroke="#A0522D" d="M916 205l0 1 0 2 0 3 0 4 0 1 0 1 0 1 0 1 0 2 0 2 1 0 1 0 2 0 4 0 1 0 2 0 1 0 1 0 0 -12 0 -1 0 -1 0 -1 0 -1 0 -2 0 -3 0 -5 1 0 1 0 2 0 3 0 8 0 6 0"/>
<path stroke="#FF7F50" d="M70 119l44 0"/>
<text stroke="none" fill="white" font-size="16" x="124" y="128">
v(d13)+98
</text>
<path stroke="#FF7F50" d="M70 186l1 0 2 0 3 0 0 -1 0 -2 0 -4 0 -9 0 -10 0 1 0 2 0 3 0 5 0 11 0 4 1 0 1 0 1 0 1 0 1 0 2 0 5 0 9 0 0 -1 0 -2 0 -2 0 -1 0 -2 0 -3 0 -7 0 -8 0 1 0 1 0 1 0 2 0 5 0 11 0 5 1 0 1 0 1 0 4 0 8 0 9 0 0 -2 0 -3 0 -1 0 -3"/>
<path stroke="#FF7F50" d="M121 177l0 -4 0 -3 0 -2 0 -3 0 -5 1 0 0 1 0 2 0 3 0 3 0 2 0 2 0 5 0 1 0 1 0 2 0 4 1 0 1 0 3 0 5 0 1 0 2 0 0 -2 0 -4 0 -9 0 -5 0 -2 0 -2 0 -2 1 0 1 0 0 3 0 4 0 2 0 1 0 2 0 3 0 3 0 1 0 2 0 2 0 3 1 0 2 0 3 0 7 0 9 0 8 0"/>
<path stroke="#FF7F50" d="M167 186l0 -1 0 -1 0 -1 0 -1 0 -1 0 -1 0 -1 0 -3 0 -3 0 -1 0 -2 0 -2 0 -1 0 -2 0 -3 0 -2 0 1 0 2 0 2 0 6 0 11 0 2 0 1 0 1 1 0 2 0 3 0 3 0 1 0 3 0 0 -1 0 -2 0 -2 0 -1 0 -2 0 -3 0 -7 0 -1 0 -1 0 -3 0 -3 0 1 0 1 0 1 0 1"/>
<path stroke="#FF7F50" d="M180 164l0 1 0 2 0 3 0 1 0 1 0 1 0 1 0 2 0 2 0 1 0 1 0 1 0 1 0 1 0 2 0 1 1 0 1 0 2 0 3 0 8 0 9 0 8 0 0 -1 0 -2 0 -2 0 -1 0 -2 0 -3 0 -5 0 -1 0 -1 0 -3 0 -5 0 1 0 1 0 1 0 3 0 5 0 4 0 1 0 1 0 3 0 2 0 1 0 1 0 1 0 1 1 0"/>
<path stroke="#FF7F50" d="M213 186l1 0 2 0 4 0 1 0 2 0 0 -2 0 -5 0 -11 0 -1 0 -1 0 -3 0 -3 1 0 1 0 0 3 0 4 0 8 0 11 1 0 1 0 2 0 3 0 8 0 6 0 1 0 2 0 0 -2 0 -5 0 -11 0 -1 0 -1 0 -3 0 -3 1 0 0 3 0 4 0 2 0 1 0 2 0 3 0 3 0 1 0 2 0 2 0 3 1 0 1 0 1 0"/>
<path stroke="#FF7F50" d="M253 186l2 0 1 0 1 0 2 0 5 0 9 0 0 -1 0 -2 0 -2 0 -1 0 -2 0 -3 0 -5 0 -1 0 -1 0 -1 0 -1 0 -1 0 -2 0 -3 0 1 0 1 0 1 0 1 0 1 0 2 0 4 0 1 0 1 0 1 0 1 0 2 0 2 0 1 0 1 0 4 0 1 1 0 2 0 3 0 6 0 9 0 0 -2 0 -3 0 -1 0 -3 0 -4"/>
<path stroke="#FF7F50" d="M294 173l0 -3 0 -2 0 -3 0 -5 1 0 1 0 0 3 0 5 0 11 0 7 1 0 1 0 2 0 5 0 8 0 0 -1 0 -2 0 -2 0 -1 0 -2 0 -3 0 -5 0 -1 0 -1 0 -1 0 -1 0 -1 0 -2 0 -3 0 1 0 1 0 1 0 1 0 1 0 2 0 4 0 1 0 1 0 1 0 1 0 2 0 2 0 1 0 1 0 4 0 1 1 0"/>
<path stroke="#FF7F50" d="M314 186l1 0 2 0 3 0 6 0 9 0 8 0 0 -1 0 -1 0 -1 0 -1 0 -1 0 -4 0 -4 0 -1 0 -2 0 -1 0 -1 0 -1 0 -1 0 -1 0 -1 0 -2 0 -2 0 1 0 1 0 2 0 4 0 1 0 1 0 1 0 1 0 1 0 2 0 1 0 1 0 2 0 3 0 2 0 1 0 1 1 0 1 0 3 0 4 0 1 0 2 0 0 -2 0 -5"/>
<path stroke="#FF7F50" d="M355 179l0 -11 0 -1 0 -1 0 -3 0 -3 1 0 1 0 0 3 0 4 0 8 0 11 1 0 1 0 1 0 4 0 8 0 9 0 8 0 0 -1 0 -2 0 -2 0 -1 0 -2 0 -3 0 -5 0 -1 0 -1 0 -1 0 -1 0 -2 0 -4 0 1 0 1 0 1 0 1 0 2 0 2 0 3 0 1 0 1 0 1 0 1 0 1 0 2 0 2 0 1 0 1"/>
<path stroke="#FF7F50" d="M389 182l0 1 0 1 0 1 0 1 1 0 1 0 1 0 3 0 1 0 2 0 3 0 0 -1 0 -1 0 -4 0 -2 0 -2 0 -2 0 -1 0 -1 0 -1 0 -2 0 -1 0 -1 0 -2 0 -5 0 3 0 4 0 2 0 1 0 2 0 3 0 3 0 1 0 2 0 2 0 3 1 0 1 0 2 0 3 0 6 0 8 0 1 0 2 0 0 -2 0 -5 0 -11 0 -1"/>
<path stroke="#FF7F50" d="M425 167l0 -1 0 -3 0 -3 1 0 0 3 0 4 0 8 0 11 1 0 1 0 2 0 1 0 1 0 1 0 3 0 4 0 9 0 0 -1 0 -2 0 -2 0 -1 0 -2 0 -3 0 -7 0 -8 0 1 0 1 0 1 0 2 0 5 0 11 0 5 1 0 1 0 2 0 4 0 7 0 9 0 0 -2 0 -3 0 -1 0 -3 0 -4 0 -3 0 -2 0 -3 0 -5"/>
<path stroke="#FF7F50" d="M473 160l1 0 0 1 0 2 0 3 0 2 0 1 0 1 0 3 0 5 0 1 0 2 0 3 0 2 1 0 1 0 2 0 5 0 1 0 2 0 0 -2 0 -5 0 -11 0 -1 0 -1 0 -3 0 -3 1 0 1 0 2 0 0 3 0 4 0 2 0 1 0 2 0 3 0 3 0 1 0 2 0 2 0 3 1 0 1 0 1 0 3 0 7 0 9 0 7 0 0 -1 0 -1 0 -1"/>
<path stroke="#FF7F50" d="M519 183l0 -1 0 -1 0 -1 0 -1 0 -3 0 -3 0 -1 0 -2 0 -2 0 -1 0 -2 0 -3 0 -2 0 1 0 2 0 2 0 6 0 11 0 2 0 1 0 1 1 0 2 0 3 0 3 0 1 0 3 0 0 -1 0 -2 0 -2 0 -1 0 -2 0 -3 0 -7 0 -1 0 -1 0 -3 0 -3 0 1 0 1 0 1 0 1 0 1 0 2 0 3 0 1"/>
<path stroke="#FF7F50" d="M532 171l0 1 0 1 0 1 0 2 0 2 0 1 0 1 0 1 0 1 0 1 0 2 0 1 1 0 1 0 2 0 3 0 8 0 9 0 8 0 0 -1 0 -2 0 -2 0 -1 0 -2 0 -3 0 -5 0 -1 0 -1 0 -3 0 -5 0 1 0 1 0 1 0 3 0 5 0 4 0 1 0 1 0 3 0 2 0 1 0 1 0 1 0 1 1 0 1 0 2 0 4 0 8 0"/>
<path stroke="#FF7F50" d="M580 186l0 -1 0 -1 0 -1 0 -1 0 -2 0 -4 0 -8 0 -1 0 -1 0 -1 0 -1 0 -2 0 -2 0 1 0 1 0 1 0 1 0 1 0 2 0 3 0 1 0 2 0 1 0 1 0 1 0 2 0 1 0 1 0 1 0 2 0 1 0 2 1 0 1 0 3 0 6 0 7 0 1 0 2 0 0 -2 0 -5 0 -11 0 -1 0 -1 0 -3 0 -3 1 0"/>
<path stroke="#FF7F50" d="M602 160l0 3 0 4 0 2 0 1 0 2 0 3 0 3 0 1 0 2 0 2 0 3 1 0 1 0 1 0 2 0 1 0 1 0 3 0 4 0 1 0 2 0 0 -2 0 -5 0 -11 0 -1 0 -1 0 -3 0 -3 1 0 1 0 0 3 0 4 0 2 0 1 0 2 0 3 0 3 0 1 0 2 0 2 0 3 1 0 1 0 1 0 4 0 6 0 9 0 9 0 0 -1 0 -2"/>
<path stroke="#FF7F50" d="M652 183l0 -2 0 -1 0 -2 0 -3 0 -5 0 -1 0 -1 0 -1 0 -1 0 -1 0 -2 0 -3 0 1 0 1 0 1 0 1 0 1 0 2 0 4 0 1 0 1 0 1 0 1 0 2 0 2 0 1 0 1 0 4 0 1 1 0 2 0 3 0 1 0 1 0 4 0 0 -2 0 -5 0 -11 0 -1 0 -1 0 -3 0 -3 0 3 0 4 0 2 0 1 0 2"/>
<path stroke="#FF7F50" d="M664 172l0 3 0 3 0 1 0 2 0 2 0 3 1 0 1 0 2 0 3 0 6 0 9 0 9 0 0 -1 0 -1 0 -1 0 -1 0 -1 0 -4 0 -4 0 -1 0 -2 0 -1 0 -1 0 -1 0 -1 0 -1 0 -1 0 -2 0 -2 0 1 0 1 0 2 0 4 0 1 0 1 0 1 0 1 0 1 0 2 0 1 0 1 0 2 0 3 0 2 0 1 0 1 1 0"/>
<path stroke="#FF7F50" d="M696 186l1 0 3 0 4 0 1 0 2 0 0 -2 0 -5 0 -11 0 -1 0 -1 0 -3 0 -3 1 0 1 0 0 3 0 4 0 8 0 11 1 0 1 0 1 0 4 0 8 0 9 0 8 0 0 -1 0 -2 0 -2 0 -1 0 -2 0 -3 0 -5 0 -1 0 -1 0 -1 0 -1 0 -2 0 -4 0 1 0 1 0 1 0 1 0 2 0 2 0 3 0 1 0 1"/>
<path stroke="#FF7F50" d="M741 173l0 1 0 1 0 1 0 2 0 2 0 1 0 1 0 1 0 1 0 1 0 1 1 0 1 0 1 0 3 0 1 0 2 0 3 0 0 -1 0 -1 0 -4 0 -2 0 -2 0 -2 0 -1 0 -1 0 -1 0 -2 0 -1 0 -1 0 -2 0 -5 0 3 0 4 0 2 0 1 0 2 0 3 0 3 0 1 0 2 0 2 0 3 1 0 1 0 2 0 3 0 6 0 8 0"/>
<path stroke="#FF7F50" d="M774 186l1 0 2 0 0 -2 0 -5 0 -11 0 -1 0 -1 0 -3 0 -3 1 0 0 3 0 4 0 8 0 11 1 0 1 0 2 0 1 0 1 0 1 0 3 0 4 0 1 0 1 0 1 0 0 -2 0 -5 0 -11 0 -1 0 -1 0 -3 0 -3 1 0 1 0 0 3 0 4 0 2 0 1 0 2 0 3 0 3 0 1 0 2 0 2 0 3 1 0 1 0 1 0"/>
<path stroke="#FF7F50" d="M800 186l3 0 7 0 9 0 8 0 0 -1 0 -2 0 -2 0 -1 0 -2 0 -3 0 -7 0 -8 0 1 0 1 0 1 0 2 0 5 0 11 0 5 1 0 1 0 2 0 4 0 1 0 2 0 0 -2 0 -5 0 -11 0 -1 0 -1 0 -3 0 -3 1 0 1 0 1 0 0 3 0 4 0 2 0 1 0 2 0 3 0 3 0 1 0 2 0 2 0 3 1 0 1 0"/>
<path stroke="#FF7F50" d="M843 186l2 0 3 0 6 0 9 0 8 0 0 -1 0 -1 0 -1 0 -1 0 -1 0 -1 0 -1 0 -3 0 -3 0 -1 0 -2 0 -2 0 -1 0 -2 0 -3 0 -2 0 1 0 2 0 2 0 6 0 11 0 2 0 1 0 1 1 0 2 0 3 0 3 0 1 0 3 0 0 -1 0 -2 0 -2 0 -1 0 -2 0 -3 0 -7 0 -1 0 -1 0 -3"/>
<path stroke="#FF7F50" d="M884 163l0 -3 0 1 0 1 0 1 0 1 0 1 0 2 0 3 0 1 0 1 0 1 0 1 0 2 0 2 0 1 0 1 0 1 0 1 0 1 0 2 0 1 1 0 1 0 2 0 3 0 8 0 9 0 8 0 0 -1 0 -2 0 -2 0 -1 0 -2 0 -3 0 -5 0 -1 0 -1 0 -3 0 -5 0 1 0 1 0 1 0 3 0 5 0 4 0 1 0 1 0 3 0 2"/>
<path stroke="#FF7F50" d="M916 182l0 1 0 1 0 1 0 1 1 0 1 0 2 0 4 0 1 0 2 0 0 -2 0 -5 0 -11 0 -1 0 -1 0 -3 0 -3 1 0 1 0 0 3 0 4 0 8 0 11 1 0 1 0 2 0 3 0 8 0 6 0"/>
<path stroke="cyan" d="M440 135l44 0"/>
<text stroke="none" fill="white" font-size="16" x="494" y="144">
v(d14)+105
</text>
<path stroke="cyan" d="M70 150l1 0 2 0 3 0 1 0 1 0 1 0 1 0 1 0 2 0 5 0 9 0 1 0 1 0 1 0 4 0 8 0 9 0 1 0 1 0 1 0 3 0 5 0 1 0 2 0 1 0 1 0 1 0 2 0 3 0 7 0 9 0 8 0 1 0 2 0 3 0 3 0 1 0 3 0 1 0 1 0 2 0 3 0 8 0 9 0 8 0 1 0 1 0 2 0 4 0 1 0 2 0 1 0 1 0"/>
<path stroke="cyan" d="M225 150l1 0 1 0 2 0 3 0 8 0 6 0 1 0 2 0 1 0 1 0 1 0 1 0 2 0 1 0 1 0 2 0 5 0 9 0 1 0 2 0 3 0 6 0 9 0 1 0 1 0 1 0 1 0 2 0 5 0 8 0 1 0 1 0 2 0 3 0 6 0 9 0 8 0 1 0 1 0 3 0 4 0 1 0 2 0 1 0 1 0 1 0 1 0 1 0 4 0 8 0 9 0 8 0 1 0"/>
<path stroke="cyan" d="M390 150l1 0 1 0 3 0 1 0 2 0 3 0 1 0 1 0 2 0 3 0 6 0 8 0 1 0 2 0 1 0 1 0 1 0 2 0 1 0 1 0 1 0 3 0 4 0 9 0 1 0 1 0 2 0 4 0 7 0 9 0 1 0 1 0 1 0 2 0 5 0 1 0 2 0 1 0 1 0 2 0 1 0 1 0 1 0 3 0 7 0 9 0 7 0 1 0 2 0 3 0 3 0 1 0 3 0"/>
<path stroke="cyan" d="M532 150l1 0 1 0 2 0 3 0 8 0 9 0 8 0 1 0 1 0 2 0 4 0 8 0 1 0 1 0 3 0 6 0 7 0 1 0 2 0 1 0 1 0 1 0 1 0 2 0 1 0 1 0 3 0 4 0 1 0 2 0 1 0 1 0 1 0 1 0 1 0 4 0 6 0 9 0 9 0 1 0 2 0 3 0 1 0 1 0 4 0 1 0 1 0 2 0 3 0 6 0 9 0 9 0 1 0"/>
<path stroke="cyan" d="M696 150l1 0 3 0 4 0 1 0 2 0 1 0 1 0 1 0 1 0 1 0 4 0 8 0 9 0 8 0 1 0 1 0 1 0 3 0 1 0 2 0 3 0 1 0 1 0 2 0 3 0 6 0 8 0 1 0 2 0 1 0 1 0 1 0 2 0 1 0 1 0 1 0 3 0 4 0 1 0 1 0 1 0 1 0 1 0 1 0 1 0 1 0 3 0 7 0 9 0 8 0 1 0 1 0 2 0"/>
<path stroke="cyan" d="M831 150l4 0 1 0 2 0 1 0 1 0 1 0 1 0 1 0 2 0 3 0 6 0 9 0 8 0 1 0 2 0 3 0 3 0 1 0 3 0 1 0 1 0 2 0 3 0 8 0 9 0 8 0 1 0 1 0 2 0 4 0 1 0 2 0 1 0 1 0 1 0 1 0 2 0 3 0 8 0 6 0"/>
<path stroke="magenta" d="M70 135l44 0"/>
<text stroke="none" fill="white" font-size="16" x="124" y="144">
v(d15)+112
</text>
<path stroke="magenta" d="M70 88l1 0 2 0 3 0 0 1 0 1 0 1 0 2 0 1 0 1 0 3 0 5 0 3 0 1 0 1 0 1 0 1 0 2 0 2 1 0 1 0 1 0 1 0 1 0 2 0 5 0 9 0 0 -1 0 -1 0 -1 0 -3 0 -5 0 -8 0 -1 0 -2 0 -2 0 -1 0 -1 1 0 1 0 1 0 4 0 8 0 9 0 1 0 0 2 0 1 0 2 0 4 0 7 0 7"/>
<path stroke="magenta" d="M122 111l0 1 0 1 0 1 1 0 1 0 3 0 5 0 1 0 2 0 1 0 1 0 0 -12 0 -1 0 -1 0 -1 0 -1 0 -2 0 -3 0 -5 1 0 2 0 3 0 7 0 9 0 8 0 0 1 0 2 0 2 0 1 0 1 0 1 0 1 0 2 0 3 0 6 0 1 0 1 0 2 0 2 1 0 2 0 3 0 3 0 1 0 3 0 0 -1 0 -1 0 -1 0 -3"/>
<path stroke="magenta" d="M180 108l0 -5 0 -8 0 -1 0 -2 0 -2 0 -1 0 -1 1 0 1 0 2 0 3 0 8 0 9 0 8 0 0 1 0 2 0 2 0 1 0 1 0 1 0 1 0 2 0 3 0 4 0 1 0 1 0 1 0 1 0 2 0 2 1 0 1 0 2 0 4 0 1 0 2 0 1 0 1 0 0 -12 0 -1 0 -1 0 -1 0 -1 0 -2 0 -3 0 -5 1 0 1 0"/>
<path stroke="magenta" d="M227 88l2 0 3 0 8 0 6 0 1 0 2 0 0 2 0 5 0 11 0 8 1 0 1 0 1 0 1 0 2 0 1 0 1 0 2 0 5 0 9 0 0 -1 0 -1 0 -1 0 -3 0 -5 0 -8 0 -1 0 -2 0 -2 0 -1 0 -1 1 0 2 0 3 0 6 0 9 0 1 0 1 0 0 2 0 5 0 11 0 8 1 0 1 0 2 0 5 0 8 0 0 -1 0 -1"/>
<path stroke="magenta" d="M313 112l0 -1 0 -3 0 -5 0 -8 0 -1 0 -2 0 -2 0 -1 0 -1 1 0 1 0 2 0 3 0 6 0 9 0 8 0 0 1 0 2 0 2 0 1 0 1 0 1 0 1 0 2 0 3 0 6 0 1 0 1 0 2 0 2 1 0 1 0 3 0 4 0 1 0 2 0 1 0 1 0 0 -12 0 -1 0 -1 0 -1 0 -1 0 -2 0 -3 0 -5 1 0 1 0"/>
<path stroke="magenta" d="M359 88l1 0 4 0 8 0 9 0 8 0 0 1 0 2 0 2 0 1 0 1 0 1 0 1 0 2 0 3 0 4 0 1 0 1 0 1 0 1 0 2 0 2 1 0 1 0 1 0 3 0 1 0 2 0 3 0 0 -12 0 -1 0 -1 0 -1 0 -1 0 -2 0 -3 0 -5 1 0 1 0 2 0 3 0 6 0 8 0 1 0 2 0 0 2 0 5 0 11 0 8 1 0 1 0"/>
<path stroke="magenta" d="M427 114l1 0 2 0 1 0 1 0 1 0 3 0 4 0 9 0 0 -1 0 -1 0 -1 0 -3 0 -5 0 -8 0 -1 0 -2 0 -2 0 -1 0 -1 1 0 1 0 2 0 4 0 7 0 9 0 1 0 0 2 0 5 0 11 0 8 1 0 1 0 2 0 5 0 1 0 2 0 1 0 1 0 2 0 0 -12 0 -1 0 -1 0 -1 0 -1 0 -2 0 -3 0 -5"/>
<path stroke="magenta" d="M490 88l1 0 1 0 1 0 3 0 7 0 9 0 7 0 0 1 0 2 0 2 0 1 0 1 0 1 0 1 0 2 0 3 0 6 0 1 0 1 0 2 0 2 1 0 2 0 3 0 3 0 1 0 3 0 0 -1 0 -1 0 -1 0 -3 0 -5 0 -8 0 -1 0 -2 0 -2 0 -1 0 -1 1 0 1 0 2 0 3 0 8 0 9 0 8 0 0 1 0 2 0 2 0 1 0 1"/>
<path stroke="magenta" d="M564 95l0 1 0 1 0 2 0 3 0 4 0 1 0 1 0 1 0 1 0 2 0 2 1 0 1 0 2 0 4 0 8 0 0 -1 0 -1 0 -2 0 -3 0 -7 0 -5 0 -1 0 -2 0 -2 0 -1 0 -1 1 0 1 0 3 0 6 0 7 0 1 0 2 0 0 2 0 5 0 11 0 8 1 0 1 0 1 0 1 0 2 0 1 0 1 0 3 0 4 0 1 0 2 0"/>
<path stroke="magenta" d="M619 114l1 0 1 0 0 -12 0 -1 0 -1 0 -1 0 -1 0 -2 0 -3 0 -5 1 0 1 0 1 0 4 0 6 0 9 0 9 0 0 1 0 2 0 2 0 1 0 1 0 1 0 1 0 2 0 3 0 4 0 1 0 1 0 1 0 1 0 2 0 2 1 0 2 0 3 0 1 0 1 0 4 0 0 -12 0 -1 0 -1 0 -1 0 -1 0 -2 0 -3 0 -5 1 0"/>
<path stroke="magenta" d="M665 88l1 0 2 0 3 0 6 0 9 0 9 0 0 1 0 2 0 2 0 1 0 1 0 1 0 1 0 2 0 3 0 6 0 1 0 1 0 2 0 2 1 0 1 0 3 0 4 0 1 0 2 0 1 0 1 0 0 -12 0 -1 0 -1 0 -1 0 -1 0 -2 0 -3 0 -5 1 0 1 0 1 0 4 0 8 0 9 0 8 0 0 1 0 2 0 2 0 1 0 1 0 1 0 1"/>
<path stroke="magenta" d="M741 97l0 2 0 3 0 4 0 1 0 1 0 1 0 1 0 2 0 2 1 0 1 0 1 0 3 0 1 0 2 0 3 0 0 -12 0 -1 0 -1 0 -1 0 -1 0 -2 0 -3 0 -5 1 0 1 0 2 0 3 0 6 0 8 0 1 0 2 0 0 2 0 5 0 11 0 8 1 0 1 0 1 0 2 0 1 0 1 0 1 0 3 0 4 0 1 0 1 0 1 0 1 0 1 0"/>
<path stroke="magenta" d="M797 114l0 -12 0 -1 0 -1 0 -1 0 -1 0 -2 0 -3 0 -5 1 0 1 0 1 0 3 0 7 0 9 0 8 0 0 1 0 2 0 2 0 1 0 1 0 1 0 1 0 2 0 3 0 4 0 1 0 1 0 1 0 1 0 2 0 2 1 0 1 0 2 0 4 0 1 0 2 0 1 0 1 0 1 0 0 -12 0 -1 0 -1 0 -1 0 -1 0 -2 0 -3 0 -5"/>
<path stroke="magenta" d="M841 88l1 0 1 0 2 0 3 0 6 0 9 0 8 0 0 1 0 2 0 2 0 1 0 1 0 1 0 1 0 2 0 3 0 6 0 1 0 1 0 2 0 2 1 0 2 0 3 0 3 0 1 0 3 0 0 -1 0 -1 0 -1 0 -3 0 -5 0 -8 0 -1 0 -2 0 -2 0 -1 0 -1 1 0 1 0 2 0 3 0 8 0 9 0 8 0 0 1 0 2 0 2 0 1 0 1"/>
<path stroke="magenta" d="M916 95l0 1 0 1 0 2 0 3 0 4 0 1 0 1 0 1 0 1 0 2 0 2 1 0 1 0 2 0 4 0 1 0 2 0 1 0 1 0 0 -12 0 -1 0 -1 0 -1 0 -1 0 -2 0 -3 0 -5 1 0 1 0 2 0 3 0 8 0 6 0"/>
</svg>
