<?xml version="1.0" standalone="yes"?>
<!DOCTYPE svg PUBLIC "-//W3C//DTD SVG 1.1//EN"
 "http://www.w3.org/Graphics/SVG/1.1/DTD/svg11.dtd">
<svg xmlns="http://www.w3.org/2000/svg" version="1.1"
  width="100%" height="100%" viewBox="0 0 1024 768"
  style="fill: none; font-family: Helvetica;
 font: Helvetica;
">

<!-- Creator: NGspice -->

<rect x="0" y="0" width="1024" height="768" fill="black" stroke="none"/>
"/>
<text stroke="none" fill="white" font-size="16" x="358" y="752">
time
</text>
<text stroke="none" fill="white" font-size="16" x="10" y="16">
tran1: * e:\self\hackathon\mixed_signal_soc_design_marathon\vinayak\self-correcting-message-system-using-hamming-code\self_correcting_message_system\self_correcting_message_system.cir
</text>
<path stroke="white" d="M50 696l0 -624"/>
<text stroke="none" fill="white" font-size="16" x="35" y="728">
0.0
</text>
<path stroke="white" stroke-dasharray="1,2" d="M142 696l0 -624"/>
<text stroke="none" fill="white" font-size="16" x="127" y="728">
1.0
</text>
<path stroke="white" stroke-dasharray="1,2" d="M234 696l0 -624"/>
<text stroke="none" fill="white" font-size="16" x="219" y="728">
2.0
</text>
<path stroke="white" stroke-dasharray="1,2" d="M326 696l0 -624"/>
<text stroke="none" fill="white" font-size="16" x="311" y="728">
3.0
</text>
<path stroke="white" stroke-dasharray="1,2" d="M418 696l0 -624"/>
<text stroke="none" fill="white" font-size="16" x="403" y="728">
4.0
</text>
<path stroke="white" stroke-dasharray="1,2" d="M510 696l0 -624"/>
<text stroke="none" fill="white" font-size="16" x="495" y="728">
5.0
</text>
<path stroke="white" stroke-dasharray="1,2" d="M602 696l0 -624"/>
<text stroke="none" fill="white" font-size="16" x="587" y="728">
6.0
</text>
<path stroke="white" stroke-dasharray="1,2" d="M694 696l0 -624"/>
<text stroke="none" fill="white" font-size="16" x="679" y="728">
7.0
</text>
<path stroke="white" stroke-dasharray="1,2" d="M786 696l0 -624"/>
<text stroke="none" fill="white" font-size="16" x="771" y="728">
8.0
</text>
<path stroke="white" stroke-dasharray="1,2" d="M878 696l0 -624"/>
<text stroke="none" fill="white" font-size="16" x="863" y="728">
9.0
</text>
<path stroke="white" stroke-dasharray="1,2" d="M970 696l0 -624"/>
<text stroke="none" fill="white" font-size="16" x="950" y="728">
10.0
</text>
<text stroke="none" fill="white" font-size="16" x="614" y="752">
s
</text>
<path stroke="white" stroke-dasharray="1,2" d="M50 696l920 0"/>
<text stroke="none" fill="white" font-size="16" x="8" y="704">
-2.0
</text>
<path stroke="white" stroke-dasharray="1,2" d="M50 618l920 0"/>
<text stroke="none" fill="white" font-size="16" x="8" y="626">
-1.5
</text>
<path stroke="white" stroke-dasharray="1,2" d="M50 540l920 0"/>
<text stroke="none" fill="white" font-size="16" x="8" y="548">
-1.0
</text>
<path stroke="white" stroke-dasharray="1,2" d="M50 462l920 0"/>
<text stroke="none" fill="white" font-size="16" x="8" y="470">
-0.5
</text>
<path stroke="white" d="M50 384l920 0"/>
<text stroke="none" fill="white" font-size="16" x="18" y="392">
0.0
</text>
<path stroke="white" stroke-dasharray="1,2" d="M50 306l920 0"/>
<text stroke="none" fill="white" font-size="16" x="18" y="314">
0.5
</text>
<path stroke="white" stroke-dasharray="1,2" d="M50 228l920 0"/>
<text stroke="none" fill="white" font-size="16" x="18" y="236">
1.0
</text>
<path stroke="white" stroke-dasharray="1,2" d="M50 150l920 0"/>
<text stroke="none" fill="white" font-size="16" x="18" y="158">
1.5
</text>
<path stroke="white" stroke-dasharray="1,2" d="M50 72l920 0"/>
<text stroke="none" fill="white" font-size="16" x="18" y="80">
2.0
</text>
<text stroke="none" fill="white" font-size="16" x="10" y="32">
V
</text>
<path stroke="red" d="M460 23l46 0"/>
<text stroke="none" fill="white" font-size="16" x="516" y="32">
v(sine)
</text>
<path stroke="red" d="M50 384l0 -4 0 -3 0 -7 1 -14 0 -28 2 -54 3 -92 0 -1 0 -1 0 -2 0 -4 0 -7 1 -13 1 -22 1 -15 0 -1 0 -1 0 -1 1 -3 0 -5 2 -3 2 16 5 109 9 330 0 1 0 1 0 1 0 4 0 7 1 14 1 24 2 36 4 15 8 -189 9 -315 0 -1 0 -1 0 -3 0 -6 1 -10 0 -1"/>
<path stroke="red" d="M104 135l0 -1 0 -1 0 -3 1 -5 0 -9 2 -11 2 6 6 115 1 38 2 84 0 1 0 1 0 2 0 5 1 8 0 17 1 34 0 1 0 1 0 2 0 4 0 8 1 16 1 31 1 58 4 89 6 17 10 -281 8 -245 0 -1 0 -1 1 -2 0 -4 1 -4 1 0 4 40 2 74 1 20 1 44 3 96 0 1 0 1 0 2 0 5"/>
<path stroke="red" d="M165 388l0 9 1 19 1 37 2 70 4 105 8 -5 9 -305 9 -214 0 -1 1 1 1 4 2 24 4 100 1 33 2 71 0 1 0 1 0 3 0 4 0 8 0 1 0 1 0 2 0 5 1 9 0 18 0 5 0 9 1 18 0 1 0 1 0 3 0 4 0 10 1 18 1 36 2 65 4 88 8 -52 6 -211 1 -35 2 -68 0 -1 0 -1"/>
<path stroke="red" d="M237 279l0 -2 0 -4 0 -8 1 -15 0 -28 1 0 0 -1 0 -1 0 -1 0 -3 0 -7 0 -12 1 -20 2 -34 1 -26 0 -1 0 -1 0 -1 1 -3 0 -5 2 -3 2 16 5 109 9 330 0 1 0 2 0 3 0 6 1 12 1 21 1 34 4 28 6 -108 9 -330 0 -1 0 -2 1 -3 0 -6 0 -11 1 -21 0 -1"/>
<path stroke="red" d="M286 182l0 -1 0 -2 0 -4 0 -7 1 -14 1 -23 3 -26 4 36 10 301 0 1 0 1 0 2 0 4 0 7 0 15 1 30 2 54 3 80 7 1 9 -290 8 -230 0 -1 0 -1 1 -2 0 -3 0 -4 2 -3 2 20 4 96 1 16 1 35 2 75 0 1 0 1 0 2 0 4 0 8 1 17 1 33 0 1 0 1 0 3 0 4 0 10"/>
<path stroke="red" d="M350 430l1 18 1 37 2 66 4 92 8 -41 9 -320 9 -178 0 1 1 2 0 6 2 22 3 77 1 25 2 54 3 118 0 1 0 1 0 3 0 4 0 8 1 17 0 1 0 1 0 2 0 4 0 7 0 16 1 30 2 55 3 79 7 -6 8 -248 1 -35 2 -68 0 -1 0 -1 0 -2 0 -4 0 -8 1 -15 0 -28 1 0 0 -1"/>
<path stroke="red" d="M423 221l0 -1 0 -2 0 -4 0 -7 0 -14 1 -23 2 -36 1 -17 1 -4 0 -1 0 -2 0 -2 1 -3 1 -1 2 19 5 116 9 329 0 1 0 2 0 4 1 7 0 13 1 23 2 33 4 7 8 -198 9 -310 0 -1 0 -2 0 -2 1 -5 0 -10 0 -1 0 -1 1 -2 0 -5 0 -7 2 -9 2 4 5 90 1 36 2 81"/>
<path stroke="red" d="M485 316l0 1 0 1 0 2 0 4 1 9 0 18 1 37 2 71 0 1 0 1 0 2 0 4 0 8 1 15 1 29 1 53 4 73 7 -21 9 -305 7 -202 0 -1 0 -1 1 -2 0 -4 1 -4 1 0 4 40 2 74 1 20 1 44 3 96 0 1 0 1 0 2 0 5 0 9 1 19 1 37 2 70 4 105 8 -5 9 -305 9 -214 0 -1"/>
<path stroke="red" d="M567 103l1 1 1 4 2 24 4 100 8 287 0 1 0 1 0 1 0 3 0 7 0 12 1 23 2 41 3 49 6 -43 7 -230 1 -35 2 -68 0 -1 0 -1 0 -2 0 -4 0 -8 1 -15 0 -28 1 0 0 -1 0 -1 0 -1 0 -3 0 -7 0 -12 1 -20 2 -34 1 -26 0 -3 1 0 0 -1 0 -1 0 -1 0 -3 1 -3"/>
<path stroke="red" d="M613 105l1 -1 2 19 5 114 1 40 2 85 0 1 0 1 1 2 0 4 0 9 0 16 1 34 0 1 0 1 0 2 0 4 1 8 0 15 1 31 2 56 3 85 7 6 9 -288 9 -242 0 -1 1 -1 0 -2 1 -1 1 10 4 59 1 22 1 51 4 121 0 1 0 1 0 2 0 4 0 8 0 17 0 1 0 1 0 2 1 4 0 8 0 16 1 32"/>
<path stroke="red" d="M673 463l2 59 3 95 7 33 9 -271 9 -262 0 -1 0 -1 1 -2 0 -3 0 -4 2 -3 2 20 4 96 1 16 1 35 2 75 0 1 0 1 0 2 0 4 0 8 1 17 1 33 0 1 0 1 0 3 0 5 0 9 1 18 1 37 2 66 4 92 8 -41 9 -320 9 -178 0 1 1 2 0 6 2 22 3 77 1 25 2 54 3 118"/>
<path stroke="red" d="M764 409l0 1 0 1 0 3 0 4 0 8 1 17 0 1 0 1 0 2 0 4 0 7 0 16 1 30 2 55 3 79 7 -6 8 -248 1 -35 2 -68 0 -1 0 -1 0 -2 0 -4 0 -8 1 -15 0 -28 1 0 0 -1 0 -1 0 -2 0 -4 0 -7 0 -14 1 -23 2 -36 1 -17 1 -4 0 -1 0 -2 0 -2 1 -3 1 -1 2 19"/>
<path stroke="red" d="M800 123l5 116 1 39 0 10 1 21 1 44 0 1 0 1 0 2 0 5 1 9 0 18 0 5 0 9 1 18 0 1 0 1 0 2 0 4 0 8 1 16 1 31 1 57 4 87 6 14 10 -284 9 -248 0 -1 0 -1 0 -2 1 -2 1 0 2 13 4 83 1 31 2 68 0 1 0 1 0 2 0 5 0 8 1 18 1 36 2 73 0 1 0 1"/>
<path stroke="red" d="M857 445l0 2 0 4 0 7 0 16 1 30 2 55 3 79 7 -6 9 -296 8 -219 0 -1 0 -1 1 -2 0 -4 1 -4 1 0 4 40 2 74 1 20 1 44 3 96 0 1 0 1 0 2 0 5 0 9 1 19 1 37 2 70 4 105 8 -5 9 -305 9 -214 0 -1 1 1 1 4 2 24 4 100 1 33 2 71 0 1 0 1 0 3"/>
<path stroke="red" d="M946 341l0 4 0 8 0 1 0 1 0 2 0 5 1 9 0 18 0 5 0 9 1 18 0 1 0 1 0 3 0 4 0 10 1 18 1 36 2 65 4 88 8 -52 6 -211"/>
<path stroke="blue" d="M50 23l46 0"/>
<text stroke="none" fill="white" font-size="16" x="106" y="32">
v(in1)
</text>
<path stroke="blue" d="M50 280l1 0 2 0 3 0 1 0 1 0 1 0 1 0 2 0 2 0 5 0 9 0 1 0 1 0 2 0 4 0 8 0 9 0 1 0 1 0 2 0 2 0 6 0 1 0 2 0 1 0 1 0 1 0 1 0 1 0 4 0 6 0 10 0 8 0 1 0 1 0 1 0 4 0 2 0 1 0 1 0 3 0 1 0 1 0 2 0 4 0 8 0 9 0 9 0 1 0 1 0 2 0 4 0 1 0"/>
<path stroke="blue" d="M208 280l2 0 1 0 1 0 1 0 1 0 2 0 4 0 8 0 6 0 1 0 2 0 1 0 1 0 1 0 2 0 1 0 1 0 2 0 2 0 5 0 9 0 1 0 1 0 1 0 4 0 6 0 9 0 1 0 1 0 1 0 1 0 3 0 4 0 10 0 1 0 2 0 3 0 7 0 9 0 8 0 1 0 2 0 2 0 4 0 1 0 1 0 2 0 1 0 1 0 1 0 1 0 2 0 4 0"/>
<path stroke="blue" d="M358 280l8 0 9 0 9 0 1 0 2 0 3 0 1 0 2 0 3 0 1 0 1 0 2 0 3 0 7 0 8 0 1 0 2 0 1 0 1 0 1 0 2 0 1 0 1 0 1 0 1 0 2 0 5 0 9 0 1 0 1 0 2 0 4 0 8 0 9 0 1 0 1 0 2 0 2 0 5 0 1 0 2 0 1 0 1 0 2 0 1 0 1 0 1 0 4 0 7 0 9 0 7 0 1 0 1 0"/>
<path stroke="blue" d="M521 280l1 0 4 0 2 0 1 0 1 0 3 0 1 0 1 0 2 0 4 0 8 0 9 0 9 0 1 0 1 0 2 0 4 0 8 0 1 0 2 0 3 0 6 0 7 0 1 0 2 0 1 0 1 0 1 0 2 0 1 0 1 0 1 0 1 0 2 0 5 0 1 0 2 0 1 0 1 0 1 0 1 0 2 0 3 0 7 0 9 0 9 0 1 0 1 0 1 0 4 0 1 0 1 0 4 0"/>
<path stroke="blue" d="M671 280l1 0 1 0 2 0 3 0 7 0 9 0 9 0 1 0 2 0 2 0 4 0 1 0 1 0 2 0 1 0 1 0 1 0 1 0 2 0 4 0 8 0 9 0 9 0 1 0 2 0 3 0 1 0 2 0 3 0 1 0 1 0 2 0 3 0 7 0 8 0 1 0 2 0 1 0 1 0 1 0 2 0 1 0 1 0 1 0 1 0 2 0 5 0 1 0 1 0 1 0 1 0 1 0 1 0"/>
<path stroke="blue" d="M811 280l1 0 1 0 4 0 6 0 10 0 9 0 1 0 1 0 2 0 4 0 1 0 2 0 1 0 1 0 2 0 1 0 2 0 3 0 7 0 9 0 8 0 1 0 1 0 1 0 4 0 2 0 1 0 1 0 3 0 1 0 1 0 2 0 4 0 8 0 9 0 9 0 1 0 1 0 2 0 4 0 1 0 2 0 1 0 1 0 1 0 1 0 2 0 4 0 8 0 6 0"/>
<path stroke="#FFA500" d="M460 39l46 0"/>
<text stroke="none" fill="white" font-size="16" x="516" y="48">
v(in2)
</text>
<path stroke="#FFA500" d="M50 332l1 0 2 0 3 0 1 0 1 0 1 0 1 0 2 0 2 0 5 0 9 0 1 0 1 0 2 0 4 0 8 0 9 0 1 0 1 0 2 0 2 0 6 0 1 0 2 0 1 0 1 0 1 0 1 0 1 0 4 0 6 0 10 0 8 0 1 0 1 0 1 0 4 0 2 0 1 0 1 0 3 0 1 0 1 0 2 0 4 0 8 0 9 0 9 0 1 0 1 0 2 0 4 0"/>
<path stroke="#FFA500" d="M207 332l1 0 2 0 1 0 1 0 1 0 1 0 2 0 4 0 8 0 6 0 1 0 2 0 1 0 1 0 1 0 2 0 1 0 1 0 2 0 2 0 5 0 9 0 1 0 1 0 1 0 4 0 6 0 9 0 1 0 1 0 1 0 1 0 3 0 4 0 10 0 1 0 2 0 3 0 7 0 9 0 8 0 1 0 2 0 2 0 4 0 1 0 1 0 2 0 1 0 1 0 1 0 1 0"/>
<path stroke="#FFA500" d="M352 332l2 0 4 0 8 0 9 0 9 0 1 0 2 0 3 0 1 0 2 0 3 0 1 0 1 0 2 0 3 0 7 0 8 0 1 0 2 0 1 0 1 0 1 0 2 0 1 0 1 0 1 0 1 0 2 0 5 0 9 0 1 0 1 0 2 0 4 0 8 0 9 0 1 0 1 0 2 0 2 0 5 0 1 0 2 0 1 0 1 0 2 0 1 0 1 0 1 0 4 0 7 0 9 0"/>
<path stroke="#FFA500" d="M512 332l7 0 1 0 1 0 1 0 4 0 2 0 1 0 1 0 3 0 1 0 1 0 2 0 4 0 8 0 9 0 9 0 1 0 1 0 2 0 4 0 8 0 1 0 2 0 3 0 6 0 7 0 1 0 2 0 1 0 1 0 1 0 2 0 1 0 1 0 1 0 1 0 2 0 5 0 1 0 2 0 1 0 1 0 1 0 1 0 2 0 3 0 7 0 9 0 9 0 1 0 1 0 1 0"/>
<path stroke="#FFA500" d="M661 332l4 0 1 0 1 0 4 0 1 0 1 0 2 0 3 0 7 0 9 0 9 0 1 0 2 0 2 0 4 0 1 0 1 0 2 0 1 0 1 0 1 0 1 0 2 0 4 0 8 0 9 0 9 0 1 0 2 0 3 0 1 0 2 0 3 0 1 0 1 0 2 0 3 0 7 0 8 0 1 0 2 0 1 0 1 0 1 0 2 0 1 0 1 0 1 0 1 0 2 0 5 0 1 0"/>
<path stroke="#FFA500" d="M806 332l1 0 1 0 1 0 1 0 1 0 1 0 1 0 4 0 6 0 10 0 9 0 1 0 1 0 2 0 4 0 1 0 2 0 1 0 1 0 2 0 1 0 2 0 3 0 7 0 9 0 8 0 1 0 1 0 1 0 4 0 2 0 1 0 1 0 3 0 1 0 1 0 2 0 4 0 8 0 9 0 9 0 1 0 1 0 2 0 4 0 1 0 2 0 1 0 1 0 1 0 1 0 2 0"/>
<path stroke="#FFA500" d="M952 332l4 0 8 0 6 0"/>
</svg>
