<?xml version="1.0" standalone="yes"?>
<!DOCTYPE svg PUBLIC "-//W3C//DTD SVG 1.1//EN"
 "http://www.w3.org/Graphics/SVG/1.1/DTD/svg11.dtd">
<svg xmlns="http://www.w3.org/2000/svg" version="1.1"
  width="100%" height="100%" viewBox="0 0 1024 768"
  style="fill: none; font-family: Helvetica;
 font: Helvetica;
">

<!-- Creator: NGspice -->

<rect x="0" y="0" width="1024" height="768" fill="black" stroke="none"/>
"/>
<text stroke="none" fill="white" font-size="16" x="358" y="752">
time
</text>
<text stroke="none" fill="white" font-size="16" x="10" y="16">
tran1: * e:\self\hackathon\mixed_signal_soc_design_marathon\vinayak\self-correcting-message-system-using-hamming-code\self_correcting_message_system\self_correcting_message_system.cir
</text>
<path stroke="white" d="M50 696l0 -624"/>
<text stroke="none" fill="white" font-size="16" x="35" y="728">
0.0
</text>
<path stroke="white" stroke-dasharray="1,2" d="M142 696l0 -624"/>
<text stroke="none" fill="white" font-size="16" x="127" y="728">
1.0
</text>
<path stroke="white" stroke-dasharray="1,2" d="M234 696l0 -624"/>
<text stroke="none" fill="white" font-size="16" x="219" y="728">
2.0
</text>
<path stroke="white" stroke-dasharray="1,2" d="M326 696l0 -624"/>
<text stroke="none" fill="white" font-size="16" x="311" y="728">
3.0
</text>
<path stroke="white" stroke-dasharray="1,2" d="M418 696l0 -624"/>
<text stroke="none" fill="white" font-size="16" x="403" y="728">
4.0
</text>
<path stroke="white" stroke-dasharray="1,2" d="M510 696l0 -624"/>
<text stroke="none" fill="white" font-size="16" x="495" y="728">
5.0
</text>
<path stroke="white" stroke-dasharray="1,2" d="M602 696l0 -624"/>
<text stroke="none" fill="white" font-size="16" x="587" y="728">
6.0
</text>
<path stroke="white" stroke-dasharray="1,2" d="M694 696l0 -624"/>
<text stroke="none" fill="white" font-size="16" x="679" y="728">
7.0
</text>
<path stroke="white" stroke-dasharray="1,2" d="M786 696l0 -624"/>
<text stroke="none" fill="white" font-size="16" x="771" y="728">
8.0
</text>
<path stroke="white" stroke-dasharray="1,2" d="M878 696l0 -624"/>
<text stroke="none" fill="white" font-size="16" x="863" y="728">
9.0
</text>
<path stroke="white" stroke-dasharray="1,2" d="M970 696l0 -624"/>
<text stroke="none" fill="white" font-size="16" x="950" y="728">
10.0
</text>
<text stroke="none" fill="white" font-size="16" x="614" y="752">
s
</text>
<path stroke="white" stroke-dasharray="1,2" d="M50 696l920 0"/>
<text stroke="none" fill="white" font-size="16" x="8" y="704">
-1.4
</text>
<path stroke="white" stroke-dasharray="1,2" d="M50 644l920 0"/>
<text stroke="none" fill="white" font-size="16" x="8" y="652">
-1.2
</text>
<path stroke="white" stroke-dasharray="1,2" d="M50 592l920 0"/>
<text stroke="none" fill="white" font-size="16" x="8" y="600">
-1.0
</text>
<path stroke="white" stroke-dasharray="1,2" d="M50 540l920 0"/>
<text stroke="none" fill="white" font-size="16" x="8" y="548">
-0.8
</text>
<path stroke="white" stroke-dasharray="1,2" d="M50 488l920 0"/>
<text stroke="none" fill="white" font-size="16" x="8" y="496">
-0.6
</text>
<path stroke="white" stroke-dasharray="1,2" d="M50 436l920 0"/>
<text stroke="none" fill="white" font-size="16" x="8" y="444">
-0.4
</text>
<path stroke="white" stroke-dasharray="1,2" d="M50 384l920 0"/>
<text stroke="none" fill="white" font-size="16" x="8" y="392">
-0.2
</text>
<path stroke="white" d="M50 332l920 0"/>
<text stroke="none" fill="white" font-size="16" x="18" y="340">
0.0
</text>
<path stroke="white" stroke-dasharray="1,2" d="M50 280l920 0"/>
<text stroke="none" fill="white" font-size="16" x="18" y="288">
0.2
</text>
<path stroke="white" stroke-dasharray="1,2" d="M50 228l920 0"/>
<text stroke="none" fill="white" font-size="16" x="18" y="236">
0.4
</text>
<path stroke="white" stroke-dasharray="1,2" d="M50 176l920 0"/>
<text stroke="none" fill="white" font-size="16" x="18" y="184">
0.6
</text>
<path stroke="white" stroke-dasharray="1,2" d="M50 124l920 0"/>
<text stroke="none" fill="white" font-size="16" x="18" y="132">
0.8
</text>
<path stroke="white" stroke-dasharray="1,2" d="M50 72l920 0"/>
<text stroke="none" fill="white" font-size="16" x="18" y="80">
1.0
</text>
<text stroke="none" fill="white" font-size="16" x="10" y="32">
V
</text>
<path stroke="red" d="M460 23l46 0"/>
<text stroke="none" fill="white" font-size="16" x="516" y="32">
v(window02)
</text>
<path stroke="red" d="M50 72l1 0 2 206 3 323 0 -1 0 -1 0 -1 0 -1 0 -2 0 1 0 4 1 8 1 7 1 3 1 0 0 1 2 0 2 0 5 0 9 -547 1 0 1 0 2 0 4 0 8 0 9 0 0 1 0 6 0 73 1 194 0 1 0 1 0 1 0 2 0 5 0 10 0 18 0 32 1 56 0 82 2 50 2 14 6 3 1 -2 2 26 0 1 0 2 0 4 1 8"/>
<path stroke="red" d="M119 660l0 8 1 -596 1 0 1 0 1 0 4 0 6 0 10 0 8 517 0 1 0 1 0 2 1 4 0 7 1 8 1 6 4 1 2 0 1 0 1 0 3 -545 0 -1 0 -1 1 0 1 0 2 0 4 0 8 0 9 0 9 524 0 -1 0 -1 0 -1 0 2 0 4 1 8 1 7 2 5 4 0 1 0 2 11 0 1 0 1 0 3 0 6 0 1 0 1 0 2 0 5"/>
<path stroke="red" d="M210 650l1 9 0 9 0 -11 0 -172 1 -413 1 0 1 0 2 0 4 0 8 0 6 0 1 0 2 305 0 1 0 1 0 1 0 4 0 6 0 13 0 25 0 43 1 68 0 59 1 0 0 1 0 1 0 2 0 3 1 6 2 7 1 1 1 0 2 0 2 0 5 0 9 -547 1 0 1 0 1 0 4 0 6 0 9 0 0 1 1 4 0 44 0 143 1 186"/>
<path stroke="red" d="M286 450l0 1 0 1 0 1 0 3 0 5 0 11 0 21 0 38 1 48 1 26 3 13 4 2 10 -548 1 0 2 0 3 0 7 0 9 0 8 518 0 1 1 4 0 6 0 8 2 7 2 3 4 0 1 0 1 0 2 20 0 1 0 2 0 3 0 8 1 15 1 -596 1 0 1 0 2 0 4 0 8 0 9 0 9 524 0 -1 0 -1 0 -1 0 -1 0 1"/>
<path stroke="red" d="M384 593l0 3 1 7 0 8 2 7 3 1 1 0 2 0 3 47 0 1 0 1 0 2 0 2 0 -14 1 -586 1 0 2 0 3 0 7 0 8 0 1 0 2 298 0 1 0 2 0 4 0 6 0 13 0 26 0 44 1 69 0 63 1 0 0 1 0 2 0 2 0 3 1 7 2 6 1 0 1 0 1 0 1 0 2 0 5 0 9 -547 1 0 1 0 2 0 4 0 8 0"/>
<path stroke="red" d="M462 72l9 0 0 1 0 6 1 74 0 194 0 1 0 1 0 3 0 4 0 8 0 16 1 30 0 51 0 79 2 59 2 18 5 4 1 -2 2 -1 1 1 0 10 1 33 2 -590 1 0 1 0 1 0 4 0 7 0 9 0 7 517 0 -1 0 1 1 4 0 8 1 9 1 8 4 1 2 0 1 0 1 0 3 -545 0 -1 0 -1 1 0 1 0 2 0 4 0"/>
<path stroke="red" d="M541 72l8 0 9 0 9 524 0 -1 0 -1 0 -1 0 2 0 4 1 8 1 7 2 5 4 0 8 -547 1 0 2 0 3 0 6 0 7 0 1 0 2 299 0 1 0 1 0 1 0 4 0 7 0 13 0 25 0 44 1 69 0 62 1 0 0 1 0 1 0 2 0 3 1 6 2 7 1 1 1 0 1 0 1 0 2 0 5 0 1 0 2 29 0 1 1 2 0 4 0 8"/>
<path stroke="red" d="M625 663l0 -2 1 -589 1 0 1 0 2 0 3 0 7 0 9 0 9 521 0 2 1 4 0 6 1 8 1 5 4 1 1 0 1 0 4 46 0 1 0 1 0 1 0 3 0 -6 0 -593 1 0 1 0 2 0 3 0 7 0 9 0 9 514 0 1 0 1 0 1 0 2 0 3 1 3 0 5 0 8 2 6 2 3 4 0 1 0 1 0 2 20 0 1 0 2 0 3 0 8 1 15"/>
<path stroke="red" d="M717 668l1 -596 1 0 1 0 2 0 4 0 8 0 9 0 9 524 0 -1 0 -1 0 -1 0 -1 0 1 0 3 1 7 0 8 2 7 3 1 1 0 2 0 3 47 0 1 0 1 0 2 0 2 0 -15 1 -585 1 0 2 0 3 0 7 0 8 0 1 0 2 298 0 1 0 2 0 4 0 6 0 13 0 26 0 44 1 69 0 63 1 0 0 1 0 2 0 2 0 3"/>
<path stroke="red" d="M791 606l1 7 2 6 1 0 1 0 1 0 1 0 2 0 5 0 1 0 1 -2 1 16 0 1 0 2 0 4 1 9 0 18 0 2 0 -9 1 -588 1 0 1 0 1 0 4 0 6 0 10 0 9 520 0 1 0 1 0 2 0 4 1 7 1 8 2 4 4 0 1 0 2 -1 0 -1 1 3 1 23 2 -571 1 0 2 0 3 0 7 0 9 0 8 518 0 1 1 4 0 7"/>
<path stroke="red" d="M888 602l1 9 1 7 4 1 2 0 1 0 1 0 3 -545 0 -1 0 -1 1 0 1 0 2 0 4 0 8 0 9 0 9 524 0 -1 0 -1 0 -1 0 2 0 4 1 8 1 7 2 5 4 0 1 0 2 11 0 1 0 1 0 3 0 6 0 1 0 1 0 2 0 5 1 9 0 9 0 -11 0 -173 1 -412 1 0 1 0 2 0 4 0 8 0 6 0"/>
<path stroke="blue" d="M50 23l46 0"/>
<text stroke="none" fill="white" font-size="16" x="106" y="32">
v(window01)
</text>
<path stroke="blue" d="M50 619l1 0 2 22 3 -559 0 -1 0 -1 0 -1 0 -1 0 -1 1 0 1 0 1 0 1 0 2 -1 2 0 5 0 9 501 0 1 0 1 0 1 0 3 0 4 0 5 0 6 1 7 1 9 2 5 4 0 8 0 9 -536 0 -1 0 -1 0 -2 0 -1 0 -1 1 0 1 0 2 0 2 -1 6 0 1 0 2 305 0 1 0 1 0 2 0 4 0 8 0 14"/>
<path stroke="blue" d="M118 411l0 25 1 43 0 65 1 50 0 1 0 1 0 3 1 5 1 8 1 6 4 1 6 0 10 0 8 -534 0 -1 0 -1 0 -1 0 -2 0 -2 0 -1 1 0 1 0 1 -1 4 0 2 0 1 0 1 48 3 354 0 1 0 1 0 1 0 3 0 6 0 11 0 20 0 32 1 33 1 17 2 15 4 2 8 -1 9 1 9 -537 0 -1 0 -1"/>
<path stroke="blue" d="M199 81l0 -1 0 -1 0 -1 0 -1 0 -1 1 0 1 0 2 0 4 0 1 0 2 278 0 1 0 1 0 2 0 4 0 8 0 14 0 27 0 45 0 1 0 2 0 3 0 5 0 10 0 19 1 34 0 45 0 5 0 9 1 8 0 1 0 1 0 1 0 4 1 5 1 6 2 4 4 0 8 0 6 0 1 0 2 13 0 1 0 1 0 3 0 8 1 21 0 -356"/>
<path stroke="blue" d="M238 310l0 -1 1 0 0 -2 0 -3 0 -5 0 -12 0 -24 0 -50 0 -106 0 -32 0 12 1 -13 2 12 1 -13 0 1 0 1 0 1 0 1 1 0 2 -1 2 0 5 0 9 500 0 1 0 1 0 1 0 3 0 4 0 5 0 6 1 6 1 9 1 6 4 2 6 -1 9 -534 0 -1 0 -1 0 -2 0 -2 1 -2 1 0 1 0 1 0 3 0"/>
<path stroke="blue" d="M291 77l4 -1 10 501 0 1 0 1 0 1 0 2 0 4 0 5 0 6 0 6 1 9 2 6 3 1 7 0 9 0 8 -533 0 -1 0 -1 0 -2 0 -3 0 -1 1 -1 2 -1 2 0 4 0 1 0 1 1 2 284 0 1 0 1 0 2 0 4 0 8 0 14 0 26 0 45 1 67 1 61 0 1 0 1 0 2 0 3 1 7 1 9 2 6 4 0 8 0 9 34"/>
<path stroke="blue" d="M375 653l9 -575 0 -1 1 0 0 -1 2 0 3 0 1 0 2 214 3 318 0 -1 0 -1 0 -2 0 -2 0 -1 0 1 1 5 0 1 0 1 0 2 0 3 1 3 2 2 3 0 7 0 8 0 1 0 2 13 0 1 0 1 0 3 0 8 1 21 0 -356 0 -1 1 0 0 -2 0 -3 0 -7 0 -14 0 -28 0 -59 0 -110 0 -12 0 24"/>
<path stroke="blue" d="M423 98l1 -24 2 10 1 -10 1 2 0 1 1 0 1 -1 2 0 5 0 9 501 0 1 0 2 0 3 0 4 0 5 1 6 0 7 1 9 2 5 4 0 8 0 9 -535 0 -1 0 -1 0 -1 0 -2 0 -1 0 -1 1 0 1 0 2 0 2 -1 5 0 1 0 2 305 0 1 0 1 0 2 0 4 0 8 0 15 0 27 1 45 0 66 1 47 2 17 0 1"/>
<path stroke="blue" d="M489 615l0 1 0 1 1 1 1 1 1 0 4 0 7 0 9 0 7 -527 0 -1 0 -1 0 -2 0 -4 0 -5 0 -2 1 0 1 0 1 -1 4 0 2 0 1 0 1 48 3 354 0 1 0 1 0 1 0 3 0 6 0 11 0 20 0 32 1 33 1 17 2 15 4 2 8 -1 9 1 9 -537 0 -1 0 -1 0 -1 0 -1 0 -1 0 -1 0 -1"/>
<path stroke="blue" d="M567 76l1 0 1 0 2 0 4 0 8 491 0 1 0 2 0 3 0 4 0 7 0 8 0 7 1 10 2 8 3 2 6 0 7 0 1 0 2 13 0 1 0 1 0 3 0 8 1 21 0 -356 0 -1 1 0 0 -2 0 -3 0 -5 0 -12 0 -24 0 -50 0 -106 0 -32 0 12 1 -13 2 12 1 -13 0 3 1 0 0 1 1 0 1 -1 2 0 5 0"/>
<path stroke="blue" d="M621 76l1 3 2 306 0 1 0 1 0 2 0 4 0 7 1 13 0 25 0 42 0 63 1 50 0 1 0 1 1 3 0 6 1 8 2 6 3 1 7 0 9 0 9 -536 0 -1 0 -1 0 -1 0 -2 0 -1 1 0 1 0 1 -1 4 0 1 0 1 0 4 374 0 1 0 1 0 1 0 3 0 6 0 12 0 21 0 36 0 44 0 1 0 2 0 3 1 4 0 5"/>
<path stroke="blue" d="M672 590l0 7 1 11 2 10 3 1 7 0 9 0 9 -536 0 -1 0 -1 0 -1 0 -1 0 -2 1 0 2 -1 2 0 4 0 1 0 1 1 2 284 0 1 0 1 0 2 0 4 0 8 0 14 0 26 0 45 1 67 1 61 0 1 0 1 0 2 0 3 1 7 1 9 2 6 4 0 8 0 9 34 9 -575 0 -1 1 0 0 -1 2 0 3 0 1 0 2 214"/>
<path stroke="blue" d="M761 290l3 318 0 -1 0 -1 0 -2 0 -2 0 -1 0 1 1 5 0 1 0 1 0 2 0 3 1 3 2 2 3 0 7 0 8 0 1 0 2 13 0 1 0 1 0 3 0 8 1 21 0 -356 0 -1 1 0 0 -2 0 -3 0 -7 0 -14 0 -28 0 -59 0 -110 0 -12 0 24 1 -24 2 10 1 -10 1 2 0 1 1 0 1 -1 2 0"/>
<path stroke="blue" d="M800 76l5 0 1 4 0 64 1 154 1 235 0 1 0 1 0 3 0 6 0 10 1 17 0 18 0 2 0 4 1 7 0 1 0 2 0 2 1 4 1 5 1 3 4 0 6 0 10 0 9 -536 0 -1 0 -1 0 -2 0 -1 0 -1 1 0 1 0 2 -1 4 0 1 0 2 276 0 1 0 1 0 2 0 5 0 8 0 16 0 28 0 48 1 73 1 61 2 19"/>
<path stroke="blue" d="M857 614l0 1 0 1 0 1 0 1 1 1 2 0 3 0 7 0 9 0 8 -532 0 -1 0 -2 0 -3 0 -2 0 -2 1 0 1 0 1 -1 4 0 2 0 1 0 1 48 3 354 0 1 0 1 0 1 0 3 0 6 0 11 0 20 0 32 1 33 1 17 2 15 4 2 8 -1 9 1 9 -537 0 -1 0 -1 0 -1 0 -1 0 -1 0 -1 0 -1 1 0"/>
<path stroke="blue" d="M936 76l1 0 2 0 4 0 1 0 2 278 0 1 0 1 0 2 0 4 0 8 0 14 0 27 0 45 0 1 0 2 0 3 0 5 0 10 0 19 1 34 0 45 0 5 0 9 1 8 0 1 0 1 0 1 0 4 1 5 1 6 2 4 4 0 8 0 6 0"/>
</svg>
