<?xml version="1.0" standalone="yes"?>
<!DOCTYPE svg PUBLIC "-//W3C//DTD SVG 1.1//EN"
 "http://www.w3.org/Graphics/SVG/1.1/DTD/svg11.dtd">
<svg xmlns="http://www.w3.org/2000/svg" version="1.1"
  width="100%" height="100%" viewBox="0 0 1024 768"
  style="fill: none; font-family: Helvetica;
 font: Helvetica;
">

<!-- Creator: NGspice -->

<rect x="0" y="0" width="1024" height="768" fill="black" stroke="none"/>
"/>
<text stroke="none" fill="white" font-size="16" x="358" y="752">
time
</text>
<text stroke="none" fill="white" font-size="16" x="10" y="16">
tran1: * e:\self\hackathon\mixed_signal_soc_design_marathon\vinayak\self-correcting-message-system-using-hamming-code\self_correcting_message_system\self_correcting_message_system.cir
</text>
<path stroke="white" d="M60 696l0 -624"/>
<text stroke="none" fill="white" font-size="16" x="45" y="728">
0.0
</text>
<path stroke="white" stroke-dasharray="1,2" d="M150 696l0 -624"/>
<text stroke="none" fill="white" font-size="16" x="135" y="728">
1.0
</text>
<path stroke="white" stroke-dasharray="1,2" d="M240 696l0 -624"/>
<text stroke="none" fill="white" font-size="16" x="225" y="728">
2.0
</text>
<path stroke="white" stroke-dasharray="1,2" d="M330 696l0 -624"/>
<text stroke="none" fill="white" font-size="16" x="315" y="728">
3.0
</text>
<path stroke="white" stroke-dasharray="1,2" d="M420 696l0 -624"/>
<text stroke="none" fill="white" font-size="16" x="405" y="728">
4.0
</text>
<path stroke="white" stroke-dasharray="1,2" d="M510 696l0 -624"/>
<text stroke="none" fill="white" font-size="16" x="495" y="728">
5.0
</text>
<path stroke="white" stroke-dasharray="1,2" d="M600 696l0 -624"/>
<text stroke="none" fill="white" font-size="16" x="585" y="728">
6.0
</text>
<path stroke="white" stroke-dasharray="1,2" d="M690 696l0 -624"/>
<text stroke="none" fill="white" font-size="16" x="675" y="728">
7.0
</text>
<path stroke="white" stroke-dasharray="1,2" d="M780 696l0 -624"/>
<text stroke="none" fill="white" font-size="16" x="765" y="728">
8.0
</text>
<path stroke="white" stroke-dasharray="1,2" d="M870 696l0 -624"/>
<text stroke="none" fill="white" font-size="16" x="855" y="728">
9.0
</text>
<path stroke="white" stroke-dasharray="1,2" d="M960 696l0 -624"/>
<text stroke="none" fill="white" font-size="16" x="940" y="728">
10.0
</text>
<text stroke="none" fill="white" font-size="16" x="614" y="752">
s
</text>
<path stroke="white" d="M60 696l900 0"/>
<text stroke="none" fill="white" font-size="16" x="28" y="704">
0.0
</text>
<path stroke="white" stroke-dasharray="1,2" d="M60 644l900 0"/>
<text stroke="none" fill="white" font-size="16" x="28" y="652">
1.0
</text>
<path stroke="white" stroke-dasharray="1,2" d="M60 592l900 0"/>
<text stroke="none" fill="white" font-size="16" x="28" y="600">
2.0
</text>
<path stroke="white" stroke-dasharray="1,2" d="M60 540l900 0"/>
<text stroke="none" fill="white" font-size="16" x="28" y="548">
3.0
</text>
<path stroke="white" stroke-dasharray="1,2" d="M60 488l900 0"/>
<text stroke="none" fill="white" font-size="16" x="28" y="496">
4.0
</text>
<path stroke="white" stroke-dasharray="1,2" d="M60 436l900 0"/>
<text stroke="none" fill="white" font-size="16" x="28" y="444">
5.0
</text>
<path stroke="white" stroke-dasharray="1,2" d="M60 384l900 0"/>
<text stroke="none" fill="white" font-size="16" x="28" y="392">
6.0
</text>
<path stroke="white" stroke-dasharray="1,2" d="M60 332l900 0"/>
<text stroke="none" fill="white" font-size="16" x="28" y="340">
7.0
</text>
<path stroke="white" stroke-dasharray="1,2" d="M60 280l900 0"/>
<text stroke="none" fill="white" font-size="16" x="28" y="288">
8.0
</text>
<path stroke="white" stroke-dasharray="1,2" d="M60 228l900 0"/>
<text stroke="none" fill="white" font-size="16" x="28" y="236">
9.0
</text>
<path stroke="white" stroke-dasharray="1,2" d="M60 176l900 0"/>
<text stroke="none" fill="white" font-size="16" x="18" y="184">
10.0
</text>
<path stroke="white" stroke-dasharray="1,2" d="M60 124l900 0"/>
<text stroke="none" fill="white" font-size="16" x="18" y="132">
11.0
</text>
<path stroke="white" stroke-dasharray="1,2" d="M60 72l900 0"/>
<text stroke="none" fill="white" font-size="16" x="18" y="80">
12.0
</text>
<text stroke="none" fill="white" font-size="16" x="10" y="32">
     
</text>
<path stroke="red" d="M450 23l45 0"/>
<text stroke="none" fill="white" font-size="16" x="505" y="32">
v(winv01)
</text>
<path stroke="red" d="M60 696l1 0 2 0 3 0 0 -26 0 -52 0 -104 0 -78 1 0 1 0 1 0 1 0 1 0 3 0 4 0 9 0 0 26 0 52 0 104 0 78 1 0 1 0 2 0 4 0 8 0 9 0 0 -26 0 -52 0 -104 0 -78 1 0 1 0 1 0 3 0 5 0 1 0 3 0 0 26 0 52 0 104 0 78 1 0 1 0 1 0 2 0 3 0 7 0"/>
<path stroke="red" d="M142 696l9 0 8 0 0 -26 0 -52 0 -104 0 -78 1 0 1 0 1 0 3 0 3 0 1 0 1 0 2 0 0 26 0 52 0 104 0 78 1 0 1 0 2 0 4 0 8 0 9 0 9 0 0 -26 0 -52 0 -104 0 -78 1 0 1 0 2 0 3 0 1 0 2 0 0 26 0 52 0 104 0 78 1 0 1 0 1 0 1 0 2 0 4 0 8 0"/>
<path stroke="red" d="M234 696l6 0 1 0 2 0 1 0 0 -26 0 -52 0 -104 0 -78 1 0 1 0 1 0 2 0 1 0 1 0 3 0 4 0 9 0 0 26 0 52 0 104 0 78 1 0 1 0 2 0 3 0 6 0 9 0 0 -26 0 -52 0 -104 0 -78 1 0 1 0 1 0 1 0 2 0 5 0 9 0 0 26 0 52 0 104 0 78 1 0 1 0 1 0 3 0"/>
<path stroke="red" d="M315 696l7 0 9 0 8 0 0 -26 0 -52 0 -104 0 -78 1 0 1 0 3 0 4 0 1 0 2 0 0 26 0 52 0 104 0 78 1 0 1 0 1 0 1 0 2 0 4 0 8 0 9 0 9 0 0 -26 0 -52 0 -104 0 -78 1 0 2 0 3 0 1 0 1 0 3 0 0 21 0 41 0 84 0 114 1 0 1 0 1 0 1 0 4 0 6 0"/>
<path stroke="red" d="M412 696l8 0 1 0 2 0 1 0 0 -26 0 -52 0 -104 0 -78 1 0 1 0 2 0 1 0 1 0 2 0 2 0 5 0 9 0 0 26 0 52 0 104 0 78 1 0 1 0 1 0 4 0 8 0 9 0 0 -26 0 -52 0 -104 0 -78 1 0 1 0 1 0 3 0 4 0 1 0 3 0 0 26 0 52 0 104 0 78 1 0 1 0 1 0 1 0"/>
<path stroke="red" d="M490 696l1 0 2 0 3 0 7 0 9 0 7 0 0 -26 0 -52 0 -104 0 -78 1 0 1 0 1 0 3 0 3 0 1 0 1 0 2 0 0 26 0 52 0 104 0 78 1 0 1 0 2 0 4 0 8 0 9 0 9 0 0 -26 0 -52 0 -104 0 -78 1 0 1 0 2 0 3 0 8 0 0 21 0 41 0 84 0 114 1 0 1 0 1 0 3 0"/>
<path stroke="red" d="M587 696l6 0 7 0 1 0 2 0 1 0 0 -26 0 -52 0 -104 0 -78 1 0 1 0 1 0 2 0 1 0 2 0 2 0 5 0 1 0 2 0 0 26 0 52 0 104 0 78 1 0 1 0 1 0 2 0 3 0 7 0 9 0 9 0 0 -26 0 -52 0 -104 0 -78 1 0 2 0 3 0 1 0 2 0 3 0 0 26 0 52 0 104 0 78 1 0"/>
<path stroke="red" d="M668 696l1 0 1 0 1 0 4 0 6 0 9 0 9 0 0 -26 0 -52 0 -104 0 -78 1 0 1 0 3 0 4 0 1 0 2 0 0 26 0 52 0 104 0 78 1 0 1 0 1 0 1 0 2 0 4 0 8 0 9 0 9 0 0 -26 0 -52 0 -104 0 -78 1 0 2 0 3 0 1 0 1 0 3 0 0 21 0 41 0 84 0 114 1 0 1 0"/>
<path stroke="red" d="M760 696l1 0 1 0 4 0 6 0 8 0 1 0 2 0 1 0 0 -26 0 -52 0 -104 0 -78 1 0 1 0 2 0 1 0 1 0 2 0 2 0 5 0 1 0 1 0 1 0 0 26 0 52 0 104 0 78 1 0 1 0 1 0 2 0 3 0 7 0 9 0 9 0 0 -26 0 -52 0 -104 0 -78 1 0 1 0 2 0 3 0 1 0 2 0 0 26 0 52"/>
<path stroke="red" d="M845 514l0 104 0 78 1 0 1 0 2 0 1 0 1 0 1 0 4 0 6 0 9 0 8 0 0 -26 0 -52 0 -104 0 -78 1 0 1 0 1 0 3 0 3 0 1 0 1 0 2 0 0 26 0 52 0 104 0 78 1 0 1 0 2 0 4 0 8 0 9 0 9 0 0 -26 0 -52 0 -104 0 -78 1 0 1 0 2 0 3 0 1 0 2 0 0 26"/>
<path stroke="red" d="M936 462l0 52 0 104 0 78 1 0 1 0 1 0 1 0 2 0 4 0 8 0 6 0"/>
<path stroke="blue" d="M60 23l45 0"/>
<text stroke="none" fill="white" font-size="16" x="115" y="32">
v(winv02)
</text>
<path stroke="blue" d="M60 436l1 0 2 0 3 0 0 26 0 52 0 104 0 78 1 0 1 0 1 0 1 0 1 0 3 0 4 0 9 0 0 -26 0 -52 0 -104 0 -78 1 0 1 0 2 0 4 0 8 0 9 0 1 0 0 26 0 52 0 104 0 78 1 0 1 0 3 0 5 0 1 0 3 0 1 0 0 -26 0 -52 0 -104 0 -78 1 0 1 0 2 0 3 0 7 0"/>
<path stroke="blue" d="M142 436l9 0 8 0 0 26 0 52 0 104 0 78 1 0 1 0 1 0 3 0 3 0 1 0 1 0 2 0 0 -26 0 -52 0 -104 0 -78 1 0 1 0 2 0 4 0 8 0 9 0 9 0 0 26 0 52 0 104 0 78 1 0 1 0 2 0 3 0 1 0 2 0 1 0 1 0 0 -26 0 -52 0 -104 0 -78 1 0 1 0 2 0 4 0 8 0"/>
<path stroke="blue" d="M234 436l6 0 1 0 2 0 0 26 0 52 0 104 0 78 1 0 1 0 1 0 1 0 2 0 1 0 1 0 3 0 4 0 9 0 0 -26 0 -52 0 -104 0 -78 1 0 1 0 2 0 3 0 6 0 9 0 1 0 1 0 0 26 0 52 0 104 0 78 1 0 1 0 2 0 5 0 9 0 0 -26 0 -52 0 -104 0 -78 1 0 1 0 1 0 3 0"/>
<path stroke="blue" d="M315 436l7 0 9 0 8 0 0 26 0 52 0 104 0 78 1 0 1 0 3 0 4 0 1 0 2 0 1 0 1 0 0 -26 0 -52 0 -104 0 -78 1 0 1 0 2 0 4 0 8 0 9 0 9 0 0 26 0 52 0 104 0 78 1 0 2 0 3 0 1 0 1 0 3 0 1 0 0 -26 0 -52 0 -104 0 -78 1 0 1 0 1 0 4 0 6 0"/>
<path stroke="blue" d="M412 436l8 0 1 0 2 0 0 26 0 52 0 104 0 78 1 0 1 0 1 0 2 0 1 0 1 0 2 0 2 0 5 0 9 0 0 -26 0 -52 0 -104 0 -78 1 0 1 0 1 0 4 0 8 0 9 0 1 0 0 26 0 52 0 104 0 78 1 0 1 0 3 0 4 0 1 0 3 0 1 0 1 0 1 0 0 -26 0 -52 0 -104 0 -78 1 0"/>
<path stroke="blue" d="M490 436l1 0 2 0 3 0 7 0 9 0 7 0 0 26 0 52 0 104 0 78 1 0 1 0 1 0 3 0 3 0 1 0 1 0 2 0 0 -26 0 -52 0 -104 0 -78 1 0 1 0 2 0 4 0 8 0 9 0 9 0 0 26 0 52 0 104 0 78 1 0 1 0 2 0 3 0 8 0 0 -21 0 -41 0 -84 0 -114 1 0 1 0 1 0 3 0"/>
<path stroke="blue" d="M587 436l6 0 7 0 1 0 2 0 0 26 0 52 0 104 0 78 1 0 1 0 1 0 1 0 2 0 1 0 2 0 2 0 5 0 1 0 2 0 1 0 1 0 0 -26 0 -52 0 -104 0 -78 1 0 2 0 3 0 7 0 9 0 9 0 0 26 0 52 0 104 0 78 1 0 2 0 3 0 1 0 2 0 3 0 1 0 0 -26 0 -52 0 -104 0 -78"/>
<path stroke="blue" d="M668 436l1 0 1 0 1 0 4 0 6 0 9 0 9 0 0 26 0 52 0 104 0 78 1 0 1 0 3 0 4 0 1 0 2 0 1 0 1 0 0 -26 0 -52 0 -104 0 -78 1 0 1 0 2 0 4 0 8 0 9 0 9 0 0 26 0 52 0 104 0 78 1 0 2 0 3 0 1 0 1 0 3 0 1 0 0 -26 0 -52 0 -104 0 -78 1 0"/>
<path stroke="blue" d="M760 436l1 0 1 0 4 0 6 0 8 0 1 0 2 0 0 26 0 52 0 104 0 78 1 0 1 0 1 0 2 0 1 0 1 0 2 0 2 0 5 0 1 0 1 0 1 0 1 0 0 -26 0 -52 0 -104 0 -78 1 0 1 0 2 0 3 0 7 0 9 0 9 0 0 26 0 52 0 104 0 78 1 0 1 0 2 0 3 0 1 0 2 0 1 0 1 0 2 0"/>
<path stroke="blue" d="M849 696l0 -26 0 -52 0 -104 0 -78 1 0 1 0 1 0 4 0 6 0 9 0 8 0 0 26 0 52 0 104 0 78 1 0 1 0 1 0 3 0 3 0 1 0 1 0 2 0 0 -26 0 -52 0 -104 0 -78 1 0 1 0 2 0 4 0 8 0 9 0 9 0 0 26 0 52 0 104 0 78 1 0 1 0 2 0 3 0 1 0 2 0 1 0 1 0"/>
<path stroke="blue" d="M938 696l0 -26 0 -52 0 -104 0 -78 1 0 1 0 2 0 4 0 8 0 6 0"/>
<path stroke="#FFA500" d="M450 39l45 0"/>
<text stroke="none" fill="white" font-size="16" x="505" y="48">
v(xnor)+7
</text>
<path stroke="#FFA500" d="M60 332l1 0 2 0 3 0 0 -3 0 -5 0 -10 0 -8 0 -2 0 -3 0 -7 0 -13 0 -27 0 -53 0 -77 0 5 0 11 0 5 0 2 0 4 0 8 0 17 0 2 0 3 0 7 0 13 0 27 0 53 0 25 0 3 0 5 0 10 0 8 1 0 1 0 1 0 1 0 1 0 3 0 4 0 9 0 0 -3 0 -5 0 -10 0 -8 0 -2"/>
<path stroke="#FFA500" d="M87 304l0 -3 0 -7 0 -13 0 -27 0 -53 0 -77 0 5 0 11 0 20 0 16 0 3 0 5 0 10 0 8 0 2 0 4 0 9 0 16 0 33 0 40 0 3 0 5 0 10 0 8 1 0 1 0 2 0 4 0 8 0 9 0 0 -3 0 -5 0 -10 0 -8 0 -2 0 -3 0 -7 0 -13 0 -27 0 -53 0 -106 0 -23 1 0"/>
<path stroke="#FFA500" d="M113 72l0 21 0 2 0 5 0 9 0 19 0 37 0 75 0 66 0 3 0 5 0 10 0 8 1 0 1 0 3 0 5 0 1 0 3 0 0 -3 0 -5 0 -10 0 -8 0 -2 0 -4 0 -9 0 -16 0 -33 0 -67 0 -103 1 0 0 17 0 33 0 66 0 118 0 3 0 5 0 10 0 8 1 0 1 0 2 0 3 0 7 0 9 0 8 0"/>
<path stroke="#FFA500" d="M159 332l0 -3 0 -5 0 -10 0 -8 0 -2 0 -3 0 -7 0 -13 0 -27 0 -26 0 -5 0 -11 0 -21 0 -43 0 -24 0 5 0 11 0 20 0 16 0 3 0 5 0 10 0 8 0 2 0 4 0 9 0 16 0 33 0 66 1 0 1 0 1 0 3 0 3 0 1 0 1 0 2 0 0 -3 0 -5 0 -10 0 -8 0 -2 0 -3"/>
<path stroke="#FFA500" d="M172 301l0 -7 0 -13 0 -27 0 -53 0 -77 0 5 0 11 0 20 0 16 0 3 0 5 0 10 0 8 0 2 0 4 0 9 0 16 0 33 0 40 0 3 0 5 0 10 0 8 1 0 1 0 2 0 4 0 8 0 9 0 9 0 0 -3 0 -5 0 -10 0 -8 0 -2 0 -3 0 -7 0 -13 0 -27 0 -53 0 -77 0 5 0 11 0 20"/>
<path stroke="#FFA500" d="M206 160l0 16 0 3 0 5 0 10 0 8 0 2 0 4 0 9 0 16 0 33 0 40 0 3 0 5 0 10 0 8 1 0 1 0 2 0 3 0 1 0 2 0 0 -26 0 -52 0 -104 0 -78 1 0 1 0 0 17 0 33 0 66 0 118 0 3 0 5 0 10 0 8 1 0 1 0 2 0 4 0 8 0 6 0 1 0 2 0 0 -26 0 -52 0 -104"/>
<path stroke="#FFA500" d="M243 150l0 -78 1 0 0 17 0 33 0 66 0 118 0 3 0 5 0 10 0 8 1 0 1 0 1 0 2 0 1 0 1 0 3 0 4 0 9 0 0 -3 0 -5 0 -10 0 -8 0 -2 0 -3 0 -7 0 -13 0 -27 0 -53 0 -77 0 5 0 11 0 20 0 16 0 3 0 5 0 10 0 8 0 2 0 4 0 9 0 16 0 33 0 40"/>
<path stroke="#FFA500" d="M267 306l0 3 0 5 0 10 0 8 1 0 1 0 2 0 3 0 6 0 9 0 0 -3 0 -5 0 -10 0 -8 0 -2 0 -3 0 -7 0 -13 0 -27 0 -53 0 -106 0 -23 1 0 1 0 0 26 0 52 0 104 0 78 1 0 1 0 2 0 5 0 9 0 0 -3 0 -5 0 -10 0 -8 0 -2 0 -3 0 -7 0 -13 0 -27 0 -53"/>
<path stroke="#FFA500" d="M309 201l0 -77 0 5 0 11 0 20 0 16 0 3 0 5 0 10 0 8 0 2 0 4 0 9 0 16 0 33 0 40 0 3 0 5 0 10 0 8 1 0 1 0 1 0 3 0 7 0 9 0 8 0 0 -3 0 -5 0 -10 0 -8 0 -2 0 -3 0 -7 0 -13 0 -27 0 -26 0 -5 0 -11 0 -21 0 -43 0 -24 0 5 0 11 0 20"/>
<path stroke="#FFA500" d="M339 160l0 16 0 3 0 5 0 10 0 8 0 2 0 4 0 9 0 16 0 33 0 66 1 0 1 0 3 0 4 0 1 0 2 0 0 -26 0 -52 0 -104 0 -78 1 0 1 0 0 17 0 33 0 66 0 118 0 3 0 5 0 10 0 8 1 0 1 0 2 0 4 0 8 0 9 0 9 0 0 -3 0 -5 0 -10 0 -8 0 -2 0 -3 0 -7"/>
<path stroke="#FFA500" d="M387 294l0 -13 0 -27 0 -53 0 -77 0 5 0 11 0 20 0 16 0 3 0 5 0 10 0 8 0 2 0 4 0 9 0 16 0 33 0 40 0 3 0 5 0 10 0 8 1 0 2 0 3 0 1 0 1 0 3 0 0 -17 0 -33 0 -66 0 -134 0 -10 1 0 0 17 0 33 0 66 0 118 0 3 0 5 0 10 0 8 1 0 1 0"/>
<path stroke="#FFA500" d="M401 332l1 0 4 0 6 0 8 0 1 0 2 0 0 -26 0 -52 0 -104 0 -78 1 0 0 17 0 33 0 66 0 118 0 3 0 5 0 10 0 8 1 0 1 0 2 0 1 0 1 0 2 0 2 0 5 0 9 0 0 -3 0 -5 0 -10 0 -8 0 -2 0 -3 0 -7 0 -13 0 -27 0 -53 0 -77 0 5 0 11 0 20 0 16 0 3"/>
<path stroke="#FFA500" d="M448 179l0 5 0 10 0 8 0 2 0 4 0 9 0 16 0 33 0 40 0 3 0 5 0 10 0 8 1 0 1 0 1 0 4 0 8 0 9 0 0 -3 0 -5 0 -10 0 -8 0 -2 0 -3 0 -7 0 -13 0 -27 0 -53 0 -106 0 -23 1 0 0 26 0 52 0 104 0 78 1 0 1 0 3 0 4 0 1 0 3 0 0 -26 0 -52"/>
<path stroke="#FFA500" d="M486 254l0 -104 0 -78 1 0 1 0 1 0 0 17 0 33 0 66 0 118 0 3 0 5 0 10 0 8 1 0 1 0 2 0 3 0 7 0 9 0 7 0 0 -3 0 -5 0 -10 0 -8 0 -2 0 -3 0 -7 0 -13 0 -27 0 -26 0 -5 0 -11 0 -21 0 -43 0 -24 0 5 0 11 0 20 0 16 0 3 0 5 0 10 0 8"/>
<path stroke="#FFA500" d="M519 202l0 2 0 4 0 9 0 16 0 33 0 66 1 0 1 0 1 0 3 0 3 0 1 0 1 0 2 0 0 -3 0 -5 0 -10 0 -8 0 -2 0 -3 0 -7 0 -13 0 -27 0 -53 0 -77 0 5 0 11 0 20 0 16 0 3 0 5 0 10 0 8 0 2 0 4 0 9 0 16 0 33 0 40 0 3 0 5 0 10 0 8 1 0 1 0"/>
<path stroke="#FFA500" d="M534 332l2 0 4 0 8 0 9 0 9 0 0 -3 0 -5 0 -10 0 -8 0 -2 0 -3 0 -7 0 -13 0 -27 0 -53 0 -77 0 5 0 11 0 20 0 16 0 3 0 5 0 10 0 8 0 2 0 4 0 9 0 16 0 33 0 40 0 3 0 5 0 10 0 8 1 0 1 0 2 0 3 0 8 0 0 -3 0 -5 0 -10 0 -8 0 -2 0 -4"/>
<path stroke="#FFA500" d="M581 300l0 -9 0 -16 0 -33 0 -67 0 -51 0 5 0 11 0 20 0 16 0 3 0 5 0 10 0 8 0 2 0 4 0 9 0 16 0 33 0 36 0 1 0 2 0 3 0 7 0 13 0 4 1 0 1 0 1 0 3 0 6 0 7 0 1 0 2 0 0 -26 0 -52 0 -104 0 -78 1 0 0 17 0 33 0 66 0 118 0 3 0 5"/>
<path stroke="#FFA500" d="M604 314l0 10 0 8 1 0 1 0 1 0 2 0 1 0 2 0 2 0 5 0 1 0 2 0 0 -26 0 -52 0 -104 0 -78 1 0 1 0 0 17 0 33 0 66 0 118 0 3 0 5 0 10 0 8 1 0 2 0 3 0 7 0 9 0 9 0 0 -3 0 -5 0 -10 0 -8 0 -2 0 -3 0 -7 0 -13 0 -27 0 -53 0 -77 0 5"/>
<path stroke="#FFA500" d="M655 129l0 11 0 20 0 16 0 3 0 5 0 10 0 8 0 2 0 4 0 9 0 16 0 33 0 40 0 3 0 5 0 10 0 8 1 0 2 0 3 0 1 0 2 0 3 0 0 -26 0 -52 0 -104 0 -78 1 0 0 17 0 33 0 66 0 118 0 3 0 5 0 10 0 8 1 0 1 0 1 0 4 0 6 0 9 0 9 0 0 -3 0 -5 0 -10"/>
<path stroke="#FFA500" d="M699 314l0 -8 0 -2 0 -3 0 -7 0 -13 0 -27 0 -26 0 -5 0 -11 0 -21 0 -43 0 -24 0 5 0 11 0 20 0 16 0 3 0 5 0 10 0 8 0 2 0 4 0 9 0 16 0 33 0 66 1 0 1 0 3 0 4 0 1 0 2 0 0 -26 0 -52 0 -104 0 -78 1 0 1 0 0 17 0 33 0 66 0 118"/>
<path stroke="#FFA500" d="M713 306l0 3 0 5 0 10 0 8 1 0 1 0 2 0 4 0 8 0 9 0 9 0 0 -3 0 -5 0 -10 0 -8 0 -2 0 -3 0 -7 0 -13 0 -27 0 -53 0 -77 0 5 0 11 0 20 0 16 0 3 0 5 0 10 0 8 0 2 0 4 0 9 0 16 0 33 0 40 0 3 0 5 0 10 0 8 1 0 2 0 3 0 1 0 1 0 3 0"/>
<path stroke="#FFA500" d="M758 332l0 -17 0 -33 0 -66 0 -134 0 -10 1 0 0 17 0 33 0 66 0 118 0 3 0 5 0 10 0 8 1 0 1 0 1 0 4 0 6 0 8 0 1 0 2 0 0 -26 0 -52 0 -104 0 -78 1 0 0 17 0 33 0 66 0 118 0 3 0 5 0 10 0 8 1 0 1 0 2 0 1 0 1 0 2 0 2 0 5 0 1 0"/>
<path stroke="#FFA500" d="M800 332l1 0 1 0 0 -26 0 -52 0 -104 0 -78 1 0 0 17 0 33 0 66 0 118 0 3 0 5 0 10 0 8 1 0 1 0 2 0 3 0 7 0 9 0 9 0 0 -3 0 -5 0 -10 0 -8 0 -2 0 -3 0 -7 0 -13 0 -27 0 -53 0 -77 0 5 0 11 0 20 0 16 0 3 0 5 0 10 0 8 0 2 0 4"/>
<path stroke="#FFA500" d="M835 208l0 9 0 16 0 33 0 40 0 3 0 5 0 10 0 8 1 0 1 0 2 0 3 0 1 0 2 0 0 -26 0 -52 0 -104 0 -78 1 0 1 0 2 0 0 17 0 33 0 66 0 118 0 3 0 5 0 10 0 8 1 0 1 0 1 0 4 0 6 0 9 0 8 0 0 -3 0 -5 0 -10 0 -8 0 -2 0 -3 0 -7 0 -13 0 -27"/>
<path stroke="#FFA500" d="M879 254l0 -26 0 -5 0 -11 0 -21 0 -43 0 -24 0 5 0 11 0 20 0 16 0 3 0 5 0 10 0 8 0 2 0 4 0 9 0 16 0 33 0 66 1 0 1 0 1 0 3 0 3 0 1 0 1 0 2 0 0 -3 0 -5 0 -10 0 -8 0 -2 0 -3 0 -7 0 -13 0 -27 0 -53 0 -77 0 5 0 11 0 20 0 16"/>
<path stroke="#FFA500" d="M892 176l0 3 0 5 0 10 0 8 0 2 0 4 0 9 0 16 0 33 0 40 0 3 0 5 0 10 0 8 1 0 1 0 2 0 4 0 8 0 9 0 9 0 0 -3 0 -5 0 -10 0 -8 0 -2 0 -3 0 -7 0 -13 0 -27 0 -53 0 -77 0 5 0 11 0 20 0 16 0 3 0 5 0 10 0 8 0 2 0 4 0 9 0 16 0 33"/>
<path stroke="#FFA500" d="M926 266l0 40 0 3 0 5 0 10 0 8 1 0 1 0 2 0 3 0 1 0 2 0 0 -26 0 -52 0 -104 0 -78 1 0 1 0 0 17 0 33 0 66 0 118 0 3 0 5 0 10 0 8 1 0 1 0 2 0 4 0 8 0 6 0"/>
</svg>
